<svg width="58" height="80" viewBox="0 0 58 80" fill="none" xmlns="http://www.w3.org/2000/svg">
<path d="M46.8867 1C49.113 1.00008 50.3787 1.93071 51.46 2.93164L51.9141 3.3623L51.916 3.36426C52.4119 3.8375 52.9281 4.33335 53.5371 4.6875C54.1882 5.06606 54.9101 5.26753 55.8223 5.26758C55.9988 5.26758 56.1464 5.31609 56.2676 5.39648V5.39551C56.341 5.44508 56.4157 5.48199 56.4883 5.50879V5.50977C56.7654 5.61429 56.8928 5.76624 56.9502 5.90723C57.0108 6.05655 57.0413 6.31511 56.8945 6.7002L56.8906 6.70898L56.8877 6.71875L31.502 77.4082C31.2876 77.9719 30.9904 78.3564 30.6494 78.6025C30.3099 78.8475 29.8658 79 29.2793 79H28.7383C28.1518 79 27.7077 78.8475 27.3682 78.6025C27.0678 78.3858 26.8014 78.0619 26.5957 77.6025L26.5117 77.3975L1.13086 6.71875L1.12695 6.70801L1.12207 6.69727L1.07227 6.55176C0.972858 6.22755 0.997064 6.01174 1.04297 5.88965C1.08693 5.77295 1.19274 5.625 1.49805 5.51367L1.60938 5.47266L1.70801 5.40723C1.84076 5.31917 2.00029 5.26762 2.16309 5.26758C3.08359 5.26758 3.80887 5.06719 4.46191 4.6875C5.07131 4.33311 5.58557 3.83623 6.0791 3.36523C7.28642 2.2153 8.57649 1 11.1211 1C13.3462 1.00013 14.6031 1.92898 15.6924 2.93262L16.1514 3.36523C16.647 3.83822 17.1628 4.33335 17.7734 4.6875C18.4265 5.06625 19.151 5.26758 20.0674 5.26758C20.9841 5.26758 21.7071 5.06631 22.3584 4.68652C22.9657 4.33233 23.4792 3.83616 23.9727 3.36523C25.1817 2.21366 26.4605 1 29.0039 1C31.2291 1.0001 32.4859 1.92899 33.5752 2.93262L34.0342 3.36523C34.5298 3.83822 35.0457 4.33334 35.6562 4.6875C36.3093 5.06624 37.0338 5.26756 37.9502 5.26758C38.8669 5.26758 39.5899 5.06631 40.2412 4.68652C40.8485 4.33234 41.362 3.83616 41.8555 3.36523C43.0645 2.21366 44.3433 1 46.8867 1ZM29.0039 12.6807C23.9562 12.6807 19.8527 16.7574 19.8525 21.793C19.8525 26.8287 23.9561 30.9062 29.0039 30.9062C34.0516 30.9061 38.1543 26.8286 38.1543 21.793C38.1542 16.7575 34.0515 12.6809 29.0039 12.6807Z" fill="#F7F3E5" stroke="#4C352A" stroke-width="2"/>
</svg>
