<svg width="163" height="163" viewBox="0 0 163 163" fill="none" xmlns="http://www.w3.org/2000/svg">
<g clip-path="url(#clip0_795_4171)">
<path d="M162.38 81.19C162.38 88.05 152.44 93.51 150.75 99.83C149.06 106.15 154.82 116.06 151.51 121.79C148.2 127.52 136.82 127.38 132.1 132.1C127.38 136.82 127.6 148.15 121.79 151.51C115.98 154.87 106.37 149 99.83 150.75C93.29 152.5 88.04 162.38 81.19 162.38C74.34 162.38 68.87 152.44 62.55 150.75C56.23 149.06 46.32 154.82 40.59 151.51C34.86 148.2 35 136.82 30.28 132.1C25.56 127.38 14.23 127.6 10.87 121.79C7.51 115.98 13.38 106.37 11.63 99.83C9.88 93.29 0 88.05 0 81.19C0 74.33 9.94 68.87 11.63 62.55C13.32 56.23 7.56 46.32 10.87 40.59C14.18 34.86 25.56 35 30.28 30.28C35 25.56 34.78 14.23 40.59 10.87C46.4 7.51 56.01 13.38 62.55 11.63C69.09 9.88 74.33 0 81.19 0C88.05 0 93.51 9.94 99.83 11.63C106.15 13.32 116.06 7.56 121.79 10.87C127.52 14.18 127.38 25.56 132.1 30.28C136.82 35 148.15 34.78 151.51 40.59C154.87 46.4 149 56.01 150.75 62.55C152.5 69.09 162.38 74.34 162.38 81.19Z" fill="#4C352A"/>
<path d="M48.5333 93.2183H57.8315C61.0028 93.2183 63.322 93.9518 64.7782 95.4296C66.2344 96.9074 66.9679 99.1726 66.9679 102.236V103.8C66.9679 105.817 66.6443 107.468 65.9863 108.73C65.3283 110.003 64.336 110.919 62.9876 111.48V111.588C66.0511 112.635 67.5828 115.364 67.5828 119.775V123.141C67.5828 126.172 66.7846 128.47 65.1989 130.066C63.6132 131.663 61.2833 132.45 58.2198 132.45H48.5225V93.2183H48.5333ZM57.1088 109.183C58.3385 109.183 59.2661 108.87 59.881 108.234C60.4958 107.597 60.8087 106.529 60.8087 105.041V102.851C60.8087 101.427 60.5606 100.402 60.0536 99.7659C59.5466 99.1294 58.7592 98.8166 57.6697 98.8166H54.7033V109.183H57.1088ZM58.2306 126.841C59.3093 126.841 60.1183 126.55 60.6361 125.967C61.1538 125.385 61.4235 124.392 61.4235 122.968V119.549C61.4235 117.758 61.1107 116.518 60.4958 115.817C59.881 115.126 58.8562 114.781 57.4432 114.781H54.6925V126.83H58.2198L58.2306 126.841Z" fill="#F5BAC5"/>
<path d="M73.0736 130.703C71.9194 129.171 71.3369 126.949 71.3369 124.036V119.948C71.3369 117.899 71.6929 116.173 72.4048 114.792C73.1167 113.411 74.2709 112.397 75.8782 111.761V111.653C74.4219 111.06 73.3433 110.089 72.6529 108.762C71.9626 107.435 71.6174 105.731 71.6174 103.638V102.905C71.6174 99.7335 72.3832 97.3173 73.915 95.6777C75.4467 94.0381 77.7443 93.2075 80.8077 93.2075H87.8731V98.8167H80.9264C79.9124 98.8167 79.1466 99.1187 78.5965 99.712C78.0571 100.305 77.7874 101.287 77.7874 102.624V105.03C77.7874 106.529 78.1003 107.586 78.7151 108.223C79.33 108.859 80.2576 109.172 81.4873 109.172H83.8928V104.803H89.9442V109.172H91.6809V114.781H89.9442V127.671C89.9442 128.793 89.9765 129.699 90.0521 130.39C90.1276 131.08 90.3109 131.76 90.613 132.439H84.4537C84.1517 131.619 83.9683 130.595 83.8928 129.354H83.7849C83.1161 130.584 82.3395 131.501 81.455 132.105C80.5812 132.698 79.481 133 78.1758 133C75.9321 133 74.2386 132.234 73.0736 130.703ZM83.8928 123.874V114.792H81.5412C80.1174 114.792 79.0926 115.18 78.4562 115.946C77.8198 116.712 77.507 117.996 77.507 119.786V123.767C77.507 125.072 77.7659 126.01 78.2944 126.571C78.8122 127.132 79.5457 127.413 80.4841 127.413C82.4258 127.413 83.5692 126.237 83.9036 123.885L83.8928 123.874Z" fill="#F5BAC5"/>
<path d="M95.6602 93.2183H105.077C108.141 93.2183 110.438 94.0381 111.97 95.6884C113.502 97.328 114.267 99.7443 114.267 102.916V122.753C114.267 125.924 113.502 128.34 111.97 129.98C110.438 131.619 108.141 132.45 105.077 132.45H95.6602V93.2183ZM104.969 126.841C105.983 126.841 106.749 126.539 107.299 125.945C107.838 125.352 108.108 124.381 108.108 123.033V102.635C108.108 101.287 107.838 100.316 107.299 99.7227C106.76 99.1294 105.983 98.8274 104.969 98.8274H101.83V126.852H104.969V126.841Z" fill="#F5BAC5"/>
<path d="M77.6739 81.1227C75.891 81.1227 73.946 80.3996 71.8889 78.9783C69.0961 77.0333 66.3407 74.6893 63.4481 71.8217C63.286 71.6596 63.1115 71.4851 62.9245 71.3105C60.7925 69.2409 57.2391 65.7623 59.6329 62.2713C61.7899 59.1294 66.8643 54.7657 71.3153 56.4364C71.7766 56.6109 72.0011 57.1221 71.839 57.5709C71.6644 58.0322 71.1532 58.2567 70.7044 58.0946C67.1012 56.7481 62.6003 61.0869 61.0917 63.2812C59.6579 65.3883 61.7151 67.6824 64.1588 70.0637C64.3458 70.2507 64.5328 70.4253 64.6949 70.5874C67.5126 73.3926 70.1932 75.6618 72.8987 77.5569C75.9409 79.6765 78.4968 79.9507 80.5166 78.3798C81.8008 77.3699 83.0226 75.8114 83.858 74.0909C85.6783 70.363 87.9474 65.7374 88.3339 61.1742C88.7329 56.4738 86.9251 52.883 83.9453 52.4342C82.3369 52.1973 80.9031 52.5838 79.8059 53.5438C78.4594 54.7532 77.6864 56.8104 77.7487 59.0546C77.7612 59.5409 77.3747 59.9523 76.8885 59.9648C76.3897 59.9772 75.9908 59.5907 75.9783 59.1045C75.891 56.2992 76.8635 53.7932 78.6215 52.2222C80.1176 50.8882 82.0501 50.3645 84.1946 50.6887C88.1469 51.2747 90.5532 55.6509 90.0795 61.3238C89.668 66.2236 87.3241 71.0238 85.4289 74.8763C84.4814 76.8213 83.0725 78.6167 81.5888 79.7762C80.4044 80.6988 79.0828 81.1601 77.6615 81.1601H77.649L77.6739 81.1227Z" fill="#F7F6EF"/>
<path d="M63.9347 81.1598C61.8401 81.1598 59.8578 81.085 58.1995 80.8606C56.2795 80.5988 53.8607 79.6512 52.8508 77.7811C52.402 76.9582 52.0529 75.6116 52.8758 73.8287C54.1974 70.9861 58.5736 68.3553 60.3939 67.3579C60.8178 67.121 61.3539 67.2831 61.5908 67.707C61.8277 68.1309 61.6656 68.667 61.2417 68.9039C58.5611 70.3751 55.3818 72.6443 54.4841 74.5768C54.0602 75.487 54.0353 76.26 54.4093 76.9457C54.9828 78.0055 56.5662 78.8533 58.4489 79.1151C62.1893 79.6263 68.1863 79.3395 72.55 79.1151C73.3605 79.0777 74.1335 79.0403 74.8317 79.0029C75.3054 78.978 75.7293 79.3645 75.7543 79.8507C75.7792 80.337 75.3927 80.7484 74.9065 80.7733C74.2083 80.7983 73.4353 80.8481 72.6373 80.8855C69.9193 81.0227 66.8273 81.1723 63.9347 81.1723V81.1598Z" fill="#F7F6EF"/>
<path d="M101.488 81.185C100.702 81.185 99.9167 81.1476 99.1437 81.1102C98.4081 81.0728 97.6601 81.0229 96.912 80.9731C93.8075 80.786 90.6157 80.5741 87.4863 80.7237C86.9876 80.7237 86.5886 80.3746 86.5637 79.8759C86.5387 79.3896 86.9128 78.9782 87.4115 78.9533C90.6282 78.8036 93.8823 79.0031 97.0242 79.2026C97.7598 79.2525 98.5079 79.2899 99.2435 79.3398C102.223 79.5143 105.315 79.5268 107.435 77.8436C107.959 77.4322 108.22 76.9335 108.233 76.3475C108.27 75.0882 107.223 73.5796 106.163 72.657C104.829 71.485 103.221 70.7245 101.525 69.9141C100.74 69.54 99.9292 69.1535 99.1437 68.7296C98.7198 68.4927 98.5578 67.9566 98.7946 67.5327C99.0315 67.1088 99.5676 66.9467 99.9916 67.1836C100.727 67.595 101.513 67.9691 102.286 68.3306C104.019 69.1535 105.814 70.0138 107.335 71.3479C108.657 72.5074 110.053 74.4524 110.003 76.4098C109.978 77.5319 109.467 78.5169 108.532 79.2525C106.537 80.8359 104.031 81.1975 101.488 81.1975V81.185Z" fill="#F7F6EF"/>
<path d="M85.5787 81.0851C83.7958 81.0851 82.0005 80.2747 80.2924 78.6788C77.4248 76.0107 75.1806 73.3924 73.4475 70.6869C71.0163 66.8966 69.8319 63.4181 69.9316 60.3386C69.9939 58.4933 70.2184 56.3364 71.4901 54.4039C72.1509 53.394 73.7094 51.0375 76.5645 50.8754C77.0507 50.8505 77.4622 51.2245 77.4871 51.7108C77.512 52.197 77.138 52.6085 76.6518 52.6459C74.9187 52.7456 73.859 54.0173 72.9613 55.3763C71.9264 56.9473 71.7394 58.7925 71.6896 60.3884C71.6023 63.1064 72.687 66.2483 74.9312 69.7269C76.5894 72.3077 78.7339 74.8137 81.4893 77.3821C83.4218 79.165 85.3169 79.7136 87.1372 79.0154C89.0947 78.2549 90.516 76.7338 92.0246 75.1254L92.8475 74.2527C94.5556 72.4448 96.3136 70.5747 97.8845 68.6172C98.9443 67.3081 100.615 64.7646 100.041 62.4207C99.5178 60.2887 97.2736 59.1541 95.2039 58.2564C92.9971 57.2964 91.0771 57.1592 89.3066 57.7951C88.8453 57.9572 88.3466 57.7203 88.1721 57.2715C88.01 56.8101 88.2469 56.3114 88.6957 56.1369C90.9025 55.3265 93.2714 55.501 95.9021 56.6356C98.5329 57.7826 101.064 59.2164 101.75 61.9968C102.473 64.9267 100.79 67.8193 99.256 69.7144C97.6352 71.7217 95.8523 73.6168 94.1192 75.4496L93.2964 76.3223C91.7129 78.0055 90.0921 79.7385 87.7606 80.6487C87.0375 80.923 86.3019 81.0726 85.5663 81.0726L85.5787 81.0851Z" fill="#F7F6EF"/>
<path d="M80.0433 63.0939C77.8115 63.0939 75.9912 61.2735 75.9912 59.0418C75.9912 56.8101 77.8115 54.9897 80.0433 54.9897C82.275 54.9897 84.0953 56.8101 84.0953 59.0418C84.0953 61.2735 82.275 63.0939 80.0433 63.0939ZM80.0433 56.7602C78.784 56.7602 77.7617 57.7825 77.7617 59.0418C77.7617 60.3011 78.784 61.3234 80.0433 61.3234C81.3025 61.3234 82.3249 60.3011 82.3249 59.0418C82.3249 57.7825 81.3025 56.7602 80.0433 56.7602Z" fill="#F7F6EF"/>
<path d="M47.5515 78.9657H23.2517C22.7779 78.9657 22.3789 78.5792 22.3789 78.093C22.3789 77.6067 22.7654 77.2202 23.2517 77.2202H47.5515C48.0253 77.2202 48.4243 77.6067 48.4243 78.093C48.4243 78.5792 48.0378 78.9657 47.5515 78.9657Z" fill="#F7F6EF"/>
<path d="M139.127 78.9657H115.051C114.578 78.9657 114.179 78.5792 114.179 78.093C114.179 77.6067 114.565 77.2202 115.051 77.2202H139.127C139.601 77.2202 140 77.6067 140 78.093C140 78.5792 139.613 78.9657 139.127 78.9657Z" fill="#F7F6EF"/>
<path d="M81.1892 47.4469C80.7154 47.4469 80.3164 47.0604 80.3164 46.5741V22.8728C80.3164 22.399 80.7029 22 81.1892 22C81.6754 22 82.0619 22.3865 82.0619 22.8728V46.5741C82.0619 47.0479 81.6754 47.4469 81.1892 47.4469Z" fill="#F7F6EF"/>
<path d="M57.7249 56.5859C57.513 56.5859 57.2886 56.511 57.1265 56.349L39.6341 39.667C39.285 39.3303 39.2725 38.7818 39.6091 38.4327C39.9458 38.0836 40.4944 38.0711 40.8435 38.4077L58.3359 55.0897C58.685 55.4263 58.6974 55.9749 58.3608 56.324C58.1862 56.4986 57.9618 56.5983 57.7249 56.5983V56.5859Z" fill="#F7F6EF"/>
<path d="M104.767 56.4986C104.531 56.4986 104.306 56.4113 104.132 56.2243C103.795 55.8752 103.807 55.3266 104.157 54.99L121.549 38.4077C121.898 38.0711 122.447 38.0836 122.784 38.4327C123.12 38.7818 123.108 39.3303 122.759 39.667L105.366 56.2492C105.191 56.4113 104.979 56.4861 104.767 56.4861V56.4986Z" fill="#F7F6EF"/>
<path d="M50.6436 66.1361C50.5314 66.1361 50.4191 66.1112 50.3069 66.0613L27.8399 56.6231C27.391 56.4361 27.1915 55.9249 27.3785 55.4761C27.5656 55.0272 28.0767 54.8278 28.5256 55.0148L50.9927 64.4529C51.4415 64.64 51.641 65.1511 51.454 65.6C51.3168 65.9366 50.9927 66.1361 50.6436 66.1361Z" fill="#F7F6EF"/>
<path d="M94.5674 50.0279C94.4427 50.0279 94.318 50.0029 94.2058 49.9531C93.7694 49.7536 93.5824 49.2299 93.7819 48.7935L103.756 27.1992C103.956 26.7628 104.479 26.5758 104.916 26.7753C105.352 26.9748 105.539 27.4984 105.34 27.9348L95.3653 49.5292C95.2157 49.8533 94.904 50.0403 94.5674 50.0403V50.0279Z" fill="#F7F6EF"/>
<path d="M69.22 49.5664C68.8709 49.5664 68.5468 49.3669 68.4096 49.0178L59.4078 26.9372C59.2208 26.4884 59.4328 25.9772 59.8816 25.8026C60.3305 25.6156 60.8416 25.84 61.0162 26.2764L70.018 48.357C70.205 48.8058 69.9931 49.317 69.5442 49.4916C69.432 49.529 69.3323 49.5539 69.22 49.5539V49.5664Z" fill="#F7F6EF"/>
<path d="M112.521 67.3705C112.172 67.3705 111.835 67.1586 111.698 66.797C111.536 66.3482 111.76 65.837 112.209 65.6749L134.888 57.284C135.337 57.1219 135.848 57.3464 136.01 57.7952C136.172 58.244 135.948 58.7552 135.499 58.9173L112.82 67.3082C112.72 67.3456 112.621 67.3581 112.521 67.3581V67.3705Z" fill="#F7F6EF"/>
</g>
<defs>
<clipPath id="clip0_795_4171">
<rect width="162.38" height="162.38" fill="white"/>
</clipPath>
</defs>
</svg>
