<svg width="76" height="80" viewBox="0 0 76 80" fill="none" xmlns="http://www.w3.org/2000/svg">
<path d="M56.7642 28.6192C56.2553 28.5571 55.8126 28.4744 55.221 28.433C51.0094 28.1476 46.7398 27.9366 42.3793 27.8745C40.3686 27.8456 38.358 27.7918 36.3721 27.738C32.9424 27.647 29.4962 27.5973 26.0913 27.6015C24.2337 27.6015 22.3761 27.6097 20.5103 27.6346L19.1078 27.6594L17.879 27.6883L17.5439 27.6966H17.3785C17.3785 27.6966 17.304 27.6842 17.3122 27.7173V27.8L17.2833 28.4744L17.2212 30.303L17.1964 31.7055C17.1426 35.4414 17.2212 39.1607 17.2998 42.8758C17.3826 46.591 17.4819 50.2979 17.5067 54.0048C17.5233 55.8582 17.5109 57.7076 17.4612 59.5527L17.2667 65.1131C17.1302 69.2916 17.0392 73.4825 17.1468 77.6776L17.1675 78.4637L17.184 78.9849C17.184 79.1794 17.2006 79.3697 17.2543 79.5186C17.2874 79.5931 17.2874 79.6634 17.3578 79.7255C17.424 79.7669 17.4943 79.7834 17.5729 79.8082C17.726 79.8579 17.9245 79.862 18.1149 79.8662L19.0126 79.8951C20.0635 79.9199 21.1102 79.9324 22.161 79.9282C24.2585 79.92 26.3561 79.8496 28.4495 79.7627C32.6322 79.5766 36.8065 79.3614 40.9809 79.4814C45.1553 79.589 49.3297 79.9779 53.5372 79.9986C54.4143 80.0027 55.2914 79.9986 56.1684 79.9779L57.5999 79.9406C57.7364 79.9324 57.8647 79.9075 57.9764 79.8827C58.0302 79.8827 58.1005 79.8372 58.1046 79.7751C58.1212 79.7214 58.1336 79.6593 58.146 79.5973C58.1956 79.3532 58.1791 79.0387 58.1956 78.7864C58.2618 77.0322 58.2742 75.2822 58.2784 73.5322C58.2742 70.028 58.1956 66.528 58.146 63.0321C58.1005 59.7348 58.0177 56.4375 58.0219 53.1401C58.0301 51.4935 58.0508 49.8428 58.1336 48.2004C58.2122 46.5538 58.3115 44.9031 58.4108 43.2565C58.5432 41.0845 58.6424 38.8752 58.6879 36.6701C58.7252 34.9863 58.7583 33.3025 58.7542 31.6186L58.7459 30.3527L58.7335 29.6866C58.7252 29.3763 58.7335 29.0784 58.5638 28.8385C58.4852 28.7268 58.3652 28.6068 58.2411 28.5778C58.1046 28.5489 57.9681 28.5116 57.815 28.5116L57.0745 28.4785L55.8085 28.4372C55.2913 28.4206 54.7659 28.4082 54.2488 28.3917C50.7032 28.2386 47.1536 28.2138 43.6287 28.3627C42.1104 28.4248 40.5134 28.4537 39.4005 28.6978C38.6889 28.855 38.7593 28.9709 39.7811 29.0453C40.9313 29.1281 42.1393 29.1943 43.3474 29.215C47.6045 29.2811 51.8823 29.1777 56.1353 29.3639L57.484 29.426C57.5792 29.4466 57.7075 29.4011 57.7654 29.5046C57.8192 29.5956 57.7861 29.7073 57.7985 29.8066C57.8192 30.7416 57.8233 31.7055 57.8233 32.6529C57.8233 34.556 57.7943 36.4633 57.7571 38.3746C57.7281 39.9509 57.6454 41.5975 57.5461 43.1985C57.4551 44.6755 57.3641 46.1483 57.273 47.6253C57.1903 49.1147 57.1365 50.6041 57.1282 52.0976C57.1282 52.4865 57.1324 52.8919 57.1158 53.2601C56.9462 56.9174 57.1158 60.6367 57.1448 64.3105C57.1655 67.1361 57.1531 69.9908 57.2193 72.8371C57.2234 73.0895 57.2192 73.3584 57.2068 73.6066C57.1531 74.5872 57.1407 75.5842 57.1117 76.5813L57.0745 78.0748L57.0455 78.7781C57.0455 78.7781 57.0455 78.7905 57.0414 78.7905C57.0372 78.7905 57.0289 78.7864 57.0289 78.7864L56.2967 78.7988L54.6625 78.8153C53.5744 78.8195 52.4905 78.8112 51.4024 78.7781C49.2263 78.7202 47.0336 78.5878 44.8326 78.4678C42.0938 78.3023 39.2971 78.2072 36.5293 78.2403C33.7574 78.2692 31.0021 78.4058 28.2633 78.5381C26.7243 78.6167 25.1811 78.654 23.6462 78.6747C22.2768 78.6995 20.9074 78.6747 19.538 78.6333L18.5244 78.5919C18.5244 78.5919 18.4707 78.6002 18.4748 78.5754L18.4417 77.1232C18.3383 72.3241 18.5162 67.5085 18.7106 62.6846C18.963 57.8482 18.8926 52.9829 18.7354 48.1673C18.6279 44.7789 18.603 41.3575 18.5824 37.9568C18.5658 35.6565 18.57 33.3562 18.6155 31.0601L18.632 30.1996L18.6568 29.3846V29.2108L18.661 29.1239C18.661 29.0991 18.6486 29.0536 18.6899 29.066L19.0788 29.0536C20.2207 29.0246 21.3749 29.0081 22.5209 28.9998C31.5813 28.9171 40.6665 29.0495 49.731 29.0867L55.3741 29.1405C55.7588 29.1405 56.2056 29.1529 56.5077 29.1198C57.0869 29.0577 58.0177 29.0412 58.0632 28.8964C58.1005 28.7723 57.3392 28.6771 56.7683 28.6109L56.7642 28.6192Z" fill="#5C3A2E"/>
<path d="M31.2461 58.9528C31.1965 58.9445 31.1427 58.9239 31.093 58.9363C30.7207 59.019 30.4187 59.2548 30.2201 59.4989C30.125 59.6148 30.0298 59.7099 29.9346 59.7968C29.7692 59.9499 29.6037 60.1071 29.4506 60.2684C29.1155 60.6201 28.7266 60.9345 28.3129 61.1993C27.9033 61.4641 27.502 61.6296 27.1255 61.522C26.9145 61.4641 26.7739 61.3358 26.6787 61.0876C26.5877 60.8435 26.538 60.558 26.5256 60.2767C26.4967 59.7099 26.6042 59.1266 26.7242 58.5432C26.8235 58.0592 26.9021 57.571 27.0759 57.1118C27.2372 56.6857 27.3696 56.2306 27.6799 55.8955C27.7833 55.7879 27.8826 55.6762 27.986 55.5686C28.1432 55.4031 28.3377 55.2914 28.5032 55.1466C28.528 55.1218 28.557 55.1053 28.5859 55.0887C28.7969 54.9853 29.0079 54.9232 29.2065 54.7991C29.2934 54.7453 29.3885 54.7122 29.4465 54.5674C29.4837 54.4723 29.4754 54.4102 29.3927 54.3854C29.2975 54.3523 29.1982 54.3399 29.1031 54.344C28.7597 54.3813 28.4618 54.5674 28.1929 54.7536C27.9488 54.9191 27.713 55.1094 27.5351 55.3452C27.4606 55.4404 27.3737 55.5355 27.291 55.6266C27.1338 55.7962 26.9973 55.9865 26.9062 56.1933C26.8938 56.2223 26.8856 56.2513 26.869 56.2719C26.6746 56.4912 26.6208 56.7767 26.5174 57.029C26.4346 57.2235 26.3436 57.4221 26.3271 57.6331C26.3271 57.6538 26.3146 57.6703 26.3064 57.6869C26.2236 57.8151 26.2112 57.964 26.174 58.1047C26.083 58.4109 26.054 58.717 25.9878 59.0397C25.9092 59.4369 25.8223 59.8547 25.8637 60.2933C25.8761 60.4174 25.8761 60.5374 25.8926 60.6615C25.9216 60.8849 25.9299 61.1 26.0209 61.34C26.0995 61.5427 26.2278 61.7785 26.4305 61.9523C26.6291 62.1219 26.8566 62.2212 27.0841 62.2667C27.5434 62.3618 27.986 62.2253 28.3087 62.0309C28.5404 61.8902 28.768 61.7909 28.9872 61.6585C29.281 61.4765 29.5499 61.2614 29.7899 61.0173C30.0257 60.7773 30.2532 60.5291 30.4601 60.2684C30.6711 60.0037 30.8366 59.7347 31.0351 59.5113C31.1179 59.4203 31.2089 59.3417 31.3082 59.2755C31.3289 59.259 31.3537 59.2507 31.362 59.2217C31.3785 59.168 31.4282 59.1266 31.4033 59.0521C31.3826 58.9859 31.3123 58.9735 31.2585 58.9611L31.2461 58.9528Z" fill="#5C3A2E"/>
<path d="M34.8329 58.4647C34.7998 58.4647 34.7626 58.4522 34.7419 58.4564C34.5971 58.4853 34.4812 58.506 34.4275 58.5764C34.4026 58.6095 34.3613 58.626 34.324 58.6467C34.2578 58.6798 34.1999 58.7212 34.1544 58.7791C33.9517 59.0273 33.658 59.2424 33.3601 59.4865C33.0167 59.7513 32.6444 60.0119 32.2513 60.0906C32.0859 60.1236 31.9121 60.1526 31.7342 60.1278C31.5687 60.103 31.3908 60.1609 31.2212 60.0864C31.1674 60.0616 31.1095 60.0492 31.0516 60.0409C30.9647 60.0326 30.8778 59.983 30.7909 60.0037C30.7785 60.0037 30.762 60.0078 30.7496 60.0037C30.6585 59.9706 30.5675 59.9375 30.4723 59.9995C30.431 60.0285 30.3896 60.0368 30.3565 60.1774C30.3358 60.2643 30.3358 60.3264 30.3565 60.3677C30.3855 60.4132 30.4144 60.4505 30.4475 60.467C30.5551 60.5291 30.6709 60.496 30.7785 60.5084C30.8778 60.5208 30.9771 60.5456 31.0764 60.5374C31.1178 60.5332 31.1591 60.5456 31.2005 60.5663C31.275 60.5994 31.3536 60.6284 31.428 60.6242C31.4363 60.6242 31.4487 60.616 31.457 60.6242C31.548 60.7111 31.6473 60.6656 31.7507 60.6904C31.8293 60.7111 31.9121 60.7442 31.999 60.707C32.0072 60.707 32.0155 60.707 32.0238 60.7153C32.0858 60.7649 32.1479 60.7318 32.2141 60.736C32.3589 60.7442 32.4996 60.678 32.632 60.6408C32.7974 60.5953 32.9588 60.5622 33.0829 60.4629C33.116 60.4339 33.1574 60.4215 33.1946 60.4008C33.2608 60.3636 33.3353 60.3553 33.3973 60.314C33.6124 60.165 33.8565 60.0533 34.0386 59.834C34.1006 59.7554 34.1958 59.7348 34.2785 59.681C34.3902 59.6148 34.4895 59.5238 34.5723 59.4203C34.7378 59.2176 34.9198 59.0232 35.015 58.7749C35.0398 58.7294 35.0605 58.6798 35.077 58.626C35.077 58.6177 35.0853 58.6053 35.077 58.5888C35.048 58.5557 35.0439 58.5267 34.9736 58.4895C34.9115 58.4605 34.866 58.4564 34.8329 58.4522V58.4647Z" fill="#5C3A2E"/>
<path d="M41.8206 50.149C41.7834 50.1779 41.7379 50.1986 41.7131 50.2317C41.5311 50.4882 41.3821 50.7613 41.3076 51.055C41.2745 51.1915 41.2249 51.3239 41.1753 51.4522C41.0925 51.6797 41.0263 51.9114 40.9808 52.1431L40.716 53.7111C40.6705 54.2241 40.6291 54.7371 40.5836 55.2542C40.5216 55.8127 40.3892 56.3754 40.2072 56.9215C40.0169 57.4635 39.8141 58.0178 39.4915 58.4688C39.2267 58.8453 38.846 59.1431 38.3951 59.2673C37.9772 59.3831 37.5263 59.4824 37.0877 59.3707C36.9429 59.3335 36.7981 59.3004 36.6575 59.2673C36.4382 59.2135 36.2314 59.1142 36.0079 59.0645C35.9749 59.0563 35.9376 59.048 35.9087 59.0314C35.6894 58.928 35.4742 58.8122 35.226 58.7832C35.1185 58.7708 35.0109 58.7418 34.8868 58.8411C34.8082 58.9032 34.7875 58.9653 34.8413 59.0273C34.8992 59.0976 34.9654 59.1638 35.0357 59.2093C35.2922 59.3707 35.5942 59.4452 35.8838 59.5486C36.1445 59.6396 36.4093 59.7348 36.6906 59.7679C36.8064 59.7844 36.9264 59.8134 37.0422 59.8423C37.2615 59.8961 37.4891 59.9251 37.7207 59.9044C37.7497 59.9044 37.7828 59.892 37.8117 59.8961C38.1055 59.954 38.391 59.8465 38.6723 59.7679C38.8915 59.7058 39.1274 59.6313 39.3094 59.4658C39.326 59.4534 39.3466 59.441 39.3673 59.4327C39.5328 59.379 39.6528 59.2383 39.7728 59.1266C40.0458 58.8701 40.2072 58.5474 40.3602 58.2537C40.5547 57.8855 40.7285 57.5379 40.836 57.1532C40.865 57.0456 40.9105 56.9422 40.9436 56.8346C41.0056 56.6443 41.0925 56.4623 41.1339 56.2637C41.2125 55.9203 41.287 55.5728 41.3325 55.2211C41.3656 54.8819 41.3904 54.5426 41.3904 54.2034C41.3863 53.9593 41.4524 53.7317 41.5145 53.5083C41.5848 53.2022 41.6428 52.8878 41.68 52.5733C41.771 51.9486 41.9282 51.3322 42.0234 50.7033L42.0979 50.3145C42.102 50.2896 42.1103 50.2565 42.0979 50.2317C42.0689 50.1821 42.0647 50.1159 41.9861 50.0952C41.9199 50.0786 41.8703 50.12 41.8289 50.149H41.8206Z" fill="#5C3A2E"/>
<path d="M40.4969 58.6425C40.5259 58.6425 40.5672 58.6425 40.5838 58.6467C40.6996 58.6508 40.7741 58.6798 40.7782 58.6756C40.7782 58.6756 40.7948 58.6756 40.8113 58.6756C40.8361 58.6756 40.8444 58.6798 40.832 58.6756C40.7782 58.6674 40.7369 58.6591 40.6541 58.6343C40.559 58.6053 40.5135 58.5805 40.5176 58.5722C40.5176 58.5722 40.4969 58.5556 40.5176 58.5598C40.5383 58.5598 40.4886 58.5391 40.5466 58.5598C40.5672 58.5681 40.5796 58.5681 40.5838 58.5722C40.592 58.5722 40.6293 58.5887 40.6127 58.5805C40.6376 58.5887 40.6665 58.6012 40.6127 58.5805C40.5921 58.5681 40.5797 58.5639 40.4721 58.5143C40.3893 58.477 40.3314 58.4481 40.2942 58.4315C40.2487 58.4108 40.2114 58.3984 40.1949 58.3902C40.137 58.3695 40.1701 58.3902 40.1577 58.3902C40.1452 58.3902 40.1204 58.386 40.1328 58.3902C40.137 58.3902 40.1246 58.3902 40.108 58.386C40.0749 58.3778 40.0501 58.3695 40.0501 58.3777C39.9632 58.3488 40.0087 58.3736 39.9839 58.3695C39.9632 58.3695 39.926 58.3571 39.9591 58.3736C39.9591 58.3736 39.9591 58.3736 39.9508 58.3736C39.897 58.3571 39.9218 58.3736 39.9094 58.3736C39.8846 58.3736 39.9136 58.3902 39.9094 58.3943C39.9011 58.4026 39.8722 58.4026 39.9094 58.4233C39.9177 58.4274 39.9136 58.4315 39.9177 58.4357C39.9218 58.4398 39.897 58.4398 39.9094 58.4481C39.9508 58.477 39.9425 58.4895 40.0377 58.5267C40.0708 58.5391 40.0418 58.5391 40.0377 58.5432C40.0335 58.5474 40.0459 58.5598 40.0708 58.5681C40.1246 58.5887 40.1204 58.597 40.1742 58.6218C40.1825 58.6218 40.1866 58.6301 40.1949 58.6343C40.1949 58.6343 40.1949 58.6343 40.2156 58.6343C40.257 58.6343 40.2735 58.6343 40.3562 58.6425C40.4224 58.6425 40.4638 58.6425 40.4969 58.6467V58.6425Z" fill="#5C3A2E"/>
<path d="M46.9797 55.9948C47.0169 56.0237 47.0459 56.0609 47.0872 56.0775C47.3727 56.1933 47.6168 56.3216 47.8692 56.4167C47.985 56.4664 48.0926 56.5284 48.1877 56.6029C48.3532 56.7312 48.5063 56.8636 48.6469 57.0001C48.9572 57.2938 49.1393 57.7282 49.16 58.1792C49.1682 58.4026 49.1434 58.6343 49.0689 58.8453C48.9945 59.0604 48.8869 59.2424 48.7131 59.4493L48.4111 59.8092C48.316 59.9292 48.2415 60.0078 48.1505 60.0574C48.0512 60.1112 47.9023 60.1443 47.7575 60.1774C47.6127 60.2105 47.4637 60.2395 47.3148 60.256C46.719 60.3346 46.1026 60.3015 45.5151 60.1609C45.0228 60.045 44.5346 59.8795 44.1002 59.6106C43.6823 59.3583 43.2397 59.1349 42.7474 58.9487C42.586 58.8866 42.3957 58.8577 42.2178 58.8618C41.9737 58.8701 41.7337 58.8784 41.4896 58.8866C41.4566 58.8866 41.4235 58.8866 41.3945 58.8784C41.1794 58.8204 41.0098 58.7046 40.8029 58.6094C40.7119 58.5681 40.6374 58.5019 40.4802 58.5184C40.3768 58.5267 40.3271 58.5598 40.3437 58.6508C40.3644 58.7542 40.4057 58.8577 40.476 58.9404C40.7201 59.2383 41.1215 59.3707 41.5021 59.3831C41.8372 59.3955 42.1226 59.35 42.3502 59.3459C42.4453 59.3459 42.5488 59.3665 42.6398 59.4079C42.8136 59.4824 42.979 59.5734 43.1611 59.6603C43.1859 59.6727 43.2149 59.6768 43.2314 59.6975C43.4134 59.8878 43.6699 59.9871 43.914 60.1443C44.1002 60.2643 44.2988 60.4008 44.5222 60.4546C44.5429 60.4587 44.5594 60.4712 44.576 60.4836C44.7042 60.5911 44.8697 60.6201 45.0187 60.678C45.3496 60.8021 45.7054 60.8476 46.0571 60.8931C46.4915 60.9552 46.9424 60.9924 47.381 60.9138C47.5051 60.8973 47.6292 60.8766 47.7492 60.86C47.9684 60.8104 48.1753 60.8269 48.4815 60.678C48.7545 60.5291 48.8993 60.3264 49.0027 60.2147C49.1103 60.0905 49.2427 59.9581 49.3709 59.7968C49.6398 59.4741 49.826 59.0438 49.8467 58.6343C49.8674 58.3447 49.9005 58.0592 49.8591 57.7737C49.8054 57.389 49.6481 57.0166 49.404 56.7146C48.9241 56.1271 48.2332 55.7548 47.5133 55.6969C47.3644 55.6803 47.2155 55.6762 47.0707 55.6845C47.0417 55.6845 47.0045 55.6845 46.9838 55.7093C46.9383 55.7507 46.8721 55.7755 46.8762 55.8541C46.8762 55.9203 46.9383 55.9617 46.9797 55.9906V55.9948Z" fill="#5C3A2E"/>
<path d="M41.5476 51.1791C41.5889 51.1915 41.6303 51.2163 41.6675 51.2163C41.9364 51.2246 42.1681 51.266 42.4081 51.2619C42.5198 51.2619 42.6315 51.2825 42.7391 51.3115C42.9252 51.3611 43.1197 51.4149 43.3224 51.4604C43.5417 51.5101 43.7651 51.5804 43.9967 51.6549C44.2326 51.7335 44.4643 51.8038 44.6628 51.8866C44.8656 51.9693 45.0352 52.0603 45.2007 52.1969C45.3662 52.3292 45.5192 52.4947 45.6682 52.6768C46.3384 53.4876 46.7355 54.5633 46.7355 55.6514C46.7355 55.8748 46.7273 56.0982 46.6694 56.305C46.6156 56.5119 46.5039 56.7022 46.3674 56.8801C46.1026 57.2194 45.8626 57.5917 45.5399 57.8937C45.4324 57.993 45.333 58.1006 45.2379 58.2081C45.0931 58.3778 44.9193 58.5226 44.7994 58.7087C44.7787 58.7377 44.7621 58.7667 44.7373 58.7915C44.5677 58.957 44.398 59.1183 44.3029 59.3417C44.2615 59.4369 44.2077 59.532 44.2657 59.6768C44.3029 59.772 44.3526 59.8092 44.427 59.7803C44.5098 59.7472 44.5884 59.7099 44.6504 59.6561C44.8697 59.47 45.0228 59.2217 45.2089 59.0066C45.3744 58.8122 45.5523 58.626 45.7013 58.4191C45.7633 58.3323 45.8419 58.2536 45.9205 58.1792C46.0695 58.0427 46.2143 57.9061 46.3342 57.7448C46.3508 57.7241 46.3632 57.6993 46.3839 57.6869C46.6073 57.5462 46.719 57.3352 46.8886 57.1201C47.0169 56.9587 47.1741 56.7684 47.2155 56.516C47.2155 56.4954 47.2279 56.4747 47.2403 56.454C47.3354 56.305 47.3396 56.1313 47.3644 55.9782C47.414 55.6348 47.3644 55.3287 47.3396 55.0101C47.3065 54.6171 47.2485 54.2158 47.0955 53.8476C47.05 53.7441 47.021 53.6366 46.9755 53.5332C46.901 53.3511 46.8431 53.1567 46.748 52.9829C46.5742 52.6809 46.388 52.3872 46.1729 52.1141C45.9536 51.8411 45.6806 51.5763 45.3413 51.4108C45.1055 51.2991 44.8945 51.175 44.6794 51.084C44.3898 50.964 44.1002 50.8647 43.7899 50.7861C43.19 50.6371 42.5198 50.5048 41.8868 50.7033C41.7586 50.7406 41.6303 50.7902 41.5103 50.8523C41.4855 50.8647 41.4565 50.8771 41.4483 50.9061C41.4276 50.9598 41.3821 51.0095 41.4193 51.0798C41.4524 51.1377 41.5145 51.1502 41.56 51.1667L41.5476 51.1791Z" fill="#5C3A2E"/>
<path d="M31.0764 58.4605C31.0764 58.4233 31.0929 58.3778 31.0888 58.3364C31.0805 58.1875 31.064 57.9103 31.0309 57.6951C30.9978 57.4676 30.9564 57.24 30.8902 57.0208C30.8323 56.8139 30.7868 56.6071 30.7413 56.4002C30.6668 56.0444 30.5675 55.6886 30.4599 55.3494C30.2241 54.6171 30.0669 53.9138 30.2903 53.3097C30.5096 52.6892 31.0516 52.1679 31.7052 51.8535C31.8831 51.7666 32.0651 51.6963 32.2554 51.6342C32.3547 51.6052 32.4458 51.5763 32.5492 51.5515C32.6857 51.5184 32.8429 51.4894 33.0002 51.4687C33.0581 51.3777 33.1077 51.328 33.1573 51.2825L33.1946 51.2536C33.1946 51.2536 33.2236 51.2329 33.2029 51.2288C33.1822 51.2163 33.1656 51.1915 33.1532 51.1626C33.116 51.0798 33.1036 50.9392 33.116 50.7778C33.1077 50.5792 33.2029 50.4013 33.3849 50.2317C33.5628 50.0703 33.7945 49.9255 34.0179 49.7849C34.4647 49.5036 34.9405 49.2677 35.4328 49.0733C36.1154 48.8044 36.827 48.5934 37.5593 48.5106C38.2419 48.432 38.9576 48.3162 39.5534 48.6679C39.7478 48.7754 39.9382 48.8954 40.1243 49.0236C40.4098 49.2181 40.6456 49.4705 40.9021 49.698C40.9393 49.7352 40.9807 49.7683 41.0138 49.8097C41.2414 50.0952 41.4275 50.3972 41.6675 50.6702C41.7709 50.7902 41.8578 50.9267 42.0357 50.9722C42.1474 51.0012 42.2012 50.9722 42.1888 50.8523C42.1722 50.7199 42.1433 50.5834 42.0853 50.4592C41.8909 50.0207 41.564 49.6566 41.2289 49.3132C40.9311 49.0071 40.6042 48.7216 40.2236 48.5106C40.0664 48.4196 39.9051 48.3286 39.7396 48.2334C39.4376 48.068 39.0735 47.948 38.7177 47.9356C38.6722 47.9356 38.6225 47.9356 38.5812 47.9273C38.1468 47.8363 37.7455 47.9356 37.3359 47.9728C37.0215 48.0059 36.7029 48.0307 36.4009 48.1424C36.3761 48.1507 36.343 48.1548 36.314 48.159C36.0865 48.1631 35.8755 48.2541 35.6603 48.3162C35.1887 48.4486 34.7419 48.6679 34.3033 48.8871C34.0262 49.0195 33.7573 49.1684 33.4925 49.3298C33.2442 49.4911 32.9464 49.6525 32.6899 50.0042C32.5533 50.1903 32.4292 50.4799 32.4416 50.753V50.8026L32.4499 50.8233C32.4623 50.8316 32.4333 50.8233 32.4333 50.8316C32.4333 50.8316 32.4582 50.8357 32.3217 50.8688C32.1851 50.9019 32.0527 50.9391 31.9203 50.9805C31.6556 51.0633 31.3908 51.1708 31.1384 51.3074C30.6337 51.5763 30.1828 51.9734 29.8973 52.474C29.6946 52.8216 29.5042 53.198 29.438 53.6076C29.347 54.162 29.4546 54.6957 29.5994 55.1797C29.9014 56.1189 30.1952 57.029 30.5137 57.9475C30.5841 58.1378 30.6171 58.3198 30.7371 58.5391C30.7619 58.5805 30.7992 58.6343 30.8488 58.6508C30.9316 58.6922 31.0722 58.7087 31.0805 58.626C31.0888 58.5598 31.0515 58.5101 31.0557 58.4646L31.0764 58.4605Z" fill="#5C3A2E"/>
<path d="M42.0812 59.0811C42.0812 59.0811 42.1102 59.0894 42.1268 59.0894C42.2385 59.0769 42.3502 59.0438 42.4329 58.9735C42.4702 58.9446 42.5074 58.9115 42.5529 58.8784C42.6191 58.8204 42.677 58.7584 42.7266 58.688C42.9294 58.3778 43.0535 58.0427 43.1362 57.7034C43.2273 57.3187 43.281 56.9339 43.3265 56.5491C43.3389 56.3878 43.3514 56.2306 43.3679 56.0651C43.3845 55.912 43.3679 55.7589 43.3927 55.61C43.401 55.5604 43.4051 55.5107 43.4051 55.4569C43.4051 55.3783 43.4217 55.3039 43.4176 55.2252C43.4176 55.2128 43.4176 55.2004 43.4176 55.188C43.4258 55.1053 43.4341 55.0267 43.4176 54.9439C43.4093 54.9108 43.3969 54.8736 43.3679 54.8446C43.3514 54.8281 43.3431 54.8281 43.3307 54.8529C43.3141 54.8777 43.3017 54.9067 43.2934 54.9356C43.2769 55.0349 43.2852 55.1301 43.2769 55.2294C43.2728 55.3163 43.2645 55.4031 43.2645 55.49C43.2645 55.5273 43.2603 55.5645 43.2521 55.6017C43.2397 55.6679 43.2272 55.7341 43.2272 55.8044C43.2272 55.8127 43.2272 55.821 43.2272 55.8293C43.1941 55.912 43.2024 55.9948 43.19 56.0775C43.1776 56.1396 43.161 56.2058 43.1652 56.2678C43.1652 56.272 43.1652 56.2802 43.1611 56.2844C43.1404 56.3257 43.1445 56.3754 43.1362 56.4168C43.1197 56.516 43.1155 56.6112 43.099 56.7105C43.0783 56.8305 43.0452 56.9504 43.0328 57.0746C43.0287 57.1077 43.0204 57.1408 43.0121 57.178C42.9997 57.24 42.979 57.298 42.9666 57.3559C42.9252 57.5669 42.8549 57.7696 42.797 57.9806C42.7804 58.0551 42.7349 58.1213 42.7018 58.1875C42.6522 58.2743 42.6067 58.3571 42.5529 58.4564C42.4536 58.6301 42.3171 58.7791 42.1681 58.9073C42.135 58.9363 42.1019 58.957 42.0688 58.9818C42.0606 58.9859 42.0523 58.9901 42.0523 58.9983C42.0481 59.0149 42.0316 59.0314 42.0399 59.0563C42.0482 59.0769 42.0688 59.0811 42.0854 59.0811H42.0812Z" fill="#5C3A2E"/>
<path d="M35.1805 58.9115C35.1722 58.8825 35.1764 58.837 35.1681 58.8204C35.1185 58.6839 35.1226 58.5846 35.0688 58.5267C35.044 58.4977 35.0316 58.4605 35.0274 58.4191C35.015 58.3529 34.9985 58.2909 34.9612 58.2164C34.8785 58.0633 34.8247 57.8441 34.7626 57.6041C34.7006 57.3683 34.6344 57.1366 34.5558 56.9008C34.382 56.3754 34.2455 55.8458 34.1669 55.308C34.1338 55.0846 34.0759 54.8612 34.0676 54.6336C34.0593 54.4185 33.9725 54.2158 34.018 53.9965C34.0345 53.9262 34.0386 53.8517 34.0386 53.7814C34.0386 53.6738 34.0759 53.5662 34.0511 53.4587C34.0511 53.4421 34.0428 53.4256 34.0511 53.409C34.0759 53.2973 34.109 53.1856 34.0386 53.0739C34.0097 53.0243 33.9973 52.9746 33.8607 52.9374C33.7739 52.9126 33.7118 52.9126 33.6705 52.9457C33.6249 52.9829 33.5877 53.0243 33.5711 53.0615C33.5132 53.2063 33.5546 53.347 33.5505 53.4918C33.5505 53.62 33.5339 53.7483 33.5587 53.8765C33.567 53.9303 33.5587 53.9841 33.5505 54.0379C33.5298 54.1372 33.5132 54.2406 33.5298 54.3358C33.5298 54.3482 33.5422 54.3606 33.5298 54.373C33.4594 54.5012 33.5215 54.6212 33.5132 54.7412C33.5091 54.8364 33.4843 54.9356 33.5298 55.0225C33.5339 55.0308 33.5298 55.0391 33.5298 55.0474C33.4884 55.1177 33.5215 55.1797 33.5215 55.2459C33.5215 55.3907 33.5712 55.5273 33.5877 55.6679C33.6084 55.8458 33.6084 56.0279 33.6705 56.1975C33.687 56.2471 33.6911 56.2968 33.7035 56.3464C33.7242 56.4333 33.7118 56.5243 33.7366 56.6153C33.8277 56.9215 33.869 57.2318 34.0097 57.5255C34.0594 57.6289 34.0511 57.7406 34.0635 57.8523C34.08 58.0054 34.1214 58.1626 34.1917 58.3198C34.3241 58.6219 34.5144 58.9652 34.8537 59.1059C34.9199 59.139 34.9902 59.1638 35.0647 59.1762C35.0812 59.1762 35.0978 59.1845 35.1143 59.168C35.1433 59.1349 35.1805 59.1225 35.1929 59.0397C35.2053 58.9735 35.1929 58.928 35.1846 58.8949L35.1805 58.9115Z" fill="#5C3A2E"/>
<path d="M37.5966 58.4357C37.5966 58.4357 37.638 58.415 37.6587 58.3984C37.791 58.2743 37.9317 58.1502 38.0103 57.9889C38.0476 57.9144 38.0931 57.8441 38.1386 57.7737C38.2172 57.6537 38.2792 57.5255 38.333 57.3931C38.573 56.8222 38.7757 56.2388 38.9122 55.6431C39.0694 54.9687 39.1853 54.2944 39.268 53.6117C39.3011 53.3263 39.3177 53.0408 39.3383 52.7554C39.359 52.4864 39.3425 52.2134 39.3632 51.9445C39.3673 51.8535 39.3714 51.7624 39.3714 51.6756C39.3714 51.539 39.3715 51.3984 39.3549 51.2618C39.3549 51.2412 39.3508 51.2205 39.3508 51.1998C39.3508 51.055 39.3425 50.9102 39.3053 50.7654C39.2929 50.7033 39.268 50.6413 39.2225 50.5999C39.1977 50.5751 39.1936 50.5792 39.177 50.6206C39.1522 50.6702 39.1481 50.7199 39.1481 50.7695C39.1481 50.9433 39.177 51.1129 39.1812 51.2867C39.1853 51.4397 39.1894 51.5928 39.1977 51.75C39.1977 51.8121 39.1977 51.8824 39.1936 51.9445C39.1853 52.0644 39.177 52.1844 39.1729 52.3044C39.1729 52.321 39.1729 52.3375 39.1729 52.3499C39.1398 52.4947 39.1522 52.6478 39.1315 52.7926C39.1149 52.9043 39.0943 53.0201 39.0984 53.136C39.0984 53.1442 39.0984 53.1567 39.0901 53.1649C39.0612 53.2435 39.0612 53.3221 39.0488 53.4049C39.0239 53.5828 39.0032 53.7565 38.9784 53.9303C38.9453 54.1496 38.8874 54.3606 38.8584 54.584C38.8502 54.646 38.8336 54.704 38.8212 54.766C38.7964 54.8736 38.7633 54.9811 38.7426 55.0887C38.6598 55.4693 38.544 55.8375 38.4489 56.2181C38.4116 56.3505 38.3578 56.4788 38.3041 56.6029C38.2296 56.7725 38.1634 56.9463 38.0972 57.1201C37.9648 57.4634 37.7952 57.7903 37.6338 58.1212L37.5304 58.3281C37.5304 58.3281 37.5139 58.3571 37.5139 58.3736C37.5139 58.4026 37.5015 58.4398 37.5263 58.4564C37.547 58.4688 37.5759 58.4522 37.5966 58.4398V58.4357Z" fill="#5C3A2E"/>
<path d="M25.0362 41.4733C25.0362 41.312 25.061 41.1713 25.0652 40.9934C25.0734 40.679 25.1231 40.3687 25.2348 40.1164C25.3465 39.8681 25.5451 39.6447 25.7726 39.3965C26.236 38.8918 26.6911 38.3705 27.1337 37.8326C27.5433 37.3362 27.9571 36.8604 28.3956 36.4384C29.1361 35.7061 30.0132 35.1683 30.9689 34.7629C32.0115 34.3161 33.1409 34.0389 34.291 33.8196C35.4453 33.6045 36.6161 33.41 37.7828 33.257C40.1079 32.9549 42.4702 32.8556 44.758 33.3149C46.0406 33.5672 47.29 34.0058 48.4194 34.6594C48.9738 34.9863 49.4868 35.3917 49.8261 35.913C50.1653 36.4384 50.3763 37.0838 50.5997 37.7044C50.8107 38.325 50.9679 38.9662 50.9183 39.5992C50.8728 40.2363 50.6452 40.8569 50.306 41.4072C49.6233 42.5242 48.4856 43.2937 47.2858 43.8233C45.2504 44.7003 43.0535 45.2257 40.8319 45.354C39.7852 45.4161 38.7302 45.4367 37.6794 45.4409C36.6244 45.4409 35.5694 45.4202 34.5227 45.3168C33.8318 45.2547 33.1368 45.172 32.4459 45.0727C31.3909 44.9196 30.3566 44.659 29.3389 44.3611C29.1816 44.3197 29.0244 44.2659 28.8713 44.208C28.3459 44.0177 27.8453 43.7777 27.3447 43.5336C26.8524 43.2771 26.3518 43.0331 25.9174 42.7228C25.5327 42.458 25.2472 42.0981 25.0238 41.8085C24.8873 41.614 24.8128 41.6347 24.8873 41.9905C24.9907 42.3835 25.2472 42.7435 25.5492 43.0248C25.8181 43.2689 26.116 43.4757 26.418 43.6454C26.72 43.815 27.0262 43.9887 27.3447 44.1294C27.9736 44.4314 28.6314 44.6714 29.2933 44.8741C30.4766 45.2464 31.697 45.4988 32.9299 45.6271C33.4388 45.6808 33.9683 45.7346 34.4855 45.7884C35.437 45.8836 36.3886 45.9332 37.3443 45.9332C37.4684 45.9332 37.5966 45.9291 37.7166 45.9332C38.8833 46.0201 40.0872 45.958 41.2787 45.8794C42.1971 45.8174 43.1321 45.7139 44.0382 45.4781C44.1168 45.4574 44.2037 45.4409 44.2864 45.4285C44.9277 45.3292 45.5606 45.1223 46.1812 44.9237C47.5382 44.4852 48.92 43.8481 50.0205 42.7766C50.699 42.1063 51.241 41.2665 51.4809 40.3025C51.5968 39.8226 51.6298 39.3055 51.5678 38.8173C51.5057 38.3291 51.3734 37.874 51.2203 37.4438C51.0424 36.9638 50.8893 36.5005 50.6535 36.0082C50.4466 35.5738 50.1446 35.1394 49.7888 34.8042C49.433 34.4609 49.04 34.1878 48.6346 33.9603C47.2238 33.1701 45.6765 32.6902 44.1126 32.4502C42.5447 32.2103 40.9601 32.2061 39.4087 32.3633C38.3206 32.4709 37.2243 32.5785 36.1403 32.7357C34.6841 32.9549 33.2071 33.1866 31.7756 33.6541C30.3731 34.1009 28.9996 34.8125 27.9612 35.8965C27.4399 36.426 26.989 37.0011 26.5339 37.5637C26.0788 38.1305 25.6278 38.689 25.1727 39.2682C24.9866 39.5123 24.8087 39.8019 24.7383 40.1246C24.6639 40.4432 24.6597 40.7618 24.6845 41.072C24.697 41.2003 24.7135 41.3451 24.7508 41.4402C24.817 41.6223 24.9038 41.9119 24.9866 41.9036C25.0527 41.8953 25.0403 41.6554 25.0403 41.4733H25.0362Z" fill="#5C3A2E"/>
<path d="M35.069 36.0371C35.1186 36.0371 35.1641 36.0495 35.1972 36.0495C35.2096 36.0495 35.222 36.0537 35.2261 36.0619C35.2344 36.0868 35.2179 36.0164 35.2261 36.0123C35.2261 35.9999 35.2261 35.9916 35.2261 36.004V36.0123C35.2261 36.0123 35.2468 35.9668 35.2386 35.9875L35.2303 35.9957C35.2303 35.9957 35.1682 36.0413 35.1393 36.0454C35.1269 36.0454 35.1186 36.0454 35.1227 36.0454H35.1351H35.1393C35.1558 36.0454 35.011 36.0288 35.069 36.0371C35.0483 36.0371 34.8869 36.244 34.7876 36.4012C34.6883 36.5543 34.5725 36.6991 34.4608 36.8397C34.2663 37.0838 34.0802 37.3362 33.9105 37.5968C33.5423 38.1678 33.1535 38.7304 32.7646 39.2931C32.3591 39.8599 32.0281 40.4391 31.5565 40.8404C31.2876 41.0762 30.9732 41.2706 30.6381 41.4485C30.4726 41.5354 30.2988 41.6181 30.1251 41.7009C29.9554 41.7836 29.7775 41.854 29.6741 41.854C29.5541 41.8581 29.4176 41.7919 29.3886 41.6637C29.3721 41.5975 29.3762 41.5437 29.3886 41.4651C29.401 41.3782 29.4217 41.283 29.4383 41.192C29.5169 40.8238 29.641 40.468 29.8272 40.1495C29.9761 39.8847 30.2078 39.6447 30.3981 39.3882C30.605 39.14 30.787 38.8545 30.9732 38.598C31.3124 38.1016 31.6599 37.6092 32.1936 37.3196C32.3674 37.2245 32.537 37.1293 32.7149 37.0425C32.9838 36.9018 33.2734 36.8232 33.5465 36.6949C33.5878 36.6742 33.6333 36.6577 33.6789 36.6453C33.9891 36.5625 34.2994 36.5088 34.5932 36.364C34.7214 36.3019 34.858 36.2564 34.9283 36.0992C34.9738 35.9999 34.9531 35.9378 34.8538 35.9213C34.738 35.9006 34.6221 35.8923 34.5063 35.9047C34.1008 35.9461 33.7202 36.0992 33.3355 36.2357C32.9921 36.3598 32.6446 36.4963 32.3301 36.6949C32.2019 36.7777 32.0571 36.8563 31.9206 36.9349C31.6641 37.0797 31.42 37.2534 31.2173 37.4727C31.1924 37.5017 31.1676 37.5389 31.1387 37.5596C30.8201 37.7789 30.6546 38.1181 30.4477 38.3829C30.2823 38.5939 30.125 38.7676 29.9885 38.9828C29.9761 39.0035 29.9554 39.02 29.9347 39.0366C29.7734 39.1483 29.6741 39.3137 29.5458 39.4544C29.4052 39.5951 29.2687 39.8268 29.1694 40.0295C29.0659 40.2405 28.9915 40.4556 28.9211 40.6707C28.8756 40.8031 28.8384 40.9397 28.8053 41.072L28.7598 41.2748L28.7391 41.3906C28.7308 41.4485 28.7225 41.5147 28.7184 41.5768C28.706 41.8291 28.7887 42.0774 28.9584 42.2511C29.128 42.4249 29.3721 42.52 29.6203 42.5242C29.9265 42.5242 30.1002 42.4456 30.2533 42.3877C30.5015 42.2801 30.7456 42.2015 30.9856 42.0774C31.3993 41.8581 31.8254 41.6057 32.1936 41.2665C32.566 40.9231 32.8307 40.5218 33.0583 40.137C33.2196 39.864 33.4306 39.6282 33.621 39.3758C33.8816 39.0366 34.1215 38.6808 34.3491 38.3208C34.5766 37.9609 34.8 37.6051 35.0276 37.2493L35.3544 36.7073L35.5116 36.4302C35.5654 36.3309 35.6275 36.2026 35.6192 36.0371C35.6109 35.913 35.553 35.7641 35.4082 35.6855C35.2675 35.6069 35.1021 35.6565 35.0152 35.7144C34.9738 35.7392 34.9324 35.7682 34.9241 35.8054C34.8993 35.8758 34.8538 35.9544 34.9076 36.0123C34.9573 36.0619 35.0317 36.0413 35.0855 36.0371H35.069Z" fill="#5C3A2E"/>
<path d="M40.443 35.4497C40.3934 35.4828 40.3396 35.5117 40.2941 35.5614C40.0003 35.9337 39.8225 36.3764 39.7232 36.8025C39.6777 37.0011 39.6156 37.1873 39.5535 37.361C39.4543 37.6589 39.2846 37.9485 39.1853 38.2505C38.6392 39.5868 37.9194 40.8818 36.9471 41.9409C36.6741 42.2387 36.3721 42.5159 36.0452 42.7559C35.8632 42.8883 35.7887 42.9503 35.6605 42.9379C35.5364 42.9131 35.4536 42.8055 35.4288 42.6566C35.3999 42.4953 35.4288 42.2801 35.4454 42.0691L35.5074 41.4444C35.5571 41.0307 35.6191 40.617 35.7143 40.2115C35.8715 39.5413 36.0949 38.8711 36.5127 38.325C36.8975 37.8161 37.365 37.3404 37.9442 37.0259L38.5151 36.7074C38.8047 36.5419 39.1233 36.4136 39.4046 36.2275C39.446 36.1985 39.4915 36.1737 39.537 36.153C39.8597 36.0123 40.1534 35.9296 40.4637 35.8262C40.6002 35.7806 40.7451 35.7641 40.8609 35.6317C40.9354 35.549 40.9395 35.4869 40.8319 35.4414C40.712 35.3918 40.5754 35.3587 40.4389 35.3587C39.9507 35.3462 39.5039 35.5986 39.1274 35.8055C38.7882 35.9875 38.4407 36.1613 38.1097 36.3805C37.9732 36.4715 37.8242 36.5543 37.6753 36.6329C37.4022 36.7818 37.1375 36.9473 36.8975 37.1625C36.8685 37.1914 36.8396 37.2245 36.8023 37.2452C36.4507 37.4438 36.2107 37.7913 35.9666 38.114C35.7805 38.3622 35.5902 38.627 35.4991 38.929C35.4909 38.9538 35.4784 38.9828 35.4619 39.0035C35.3336 39.1855 35.2799 39.4007 35.2095 39.6034C35.0482 40.0502 34.9903 40.5177 34.9158 40.9686C34.8703 41.25 34.8248 41.5313 34.7917 41.8085L34.7462 42.2263C34.7338 42.3711 34.7214 42.5532 34.7586 42.7642C34.8 43.0289 34.9654 43.3392 35.2095 43.4882C35.4288 43.633 35.706 43.6661 35.9625 43.5875C36.2562 43.4882 36.3514 43.3971 36.4755 43.3103C37.3071 42.6856 38.0187 41.9243 38.5193 41.0514C38.693 40.7452 38.9081 40.4639 39.0902 40.166C39.3384 39.7606 39.5453 39.3345 39.7273 38.9001C39.8225 38.6891 39.8928 38.4574 39.9797 38.2381C40.0624 38.0188 40.1534 37.7996 40.2072 37.5679C40.3231 37.1087 40.3851 36.6577 40.4844 36.2233C40.5299 36.0454 40.5837 35.8717 40.6499 35.702C40.6623 35.6689 40.683 35.6276 40.6747 35.5945C40.6664 35.5283 40.6913 35.4373 40.6209 35.3918C40.563 35.3545 40.4927 35.4042 40.4348 35.4455L40.443 35.4497Z" fill="#5C3A2E"/>
<path d="M47.1949 35.6855C47.1783 35.731 47.1452 35.7724 47.1328 35.8137C47.0542 36.1323 46.8721 36.3805 46.7149 36.757C46.6446 36.9266 46.5494 37.1211 46.4833 37.3155C46.4336 37.4562 46.384 37.5927 46.3343 37.7334C46.293 37.8409 46.2392 37.9485 46.173 38.0685C45.4903 39.2062 44.787 40.377 43.8065 41.2169C43.5293 41.4527 43.2273 41.6595 42.9005 41.8167C42.8177 41.8581 42.735 41.8912 42.6522 41.9243C42.5736 41.9533 42.4661 41.9946 42.4247 42.0029C42.3213 42.036 42.1723 42.0277 42.1144 41.916C42.0855 41.8622 42.0772 41.8043 42.0731 41.7423C42.0731 41.6678 42.0648 41.5644 42.0648 41.4734C42.0648 41.2872 42.0813 41.1051 42.1144 40.919C42.1723 40.5508 42.2758 40.1867 42.404 39.8268C42.5116 39.5289 42.6233 39.2269 42.7433 38.929C42.8715 38.6394 43.008 38.3539 43.1487 38.0726C43.459 37.5844 43.8603 37.1252 44.3692 36.7984C44.5347 36.6908 44.7043 36.575 44.8656 36.455C45.1139 36.2771 45.3828 36.1406 45.6269 35.9668C45.6641 35.942 45.7055 35.9172 45.7469 35.8965C46.0365 35.7682 46.3219 35.6772 46.595 35.5365C46.7149 35.4745 46.8432 35.4372 46.9259 35.2883C46.9797 35.1932 46.9673 35.1311 46.8639 35.1063C46.748 35.0773 46.6239 35.0649 46.4998 35.0814C46.0695 35.1311 45.6972 35.3545 45.3414 35.5531C45.0228 35.7351 44.7167 35.9337 44.4395 36.1654C44.3278 36.2605 44.1995 36.3474 44.0713 36.4302C43.8355 36.5832 43.6038 36.7487 43.4011 36.9597C43.3762 36.9887 43.3514 37.0176 43.3183 37.0383C43.0122 37.2369 42.7888 37.5762 42.6109 37.8947C42.4744 38.1347 42.3213 38.3746 42.2344 38.6435C42.2261 38.6684 42.2137 38.689 42.2013 38.7056C42.0813 38.8545 42.0358 39.0407 41.9572 39.2103C41.7834 39.5868 41.6717 40.0005 41.5642 40.4267C41.498 40.6914 41.4401 40.9645 41.4152 41.2499C41.4028 41.3906 41.3946 41.5354 41.4028 41.6761C41.4028 41.7257 41.407 41.8953 41.4359 42.0029C41.4607 42.1229 41.5063 42.2346 41.5766 42.3297C41.7255 42.5449 41.9779 42.6773 42.2468 42.6855C42.3668 42.6855 42.4868 42.6773 42.6067 42.6483C42.706 42.6276 42.7639 42.6069 42.8343 42.5862C42.9708 42.5449 43.1032 42.4952 43.2315 42.4373C44.1209 42.0029 44.8532 41.3534 45.3745 40.588C45.5565 40.3191 45.7758 40.0833 45.9661 39.8226C46.2226 39.4751 46.4502 39.111 46.6611 38.7428C46.7646 38.5608 46.8804 38.3705 46.9714 38.1512C47.0625 37.932 47.108 37.7085 47.1535 37.5141C47.2321 37.1376 47.4389 36.7611 47.5134 36.3102C47.5465 36.124 47.5589 35.9296 47.5217 35.7393C47.5134 35.702 47.5051 35.6524 47.4762 35.6276C47.4265 35.5779 47.3728 35.4993 47.2983 35.5283C47.2362 35.5531 47.2197 35.6276 47.199 35.6772L47.1949 35.6855Z" fill="#5C3A2E"/>
<path d="M46.2185 41.0141C46.2185 41.0141 46.2433 41.0514 46.2598 41.0638C46.3178 41.1134 46.3757 41.1341 46.4295 41.1465C46.4874 41.1589 46.5412 41.1631 46.5991 41.1465C46.6487 41.1382 46.7025 41.1341 46.7522 41.13C46.8432 41.1217 46.9301 41.101 47.0045 41.0596C47.3438 40.8817 47.6416 40.6542 47.8733 40.3729C48.134 40.0543 48.3491 39.7233 48.5394 39.38C48.618 39.2352 48.6759 39.0821 48.7504 38.9373C48.8207 38.8008 48.8414 38.6435 48.92 38.507C48.949 38.4615 48.9655 38.416 48.9821 38.3664C49.0069 38.2919 49.0483 38.2215 49.0524 38.1429C49.0524 38.1305 49.0524 38.1181 49.0607 38.1057C49.0979 38.0312 49.1145 37.9485 49.0938 37.8616C49.0855 37.8244 49.0855 37.7871 49.04 37.7499C49.011 37.7292 48.9904 37.7251 48.9697 37.7458C48.9449 37.7665 48.9242 37.7913 48.9076 37.8161C48.8538 37.903 48.8331 37.994 48.8042 38.0892C48.7752 38.1678 48.738 38.2464 48.7132 38.3291C48.7049 38.3622 48.6884 38.3953 48.6635 38.4243C48.6263 38.4822 48.5849 38.536 48.5642 38.598C48.5642 38.6063 48.5642 38.6146 48.5518 38.6229C48.4732 38.6766 48.4691 38.7635 48.4194 38.8297C48.3863 38.8835 48.3367 38.9249 48.3284 38.9911C48.3284 38.9952 48.3243 38.9993 48.316 39.0035C48.2664 39.0242 48.2622 39.0697 48.2333 39.1069C48.1753 39.1814 48.1464 39.2724 48.0926 39.3469C48.0264 39.442 47.9478 39.5248 47.894 39.6323C47.8816 39.6613 47.8568 39.6861 47.8361 39.7109C47.803 39.7606 47.7533 39.7895 47.7202 39.8392C47.6003 40.0047 47.4472 40.1371 47.3148 40.3025C47.2693 40.3646 47.1948 40.3853 47.1328 40.4225C47.0459 40.468 46.9632 40.5218 46.8804 40.5797C46.7149 40.6914 46.5288 40.7576 46.3385 40.8238C46.2971 40.8362 46.2598 40.8445 46.2185 40.8693C46.2102 40.8735 46.2019 40.8776 46.1936 40.89C46.1812 40.9107 46.1647 40.9272 46.1647 40.9603C46.1647 40.9893 46.1854 41.0059 46.2019 41.0224L46.2185 41.0141Z" fill="#5C3A2E"/>
<path d="M27.2414 42.3918C27.2621 42.3794 27.2869 42.3753 27.2993 42.3546C27.4028 42.2305 27.4772 42.0857 27.5062 41.9285C27.5228 41.8581 27.5352 41.7878 27.5517 41.7133C27.5765 41.5933 27.589 41.4692 27.5931 41.3493C27.5931 40.8238 27.5559 40.3315 27.6469 39.8516C27.7503 39.3138 28.073 38.8173 28.4247 38.3705C28.5736 38.1843 28.7184 37.994 28.888 37.8244C29.0452 37.663 29.1859 37.4852 29.3679 37.3486C29.4258 37.3031 29.4838 37.2535 29.5417 37.2038C29.6286 37.1294 29.7237 37.0632 29.8023 36.9804C29.8147 36.968 29.8272 36.9556 29.8396 36.9432C29.9389 36.8729 30.034 36.7984 30.1126 36.7032C30.1457 36.6619 30.1871 36.6246 30.1995 36.5791C30.2078 36.5502 30.1995 36.5419 30.1623 36.5543C30.125 36.5708 30.0837 36.5874 30.0464 36.6081C29.914 36.6784 29.8023 36.7736 29.6865 36.8646C29.5831 36.9432 29.4755 37.0259 29.3803 37.1169C29.339 37.1542 29.2976 37.1914 29.2521 37.2245C29.1694 37.2866 29.0907 37.3528 29.0163 37.4272C29.008 37.4355 28.9997 37.4479 28.9873 37.4562C28.8756 37.5224 28.797 37.63 28.7018 37.7168C28.6274 37.783 28.5529 37.8492 28.495 37.932C28.4909 37.9402 28.4826 37.9444 28.4743 37.9485C28.4123 37.9857 28.375 38.0478 28.3254 38.0974C28.2178 38.2092 28.1309 38.3374 28.0358 38.4574C27.9158 38.6063 27.7917 38.7594 27.7007 38.9373C27.6717 38.9869 27.6469 39.0324 27.6179 39.0821C27.5683 39.169 27.5145 39.2559 27.4814 39.351C27.349 39.6778 27.2745 40.0419 27.2911 40.3812C27.2952 40.5011 27.2787 40.6211 27.2745 40.737C27.2663 40.8983 27.2745 41.0555 27.2745 41.2127C27.2869 41.523 27.2663 41.825 27.2042 42.1229C27.1877 42.185 27.1752 42.247 27.1546 42.3049C27.1504 42.3173 27.1463 42.3298 27.1546 42.3463C27.1628 42.3711 27.1628 42.4042 27.1794 42.4166C27.1959 42.4249 27.2207 42.4084 27.2456 42.396L27.2414 42.3918Z" fill="#5C3A2E"/>
<path d="M44.6961 72.0428C44.6588 72.0345 44.6299 72.018 44.5885 72.0138C44.2989 71.9932 44.0093 71.9932 43.7156 72.0221C43.579 72.0387 43.4467 72.0469 43.3101 72.0511C43.0785 72.0635 42.8468 72.0842 42.6192 72.1173C41.6222 72.2455 40.6334 72.3696 39.6322 72.4979C38.511 72.6386 37.3816 72.742 36.2522 72.8082C35.7805 72.833 35.3089 72.8702 34.8331 72.8826C34.3863 72.8951 33.9395 72.9364 33.4927 72.924C33.3437 72.9199 33.1948 72.9199 33.0459 72.924C32.8183 72.9282 32.5908 72.9157 32.3632 72.9282C32.3301 72.9282 32.2929 72.9282 32.2598 72.9282C32.0198 72.924 31.7799 72.9116 31.5441 72.9447C31.4406 72.9571 31.3331 72.9654 31.2586 73.015C31.209 73.0481 31.2172 73.073 31.2834 73.0854C31.362 73.1019 31.4448 73.1143 31.5234 73.1185C31.813 73.135 32.1026 73.1185 32.3922 73.1185C32.6487 73.1185 32.9093 73.1226 33.17 73.1102C33.2775 73.1061 33.3892 73.1102 33.4968 73.1102C33.6995 73.1185 33.8981 73.1226 34.1008 73.1102C34.1256 73.1102 34.1546 73.1061 34.1794 73.1102C34.4277 73.1392 34.68 73.1102 34.9283 73.1102C35.1186 73.1102 35.313 73.1185 35.5075 73.0978C35.524 73.0978 35.5447 73.0978 35.5613 73.0978C35.6978 73.1143 35.8343 73.0978 35.9667 73.0978C36.2646 73.0978 36.5624 73.0647 36.8603 73.0523C37.2326 73.0357 37.605 73.0233 37.9773 72.9861C38.0849 72.9778 38.1883 72.9695 38.2918 72.9613C38.4779 72.9447 38.6641 72.9447 38.8544 72.924C39.5039 72.8537 40.1618 72.804 40.8072 72.6965C41.0347 72.6592 41.2664 72.651 41.4981 72.6303C41.8083 72.6013 42.1186 72.5641 42.4289 72.5186C43.0371 72.4276 43.6494 72.3572 44.2534 72.2538L44.6299 72.1959C44.6547 72.1959 44.6878 72.1876 44.7044 72.1752C44.7416 72.1504 44.8036 72.1338 44.7995 72.0966C44.7995 72.0635 44.7457 72.0511 44.7044 72.0387L44.6961 72.0428Z" fill="#5C3A2E"/>
<path d="M46.504 68.5676C46.475 68.5179 46.4585 68.46 46.4171 68.4187C46.1234 68.1291 45.8048 67.8726 45.4324 67.6905C45.2628 67.6078 45.0973 67.5085 44.936 67.4175C44.6547 67.252 44.3568 67.1113 44.0548 66.9996C43.3887 66.7555 42.7061 66.5321 42.011 66.3708C41.3118 66.2011 40.592 66.1267 39.9218 66.0522C39.5411 66.0067 39.1729 65.9488 38.8171 65.8412C38.4613 65.7461 38.1428 65.564 37.7497 65.4068C37.3609 65.2413 36.8892 65.2165 36.4879 65.3158C36.0783 65.4068 35.7143 65.5806 35.3585 65.7585C34.7751 66.0605 34.2166 66.4039 33.6416 66.71C33.0954 66.9996 32.6031 67.3761 32.0405 67.6326C31.8543 67.7153 31.6723 67.8146 31.4944 67.9181C31.2255 68.0794 30.9317 68.1994 30.6793 68.3897C30.6421 68.4187 30.6007 68.4476 30.5594 68.4683C30.2615 68.6172 29.9636 68.7662 29.7278 69.0061C29.6244 69.1096 29.5085 69.2047 29.5044 69.3909C29.5044 69.5109 29.5458 69.5647 29.6492 69.5522C29.765 69.5357 29.8809 69.5109 29.9884 69.4654C30.3566 69.304 30.6711 69.0558 31.0103 68.8531C31.3165 68.671 31.6309 68.5055 31.9246 68.3028C32.0446 68.2201 32.1853 68.1497 32.3218 68.0877C32.5742 67.9718 32.8224 67.856 33.0582 67.7071C33.0872 67.6864 33.1161 67.6616 33.1492 67.6533C33.4885 67.5623 33.7574 67.343 34.0635 67.1941C34.2993 67.0824 34.5517 66.9872 34.7586 66.8258C34.7751 66.8134 34.7999 66.8052 34.8248 66.7969C35.0109 66.7638 35.1599 66.648 35.3295 66.5735C35.6977 66.408 36.0246 66.1929 36.3555 66.0894C36.5624 66.0232 36.761 65.9943 36.9389 65.9943C37.1209 65.9943 37.2657 66.0232 37.4726 66.0894C37.5884 66.1267 37.7042 66.1887 37.8325 66.2508C38.06 66.3625 38.3331 66.5197 38.602 66.5942C39.5618 66.8714 40.4637 66.9334 41.3243 67.0327C41.6304 67.0658 41.9241 67.1775 42.2179 67.2768C42.6192 67.4051 43.0164 67.5333 43.4218 67.6657C44.2161 67.9222 44.9815 68.278 45.7634 68.5966L46.2433 68.8075C46.2764 68.82 46.3136 68.8406 46.3467 68.8324C46.4129 68.8158 46.504 68.8324 46.5453 68.7579C46.5826 68.6917 46.5412 68.6172 46.5081 68.5635L46.504 68.5676Z" fill="#5C3A2E"/>
<path d="M46.3303 68.9482C46.2931 69.0227 46.2476 69.0848 46.231 69.1675C46.0987 69.7633 46.0283 70.3549 46.0407 70.963C46.0449 71.2402 46.0366 71.5215 46.0242 71.7946C46.0035 72.2704 46.0076 72.7461 46.0242 73.2054L46.0325 73.4619C46.0325 73.4991 46.0366 73.4784 46.0407 73.4908C46.049 73.5032 46.049 73.5157 46.0407 73.5157H46.0325L46.0283 73.5239L45.9497 73.5322L45.6312 73.5612L44.994 73.6191L43.7198 73.7308C42.8675 73.8053 42.0194 73.8797 41.1672 73.9666C38.8586 74.2066 36.5418 74.4341 34.2374 74.7651C33.2735 74.9016 32.3219 75.1043 31.3662 75.2905C31.1428 75.336 30.9112 75.3898 30.7002 75.4394C30.6216 75.4601 30.5347 75.4725 30.4519 75.4477C30.3692 75.4229 30.3113 75.3484 30.274 75.2781C30.2368 75.2119 30.1954 75.0961 30.1582 74.9926C30.1168 74.8892 30.0837 74.7816 30.0506 74.6741C29.9844 74.4589 29.9307 74.2397 29.8976 74.0163C29.8479 73.7225 29.7982 73.4246 29.7527 73.1309C29.6824 72.6758 29.6741 72.2207 29.6203 71.7656C29.6121 71.6953 29.6038 71.625 29.6038 71.5546C29.6121 71.0706 29.6535 70.599 29.6286 70.1232C29.6204 69.9163 29.6369 69.7053 29.5169 69.5274C29.4383 69.4116 29.368 69.4033 29.2977 69.5399C29.2149 69.6929 29.1529 69.8584 29.1115 70.028C28.9791 70.6321 29.0287 71.2485 29.0577 71.8525C29.0867 72.3945 29.1363 72.9365 29.2563 73.466C29.3059 73.6853 29.3432 73.917 29.3804 74.1445C29.4507 74.5624 29.5459 74.9802 29.7155 75.3857C29.7403 75.4436 29.7941 75.547 29.8313 75.6215C29.9224 75.8242 30.0961 75.9897 30.3113 76.0517C30.4188 76.0848 30.5347 76.0931 30.6505 76.0807C30.7663 76.0724 30.8987 76.0352 30.9401 76.0269C31.1842 75.9731 31.4283 75.9111 31.6765 75.8656C32.0571 75.8035 32.4502 75.7745 32.8266 75.6587C32.8597 75.6504 32.897 75.6463 32.9342 75.6504C33.2114 75.6628 33.4803 75.5884 33.7492 75.5553C34.345 75.4932 34.9366 75.3691 35.5365 75.3029C36.2853 75.2202 37.0424 75.1747 37.7912 75.0671C38.0022 75.0381 38.2174 75.0257 38.4284 75.005C38.8049 74.9678 39.1896 74.9719 39.5661 74.9264C40.8941 74.7858 42.2304 74.7237 43.5584 74.5417C44.0259 74.4755 44.5017 74.4838 44.9734 74.4589L45.6518 74.4176L46.471 74.3472L46.6448 74.2852L46.7316 74.2521L46.7523 74.2438H46.7647V74.2397C46.7937 74.2728 46.7234 74.1983 46.7316 74.2066H46.7358C46.7358 74.2066 46.7565 74.1817 46.7647 74.1693C46.8433 74.0907 46.8847 73.9625 46.8806 73.8177C46.8847 73.7018 46.8806 73.5612 46.8806 73.466L46.8723 73.2261L46.8516 72.7503L46.8061 71.807C46.7772 71.1782 46.7399 70.5493 46.6985 69.9246L46.6696 69.1468C46.6696 69.093 46.6696 69.0351 46.6489 68.9937C46.6117 68.9027 46.5868 68.8117 46.5248 68.7621C46.5082 68.7124 46.4296 68.7869 46.4131 68.8159C46.38 68.8572 46.3593 68.9027 46.3386 68.9441L46.3303 68.9482Z" fill="#5C3A2E"/>
<path d="M29.5748 69.635C29.6161 69.6722 29.6492 69.7177 29.6947 69.7425C30.0381 69.9039 30.3691 70.0322 30.7084 70.1025C30.8656 70.1356 31.0228 70.1894 31.1841 70.2431C31.4696 70.3424 31.8337 70.4086 32.1564 70.3962C32.8555 70.3797 33.5009 70.239 34.0884 70.1811C34.6924 70.119 35.3213 70.1066 35.9543 70.0818C36.6659 70.057 37.3899 70.0487 38.1139 70.0073C38.4779 69.9825 38.8379 69.9535 39.2019 69.8998C39.566 69.846 39.9135 69.7715 40.2652 69.7095C40.8527 69.606 41.436 69.4819 42.0276 69.4157C42.5861 69.3537 43.1322 69.2047 43.7032 69.2089C43.8893 69.2089 44.0797 69.2006 44.2658 69.184C44.5513 69.1592 44.8409 69.1758 45.1222 69.1261C45.1636 69.1178 45.2091 69.1096 45.2546 69.1096C45.5566 69.1096 45.8545 69.1261 46.1482 69.0351C46.2723 68.9937 46.4047 68.9772 46.4958 68.8158C46.5537 68.7124 46.5454 68.6462 46.4585 68.6048C46.3592 68.5593 46.2516 68.5221 46.1441 68.5097C45.7717 68.4683 45.4035 68.5386 45.0395 68.5635C44.7126 68.5841 44.3817 68.5966 44.059 68.6545C43.9266 68.6752 43.7818 68.6834 43.6452 68.6793C43.3887 68.6793 43.1322 68.6793 42.8799 68.7248C42.8468 68.7289 42.8137 68.7414 42.7806 68.7372C42.4579 68.6834 42.1517 68.7869 41.8332 68.8076C41.5891 68.8241 41.3408 68.82 41.105 68.8986C41.0843 68.9068 41.0595 68.9027 41.0388 68.8986C40.8609 68.8696 40.6955 68.9234 40.5258 68.9399C40.1535 68.973 39.7729 69.0847 39.4171 69.1385C38.9868 69.2047 38.5441 69.2047 38.0932 69.2585C37.9649 69.2709 37.8367 69.2709 37.7084 69.2751C37.4809 69.2792 37.2492 69.2502 37.0175 69.2544C36.2025 69.2792 35.3668 69.2213 34.5228 69.3412C34.2291 69.3868 33.9271 69.3661 33.625 69.3909C33.2196 69.424 32.8514 69.486 32.4708 69.5274C32.0984 69.5729 31.7551 69.5605 31.3827 69.486C31.0062 69.4116 30.6008 69.3454 30.2119 69.3288C30.0505 69.3206 29.8851 69.304 29.7237 69.304C29.6906 69.304 29.6534 69.2999 29.6244 69.3206C29.5706 69.3619 29.4879 69.3743 29.4796 69.4654C29.4714 69.5398 29.5334 69.5936 29.5789 69.6308L29.5748 69.635Z" fill="#5C3A2E"/>
<path d="M40.0005 71.2319C40.0005 71.2319 39.9674 71.2112 39.9468 71.2071C39.7978 71.174 39.653 71.1616 39.5041 71.1699C39.4337 71.174 39.3675 71.174 39.2972 71.174C39.1814 71.174 39.0614 71.1781 38.9456 71.1906C38.4408 71.2443 37.9485 71.294 37.4314 71.3519C36.8646 71.414 36.2895 71.4595 35.7186 71.4843C35.4786 71.4926 35.2387 71.5091 35.0028 71.5133C34.7753 71.5133 34.5519 71.5339 34.3243 71.5257C34.2416 71.5257 34.1713 71.5257 34.1009 71.5257C33.9851 71.5257 33.8693 71.5257 33.7576 71.5298C33.7369 71.5298 33.7245 71.5298 33.7038 71.5298C33.5838 71.5298 33.4597 71.5298 33.3397 71.5422C33.2859 71.5464 33.2321 71.5505 33.1949 71.567C33.1701 71.5753 33.1742 71.5836 33.2073 71.5877C33.257 71.5919 33.3025 71.596 33.3273 71.6001C33.4721 71.6084 33.621 71.6084 33.7658 71.6084C33.8982 71.6084 34.0265 71.6167 34.1589 71.6167C34.2127 71.6167 34.2706 71.6167 34.3243 71.625C34.4278 71.6332 34.5271 71.6374 34.6305 71.6374C34.6429 71.6374 34.6595 71.6374 34.6719 71.6374C34.796 71.6581 34.9242 71.6456 35.0483 71.6498C35.1435 71.6498 35.2428 71.6622 35.3421 71.6498C35.3504 71.6498 35.3586 71.6498 35.3669 71.6498C35.4331 71.6622 35.5034 71.6539 35.5738 71.6581C35.7227 71.6622 35.8758 71.6498 36.0247 71.6498C36.215 71.6498 36.4012 71.6498 36.5915 71.6374C36.6494 71.6374 36.6991 71.6291 36.7487 71.6291C36.8439 71.625 36.939 71.6291 37.0342 71.6208C37.3652 71.5919 37.6961 71.5795 38.023 71.5298C38.1388 71.5133 38.2547 71.5133 38.3705 71.5091C38.5277 71.5008 38.6849 71.4884 38.8421 71.4677C39.1524 71.4305 39.4627 71.4098 39.7689 71.3685L39.9591 71.3478C39.9591 71.3478 39.9881 71.3478 39.9964 71.3354C40.0171 71.3188 40.046 71.3105 40.046 71.2816C40.046 71.2568 40.0171 71.2443 39.9964 71.2361L40.0005 71.2319Z" fill="#5C3A2E"/>
<path d="M29.5375 69.4819V69.4943C29.5375 69.5109 29.5375 69.5233 29.5416 69.5274C29.5416 69.5274 29.5416 69.5274 29.5416 69.5357C29.5416 69.5398 29.5458 69.5398 29.5458 69.5398C29.5499 69.5316 29.5582 69.5274 29.5624 69.515C29.5706 69.4985 29.5748 69.4861 29.583 69.4861C29.583 69.4861 29.5872 69.4819 29.5913 69.4861C29.5913 69.4861 29.5954 69.4778 29.5996 69.4902C29.5996 69.4943 29.5996 69.4985 29.5996 69.4985C29.5996 69.4985 29.5996 69.5067 29.6037 69.5026C29.6037 69.5026 29.6037 69.515 29.6079 69.5026C29.6079 69.4985 29.6079 69.4943 29.6079 69.4654C29.6079 69.4488 29.6079 69.4364 29.6079 69.4281C29.6079 69.4199 29.6079 69.4116 29.6079 69.4074C29.6079 69.395 29.6079 69.4075 29.6037 69.4033C29.6037 69.4033 29.6037 69.3992 29.5996 69.4033C29.5996 69.4033 29.5996 69.4033 29.5996 69.3992C29.5996 69.395 29.5996 69.3909 29.5996 69.3909C29.5996 69.3909 29.5996 69.3826 29.5954 69.3785V69.3702H29.5913C29.5913 69.3702 29.5872 69.3661 29.583 69.3702C29.583 69.3785 29.5747 69.3826 29.5706 69.3992C29.5706 69.4074 29.5665 69.3992 29.5665 69.3992C29.5665 69.3992 29.5665 69.3992 29.5624 69.4074C29.5624 69.4157 29.5541 69.4199 29.5499 69.4281C29.5499 69.4281 29.5499 69.4281 29.5499 69.4364C29.5499 69.4405 29.5499 69.4447 29.5499 69.4571C29.5499 69.4654 29.5499 69.4736 29.5499 69.4778L29.5375 69.4819Z" fill="#5C3A2E"/>
<path d="M37.3072 65.5227C37.3155 65.473 37.3362 65.4234 37.3279 65.3696C37.2659 64.9848 37.0673 64.6125 36.6908 64.3725C36.6494 64.3436 36.6081 64.3229 36.5625 64.3022C36.3391 64.1905 36.0661 64.2319 35.8468 64.356C35.673 64.4635 35.5283 64.5587 35.4 64.8152C35.3752 64.8648 35.3628 64.9104 35.3462 64.9517L35.3297 65.0055C35.3297 65.0055 35.3297 65.0055 35.3297 65.0096C35.3297 65.0096 35.3338 65.0179 35.3338 65.0262C35.3338 65.0427 35.3338 65.051 35.3338 65.0469H35.3173C35.3173 65.0469 35.3131 65.0469 35.2842 65.0303L35.1518 64.9683C35.0649 64.9269 34.978 64.8938 34.8911 64.8607C34.8249 64.8359 34.6595 64.7738 34.5188 64.7738C34.374 64.7738 34.2292 64.8028 34.1051 64.869C33.9768 64.9352 33.8734 65.0303 33.7948 65.1462C33.7534 65.2082 33.7162 65.2786 33.6955 65.3489C33.6789 65.4151 33.6707 65.4565 33.6624 65.5061L33.6417 65.6509C33.6417 65.6757 33.6417 65.6799 33.6417 65.6923C33.6417 65.7171 33.6541 65.7461 33.6665 65.775C33.6789 65.8081 33.6914 65.8412 33.6996 65.8826C33.7079 65.9157 33.7203 65.9901 33.6955 65.9529H33.6872C33.6541 65.9281 33.6127 65.9115 33.559 65.8867C33.501 65.8578 33.4762 65.8536 33.3769 65.7998C33.1949 65.7005 33.0253 65.7088 32.8722 65.7254C32.7191 65.7502 32.5743 65.7833 32.4212 65.895C32.2723 66.0067 32.202 66.1763 32.173 66.3211C32.1523 66.4328 32.1523 66.4949 32.1606 66.59C32.1689 66.6769 32.1896 66.7679 32.2227 66.859C32.2351 66.9045 32.2723 66.9417 32.2971 66.9789C32.3095 66.9996 32.3261 67.0162 32.3344 67.041C32.3178 67.041 32.3054 67.0162 32.293 67.0038C32.1896 66.8714 32.0655 66.7348 31.9041 66.6397C31.8545 66.6107 31.8296 66.5983 31.7593 66.5735C31.6848 66.5528 31.6104 66.528 31.5276 66.5238C31.3663 66.5156 31.2008 66.5611 31.0684 66.6562C30.9319 66.7514 30.845 66.8838 30.7788 67.0244C30.7498 67.0948 30.725 67.1692 30.7126 67.2478C30.7043 67.2975 30.7002 67.3471 30.7002 67.3968C30.7002 67.525 30.7333 67.6574 30.754 67.794C30.6878 67.6864 30.5678 67.6161 30.4437 67.554C30.3899 67.525 30.3444 67.5043 30.2782 67.4795C30.2037 67.4506 30.1251 67.4175 30.0176 67.3968C29.9059 67.3802 29.79 67.4175 29.6907 67.4795C29.5997 67.5333 29.5294 67.5995 29.4632 67.6698C29.4218 67.7153 29.3846 67.7567 29.3391 67.8105C29.1736 68.0711 29.1694 68.2863 29.1612 68.5097C29.1612 68.5511 29.1612 68.5966 29.1612 68.6379C29.1322 68.9234 29.1157 69.2089 29.1901 69.4902C29.2232 69.6102 29.2439 69.7384 29.3722 69.8129C29.4549 69.8584 29.5046 69.8418 29.5252 69.7632C29.5542 69.6722 29.5749 69.5771 29.5832 69.4819C29.608 69.1509 29.5666 68.8241 29.5873 68.5055C29.5997 68.3276 29.6452 68.1084 29.6866 68.0587C29.7321 68.0008 29.7941 67.9263 29.8479 67.8767C29.9265 67.8022 29.9638 67.794 30.0176 67.8105L30.0589 67.8312L30.1458 67.8684C30.2327 67.9098 30.3775 67.9636 30.5016 68.0836C30.6464 68.2573 30.7829 68.2656 30.8574 68.2656C30.8946 68.2656 30.9112 68.2573 30.9401 68.2656C31.0022 68.2904 31.0394 68.2987 31.0518 68.3111C31.0891 68.2904 31.1098 68.2614 31.1429 68.2159C31.1718 68.1663 31.2132 68.1084 31.2215 67.9843C31.2297 67.8643 31.1801 67.6781 31.176 67.5416C31.1677 67.252 31.2132 67.2934 31.238 67.2189C31.267 67.1734 31.2959 67.1279 31.3249 67.0782C31.329 67.0741 31.3373 67.07 31.3456 67.07C31.4118 67.0782 31.4614 67.0493 31.5152 67.0658L31.5731 67.0865C31.5731 67.0865 31.6724 67.1196 31.7469 67.1858L31.8627 67.2768C31.9 67.3099 31.9455 67.3637 31.9868 67.4051L32.2434 67.674C32.3923 67.7691 32.5164 67.8064 32.566 67.7857C32.6281 67.7815 32.6612 67.7733 32.6819 67.7609L32.715 67.7443C32.7564 67.7195 32.7233 67.7443 32.7233 67.7443C32.686 67.765 32.7357 67.7609 32.7895 67.7071C32.8184 67.6822 32.8805 67.6822 32.9136 67.5995C32.9343 67.5085 32.9756 67.3968 32.8929 67.1816L32.7688 66.9789C32.7233 66.9086 32.7439 66.8962 32.7274 66.8548C32.7067 66.7803 32.7067 66.7224 32.7026 66.6645C32.7026 66.6066 32.7109 66.5569 32.715 66.5032L32.7233 66.4494C32.7357 66.3873 32.7522 66.3708 32.7605 66.3625C32.7812 66.3294 33.017 66.3128 33.0584 66.3294C33.0584 66.3294 33.0625 66.3294 33.0666 66.3294L33.3521 66.4949C33.4597 66.5611 33.5631 66.6231 33.6707 66.7183C33.8651 66.6728 33.9727 66.6562 34.0389 66.6521C34.0678 66.648 34.072 66.6604 34.0926 66.6521L34.1713 66.6066L34.3368 66.4907C34.3368 66.3997 34.3326 66.2922 34.3036 66.1432L34.254 65.9281C34.2333 65.866 34.254 65.7916 34.254 65.7667C34.2581 65.7088 34.2664 65.6468 34.2705 65.5971C34.2788 65.5475 34.2706 65.5475 34.2871 65.5144C34.3161 65.4523 34.3823 65.4109 34.4485 65.4068C34.5188 65.3985 34.5602 65.4234 34.6967 65.4854L34.887 65.5764L34.9821 65.6261C35.0318 65.655 35.0773 65.6923 35.1394 65.7006C35.2635 65.7461 35.3669 65.7874 35.4414 65.8247C35.4951 65.8495 35.5282 65.8784 35.5365 65.8991C35.5282 65.9198 35.5738 65.8991 35.5986 65.8991L35.6813 65.8784L35.7268 65.866C35.8013 65.7419 35.851 65.5682 35.8882 65.3903C35.9296 65.1834 35.9544 65.0924 35.9833 65.0427C36.0164 64.9807 36.1075 64.8979 36.1695 64.8607C36.2233 64.8235 36.3019 64.8028 36.3639 64.8359C36.4963 64.8938 36.6784 65.0386 36.8025 65.1834C36.8894 65.2868 36.9638 65.4027 37.0259 65.5268C37.0383 65.5516 37.0466 65.5806 37.0714 65.5971C37.1169 65.6261 37.15 65.6881 37.2203 65.6757C37.2783 65.6633 37.2948 65.5971 37.3031 65.5392L37.3072 65.5227Z" fill="#5C3A2E"/>
<path d="M34.1712 3.17981C33.8361 3.33702 33.6789 3.53147 33.5962 3.74246C33.439 4.13963 33.4059 4.5368 33.4266 4.92983C33.4638 5.64142 33.6127 6.34473 33.65 7.05632C33.712 8.2561 33.9727 9.43519 34.043 10.635C34.0968 11.541 34.2788 12.4346 34.3864 13.3365C34.4484 13.8495 34.5312 14.3625 34.5395 14.8838C34.5519 15.4878 34.6801 16.0836 34.7587 16.6835C34.8622 17.4654 34.9614 18.2515 35.0773 19.0334C35.1269 19.3768 35.189 19.716 35.2138 20.0594C35.2386 20.4152 35.2841 20.7669 35.2841 21.1227C35.2841 21.524 35.4248 21.917 35.3214 22.3266C35.3007 22.401 35.3752 22.4714 35.5282 22.4755C35.6606 22.4796 35.7268 22.4093 35.7599 22.3555C35.8509 22.2025 35.9751 22.0535 36.0992 21.9046C36.1654 21.8301 36.2026 21.7556 36.2233 21.677C36.3184 21.2799 36.3019 20.8868 36.2771 20.4938C36.2398 19.9394 36.1529 19.385 36.0578 18.8348C36.0164 18.5949 36.1033 18.3508 36.0371 18.1149C36.0164 18.0405 35.9957 17.9619 35.9916 17.8874C35.9751 17.5647 35.9916 17.2379 35.9461 16.9193C35.8592 16.3525 35.913 15.7774 35.8137 15.2148C35.8137 15.1941 35.8054 15.1776 35.8137 15.1569C35.9089 14.7349 35.7972 14.3253 35.7392 13.9199C35.6565 13.3365 35.5903 12.7491 35.4786 12.1657C35.4538 12.0375 35.5572 11.8968 35.491 11.7768C35.3379 11.4872 35.3793 11.1769 35.3131 10.8791C35.1766 10.2419 35.2014 9.58826 35.1269 8.94287C35.1145 8.82703 35.069 8.71119 35.0897 8.59535C35.1145 8.42986 35.0897 8.27679 35.0235 8.11957C34.9987 8.05752 35.0028 7.99132 34.9987 7.92513C34.9863 7.64794 34.9987 7.37075 34.9532 7.0977C34.9035 6.77913 34.9449 6.4523 34.9035 6.13374C34.8704 5.88137 34.8828 5.62901 34.8746 5.37664C34.8663 5.06635 34.8001 4.7602 34.7587 4.45405C34.7174 4.16031 34.6801 3.86244 34.6346 3.52733C34.6925 3.42804 34.5353 3.32047 34.5064 3.19636C34.4815 3.08052 34.3616 3.08052 34.1712 3.17153V3.17981Z" fill="#5C3A2E"/>
<path d="M24.8047 12.447C24.4862 12.6001 24.3455 12.7449 24.2793 12.8856C24.1552 13.1504 24.151 13.3903 24.2007 13.6179C24.2917 14.0316 24.4861 14.4163 24.5772 14.83C24.7302 15.5251 25.0695 16.1705 25.2267 16.8614C25.3467 17.3827 25.5908 17.875 25.7604 18.388C25.8597 18.6776 25.9797 18.9631 26.0252 19.2692C26.0789 19.625 26.2527 19.9477 26.3727 20.2828C26.534 20.7214 26.6871 21.164 26.8567 21.6026C26.9312 21.7929 27.0181 21.9791 27.0636 22.1776C27.1132 22.3804 27.1877 22.5789 27.2125 22.7899C27.2415 23.0258 27.407 23.2285 27.3367 23.4933C27.3243 23.5429 27.3987 23.5677 27.5476 23.5346C27.6759 23.5057 27.738 23.4519 27.7669 23.4105C27.8455 23.2988 27.9531 23.183 28.0648 23.0671C28.1227 23.0092 28.1558 22.9554 28.1682 22.9058C28.2303 22.6493 28.1889 22.4217 28.131 22.1983C28.0524 21.8798 27.9283 21.5736 27.7959 21.2716C27.738 21.1392 27.8083 20.9779 27.7256 20.8537C27.7007 20.8124 27.6718 20.7751 27.6635 20.7296C27.6221 20.5435 27.618 20.349 27.5476 20.1711C27.4194 19.8567 27.4318 19.5092 27.2911 19.1989C27.287 19.1865 27.2829 19.1782 27.2829 19.1658C27.3449 18.8969 27.2043 18.6817 27.1174 18.4542C26.9974 18.1274 26.8857 17.7964 26.7326 17.4778C26.6995 17.4075 26.7864 17.3041 26.7161 17.2461C26.5465 17.1055 26.563 16.9193 26.4761 16.7538C26.2941 16.4063 26.2734 16.0174 26.1534 15.6575C26.1327 15.5913 26.0831 15.5334 26.0914 15.4589C26.1038 15.3555 26.0666 15.2727 25.9921 15.1941C25.9631 15.161 25.9631 15.1238 25.9548 15.0866C25.9217 14.9293 25.9135 14.7597 25.8514 14.6108C25.7769 14.4329 25.7976 14.2343 25.7314 14.0523C25.6777 13.9116 25.6735 13.7627 25.6487 13.6137C25.6197 13.4358 25.5287 13.2662 25.4667 13.0966C25.4046 12.9311 25.3467 12.7656 25.2763 12.5753C25.326 12.505 25.1605 12.4719 25.1233 12.4057C25.0902 12.3436 24.9743 12.3643 24.7923 12.4512L24.8047 12.447Z" fill="#5C3A2E"/>
<path d="M7.9871 0.15556C7.75128 0.465847 7.70577 0.763722 7.73473 1.05746C7.79266 1.6077 7.9664 2.11657 8.18567 2.60062C8.58697 3.4777 9.07929 4.3134 9.47232 5.19875C10.1301 6.68399 10.9534 8.09063 11.603 9.58414C12.0912 10.7136 12.691 11.7934 13.2165 12.9063C13.5185 13.5393 13.8329 14.1681 14.0811 14.8259C14.3707 15.5913 14.7637 16.3153 15.1113 17.0558C15.5622 18.0281 16.0132 19.0003 16.4683 19.9725C16.6668 20.3987 16.8737 20.8165 17.0475 21.2509C17.2212 21.6977 17.4198 22.1363 17.577 22.5955C17.7508 23.1126 18.0487 23.5801 18.1273 24.1345C18.1397 24.2379 18.239 24.3083 18.3921 24.2752C18.5244 24.2462 18.5575 24.1387 18.5658 24.0601C18.5906 23.8366 18.6444 23.6132 18.7023 23.3898C18.7313 23.274 18.7396 23.1706 18.723 23.063C18.6444 22.5252 18.4582 22.0204 18.2638 21.524C17.9907 20.8165 17.6598 20.1339 17.3288 19.4513C17.184 19.1575 17.1592 18.8183 16.9896 18.5328C16.9358 18.4418 16.882 18.3508 16.8447 18.2515C16.6875 17.8419 16.5551 17.4199 16.3648 17.0269C16.0256 16.3277 15.8146 15.5747 15.4588 14.8838C15.4464 14.859 15.434 14.8342 15.4298 14.8094C15.3264 14.2426 15.0285 13.7544 14.7844 13.2497C14.4328 12.5298 14.0935 11.8017 13.7088 11.0942C13.6219 10.937 13.655 10.7301 13.5392 10.5977C13.2578 10.275 13.142 9.86961 12.9393 9.50967C12.5007 8.74016 12.207 7.90859 11.8181 7.11426C11.7478 6.97359 11.6485 6.83707 11.6112 6.68399C11.5533 6.46886 11.4499 6.28269 11.3134 6.10479C11.2596 6.03446 11.2306 5.94758 11.1934 5.86897C11.0403 5.52559 10.9162 5.16979 10.7383 4.83882C10.5315 4.44993 10.4073 4.0238 10.2046 3.63905C10.0433 3.3329 9.93156 3.0102 9.79503 2.69577C9.62954 2.31102 9.41029 1.94695 9.2117 1.57461C9.02139 1.21881 8.83108 0.858877 8.61595 0.453436C8.62009 0.308635 8.41322 0.230029 8.3222 0.0810915C8.23532 -0.0554347 8.12777 -0.0140631 7.99538 0.163835L7.9871 0.15556Z" fill="#5C3A2E"/>
<path d="M0.0356299 22.7941C-0.0305646 23.1416 0.00254778 23.3443 0.0770166 23.485C0.21768 23.7498 0.412112 23.907 0.631381 24.0063C1.02441 24.1925 1.46296 24.2752 1.85599 24.4572C2.52207 24.7634 3.26263 24.8792 3.93285 25.1647C4.44172 25.3798 5.00023 25.4708 5.52979 25.628C5.8318 25.7191 6.14208 25.7853 6.42754 25.9218C6.75851 26.079 7.135 26.1245 7.49079 26.2155C7.95829 26.3314 8.4258 26.4513 8.89744 26.5548C9.10429 26.6003 9.31114 26.6292 9.50973 26.6996C9.71245 26.7699 9.92344 26.8154 10.122 26.9106C10.3454 27.014 10.6102 26.985 10.8005 27.1878C10.8378 27.225 10.8998 27.1753 10.9536 27.0305C11.0032 26.9064 10.9867 26.8278 10.966 26.7823C10.9122 26.6582 10.8709 26.5051 10.8336 26.3479C10.8129 26.2693 10.7881 26.2114 10.7509 26.1741C10.5647 25.9838 10.3454 25.897 10.122 25.8184C9.80346 25.7108 9.47249 25.6446 9.14152 25.5867C8.99671 25.5619 8.89744 25.4129 8.74436 25.4129C8.69472 25.4129 8.64506 25.4129 8.60369 25.3964C8.42165 25.326 8.25203 25.2185 8.06172 25.1812C7.72248 25.1109 7.43289 24.8999 7.0895 24.842C7.07709 24.842 7.06467 24.8378 7.0564 24.8296C6.86609 24.6269 6.60545 24.6144 6.36136 24.5524C6.01797 24.4614 5.67459 24.3621 5.32293 24.2959C5.24432 24.2835 5.21123 24.1511 5.12021 24.1718C4.90508 24.2297 4.75613 24.1014 4.56996 24.0766C4.1728 24.0187 3.83769 23.8036 3.46535 23.6836C3.39915 23.6629 3.32053 23.667 3.26675 23.6133C3.19228 23.5429 3.09713 23.5222 2.98957 23.5346C2.94819 23.5388 2.91098 23.5181 2.87788 23.5015C2.7248 23.4312 2.58413 23.3361 2.42278 23.2947C2.23247 23.245 2.07941 23.1044 1.89323 23.0506C1.74843 23.0051 1.62016 22.9182 1.48363 22.8479C1.31815 22.761 1.13199 22.7279 0.94995 22.67C0.780327 22.6121 0.606572 22.5583 0.412125 22.4962C0.387302 22.4135 0.259051 22.521 0.180445 22.5086C0.110114 22.4962 0.0563248 22.6038 0.0190903 22.7982L0.0356299 22.7941Z" fill="#5C3A2E"/>
<path d="M48.1092 10.2295C47.7576 10.2833 47.5797 10.3826 47.4721 10.5026C47.2694 10.726 47.1867 10.9577 47.1618 11.1976C47.1122 11.632 47.1742 12.0706 47.1287 12.505C47.046 13.2331 47.1618 13.9778 47.0874 14.706C47.0336 15.2562 47.1039 15.8188 47.0998 16.3732C47.0998 16.6876 47.1163 17.0062 47.0543 17.3124C46.9839 17.6723 47.0253 18.0405 47.0129 18.4046C46.9964 18.8803 46.9591 19.3561 46.9177 19.8319C46.9012 20.0387 46.8888 20.2497 46.835 20.4525C46.7812 20.6593 46.744 20.8703 46.6571 21.0689C46.5578 21.2882 46.5868 21.5529 46.3758 21.735C46.3385 21.7681 46.3841 21.8343 46.5247 21.8963C46.6447 21.9501 46.7274 21.9418 46.7729 21.9212C46.9012 21.8715 47.0543 21.8343 47.2156 21.797C47.2984 21.7764 47.3563 21.7474 47.3935 21.7102C47.5921 21.5116 47.679 21.2675 47.7493 21.0234C47.8486 20.6759 47.89 20.3159 47.9065 19.9601C47.9148 19.8071 48.0472 19.6788 48.0265 19.5175C48.0182 19.4678 48.0141 19.414 48.0265 19.3685C48.0679 19.1699 48.1423 18.9714 48.1465 18.7686C48.1548 18.4087 48.2913 18.0653 48.2706 17.7013C48.2706 17.6888 48.2706 17.6764 48.2789 17.664C48.432 17.4199 48.374 17.1551 48.3699 16.8986C48.3657 16.5304 48.3699 16.1664 48.3285 15.8023C48.3202 15.7196 48.4361 15.6492 48.3906 15.5706C48.2747 15.3762 48.3492 15.1941 48.3202 15.008C48.2623 14.6067 48.3657 14.2178 48.3699 13.8206C48.3699 13.7503 48.3409 13.6758 48.374 13.6055C48.4195 13.5103 48.4071 13.411 48.3657 13.3117C48.3492 13.2704 48.3575 13.2331 48.3657 13.1918C48.3864 13.0221 48.4319 12.8566 48.4195 12.687C48.4071 12.4884 48.4899 12.2981 48.4857 12.0995C48.4816 11.9465 48.5271 11.7934 48.5478 11.6403C48.5767 11.4541 48.5478 11.2597 48.5436 11.0694C48.5436 10.8874 48.5354 10.7053 48.5312 10.4985C48.6016 10.4447 48.4568 10.3619 48.4443 10.2833C48.4319 10.2089 48.3161 10.1964 48.1175 10.2295H48.1092Z" fill="#5C3A2E"/>
<path d="M75.0464 23.6505C74.8395 23.3609 74.6699 23.2492 74.5127 23.2037C74.2231 23.1209 73.9749 23.154 73.7515 23.2409C73.3419 23.394 72.9778 23.6463 72.5682 23.7994C71.8815 24.0559 71.2692 24.4945 70.5865 24.7592C70.0694 24.9578 69.6019 25.2764 69.1054 25.5246C68.8241 25.6653 68.5511 25.8225 68.2449 25.9094C67.8933 26.0087 67.583 26.2155 67.252 26.3686C66.8176 26.5672 66.379 26.7492 65.9364 26.9271C65.7419 27.0057 65.5516 27.0926 65.3489 27.134C65.142 27.1795 64.9352 27.2415 64.72 27.2539C64.4801 27.2622 64.2567 27.4112 64.0002 27.3036C63.9547 27.2829 63.9174 27.3574 63.9216 27.5104C63.9257 27.6428 63.9754 27.709 64.0126 27.7421C64.116 27.8331 64.2194 27.9531 64.3229 28.0814C64.3767 28.1434 64.4263 28.1848 64.4801 28.2014C64.749 28.2882 65.0055 28.2551 65.2537 28.2096C65.6054 28.1393 65.9488 28.0152 66.2715 27.8662C66.4121 27.8042 66.59 27.8662 66.7183 27.7711C66.7597 27.7421 66.801 27.7132 66.8507 27.7008C67.0451 27.647 67.2561 27.6263 67.4382 27.5353C67.765 27.3781 68.1332 27.345 68.4435 27.1629C68.4559 27.1588 68.4642 27.1505 68.4766 27.1505C68.7621 27.1753 68.9731 27.0057 69.2006 26.8857C69.5233 26.7161 69.8501 26.5548 70.1604 26.352C70.2307 26.3065 70.3466 26.381 70.3962 26.3024C70.5162 26.1121 70.7106 26.0955 70.8679 25.988C71.1988 25.7522 71.5919 25.6694 71.9476 25.4957C72.0097 25.4626 72.0635 25.4046 72.1421 25.4046C72.2497 25.4046 72.3283 25.3509 72.3986 25.264C72.4276 25.2309 72.4689 25.2226 72.5062 25.2102C72.6634 25.1523 72.833 25.1192 72.9819 25.0323C73.1557 24.933 73.3626 24.9206 73.5363 24.8254C73.6729 24.751 73.8259 24.722 73.9749 24.6765C74.1569 24.6186 74.3141 24.5027 74.4796 24.4159C74.6409 24.329 74.8023 24.2462 74.9843 24.1469C75.0629 24.1842 75.0712 24.0187 75.1374 23.969C75.1953 23.9235 75.154 23.816 75.0381 23.6505H75.0464Z" fill="#5C3A2E"/>
<path d="M68.6545 5.3725C68.278 5.34768 68.038 5.44283 67.8477 5.59177C67.4878 5.86896 67.2271 6.19993 67.0079 6.55573C66.6066 7.20112 66.2673 7.89203 65.8205 8.52502C65.0676 9.57999 64.4304 10.7343 63.6444 11.8016C63.0486 12.6043 62.5646 13.4979 62.0516 14.3625C61.7537 14.8549 61.4889 15.3637 61.1662 15.8395C60.7939 16.3939 60.525 17.0145 60.2312 17.6143C59.8465 18.4004 59.4741 19.1906 59.1349 19.9932C58.9859 20.3449 58.8577 20.7007 58.6881 21.0441C58.5184 21.3957 58.3778 21.7598 58.1916 22.1073C57.9847 22.5003 57.9103 22.9471 57.6166 23.3029C57.5628 23.3691 57.5917 23.4684 57.7282 23.547C57.8441 23.6132 57.9392 23.576 57.9972 23.5346C58.1544 23.4271 58.3364 23.336 58.5185 23.2533C58.6136 23.2119 58.6839 23.1581 58.7418 23.0878C59.0232 22.7486 59.2093 22.3679 59.3872 21.9832C59.6437 21.4371 59.8589 20.8744 60.0864 20.3118C60.1816 20.0677 60.3967 19.8898 60.4712 19.6333C60.496 19.5505 60.5208 19.4719 60.5622 19.3975C60.7318 19.0913 60.9346 18.8059 61.0794 18.4873C61.3359 17.9246 61.7289 17.4365 61.9936 16.8779C62.0019 16.8572 62.0143 16.8407 62.0268 16.8242C62.3619 16.5056 62.5315 16.0795 62.7466 15.6906C63.0528 15.1321 63.3879 14.5859 63.694 14.0192C63.7644 13.8909 63.934 13.8413 63.9671 13.7006C64.0498 13.3572 64.2898 13.1214 64.447 12.8277C64.7821 12.1988 65.262 11.6693 65.6592 11.0735C65.7295 10.9659 65.7791 10.8418 65.8743 10.7549C66.0108 10.6308 66.0977 10.4819 66.1556 10.3081C66.1804 10.2378 66.2301 10.184 66.2715 10.1261C66.4535 9.882 66.6521 9.64618 66.8093 9.38554C66.9872 9.07526 67.2478 8.81875 67.4257 8.50433C67.5664 8.26437 67.7402 8.04097 67.9057 7.80929C68.1001 7.52382 68.2408 7.20526 68.398 6.89498C68.5511 6.60124 68.6959 6.29509 68.8572 5.9517C68.9648 5.88965 68.8903 5.69934 68.9399 5.56281C68.9855 5.4387 68.882 5.38078 68.671 5.36423L68.6545 5.3725Z" fill="#5C3A2E"/>
</svg>
