<svg width="144" height="123" viewBox="0 0 144 123" fill="none" xmlns="http://www.w3.org/2000/svg">
<path d="M14.5449 80.2589C13.7655 79.9231 13.0158 79.5076 12.3276 79.0146C10.6042 77.8328 9.16557 76.1496 8.22131 74.1825C7.09561 71.8367 6.89475 69.4386 6.91742 67.8534C6.94581 66.1666 7.29309 64.8369 7.53773 63.8674C7.58628 63.6803 7.63482 63.4932 7.67409 63.302C7.80672 62.7466 7.94664 62.2868 8.08284 61.837C8.13321 61.6737 8.18731 61.5006 8.23768 61.3374C9.02527 58.5446 10.3449 56.374 11.404 54.6113L11.4915 54.464C11.7261 54.0681 11.9439 53.6881 12.1617 53.3081C12.6997 52.361 13.3084 51.2826 14.1103 50.2065L14.2108 50.0533C14.4751 49.6355 14.892 48.983 15.5317 48.3109C16.1869 47.2525 16.9159 46.4571 17.4924 45.8387L17.7082 45.608C17.803 45.4986 17.9463 45.3177 18.0895 45.1367C18.7406 44.3192 19.68 43.1637 21.0666 42.224C22.1321 41.1921 23.3961 40.292 24.8215 39.5655L24.9943 39.4781C25.2786 39.3233 25.5685 39.1823 25.838 39.0095C27.7394 37.76 29.8126 37.1739 31.2058 36.8495C32.012 36.6537 33.3643 36.3233 34.9781 36.3021C36.3778 34.0042 38.1795 32.3303 39.7691 30.9926C42.5188 28.6869 45.9488 27.2407 49.6893 26.8067C50.9114 26.6514 52.1872 26.6116 53.5557 26.6696C54.3499 25.7867 55.0861 25.2024 55.6604 24.7911C57.2274 23.6864 58.6914 23.173 59.6519 22.8818C60.5473 22.6204 61.255 22.4861 61.8828 22.3636C61.8828 22.3636 62.2803 22.2806 62.3249 22.2767C63.8573 22.0124 65.4081 21.8138 66.9477 21.7028C69.141 21.5152 71.7132 21.2943 74.4388 21.6134C74.552 21.6275 74.7414 21.6398 74.9215 21.6481C75.7515 21.7052 76.8488 21.7966 78.0572 22.167C79.8415 22.3232 81.4229 22.8197 82.7185 23.2161L82.8484 23.2721C83.2753 23.3983 83.6373 23.4964 83.9993 23.5946C84.9163 23.851 85.952 24.1355 87.0748 24.6193C87.8357 24.9471 88.5371 25.3187 89.2031 25.7559C89.2588 25.7799 89.3237 25.8079 89.3794 25.8319C91.4597 26.8091 93.5296 28.5331 95.1273 30.6547L96.699 32.7882C98.0631 34.6126 99.2151 36.7733 100.284 39.5572C100.721 40.693 101.2 41.9743 101.571 43.371C101.918 43.9132 102.223 44.5649 102.423 45.3559C103.924 46.2107 105.215 47.1946 106.276 47.987C107.66 49.0686 108.856 50.1619 110.128 51.4844C110.768 52.1645 111.313 52.8385 111.789 53.4367C112.032 53.7379 112.28 54.0529 112.542 54.362C114.104 56.2027 115.251 58.4649 116.049 61.2822C116.544 63.0674 116.894 64.8942 117.168 67.0693C117.305 68.2844 117.284 69.292 117.26 70.1025C117.252 70.2957 117.248 70.4789 117.25 70.6761C117.251 71.0465 117.247 71.403 117.23 71.7654C117.226 71.8909 117.213 72.0123 117.218 72.1418C117.216 72.1756 117.216 72.2334 117.214 72.2672C117.233 74.5177 116.84 76.6021 116.407 78.334C118.881 80.6482 120.771 83.7162 121.791 87.2069C122.619 90.0601 122.689 93.0953 121.996 96.0097C121.583 97.7735 120.897 99.258 120.342 100.452L120.115 100.944C119.4 102.508 118.507 103.856 117.437 105.014C116.444 106.111 115.197 107.111 113.879 107.896C113.282 108.251 112.691 108.563 112.134 108.843C111.918 108.958 111.706 109.063 111.504 109.172L111.233 109.321C110.398 109.794 108.854 110.666 106.657 110.921C105.059 111.1 103.808 110.872 103.004 110.688L101.482 110.321L99.8615 109.9C98.8201 109.659 97.7844 109.317 96.7081 108.853C95.511 108.338 94.2901 107.684 92.8485 106.786L92.6648 106.672C91.1917 105.772 89.5219 104.763 87.9401 103.203C87.8771 103.141 87.8047 103.076 87.7324 103.01C87.2706 102.603 86.5863 101.984 85.9413 101.059C84.8621 100.028 84.1357 98.9173 83.6169 98.1158L83.4891 97.9105C83.3001 97.6095 83.111 97.3662 82.9312 97.1269C82.4475 96.4908 81.8377 95.6733 81.3099 94.6369C81.1672 94.4714 80.6018 93.7655 80.459 93.5999C80.3848 93.5679 80.3069 93.5459 80.2289 93.5239C79.5663 93.3077 78.7514 93.0375 77.8328 92.6417C77.6008 92.5418 77.3689 92.4418 77.1313 92.3279C75.4222 91.5106 73.9439 90.3651 72.7927 88.9791C72.3357 89.1058 71.8137 89.2045 71.2603 89.2435C69.2782 89.7879 67.4754 89.5659 66.547 89.4548L66.0272 89.4042C64.9596 89.2909 63.5039 89.1492 61.9729 88.4895C61.6852 88.3655 61.4106 88.2356 61.1434 88.0858C60.8761 87.9938 60.5755 87.8758 60.2785 87.7479C59.2114 87.2881 58.1724 86.667 57.0817 85.8388C57.0298 85.8048 56.9908 85.7649 56.9481 85.735C56.6569 85.5055 56.4139 85.3199 56.221 85.2021C54.6662 84.2894 53.3995 83.0964 52.3796 82.1369C52.1422 81.9075 51.9308 81.7239 51.7286 81.5443C51.5599 81.3907 51.3818 81.2331 51.1982 81.0615C50.8731 81.1526 50.5425 81.2297 50.21 81.283C50.0948 81.3027 49.9704 81.3184 49.846 81.3341C48.5527 81.9096 47.4252 82.1288 46.5541 82.2967C46.333 82.3401 46.1027 82.3796 45.8872 82.437C45.0978 82.6169 44.4478 82.6258 44.0245 82.6052C42.5942 82.9135 41.3614 82.7522 40.5185 82.6433L40.0209 82.5907C39.371 82.5418 38.2737 82.4504 37.0674 81.9307C36.8837 81.8746 36.7166 81.8026 36.5496 81.7307C36.2341 81.5947 35.9298 81.429 35.6515 81.2512C35.0707 80.9894 34.6292 80.672 34.3157 80.4445C33.6532 80.1128 33.0744 79.7016 32.5756 79.2209C32.3047 79.0233 32.0655 78.8277 31.8485 78.6302C31.7223 78.5643 31.6054 78.5024 31.5015 78.4345C31.3027 78.5337 31.0946 78.629 30.8864 78.7242C29.0803 79.5756 27.1705 80.1859 25.2369 80.5432C24.5106 80.6695 23.8346 80.748 23.14 80.8186C22.6812 80.8637 22.2188 80.9187 21.7359 80.9995C20.2834 81.2521 18.7718 81.2596 17.3126 81.0122C16.3899 80.8574 15.4674 80.587 14.5673 80.1992L14.5449 80.2589Z" fill="#F7F6EF"/>
<path d="M37.8936 66.7078C37.7061 66.5909 37.5119 66.4025 37.286 66.3602C35.6068 66.0321 33.9488 66.5132 32.7311 67.1998C32.1597 67.531 31.6018 67.7653 31.0548 67.97C30.1102 68.3312 29.1809 68.7104 28.2785 69.1359C26.3077 70.0507 24.194 70.6969 22.0334 71.0824C19.8917 71.4763 17.9561 71.4581 16.5424 70.2869C15.7578 69.6442 15.3591 68.8172 15.3654 67.5743C15.3812 66.3355 15.6284 65.0044 16.0195 63.7595C16.8162 61.2304 18.1919 58.8877 19.6206 56.5798C20.8127 54.6477 21.9328 52.6725 23.3838 50.9916C24.737 49.4276 26.0107 47.6914 27.8618 46.8039L29.6571 45.9488C30.5725 45.5177 31.5691 45.3738 32.4956 45.0619C32.6356 45.0092 32.7909 44.9748 32.939 44.96C33.9894 44.9084 34.9691 45.0198 35.9895 44.8407C36.441 44.7767 36.8919 44.8038 37.3722 44.2725C37.6845 43.9301 37.7442 43.6478 37.438 43.3758C37.1013 43.0675 36.7015 42.8114 36.2939 42.6662C34.8097 42.1954 33.2573 42.4488 31.824 42.7661C30.5366 43.0448 29.2544 43.4286 28.129 44.133C27.662 44.4187 27.1549 44.664 26.6574 44.9134C25.7347 45.3642 24.8646 45.9409 24.1356 46.6713C24.0451 46.7685 23.9662 46.8938 23.8487 46.9449C22.686 47.5414 21.9948 48.677 21.1558 49.5875C20.5016 50.2936 19.8001 50.9789 19.3945 51.8746C19.3656 51.9533 19.2895 52.0112 19.2228 52.0732C18.6675 52.4801 18.3878 53.1226 17.9974 53.6478C17.1321 54.8095 16.5051 56.0991 15.7314 57.3698C14.7688 58.9458 13.7382 60.6176 13.2076 62.601C13.0598 63.1531 12.8707 63.6983 12.7382 64.2686C12.5035 65.2966 12.1946 66.2577 12.1896 67.467C12.1858 68.4938 12.3581 69.7583 12.9302 70.8902C13.4776 71.9999 14.2952 72.8514 15.1618 73.4503C16.0247 74.0589 17.0216 74.4522 17.9665 74.6284C18.9114 74.8045 19.8254 74.7957 20.6739 74.6665C21.8671 74.4949 22.9873 74.4626 24.1036 74.2914C25.6111 74.041 27.0877 73.6057 28.479 72.9842C29.8537 72.3782 31.1919 71.7219 32.4799 70.9634C33.7809 70.1993 34.9097 69.3364 36.0926 68.7146C36.5866 68.475 37.1039 68.2914 37.6148 68.185C37.7215 68.1634 37.8434 68.16 37.9245 68.0586C38.0737 67.8614 38.3465 67.7759 38.369 67.3858C38.3887 67.063 38.1212 66.8652 37.8995 66.7218L37.8936 66.7078Z" fill="#5C3A2E"/>
<path d="M53.2126 70.9666C53.0852 70.8993 52.9348 70.7767 52.8434 70.7592C52.189 70.6184 51.6856 70.5101 51.3445 70.6989C51.1916 70.7898 50.9817 70.7992 50.7999 70.8209C50.4657 70.8434 50.1675 70.9156 49.8911 71.0764C48.6525 71.7853 47.1063 72.1785 45.4892 72.676C44.5826 72.955 43.6154 73.1623 42.6733 73.3015C41.7441 73.4351 40.819 73.4689 39.9352 73.2725C39.2024 73.1085 38.4322 72.9281 37.7326 72.4965C37.0763 72.0952 36.2609 72.0079 35.6739 71.3886C35.4794 71.1789 35.267 71.0179 35.0439 70.886C34.6935 70.6868 34.4167 70.3168 34.0198 70.244C33.9601 70.229 33.9004 70.2141 33.8514 70.17C33.5274 69.8695 33.2011 69.5455 32.7175 69.6491C32.5063 69.6918 32.3107 69.6623 31.9523 70.1935C31.7194 70.5315 31.6228 70.7939 31.6614 71.0141C31.7114 71.2619 31.7722 71.4806 31.8688 71.602C32.2212 72.0618 32.7425 72.1215 33.1793 72.3812C33.573 72.6106 33.9322 72.904 34.371 73.0403C34.5465 73.0949 34.7027 73.2313 34.8425 73.383C35.1068 73.6685 35.3726 73.9208 35.7035 74.0549C35.7409 74.0714 35.7984 74.0628 35.8215 74.1181C36.0562 74.6616 36.5486 74.6521 36.9301 74.944C37.2289 75.1656 37.5142 75.4829 37.9303 75.4738C37.9655 75.4667 37.9958 75.5026 38.0131 75.5441C38.1964 75.873 38.4989 75.8479 38.763 75.9865C39.3509 76.2787 40.0344 76.2517 40.6305 76.3443C41.3812 76.4596 42.1154 76.5903 42.7893 76.4123C42.9725 76.3573 43.1623 76.3729 43.3441 76.3512C43.6632 76.3108 43.9955 76.4117 44.3124 76.3477C45.4333 76.1064 46.6258 76.0545 47.7266 75.4544C48.11 75.239 48.5421 75.3047 48.9669 75.2429C49.5288 75.1625 50.0834 74.9545 50.6032 74.6636C51.6135 74.1027 52.6728 73.5859 53.4553 72.6991C53.6333 72.5402 53.7961 72.3633 53.9496 72.1824C53.9862 72.142 54.0192 72.1114 53.9917 72.0089C53.9295 71.8235 53.9609 71.6793 53.7188 71.3922C53.5163 71.1452 53.3292 71.063 53.1867 70.9778L53.2126 70.9666Z" fill="#5C3A2E"/>
<path d="M95.6437 46.9584C95.4494 47.0099 95.2186 47.0111 95.0571 47.1226C93.8811 47.9067 92.8344 48.8164 92.0407 49.9631C91.6826 50.4907 91.262 50.9793 90.8545 51.4623C90.1443 52.2917 89.4989 53.1839 88.9384 54.1135L85.3294 60.4508C84.2931 62.5872 83.3012 64.8116 82.3135 66.9351C81.1542 69.2572 79.7117 71.4545 78.0643 73.493C76.4053 75.5036 74.668 77.5482 72.5869 78.9159C70.8703 80.0673 68.8211 80.661 66.7253 80.366C64.8007 80.1122 62.7482 79.6992 61.0937 78.4107L59.4603 77.1544C58.6182 76.5207 57.9216 75.6999 57.0665 75.0719C56.9357 74.98 56.7991 74.8742 56.6922 74.7471C55.9425 73.8915 55.2334 72.9851 54.2289 72.4056C53.7939 72.1569 53.3877 71.8294 52.7097 72.0334C52.2783 72.1632 52.1089 72.3855 52.2155 72.7523C52.3491 73.1653 52.5051 73.5767 52.7445 73.9105C53.5608 75.0925 54.6972 75.97 55.7525 76.9489C56.6937 77.8204 57.656 78.724 58.7819 79.3913C59.238 79.6722 59.695 80.0105 60.1484 80.3587C60.9775 80.9981 61.8934 81.55 62.8829 81.8717C63.0092 81.9159 63.1594 81.9249 63.2713 82.0085C64.3952 82.8005 65.7709 82.8468 67.0866 83.0266C68.0997 83.1645 69.21 83.2766 70.2191 82.8873C70.3069 82.8574 70.4099 82.8457 70.5056 82.8536C71.2908 82.9253 72.0054 82.5319 72.6956 82.2648C74.2492 81.647 75.4355 80.5362 76.556 79.5449C77.9502 78.2858 79.2292 77.1016 80.3088 75.6239C80.6048 75.206 80.9501 74.8327 81.2613 74.433C81.8193 73.7193 82.474 73.071 82.9767 72.2988C83.8557 70.9497 84.7229 69.5727 85.4616 68.1277C86.1351 66.711 86.7897 65.286 87.3346 63.8013C87.5259 63.2802 87.7832 62.7881 88.0559 62.3143L88.9595 60.9875C89.7524 59.7834 90.4805 58.5164 91.1521 57.2245C92.5293 54.6672 94.1658 52.2698 95.575 49.7152L96.4978 48.157C96.5599 48.0474 96.6446 47.9362 96.6277 47.8031C96.5844 47.5327 96.6832 47.2335 96.3853 46.9995C96.1404 46.8003 95.8583 46.8816 95.6379 46.9444L95.6437 46.9584Z" fill="#5C3A2E"/>
<path d="M76.2055 81.5596C76.3269 81.6127 76.4784 81.7017 76.5531 81.7344C77.022 81.9624 77.293 82.2273 77.3094 82.2121C77.3094 82.2121 77.3748 82.2407 77.433 82.2887C77.5414 82.3475 77.5752 82.3735 77.5227 82.3393C77.3037 82.1983 77.1499 82.0859 76.8531 81.8322C76.5133 81.5483 76.3601 81.3463 76.3837 81.3116C76.3908 81.2923 76.3246 81.2071 76.4108 81.2674C76.4877 81.3235 76.3216 81.1271 76.5322 81.3205C76.6055 81.3864 76.645 81.4262 76.6637 81.4344C76.6917 81.4467 76.8254 81.584 76.7708 81.5263C76.7557 81.5084 76.7614 81.5222 76.7708 81.5263C76.8592 81.61 76.9533 81.7075 76.7779 81.5069C76.7024 81.4176 76.6722 81.3819 76.3062 80.9629C76.0215 80.647 75.8217 80.4245 75.7009 80.2817C75.5427 80.1224 75.4183 79.9892 75.3637 79.9315C75.1567 79.7284 75.2517 79.8824 75.2086 79.8523C75.1619 79.8318 75.07 79.7578 75.0988 79.8266C75.1103 79.8542 75.0615 79.8103 74.9939 79.7582C74.8775 79.6622 74.7762 79.5841 74.7748 79.6172C74.463 79.3456 74.614 79.5242 74.5184 79.4598C74.438 79.4133 74.2936 79.3051 74.4086 79.4342C74.4179 79.4383 74.4086 79.4342 74.3806 79.4219C74.1909 79.2601 74.2628 79.359 74.2197 79.3289C74.1171 79.2839 74.2099 79.4145 74.1841 79.4257C74.136 79.4383 74.0204 79.3989 74.1377 79.5515C74.1679 79.5872 74.155 79.5928 74.1572 79.6162C74.1651 79.6534 74.066 79.5988 74.102 79.6482C74.2272 79.838 74.1742 79.8935 74.5127 80.2105C74.6349 80.3202 74.5229 80.2711 74.4877 80.2782C74.4584 80.2991 74.4908 80.3582 74.5849 80.4557C74.7639 80.6466 74.7532 80.6756 74.9287 80.8762C74.9495 80.9078 74.9704 80.9395 74.9913 80.9711C74.9913 80.9711 74.9913 80.9711 75.0811 81.0217C75.2362 81.1009 75.3166 81.1474 75.6491 81.3044C75.9291 81.4271 76.09 81.5201 76.2206 81.5774L76.2055 81.5596Z" fill="#5C3A2E"/>
<path d="M107.138 81.679C107.245 81.8617 107.315 82.0849 107.455 82.2369C108.448 83.2619 109.259 84.2518 110.157 85.1219C110.56 85.5363 110.909 86.0066 111.18 86.5106C111.673 87.3605 112.089 88.2108 112.447 89.0697C113.261 90.9092 113.336 93.1024 112.71 95.1006C112.39 96.0907 111.925 97.0288 111.28 97.8081C110.64 98.6013 109.888 99.198 108.851 99.7711L107.033 100.781C106.441 101.12 106.022 101.343 105.554 101.375C105.065 101.431 104.394 101.306 103.731 101.184C103.069 101.063 102.418 100.912 101.771 100.718C99.1744 99.9717 96.6724 98.7016 94.4544 97.0136C92.5996 95.6098 90.8481 94.0138 89.4671 92.0605C88.1418 90.2222 86.6554 88.4375 84.8987 86.7374C84.3212 86.1781 83.5943 85.7001 82.8476 85.3943C81.7134 84.9294 80.6858 84.5001 79.7879 84.1618C79.6569 84.1041 79.5164 84.0424 79.4055 83.9596C78.6091 83.3153 78.0802 82.5059 77.375 81.732C77.0685 81.3823 76.8598 80.9738 76.183 80.744C75.751 80.588 75.4726 80.6352 75.4008 81.0673C75.3204 81.5523 75.3336 82.0784 75.4821 82.5621C76.0207 84.292 77.476 85.5993 79.0273 86.3495C80.3914 87.0172 81.6461 87.3315 82.6082 87.732C83.0107 87.9091 83.3869 88.1876 83.7192 88.526C84.3256 89.1546 84.8587 89.8641 85.4903 90.5717C85.5754 90.6657 85.677 90.7443 85.7197 90.8649C86.1738 92.026 87.0778 92.9099 87.8348 94.0458C88.4186 94.9133 89.0183 95.8557 89.8628 96.4873C89.9399 96.5438 89.9969 96.6254 90.041 96.7126C90.4028 97.4147 91.0397 97.8418 91.5681 98.357C92.7439 99.5074 94.1586 100.333 95.531 101.186C97.2411 102.243 99.0527 103.232 100.994 103.69L102.615 104.132L104.068 104.499C104.578 104.621 105.208 104.74 105.929 104.673C107.294 104.538 108.206 103.921 108.829 103.618C109.479 103.271 110.229 102.945 111.017 102.488C111.797 102.051 112.614 101.426 113.263 100.727C113.915 100.019 114.444 99.1998 114.835 98.3426C115.378 97.1334 115.963 95.9545 116.259 94.648C116.655 92.8883 116.59 90.9936 116.05 89.2402C114.99 85.822 112.712 82.9653 109.828 81.4029C109.248 81.0574 108.634 80.7759 108.014 80.5375C107.893 80.484 107.743 80.4181 107.613 80.4743C107.371 80.5713 107.042 80.5508 106.935 80.8998C106.846 81.2001 107.02 81.4686 107.138 81.679Z" fill="#5C3A2E"/>
<path d="M92.4142 50.503C92.5663 50.6271 92.6931 50.8202 92.8444 50.8868C93.9549 51.4215 94.8542 52.0233 95.8694 52.4589C96.3326 52.6629 96.7692 52.9695 97.1854 53.3015C97.8906 53.8636 98.6169 54.4578 99.3824 55.0351C100.216 55.6653 101.053 56.3769 101.895 57.1362C102.755 57.9039 103.613 58.6476 104.311 59.3782C105.038 60.1213 105.593 60.8231 106.057 61.7135C106.534 62.5982 106.913 63.5999 107.238 64.658C108.745 69.4382 108.679 74.8525 106.95 79.5917C106.589 80.5761 106.197 81.5242 105.628 82.3258C105.072 83.1217 104.301 83.7544 103.426 84.2839C101.768 85.2692 100.22 86.5545 98.3936 87.2824C97.7902 87.5199 97.2008 87.8093 96.6266 88.1168C95.7505 88.5886 94.7912 88.8981 93.9713 89.4862C93.8487 89.5809 93.7202 89.6616 93.5765 89.724C92.5978 90.1164 91.6168 90.485 90.8372 91.2624C90.5058 91.5967 90.1154 91.8822 90.1204 92.6163C90.1235 93.0866 90.2701 93.3455 90.6254 93.3647C91.0222 93.3908 91.4204 93.3832 91.7682 93.2733C93.0122 92.9062 94.0548 92.1303 95.1829 91.5407C96.1897 91.012 97.2329 90.5336 98.193 89.8929C98.5856 89.6312 99.0335 89.4282 99.4931 89.2532C100.328 88.9233 101.138 88.5711 101.89 88.0788C101.989 88.0193 102.079 87.922 102.186 87.9004C103.329 87.6602 104.12 86.9108 105.188 86.306C105.993 85.8485 106.946 85.285 107.524 84.2813C107.575 84.201 107.649 84.1192 107.735 84.0654C108.38 83.5947 108.667 82.8409 109.004 82.223C109.761 80.8183 110.041 79.3977 110.451 77.9541C110.941 76.1689 111.331 74.3281 111.291 72.4348C111.264 71.9085 111.315 71.3819 111.298 70.8598C111.292 69.9194 111.35 68.9842 111.225 68.0374C110.991 66.4019 110.672 64.7865 110.206 63.1859C109.726 61.5909 109.008 59.9256 107.845 58.5784C107.042 57.6533 106.352 56.7205 105.593 55.9173C104.565 54.8585 103.523 53.8967 102.342 52.9875C101.185 52.1006 99.9956 51.2111 98.6965 50.5019C97.3974 49.7926 95.9751 49.2693 94.5151 49.1181C93.9089 49.0341 93.3 49.0176 92.6977 49.0726C92.5721 49.0858 92.4275 49.0908 92.3463 49.1923C92.1839 49.3952 91.9095 49.5145 91.9545 49.9003C92.0024 50.2187 92.236 50.3902 92.4034 50.5325L92.4142 50.503Z" fill="#5C3A2E"/>
<path d="M37.8573 63.3983C37.9183 63.232 38.0617 63.0792 38.1112 62.885C38.1921 62.5455 38.3537 62.1051 38.5007 61.556C38.6463 61.0404 38.7825 60.5206 38.8963 60.0024C39.1275 58.9561 39.2988 57.8948 39.3877 56.8199C39.4703 55.8218 39.6128 54.8388 39.7553 53.8557C40.0128 52.173 40.1633 50.4546 40.2511 48.7881C40.4377 45.1872 40.9006 41.8444 42.7932 39.6315C43.7326 38.4993 44.9944 37.5887 46.4005 36.969C47.8102 36.3396 49.3641 36.001 50.9943 35.9006C51.8636 35.8515 52.7488 35.8777 53.6444 35.9653C54.0986 36.0062 54.5233 36.0682 55.0079 36.1453C55.6313 36.2608 56.3356 36.4232 57.0291 36.615C57.4076 36.3271 57.7063 36.1972 57.9848 36.0925L58.1876 36.0454L58.2937 36.024C58.2937 36.024 58.2763 35.9822 58.2741 35.9585C58.2111 35.8625 58.1848 35.7259 58.1622 35.5795C58.1412 35.161 58.3169 34.5336 58.626 33.84C58.823 33.3925 58.9653 33.0345 59.3286 32.7285C59.6731 32.4142 60.1138 32.165 60.6189 31.9782C61.6161 31.6104 62.8172 31.4006 63.9605 31.1994C66.266 30.8054 68.6347 30.6552 70.9916 30.7158C74.2619 30.815 77.5624 31.1889 80.7391 32.1676C82.2245 32.6401 83.7539 33.0523 85.1559 33.6926C86.5651 34.3134 87.8276 35.2446 88.7831 36.5067C89.4186 37.3323 90.0174 38.1986 90.583 39.0957C91.4673 40.4628 92.042 41.9892 92.7539 43.4395C92.8561 43.6665 92.9713 43.8877 93.044 44.1357C93.5403 45.7867 93.8294 47.4373 94.4001 49.0642C94.6548 49.7675 94.7892 50.5315 95.4501 51.05C95.8731 51.3841 96.1453 51.3562 96.2699 50.8086C96.416 50.2023 96.5 49.5572 96.4721 48.9197C96.3645 46.6556 95.5711 44.4759 94.7324 42.39C93.9772 40.5226 93.0711 38.6798 91.8304 37.0647C91.3165 36.3836 90.7815 35.6705 90.2618 34.9755C89.2781 33.701 87.9559 32.5161 86.4895 31.8133C86.3016 31.7305 86.0914 31.6493 85.9272 31.5315C84.2672 30.3455 82.4275 30.0353 80.679 29.447C79.3229 29.0088 77.9458 28.5386 76.5167 28.4775C76.3861 28.4767 76.2603 28.4327 76.1346 28.3887C75.1844 28.0042 74.1612 27.9969 73.1718 27.868C70.9834 27.5861 68.7879 27.7102 66.617 27.8566C65.259 27.9291 63.8946 28.0784 62.544 28.2792C61.8663 28.4012 61.2217 28.4924 60.4704 28.6957C59.7321 28.8935 58.9262 29.1864 58.1257 29.7318C57.6693 30.0537 57.267 30.3767 56.8318 30.8784C56.4227 31.3689 56.1096 31.9244 55.8999 32.5255C55.8676 32.6135 55.8281 32.7212 55.8173 32.7505C55.803 32.7897 55.798 32.833 55.8002 32.8567C55.8364 32.9067 55.7345 32.8277 55.7201 32.8668C55.6494 32.8811 55.8069 32.9278 55.1987 32.8304C54.5847 32.7191 53.9694 32.6413 53.3469 32.5831C52.1019 32.4666 50.8433 32.4465 49.5756 32.5701C47.0533 32.8118 44.5422 33.7064 42.5554 35.3435C41.1662 36.4822 39.7715 37.7548 38.8418 39.4256C37.5861 41.6575 37.1728 44.181 37.0091 46.5302C36.8619 48.864 36.8012 51.1108 36.6756 53.3858C36.563 55.6552 36.4598 57.9287 36.4107 60.2034L36.3491 61.62C36.3276 62.0652 36.2983 62.6207 36.3962 63.1867C36.4313 63.4182 36.5084 63.7136 36.6769 63.8788C36.8303 64.0259 37.0234 64.2133 37.2207 64.3002C37.418 64.3871 37.5948 64.3513 37.6877 64.1876C37.8236 63.9064 37.7617 63.6291 37.8523 63.4416L37.8573 63.3983Z" fill="#5C3A2E"/>
<path d="M81.9986 86.2001C82.0617 86.2392 82.1175 86.2982 82.1843 86.3274C82.6697 86.4829 83.207 86.5577 83.6705 86.3819C83.8836 86.3145 84.0967 86.2471 84.323 86.174C84.7002 86.0522 85.0442 85.8699 85.3574 85.6511C86.7185 84.6626 87.7918 83.4329 88.6854 82.0899C89.6864 80.5756 90.5348 78.9945 91.3487 77.3868C91.6646 76.7096 91.9806 76.0324 92.3002 75.3453C92.6111 74.7119 92.8017 74.0142 93.1508 73.3975C93.2596 73.1924 93.3625 72.9733 93.4522 72.7599C93.5856 72.4278 93.7668 72.1165 93.8752 71.762C93.8935 71.7125 93.9153 71.6532 93.9336 71.6037C94.1029 71.2644 94.2627 70.9208 94.3272 70.5355C94.3532 70.3746 94.358 70.1813 94.2836 70.0223C94.2424 69.9238 94.2138 69.9113 94.1165 69.995C94.006 70.0844 93.9051 70.178 93.8328 70.2841C93.6093 70.6802 93.4776 71.1279 93.2922 71.5407C93.131 71.9181 92.9544 72.2773 92.8123 72.663C92.754 72.8213 92.6729 72.9811 92.586 73.1268C92.429 73.4026 92.2661 73.6643 92.1472 73.9569C92.1327 73.9965 92.1181 74.036 92.1035 74.0756C91.8388 74.3731 91.7289 74.7615 91.5501 75.0967C91.4003 75.3528 91.222 75.5963 91.1449 75.8956C91.134 75.9253 91.1267 75.9451 91.0967 75.9664C90.9416 76.1167 90.8783 76.3187 90.7673 76.4998C90.5343 76.8917 90.3644 77.3227 90.1314 77.7146C89.8488 78.211 89.5221 78.6767 89.2681 79.1858C89.1944 79.3258 89.1016 79.4574 89.0183 79.5932C88.8722 79.8394 88.6858 80.0448 88.5302 80.2868C88.0064 81.1371 87.3865 81.8878 86.7996 82.6989C86.6031 82.9919 86.3162 83.1993 86.058 83.4192C85.7061 83.7129 85.3637 84.0109 85.0082 84.3145C84.3044 84.902 83.4895 85.2799 82.6489 85.5776C82.4717 85.6377 82.2885 85.6838 82.1091 85.72C82.0732 85.7272 82.0278 85.7303 82.0036 85.7656C81.9554 85.8364 81.8632 85.8764 81.8649 85.992C81.8702 86.0978 81.9524 86.1453 82.0214 86.1985L81.9986 86.2001Z" fill="#5C3A2E"/>
<path d="M54.0999 73.3325C54.1187 73.1912 54.1977 73.0073 54.1887 72.9113C54.2012 72.2153 54.3774 71.798 54.2394 71.45C54.1781 71.2852 54.196 71.0861 54.2295 70.9052C54.2876 70.5972 54.3134 70.2865 54.2679 69.8985C54.1722 69.0746 54.2971 68.0138 54.4131 66.8571C54.5349 65.7144 54.6281 64.5592 54.6794 63.3972C54.791 60.778 55.076 58.2003 55.6012 55.6933C55.8232 54.6405 55.929 53.5713 56.2597 52.5547C56.5684 51.5974 56.534 50.5473 57.089 49.6749C57.2728 49.3874 57.4147 49.093 57.5184 48.7819C57.6937 48.3067 58.0219 47.8985 58.0885 47.3871C58.0949 47.3094 58.1146 47.2261 58.1497 47.1609C58.4374 46.712 58.7502 46.2855 58.6462 45.6649C58.6082 45.4067 58.6349 45.1539 58.114 44.7303C57.7815 44.4581 57.5235 44.3451 57.2967 44.4183C57.0471 44.4929 56.8285 44.6042 56.6863 44.7489C56.2173 45.268 56.1459 45.9727 55.9063 46.5923C55.6885 47.1524 55.4134 47.6874 55.314 48.2879C55.2682 48.5323 55.1387 48.7631 55.0128 48.9839C54.7529 49.3876 54.5348 49.7981 54.4447 50.2531C54.4228 50.3125 54.4523 50.3829 54.3921 50.4256C53.8745 50.8659 53.9653 51.4922 53.7358 52.0241C53.5632 52.4316 53.3011 52.8112 53.3593 53.2852C53.3675 53.3233 53.3301 53.3644 53.2964 53.3957C53.0016 53.6231 53.0426 53.963 52.9367 54.2502C52.6934 54.8796 52.7036 55.5741 52.5367 56.237C52.3342 57.0568 52.042 57.8488 52.0319 58.7184C52.0317 58.9598 51.9668 59.1959 51.9379 59.4247C51.8719 59.8443 51.6839 60.2335 51.6502 60.6558C51.5394 62.1597 51.2073 63.6013 51.3404 65.1661C51.3827 65.7136 51.1618 66.1919 51.027 66.7079C50.8587 67.4047 50.7618 68.1787 50.8156 68.9958C50.8804 70.5652 51.1279 72.4217 52.354 73.6718C52.5896 73.9359 52.8457 74.1746 53.1391 74.3721C53.2023 74.4113 53.2619 74.4604 53.3544 74.4204C53.543 74.3305 53.7178 74.3381 53.8934 74.0125C54.0508 73.7365 54.0533 73.5191 54.083 73.3481L54.0999 73.3325Z" fill="#5C3A2E"/>
<path d="M64.6234 75.3661C64.7278 75.3542 64.8382 75.3565 64.95 75.3248C65.7123 75.037 66.5071 74.7518 67.0996 74.171C67.3831 73.9153 67.688 73.692 67.9929 73.4687C68.5218 73.0902 68.9888 72.6386 69.4404 72.1688C71.3771 70.1163 73.1767 67.9233 74.7397 65.5577C76.4905 62.8946 78.0955 60.1446 79.5451 57.3036C80.1401 56.114 80.6813 54.8894 81.2321 53.669C81.7573 52.5179 82.1257 51.3097 82.6414 50.1544C82.8164 49.7707 82.9723 49.3787 83.1091 48.9782C83.3323 48.3739 83.5555 47.7696 83.7117 47.136C83.735 47.0427 83.762 46.9394 83.795 46.8503C84.0423 46.2105 84.2286 45.5556 84.306 44.8644C84.3153 44.7189 84.3378 44.5676 84.3375 44.4179C84.3467 44.2724 84.253 44.1048 84.2189 43.9863C84.1575 43.8213 84.131 43.8328 83.9908 44.0016C83.805 44.1735 83.715 44.3872 83.6249 44.601C83.3432 45.3638 83.1991 46.1753 82.9307 46.9324C82.701 47.6144 82.4677 48.3063 82.238 48.9884C82.1452 49.2699 82.0258 49.5629 81.9006 49.8418C81.678 50.3543 81.4362 50.8584 81.2327 51.3793C81.2071 51.4486 81.1815 51.518 81.1559 51.5873C80.7649 52.1642 80.5904 52.8474 80.2664 53.4536C80.0165 53.9196 79.7474 54.3772 79.5763 54.9008C79.558 54.9503 79.5338 54.9857 79.4964 55.0269C79.2475 55.3093 79.1254 55.6701 78.9399 55.9917C78.5529 56.7084 78.2005 57.4518 77.7907 58.1701C77.3017 59.0723 76.6994 59.8905 76.2355 60.8152C76.108 61.0701 75.9326 61.3041 75.7764 61.5465C75.5051 61.9801 75.1799 62.3787 74.9182 62.8165C73.9493 64.3258 72.8574 65.7468 71.8348 67.2211C71.4657 67.7386 71.0215 68.1886 70.5965 68.647C69.9966 69.2476 69.4432 69.9031 68.8779 70.5303C67.757 71.789 66.5122 72.9014 65.2851 74.0561L64.5214 74.7691C64.4707 74.816 64.4068 74.8686 64.3812 74.9379C64.3337 75.0667 64.2272 75.2042 64.3069 75.3197C64.3711 75.4168 64.5249 75.392 64.6425 75.3744L64.6234 75.3661Z" fill="#5C3A2E"/>
</svg>
