<svg width="191" height="153" viewBox="0 0 191 153" fill="none" xmlns="http://www.w3.org/2000/svg">
<path d="M174.857 62.3889C172.485 60.3941 169.464 59.488 166.472 59.8966C165.743 60.0006 164.748 60.1317 163.627 60.4137C163.346 60.4842 163.078 60.5518 162.803 60.6474C162.686 60.6768 162.569 60.7061 162.458 60.7606C162.183 60.8031 161.915 60.8707 161.658 60.9353C160.676 61.1821 159.725 61.5667 158.839 62.0803C158.053 62.4894 157.046 63.126 156.039 64.1061C155.149 63.8673 154.216 63.7714 153.279 63.7691C152.841 63.2315 152.307 62.6518 151.642 62.0918C150.373 61.0229 148.902 60.2691 147.347 59.8669C146.356 59.5609 144.021 58.9185 141.135 59.6441C140.995 59.6794 140.86 59.7397 140.72 59.775C140.762 58.786 140.706 57.7954 140.516 56.8122C140.529 56.2535 140.534 55.7104 140.509 55.2011C140.498 54.9262 140.487 54.6513 140.45 54.3698C140.447 53.789 140.403 53.139 140.299 52.438C140.28 52.3503 140.261 52.2626 140.253 52.1719C140.07 51.1076 139.794 50.1854 139.539 49.4696C139.528 49.4194 139.515 49.3568 139.515 49.3037C139.446 48.8187 139.34 48.33 139.221 47.8443C139.105 47.4241 138.979 47.0194 138.819 46.5704L138.814 46.5453C138.6 45.5679 138.268 44.1048 137.623 42.5086C137.494 42.1975 137.367 41.8989 137.243 41.6129C136.496 38.7602 134.78 36.2699 132.406 34.6591C131.555 34.0931 130.656 33.6449 129.726 33.3368C129.806 32.6294 129.836 31.8681 129.807 31.056C129.76 29.9969 129.585 28.9701 129.301 28.0103C129.081 27.114 128.767 26.2411 128.362 25.4043C127.283 23.177 125.591 21.3552 123.502 20.2015C121.765 19.2501 120.015 18.6855 118.258 18.5454C118.027 18.445 117.772 18.3505 117.52 18.2684C116.706 17.984 115.879 17.8086 115.038 17.7423C114.62 17.6358 114.139 17.519 113.593 17.4448C112.703 17.1529 111.777 16.976 110.817 16.9265C110.036 16.7394 108.956 16.5351 107.693 16.5089C107.173 16.4414 106.664 16.424 106.198 16.4354C105.939 16.4345 105.694 16.4431 105.461 16.4488C104.597 16.3883 103.479 16.4051 102.247 16.6885C102.153 16.712 102.072 16.7325 101.99 16.7531C101.174 16.7996 100.354 16.9396 99.548 17.1423C97.1995 17.7329 95.3006 18.8581 94.0267 19.6278C93.6053 19.7867 93.1337 19.9978 92.6408 20.2803C91.5321 20.6781 90.5875 21.2064 89.7933 21.8027C89.726 21.8329 89.6496 21.8785 89.5823 21.9086C87.7825 22.8106 86.3215 23.8522 85.1856 24.7459C84.6219 25.0992 83.8635 25.6335 83.0726 26.4141C82.6655 26.8073 82.3106 27.2138 82.0114 27.5931C81.1979 28.3264 80.2214 29.2726 79.3313 30.5011C79.1951 30.6675 78.9674 30.923 78.7398 31.1786C78.5307 31.3501 78.3416 31.5563 78.1381 31.7529C76.6151 30.0868 74.6836 28.9199 72.551 28.4118C72.4843 28.3889 72.4088 28.3815 72.3304 28.3615C71.9567 28.2307 71.5768 28.128 71.1996 28.0377C69.644 27.6885 67.9062 27.6892 66.335 28.0579C65.8773 28.1068 65.4161 28.1964 64.9604 28.3109C64.458 28.4373 64.0077 28.5769 63.6098 28.7298C62.8758 28.7557 62.0305 28.8361 61.0958 29.0711C59.9157 29.3678 58.8144 29.8562 57.7983 30.5083C51.7031 33.8652 50.0996 39.781 50.6632 44.3323C50.8427 45.8867 51.2883 47.361 51.9539 48.714C52.0072 49.0707 52.0571 49.468 52.1276 49.8468C52.1836 50.2161 52.2604 50.567 52.3433 50.8898C52.5223 52.2726 52.9233 53.5995 53.5236 54.8234C53.5921 55.1366 53.684 55.444 53.7875 55.7485C53.8922 56.3964 54.0326 56.9824 54.18 57.4874C54.279 58.335 54.4388 59.63 54.8555 61.0851C54.9638 61.4677 55.0955 61.8444 55.2361 62.2057C55.2416 62.2307 55.2443 62.2432 55.2498 62.2683C55.3196 62.7002 55.3948 63.1572 55.4989 63.6334C55.5318 63.7838 55.5674 63.9467 55.603 64.1096C55.635 65.3838 55.8505 66.6516 56.253 67.8724C56.2605 67.9631 56.2563 68.0566 56.2665 68.1598C56.3218 69.653 56.6368 71.094 57.1629 72.4292C57.2396 72.78 57.677 75.0628 57.6872 75.166C57.711 75.5566 57.7491 75.9568 57.8107 76.3512C57.6669 76.6517 57.5374 76.9619 57.408 77.272C56.8861 78.6063 56.6047 80.0254 56.5328 81.4448C55.725 81.9784 54.8889 82.6645 54.1048 83.5888C53.6199 84.1337 52.505 85.4055 51.6576 87.3371C51.5344 87.6193 51.4229 87.8985 51.3231 88.1748C51.0264 88.7914 50.7991 89.4434 50.6007 90.1146C50.4119 89.8713 50.2259 89.6404 50.0165 89.4155C48.1406 87.3754 45.6546 86.0968 42.9975 85.8395C40.8172 85.621 39.0337 85.9769 37.8886 86.2648L37.4095 86.3852C36.969 86.4563 36.5312 86.54 36.1339 86.6399C35.7016 86.7486 35.2865 86.8794 34.874 87.0227C34.7572 87.0521 34.652 87.0786 34.5586 87.1021C34.3483 87.1549 34.1496 87.2049 33.9448 87.2828L33.8513 87.3063C33.3372 87.4356 32.8114 87.5678 32.3199 87.7442C32.0566 87.8369 31.8051 87.9266 31.5473 88.0443C31.2085 88.1295 30.8758 88.1867 30.537 88.2719C30.2449 88.3453 29.9644 88.4158 29.6778 88.5143C29.2509 88.6481 28.8385 88.7914 28.4226 88.9753C28.0721 89.0635 27.6281 89.1751 27.1133 89.3574C26.7078 89.4197 26.3167 89.4916 25.9428 89.5856C25.3936 89.7237 24.9111 89.8847 24.5042 90.0531C23.0504 90.564 21.6885 91.3824 20.5263 92.4942C18.7597 94.1679 17.5534 96.3748 17.0197 98.7828C16.4876 100.86 16.4503 102.945 16.8996 105C17.2064 106.403 17.7243 107.701 18.4442 108.908C18.577 109.628 18.7538 110.324 19.0006 111.002C19.0883 111.403 19.1911 111.761 19.2946 112.065C19.3418 112.45 19.4095 112.816 19.489 113.18C19.5139 113.914 19.6046 114.724 19.7964 115.601L19.8977 116.064C20.0977 116.979 20.3693 117.77 20.6457 118.415C20.6841 118.59 20.7224 118.765 20.7635 118.953C20.8347 119.279 20.9149 119.589 21.0013 119.872C21.0506 120.097 21.1136 120.386 21.1875 120.724C21.2641 121.3 21.3804 121.945 21.5689 122.637C21.6173 123.141 21.6836 123.613 21.7733 124.08C21.7855 124.249 21.795 124.405 21.8045 124.561C21.8392 125.002 21.9001 125.449 21.9815 125.878C22.0361 126.354 22.1024 126.826 22.2065 127.302C22.2476 127.49 22.286 127.666 22.3271 127.854C22.4023 128.311 22.5071 128.734 22.601 129.107C22.6147 129.169 22.6167 129.235 22.6187 129.301C22.7439 131.001 23.1982 132.685 24.0093 134.252C25.4613 137.06 27.4998 138.49 28.4319 139.089C30.8166 140.75 33.6727 141.354 36.4246 140.86C36.5002 140.868 36.5758 140.875 36.6514 140.882C37.1832 140.947 38.8165 141.144 40.8145 140.642C41.3286 140.513 41.8813 140.334 42.3996 140.111C42.6044 140.033 42.8038 139.93 43.0059 139.84C43.0176 139.837 43.0409 139.831 43.0409 139.831C44.477 139.126 45.7222 138.113 46.7635 136.899C48.8804 138.35 51.4203 139.086 54.0724 138.869C54.6524 138.815 55.2709 138.713 55.8318 138.572C57.1521 138.24 58.1984 137.725 59.0145 137.229C59.8902 136.837 60.7936 136.346 61.6158 135.822C62.3452 135.493 63.0409 135.067 63.6996 134.584C63.9643 134.385 64.2263 134.174 64.4828 133.938C64.9456 133.517 65.3651 133.068 65.7675 132.597C66.4209 132.71 67.0228 132.757 67.5644 132.753C68.3963 133.006 69.2676 133.158 70.1637 133.197C70.4138 133.213 70.6612 133.217 70.9058 133.208C71.8026 133.194 72.6891 133.077 73.5421 132.863C76.5567 132.105 78.4086 130.37 79.0811 129.725C79.2964 129.525 79.4944 129.304 79.6952 129.095C80.5946 129.318 81.5153 129.47 82.4437 129.488C82.8072 129.515 83.1652 129.518 83.5232 129.52C84.018 129.528 84.4551 129.498 84.831 129.469C85.5003 129.486 86.1676 129.437 86.8212 129.326C87.1216 129.29 87.4335 129.251 87.7634 129.181C87.9882 129.138 88.2129 129.095 88.4116 129.045C88.7154 128.968 89.0075 128.895 89.2563 128.793C89.8639 128.64 90.4578 128.424 91.029 128.162C92.1371 127.817 93.0136 127.372 93.6034 127.025L94.0722 126.802C94.3623 126.663 94.638 126.514 94.9082 126.34C95.5413 126.023 96.2488 125.594 96.9962 125.009C97.1673 125.059 97.3321 125.136 97.5032 125.186C99.1644 125.68 100.831 125.803 102.482 125.52C102.853 125.467 103.229 125.385 103.603 125.291C103.977 125.197 104.442 125.067 104.966 124.869C105.141 124.825 105.299 124.759 105.436 124.711C105.792 124.648 106.122 124.578 106.426 124.502C108.179 124.061 109.765 123.253 111.104 122.162C112.032 122.405 112.994 122.52 113.955 122.516C114.191 122.523 114.45 122.524 114.721 122.522C114.855 122.515 114.989 122.508 115.123 122.501C115.912 122.447 116.697 122.316 117.527 122.108C117.897 122.054 118.3 121.979 118.732 121.871C118.896 121.829 119.048 121.791 119.2 121.753C119.681 121.698 120.156 121.618 120.624 121.501C120.822 121.451 121.033 121.398 121.228 121.335C122.391 121.017 123.496 120.488 124.504 119.798C125.212 119.316 125.849 118.733 126.449 118.093C126.99 118.089 127.479 118.072 127.876 118.025C128.118 118.004 128.345 117.973 128.585 117.939C129.13 117.895 129.678 117.81 130.204 117.677C130.399 117.668 130.606 117.656 130.824 117.64C131.367 117.583 131.903 117.501 132.429 117.369C132.604 117.325 132.768 117.284 132.932 117.243C133.095 117.202 133.259 117.161 133.422 117.119C134.415 116.87 135.364 116.473 136.25 115.959C136.715 115.829 137.148 115.667 137.534 115.517C138.151 115.574 138.77 115.59 139.377 115.543C139.983 115.496 140.639 115.397 141.235 115.248L141.293 115.233C142.01 115.185 142.728 115.084 143.417 114.91C144.025 114.758 144.61 114.558 145.172 114.311C145.509 114.385 145.834 114.461 146.176 114.507C147.435 114.68 148.707 114.638 149.966 114.361C150.26 114.3 150.555 114.239 150.859 114.163C152.044 115.412 153.48 116.399 155.102 116.996C157.37 117.84 159.844 118.104 162.206 117.801C163.051 117.774 163.952 117.666 164.921 117.422C165.213 117.349 165.517 117.272 165.848 117.15C166.061 117.109 166.262 117.072 166.473 117.019C169.382 116.287 171.927 114.339 173.516 111.573C173.749 111.171 173.937 110.793 174.096 110.449C175.217 108.303 175.697 105.816 175.477 103.346C175.464 103.059 175.454 102.731 175.418 102.396C175.404 102.333 175.405 102.28 175.403 102.215C175.509 101.686 175.634 101.02 175.698 100.237C175.709 100.062 175.728 99.7005 175.737 99.6851C175.781 99.436 175.82 99.1619 175.859 98.8878C175.988 98.4059 176.112 97.8459 176.202 97.1886C176.231 96.983 176.271 96.6027 176.271 96.6027C176.524 95.6139 176.619 94.81 176.675 94.3332C176.694 94.2492 176.701 94.1682 176.708 94.0871C176.841 93.5116 176.932 92.973 176.997 92.4807C177.087 92.1013 177.151 91.7152 177.214 91.329C177.25 91.0424 177.289 90.7683 177.304 90.5C177.317 90.391 177.339 90.2664 177.352 90.1574C177.459 89.6283 177.526 89.1486 177.567 88.7153C177.627 88.3697 177.664 88.03 177.698 87.6777C177.69 87.6401 177.707 87.6092 177.711 87.5687C177.871 86.9468 178.045 86.1628 178.153 85.2498C178.244 84.5394 178.27 83.9248 178.282 83.4723C178.283 83.4192 178.295 83.3633 178.296 83.3102C178.369 82.8555 178.416 82.3942 178.437 81.9263C178.429 81.8887 178.491 81.6087 178.502 81.4871C178.793 80.6207 178.977 79.7151 179.074 78.805C179.084 78.7365 179.096 78.6805 179.106 78.6119C179.186 78.2479 179.271 77.8434 179.344 77.3888C179.37 77.1706 179.481 76.3232 179.481 76.3232C179.53 75.9275 179.555 75.5907 179.573 75.2819C179.635 74.8302 179.686 74.2753 179.695 73.6386C179.759 69.1939 178.027 65.1612 174.93 62.5555L174.857 62.3889Z" fill="#F7F6EF" stroke="#5C3A2E" stroke-width="4.90567" stroke-miterlimit="10"/>
<path d="M42.8977 100.353C42.8935 100.512 43.0027 100.851 43.0142 101.084C43.0615 101.308 43.04 101.563 43.1071 101.703C43.178 102.039 43.3706 102.238 43.3622 102.555C43.4016 102.741 43.1675 102.881 42.9572 103.015C42.7588 103.146 42.3502 103.41 42.1759 103.298C42.0809 103.205 41.9502 103.121 41.752 103.133C41.4544 103.329 41.1413 103.332 40.7011 103.447C40.3721 103.494 40.0269 103.702 39.6581 103.799C39.5154 103.836 39.4004 103.827 39.2458 103.867C38.7977 103.945 38.4603 104.309 37.9687 104.358C37.8894 104.34 37.8458 104.312 37.7745 104.33C37.5682 104.424 37.338 104.641 37.1317 104.735C36.9255 104.828 36.7948 104.744 36.5687 104.803C36.0929 104.927 35.7397 105.217 35.1489 105.332C35.0775 105.35 34.919 105.313 34.8476 105.332C34.7406 105.36 34.6571 105.5 34.5857 105.518L34.3359 105.584C34.1297 105.677 33.9393 105.727 33.7766 105.848C33.8396 106.146 34.0795 106.569 33.9561 106.877C34.5863 107.841 34.7219 109.079 35.1773 110.285C35.3279 110.285 35.6568 110.356 35.8352 110.31C36.0851 110.245 36.3788 109.971 36.6921 109.85C36.7635 109.831 36.8984 109.756 36.9619 109.7C37.0333 109.682 37.1918 109.719 37.2631 109.7C37.513 109.635 37.7075 109.427 37.9216 109.371C38.0287 109.343 38.1872 109.38 38.2943 109.352C39.2698 109.097 40.9592 108.537 42.0098 108.46C42.2318 108.441 42.4814 108.494 42.6677 108.484C43.0047 108.475 43.2785 108.285 43.5676 108.407C43.8805 108.64 44.0489 109.081 43.9833 109.663C43.9592 109.905 44.1633 110.338 44.2221 110.795C44.2835 111.264 44.2353 111.749 44.2809 112.144C44.336 112.405 44.4494 112.586 44.4452 112.744C44.4646 113.015 44.304 113.503 44.1929 113.571C44.1294 113.627 43.8121 113.789 43.7407 113.808C43.4274 113.929 43.0985 113.857 42.7773 113.941C42.6623 113.932 42.6067 114.025 42.4996 114.053C42.3212 114.1 42.127 114.072 41.7939 114.159C41.5798 114.215 41.3774 114.386 41.1632 114.442C40.9848 114.489 40.7906 114.461 40.6003 114.511C40.2315 114.607 39.8111 114.756 39.3709 114.871C39.3473 114.759 39.1767 114.843 39.2087 114.638C38.9153 114.675 39.0497 114.955 38.7801 114.986C38.6531 115.098 38.5146 114.977 38.3678 115.055C38.225 115.092 38.1416 115.232 37.9869 115.272C37.7728 115.328 37.5231 115.276 37.3169 115.369C36.9957 115.453 36.5912 115.558 36.0718 115.655C36.0419 116.227 36.1584 116.958 36.4827 117.424C36.5657 117.639 36.4744 117.741 36.4292 117.884C36.5321 118.015 36.5835 118.08 36.6255 118.279C36.6491 118.391 36.6213 118.438 36.6171 118.596C36.6407 118.708 36.7357 118.802 36.7515 118.876C36.7551 119.072 36.6796 119.249 36.7137 119.411C36.7609 119.635 36.8822 119.853 37.0207 119.974C36.8816 120.207 37.0743 120.406 37.0779 120.602C37.1315 121.034 37.111 121.473 37.2002 121.895C37.2317 122.045 37.3425 122.213 37.3488 122.421C37.396 122.645 37.2769 122.794 37.291 123.04C37.2826 123.357 37.3997 123.733 37.4705 124.069C37.5613 124.321 37.5477 124.613 37.6385 124.865C37.7214 125.08 37.5152 125.173 37.4779 125.353C37.5451 125.493 37.7314 125.484 37.7907 125.586C37.6994 125.689 37.8259 125.931 37.8364 125.981C37.8757 126.168 37.828 126.298 37.8343 126.507C37.8301 126.665 37.8694 126.852 37.9392 127.004C38.0536 127.368 38.4523 127.592 38.4996 127.816C38.5547 128.077 38.3227 128.584 38.0689 128.69C37.8983 128.773 37.7398 128.736 37.498 128.721C37.2603 128.665 36.9949 128.537 36.6118 128.506C36.5047 128.534 36.4254 128.515 36.3897 128.525C36.2312 128.487 36.0607 128.571 35.7554 128.612C35.6761 128.593 35.5533 128.547 35.4384 128.537C35.2956 128.575 35.2043 128.677 35.0497 128.718C34.7998 128.783 34.5066 128.702 34.2369 128.851C34.0548 128.702 33.6718 128.553 33.5453 128.31C33.5889 128.338 33.5259 128.04 33.5259 128.04C33.5222 127.844 33.6849 127.723 33.8411 127.511C33.7939 127.287 33.5719 127.306 33.522 127.07C33.5163 126.507 33.1998 126.078 33.1305 125.571C33.0911 125.384 33.131 125.216 33.0969 125.055C33.0218 124.877 32.9468 124.7 32.9048 124.501C32.9011 124.305 32.9331 124.1 32.919 123.855C32.8954 123.743 32.8004 123.649 32.7689 123.5C32.7494 123.23 32.7552 122.9 32.7358 122.629C32.7242 122.396 32.6308 122.132 32.7342 121.908C32.403 121.588 32.6098 121.14 32.5642 120.745C32.5405 120.633 32.4812 120.531 32.4734 120.493C32.4141 120.391 32.4776 120.335 32.4618 120.26C32.5573 119.999 32.2461 119.595 32.191 119.333C32.074 118.957 32.0944 118.519 32.0766 118.077C31.8787 117.853 31.8094 117.347 31.7307 116.973C31.7071 116.861 31.7706 116.805 31.747 116.694C31.6719 116.516 31.5691 116.386 31.5349 116.224C31.4956 116.037 31.5885 115.764 31.5848 115.568C31.5612 115.456 31.4363 115.042 31.4363 115.042C31.4363 115.042 31.3176 114.837 31.2741 114.809C31.3339 114.557 31.1927 114.424 31.0741 114.218C31.0584 114.144 31.0269 113.995 30.9754 113.929C30.9004 113.752 30.7356 113.506 30.7041 113.357C30.6448 113.255 30.7083 113.199 30.6847 113.087C30.6847 113.087 30.6332 113.021 30.6096 112.909C30.5703 112.723 30.6736 112.499 30.6595 112.253C30.6521 111.862 30.5272 111.448 30.438 111.025C30.4144 110.913 30.4343 110.829 30.4107 110.717C30.3871 110.605 30.3514 110.615 30.3278 110.503C30.3199 110.465 30.3677 110.335 30.344 110.223C30.2611 110.008 30.2155 109.613 30.1367 109.24C30.0832 108.808 29.8617 108.472 29.7846 107.928C29.7609 107.816 29.6281 107.365 29.6958 107.151C29.573 107.104 29.5615 106.871 29.4282 106.775C29.5531 106.296 29.1138 105.82 29.3851 105.5C28.9196 104.9 28.9542 103.814 28.4254 103.152C28.2196 102.891 27.8645 102.695 27.8015 102.397C27.7543 102.173 27.9264 101.918 27.9227 101.722C28.1169 101.75 28.3036 101.504 28.6049 101.504C28.7198 101.513 28.8069 101.569 28.9218 101.579C29.243 101.495 29.6003 101.165 29.806 101.426C30.0201 101.37 29.9808 101.184 30.2068 101.125C30.8811 100.87 31.5511 100.773 32.2253 100.518C32.4038 100.472 32.5665 100.35 32.749 100.263C33.5738 100.008 34.4659 99.8933 35.2591 99.6072C35.4375 99.5606 35.6002 99.4393 35.7827 99.3523C36.2507 99.1906 36.7582 99.0973 37.2261 98.9356C37.5117 98.8609 37.8091 98.7832 38.1025 98.7459C38.1738 98.7272 38.368 98.7552 38.368 98.7552C38.4394 98.7365 38.4158 98.6246 38.4515 98.6153C38.7055 98.3914 39.3556 98.3789 39.7601 98.2732C40.5214 98.0742 41.3027 97.7912 42.1192 97.8534C42.2656 98.0119 42.3512 98.2389 42.3785 98.5468C42.4971 98.752 42.6619 98.9976 42.7527 99.2495C42.8235 99.5853 42.7464 99.9335 42.8435 100.394L42.8977 100.353Z" fill="#5C3A2E"/>
<path d="M60.3633 105.564C60.2799 105.704 60.2642 105.629 60.1729 105.732C60.0459 105.844 60.0974 105.909 59.9625 105.984C59.9269 105.993 59.8712 106.086 59.792 106.068C59.3799 106.136 59.275 105.639 58.8433 105.555C58.645 105.685 58.3676 105.679 58.1615 105.772C57.9553 105.866 57.7609 106.074 57.5626 106.205C57.4713 106.307 57.3286 106.344 57.2176 106.413C56.9637 106.637 56.8606 106.742 56.645 106.969C56.5059 107.202 56.4739 107.408 56.2978 107.703C56.0597 108.001 55.6974 108.306 55.5385 108.623C55.4629 108.8 55.5206 109.074 55.4173 109.298C55.4052 109.419 55.2347 109.503 55.187 109.633C55.1592 109.68 55.1749 109.755 55.1471 109.801C55.1629 109.876 55.0994 109.932 55.0716 109.978C55.0517 110.062 55.1466 110.156 55.1345 110.277C55.1225 110.398 54.9557 110.678 55.0926 110.97C55.0449 111.101 54.9179 111.213 54.9058 111.334C54.8938 111.455 54.9887 111.548 54.9688 111.632C54.9488 111.716 54.8775 111.735 54.8854 111.772C54.8455 111.94 54.877 112.089 54.8397 112.27C54.8277 112.391 54.7443 112.531 54.7322 112.652C54.7201 112.773 54.8308 112.941 54.8371 113.149C54.8251 113.27 54.7773 113.401 54.7574 113.485C54.8046 113.709 54.8901 113.936 54.9017 114.169C54.9368 114.514 54.8597 114.862 54.867 115.254C54.8864 115.524 55.0155 115.779 55.015 116.133C55.0464 116.283 54.9709 116.46 55.0129 116.659C55.0585 117.054 55.3512 117.371 55.0958 117.765C55.3014 118.027 55.4813 118.701 55.325 119.031C55.9047 119.994 55.708 121.738 56.2399 122.832C56.4099 123.103 56.8341 122.913 57.0901 123.056C57.1216 123.205 57.3235 123.271 57.409 123.498C57.5155 123.824 57.3115 124.284 57.1092 124.455C56.9466 124.576 56.7327 124.514 56.3917 124.682C56.2212 124.766 56.0268 124.974 55.8007 125.152C55.4279 125.406 54.9243 125.696 54.4314 125.916C54.1896 126.019 53.9358 126.125 53.7297 126.218C53.46 126.367 53.2021 126.631 52.9802 126.65C52.4889 126.7 52.1977 126.212 52.0771 125.64C52.0299 125.416 52.0871 125.152 52.0042 124.937C51.9491 124.676 51.7922 124.468 51.7093 124.253C51.5095 123.663 51.4287 122.923 51.2923 122.276C51.2529 122.09 51.2823 121.872 51.2508 121.723C51.1758 121.546 51.0651 121.378 51.0232 121.179C50.881 120.862 50.752 120.607 50.6219 120.169C50.5904 120.019 50.5049 119.792 50.4734 119.643C50.4104 119.345 50.4598 119.043 50.4325 118.736C50.4089 118.624 50.3296 118.605 50.2982 118.456C50.251 118.232 50.2609 117.744 50.1901 117.408C50.0915 117.119 49.9189 116.836 49.8203 116.547C49.7888 116.398 49.7668 116.115 49.7589 116.078C49.6917 115.938 49.6047 115.882 49.5811 115.77C49.4824 115.481 49.3933 115.058 49.3104 114.844C49.2946 114.769 49.2275 114.629 49.2118 114.554C49.1724 114.368 49.2374 114.141 49.2259 113.908C49.1923 113.392 48.9751 112.898 48.9059 112.391C48.8629 112.009 48.9599 111.576 48.8865 111.228C48.855 111.079 48.78 110.902 48.7459 110.74C48.7118 110.579 48.7464 110.386 48.7123 110.224C48.653 110.122 48.5423 109.954 48.5161 109.829C48.3739 109.512 48.4432 109.127 48.3645 108.754C48.3173 108.53 48.1882 108.275 48.1054 108.061C48.0817 107.949 48.0781 107.753 48.0162 107.638C47.9926 107.526 47.8698 107.479 47.8541 107.405C47.8069 107.181 47.884 106.833 47.8289 106.572C47.7476 106.186 47.5619 105.841 47.6589 105.409C47.6038 105.148 47.4019 105.083 47.2529 104.912C47.3421 104.442 47.0058 104.097 47.0315 103.684C47.1784 103.488 47.345 103.326 47.5669 103.308C47.9355 103.211 48.0976 103.444 48.3101 103.559C48.8172 103.584 49.2138 103.323 49.725 103.189C49.9747 103.124 50.2877 103.121 50.5018 103.065C50.8506 102.935 51.0492 102.568 51.6355 102.611C51.8375 102.676 51.8412 102.872 52.0337 103.071C52.0416 103.109 52.1643 103.155 52.1722 103.192C52.1958 103.304 52.1244 103.323 52.1323 103.36C52.1559 103.472 52.2273 103.454 52.243 103.528C52.2608 103.97 52.1612 104.389 52.4088 104.849C52.6941 104.775 52.8015 104.511 52.9379 104.265C52.9935 104.172 53.1404 103.976 53.1881 103.845C53.2159 103.799 53.1923 103.687 53.2201 103.64C53.2479 103.593 53.3549 103.565 53.3827 103.519C53.4819 103.454 53.5496 103.239 53.6686 103.09C53.7799 102.903 53.99 102.77 54.0551 102.543C54.4793 102.353 54.7746 101.79 55.3279 101.856C55.4947 101.576 56.0553 101.141 56.4102 101.337C56.5964 101.327 56.5493 101.103 56.6484 101.038C57.3139 101.1 57.8378 100.491 58.4519 100.488C58.6738 100.469 58.8123 100.59 58.9826 100.625C59.1331 100.625 59.3194 100.615 59.4975 100.687C59.9314 101.138 59.8259 101.887 59.9162 102.493C59.912 102.651 60.0069 102.745 60.0331 102.869C60.0804 103.093 60.0589 103.348 60.1061 103.572C60.2267 104.144 60.4161 104.684 60.5368 105.256C60.4455 105.359 60.4612 105.434 60.4056 105.527L60.3633 105.564Z" fill="#5C3A2E"/>
<path d="M66.6198 94.3007C66.6156 94.4601 66.4945 94.61 66.446 94.7412C66.4337 94.8631 66.4657 95.013 66.4561 95.1473C66.4598 95.3442 66.3168 95.7503 66.256 96.0034C66.0544 96.1345 65.8807 96.4563 65.6817 96.6C65.6172 96.6562 65.5004 96.6468 65.4076 96.7499C65.1415 96.9374 64.8147 97.2591 64.4884 97.3434C64.307 97.3903 64.138 97.3153 63.9729 97.3184C63.711 97.3465 63.4813 97.4058 63.2195 97.4339C62.9395 97.0184 62.4646 96.8246 62.2049 96.3247C62.0642 96.2029 61.9314 96.1185 61.7959 96.0216C61.716 95.6467 61.4238 95.353 61.3412 94.9656C61.3092 94.8157 61.3337 94.572 61.3636 94.3533C61.3519 94.119 61.3216 93.7972 61.3338 93.6753C61.3541 93.591 61.4629 93.5629 61.4832 93.4785C61.5194 93.4692 61.4955 93.3567 61.5237 93.3098C61.5803 93.2161 61.7253 93.1786 61.7739 93.0474C61.8021 93.0006 61.7056 92.9068 61.7339 92.86C61.8832 92.6632 61.831 92.5976 61.8512 92.5132C61.9563 92.2883 62.2159 92.0103 62.4015 91.8041C62.6154 91.5511 63.0423 91.5199 63.5179 91.3574C63.7898 91.7355 64.3539 91.6293 64.6877 91.9387L65.0503 91.845C65.0743 91.9574 65.1468 91.9387 65.2354 91.9949C65.6097 92.1356 66.083 92.5012 66.3709 92.9542C66.4232 93.0198 66.4392 93.0948 66.4472 93.1323C66.5437 93.226 66.6337 94.0071 66.6198 94.3007ZM68.1113 101.115C68.1592 101.34 68.3107 101.511 68.3586 101.736C68.4306 102.074 68.3762 102.536 68.4561 102.911C68.5281 103.249 68.5947 103.561 68.7216 103.976C68.7616 104.164 68.8421 104.183 68.8122 104.401C68.6607 105.126 69.22 106.313 69.4065 107.188C69.4769 107.697 69.4357 108.222 69.5141 108.769C69.6425 109.909 69.9293 111.075 70.0497 112.178C70.0774 112.487 70.1803 112.79 70.2 113.062C70.3103 113.758 70.3401 114.436 70.3982 115.067C70.4605 115.539 70.621 115.933 70.7116 116.358C70.7676 116.62 70.8465 116.811 70.8944 117.036C70.9707 117.214 71.0858 117.395 71.1258 117.582C71.1418 117.657 71.1295 117.779 71.1173 117.901C71.1332 117.976 71.2378 118.107 71.2378 118.107C71.2617 118.22 71.2052 118.313 71.2292 118.426C71.2532 118.538 71.3417 118.595 71.3577 118.67C71.3534 118.829 71.2846 119.045 71.3272 119.244C71.4178 119.669 71.6066 120.016 71.6167 120.422C71.3585 120.647 71.1432 120.953 70.5968 120.963C70.3269 120.953 70.2726 120.519 70.0392 120.382C69.6686 120.438 69.4149 120.385 69.1291 120.3C68.9637 120.422 68.565 120.406 68.2307 120.453C67.852 120.472 67.4853 120.606 67.28 120.541C67.2357 120.512 67.2037 120.363 67.103 120.428C66.9179 120.278 66.9078 119.872 66.6945 119.769C66.7271 119.563 66.749 119.306 66.7453 119.11C66.7192 118.629 66.4862 118.254 66.4158 117.744C66.3918 117.632 66.3961 117.473 66.3977 117.301C66.3897 117.263 66.4543 117.207 66.4303 117.095C66.37 116.991 66.3221 116.767 66.2997 116.482C66.2917 116.445 66.3562 116.388 66.3323 116.276C66.3163 116.201 66.2357 116.182 66.2277 116.145C66.248 116.06 66.3205 116.042 66.3408 115.957C66.3531 115.836 66.2203 115.751 66.2043 115.676C66.1985 115.111 66.0082 114.039 65.9699 113.68C65.9219 113.455 65.9422 113.371 65.8835 113.096C65.9038 113.011 65.8153 112.955 65.8073 112.917C65.681 112.146 65.6432 111.43 65.4364 110.64C65.2935 110.149 65.3064 109.671 65.2077 109.209C65.1374 108.7 64.9044 108.325 65.0234 107.806C64.7435 107.391 64.7766 106.828 64.678 106.366C64.5954 105.979 64.5234 105.641 64.4771 105.244C64.4211 104.982 64.2899 104.726 64.3065 104.445L64.2505 104.182C64.2388 103.948 64.2244 103.701 64.2084 103.626C64.1685 103.439 64.0277 103.317 63.9931 103.154C63.9531 102.967 63.9574 102.808 63.8865 102.654C63.8705 102.579 63.7899 102.561 63.7377 102.495L63.6977 102.308C63.6577 102.12 63.6257 101.97 63.6273 101.798C63.5351 101.545 63.1684 101.68 63.0532 101.498C62.8645 101.152 62.5685 100.661 62.8363 100.302C63.0299 100.133 63.2756 100.149 63.6099 100.102C63.6905 100.121 63.7347 100.149 63.8435 100.121C63.8798 100.111 63.9363 100.018 64.0168 100.036C64.1699 100.036 64.3752 100.102 64.5766 100.09C65.5555 99.9553 67.2003 99.0557 67.6189 99.2245C67.788 99.2995 67.7634 99.5432 67.9191 99.5557C67.9452 100.037 67.9323 100.515 68.0992 101.118L68.1113 101.115Z" fill="#5C3A2E"/>
<path d="M93.8896 103.838C93.9954 104.163 94.1357 104.296 94.0564 104.63C93.9892 104.844 93.6384 105.014 93.6014 105.194C93.2943 105.156 92.9436 105.327 92.7465 105.457C92.3726 105.28 91.6435 105.667 91.2696 105.491C91.1434 105.602 91.0094 105.676 90.8912 105.707C90.2568 105.952 89.4613 105.964 88.6814 106.051C88.1654 106.147 87.5508 106.308 87.1253 106.419C86.9559 106.503 86.7864 106.586 86.5973 106.636C86.2231 106.695 85.8571 106.555 85.4907 106.651C85.2346 106.679 84.9272 106.877 84.6435 106.951C84.4662 106.998 84.2339 107.02 84.0488 107.029C83.9778 107.047 83.8871 107.15 83.8162 107.168C83.702 107.159 83.6233 107.14 83.5169 107.168C83.1978 107.252 82.8982 107.487 82.5874 107.255C82.4414 107.45 82.3428 107.515 82.0119 107.601C81.7913 107.62 81.6417 107.62 81.5589 107.642C81.4762 107.663 81.4051 107.799 81.4051 107.799C81.2633 107.837 81.0075 107.747 80.8693 107.979C80.7749 107.886 80.5029 108.075 80.373 107.991C80.2156 107.954 80.2901 108.131 80.1838 108.158C79.7428 108.078 79.455 108.31 79.0532 108.415C78.6986 108.508 78.3009 108.456 77.8084 108.663C77.7275 109.167 77.9575 109.904 78.2917 110.247C78.382 110.498 78.2991 110.637 78.3408 110.835C78.3919 110.9 78.4982 110.872 78.5415 110.9C78.5848 110.928 78.5728 111.049 78.6161 111.076C78.8403 111.253 79.1421 111.383 79.3387 111.606C79.6322 111.934 80.0966 112.125 80.4387 112.506C80.592 112.701 80.8032 112.815 81.0037 112.998C81.3858 112.976 81.6809 113.134 82.0496 113.286C82.0929 113.313 82.207 113.323 82.2858 113.341C82.6085 113.453 82.8117 113.648 83.1621 113.713C83.3905 113.731 83.5363 113.654 83.6505 113.663C83.8789 113.682 84.2907 113.979 84.6176 113.932C84.6531 113.923 84.7871 113.849 84.9289 113.812C85.1417 113.756 85.2913 113.756 85.4882 113.743C85.8506 113.688 86.1226 113.499 86.3041 113.295C86.5168 113.239 86.6232 113.211 86.8399 113.115C86.8321 113.078 86.8519 112.995 86.8441 112.957C86.8795 112.948 86.9583 112.967 86.9859 112.92C87.0214 112.911 87.0334 112.79 87.0688 112.781C87.2028 112.707 87.4036 112.772 87.5338 112.62C87.6443 112.434 87.7861 112.397 87.8492 112.342C88.0739 112.165 88.2318 111.967 88.4383 111.704C88.5921 111.546 88.6828 111.444 88.8484 111.283C89.2586 110.862 89.4066 110.145 89.7553 109.609C89.6708 109.031 89.7699 108.613 89.9215 108.208C89.8172 107.712 89.8964 107.378 90.0085 107.022C90.178 106.939 90.3436 106.778 90.6507 106.815C90.8082 106.852 90.9302 106.899 91.1782 106.951C91.3357 106.988 91.4775 106.951 91.7965 106.985C91.8752 107.004 91.9618 107.059 92.0327 107.041C92.1469 107.05 92.2454 106.985 92.4069 106.982C92.4778 106.964 92.5722 107.056 92.6431 107.038C92.8282 107.028 93.1357 106.83 93.3286 106.858C93.3719 106.886 93.423 106.951 93.5017 106.97C93.6159 106.979 93.7812 107.053 93.8834 107.183C93.9538 107.517 93.9048 107.817 93.8099 108.077C93.7979 108.198 93.8094 108.43 93.6597 108.43C93.6634 108.625 93.7776 108.634 93.7917 108.879C93.7875 109.037 93.6968 109.139 93.703 109.346C93.6593 109.671 93.7166 109.943 93.6295 110.24C93.5821 110.37 93.4992 110.51 93.4439 110.602C93.3412 110.825 93.2135 111.107 93.0045 111.24C93.1578 111.435 92.8622 111.63 92.8174 111.772C92.7736 112.097 92.5198 112.372 92.2476 112.679C91.9516 113.109 91.5402 113.465 91.2641 113.811C91.1733 113.913 91.0826 114.015 90.9919 114.118C90.8537 114.35 90.7708 114.489 90.5014 114.69C90.4107 114.792 90.3674 114.764 90.2689 114.829C90.2689 114.829 90.2214 114.959 90.186 114.969C89.9612 115.145 89.658 115.185 89.3899 115.334C89.3978 115.371 89.2716 115.482 89.2716 115.482C88.9327 115.649 88.5819 115.82 88.243 115.987C88.0459 116.117 87.9197 116.228 87.51 116.296C87.4037 116.324 87.2462 116.287 87.1753 116.305C87.0689 116.333 86.9109 116.649 86.6473 116.522C86.4543 116.494 86.6233 116.763 86.3949 116.745C86.131 116.736 85.8669 116.961 85.5754 116.999C85.4336 117.036 85.2761 116.999 85.1146 117.002C84.965 117.002 84.953 117.122 84.8742 117.104C84.8388 117.113 84.7444 117.02 84.7444 117.02C84.2205 117.079 83.7241 117.209 83.2556 117.175C83.1059 117.175 82.9364 117.259 82.8146 117.095C82.3929 117.283 81.9127 117.135 81.5953 116.931C81.4535 116.968 81.3315 116.921 81.17 116.925C80.8551 116.85 80.4298 116.844 80.1717 116.507C79.8171 116.6 79.6087 116.38 79.3897 116.228C78.9878 116.334 78.614 116.157 78.3715 115.894C78.104 115.69 77.9283 115.566 77.7079 115.467C77.6213 115.412 77.6531 115.207 77.5311 115.161C77.0901 115.081 76.8242 114.706 76.3556 114.672C76.23 114.431 75.94 114.298 75.7394 114.115C75.6451 114.022 75.5783 113.883 75.5168 113.769C75.4224 113.676 75.3004 113.629 75.206 113.537C75.0293 113.23 74.9052 112.819 74.7206 112.475C74.6695 112.41 74.5751 112.317 74.5516 112.206C74.4692 111.993 74.4551 111.748 74.3806 111.572C74.3138 111.432 74.1761 111.312 74.1068 111.16C74.0244 110.947 74.0025 110.665 73.9045 110.377C73.8221 110.164 73.7016 109.947 73.6547 109.724C73.5843 109.39 73.5744 108.988 73.4935 108.604C73.4701 108.493 73.3955 108.317 73.3694 108.193C73.3501 107.924 73.4701 107.605 73.4508 107.336C73.4273 107.224 73.3683 107.122 73.3172 107.057C73.2938 106.946 73.3689 106.769 73.2745 106.677C73.3652 106.574 73.3538 106.342 73.3631 106.209C73.3673 106.052 73.3178 105.816 73.3417 105.575C73.3694 105.529 73.4325 105.473 73.4601 105.426C73.4799 105.343 73.4721 105.306 73.4564 105.232C73.4841 105.185 73.5472 105.129 73.5748 105.083C73.5591 105.009 73.5002 104.907 73.5279 104.86C73.5398 104.74 73.5951 104.647 73.6426 104.517C73.6545 104.396 73.6587 104.238 73.6707 104.118C73.7181 103.988 73.7813 103.932 73.8011 103.848C73.8131 103.728 73.7187 103.635 73.7385 103.551C73.7583 103.468 73.837 103.486 73.8569 103.403C73.8652 103.087 73.8589 102.88 73.8751 102.601C73.8991 102.36 73.9679 101.976 74.1966 101.76C74.0668 101.676 74.1497 101.537 74.1262 101.426C74.3196 101.101 74.4279 100.667 74.4837 100.222C74.8584 99.8103 74.9945 99.2131 75.3588 98.752C75.4141 98.6592 75.5481 98.5849 75.6861 98.4704C75.7137 98.424 75.7059 98.3869 75.769 98.3312C75.7966 98.2848 75.903 98.2569 75.9384 98.2476C76.1475 97.997 76.2516 97.7216 76.5394 97.4895C76.7996 97.3038 77.5362 97.1893 77.7259 96.787C78.0095 96.7128 78.2737 96.4869 78.4906 96.2734C78.6522 96.1527 78.8377 95.9082 79.271 95.8339C79.5979 95.7875 79.8934 95.7101 80.2245 95.5059C80.394 95.4223 80.6383 95.28 80.922 95.2057C80.9929 95.1871 81.1149 95.2335 81.2213 95.2057C81.6231 95.1005 81.9422 95.0169 82.4583 94.921C82.7065 94.856 82.9076 94.6858 83.1912 94.6115C83.2267 94.6022 83.2778 94.6672 83.3487 94.6486C83.4472 94.5836 83.66 94.5279 83.8924 94.5063C83.9987 94.4784 84.1208 94.5248 84.2704 94.5248C84.5186 94.4598 84.7035 94.5681 84.9397 94.6238C85.0618 94.6702 85.239 94.6238 85.3729 94.6671C85.5225 94.6671 85.68 94.7042 85.8493 94.7383C86.1564 94.7754 86.4952 94.7259 86.6745 95.0446C86.7887 95.0538 86.8518 94.9981 86.9738 95.0445C87.2022 95.0631 87.4815 95.2642 87.7282 95.3694C87.9367 95.4715 88.1989 95.7686 88.4784 95.8521C88.5451 95.9913 88.6671 96.0377 88.7443 96.2265C89.1931 96.344 89.5023 96.7463 90.0142 96.8081C90.2264 97.1052 90.5281 97.2351 90.6496 97.6343C90.7873 97.755 90.9328 97.9128 91.136 98.1077C91.1949 98.2098 91.4034 98.3119 91.4728 98.4635C91.5985 98.7049 91.7544 98.9122 91.9864 99.1257C92.1241 99.2464 92.3838 99.4134 92.516 99.6269C92.5906 99.8033 92.6401 100.038 92.7147 100.215C92.8247 100.382 92.9374 100.561 92.9963 100.664C93.148 101.029 93.1553 101.419 93.2795 101.83C93.3697 102.081 93.4781 102.418 93.5762 102.706C93.6075 102.854 93.6387 103.003 93.7159 103.192C93.7472 103.34 93.877 103.424 93.9005 103.535C93.924 103.646 93.8765 103.776 93.9 103.888L93.8896 103.838ZM87.9386 101.4C87.8166 101.354 87.8995 101.215 87.8406 101.112C87.7973 101.085 87.5136 101.159 87.6164 100.936C87.4432 100.825 87.14 100.865 87.1102 100.546C86.9053 100.639 86.7796 100.398 86.6891 100.382C86.6458 100.354 86.5749 100.373 86.5316 100.345C86.323 100.243 86.2302 99.98 86.0098 99.881C85.8524 99.8438 85.6669 100.088 85.6043 99.7912C84.8912 100.017 84.4584 99.7387 84.0034 99.4138C83.625 99.6304 83.0342 99.6676 82.5693 99.8285C82.2032 99.6893 81.9312 99.878 81.4705 99.8812C81.2853 99.8905 81.3015 99.612 81.0415 99.6801C80.7537 99.9121 80.4035 99.7296 80.0411 99.7853C79.694 100.15 79.2685 100.262 78.9005 100.528C78.7034 100.658 78.4413 101.249 78.3308 101.435C78.1003 101.939 77.8555 102.434 77.6448 102.855C77.7429 103.143 77.6271 103.304 77.7173 103.554C77.453 103.898 77.4902 104.489 77.4881 105.012C77.815 104.965 78.2721 104.767 78.7016 104.616C78.8356 104.541 79.0129 104.495 79.1666 104.455C79.2651 104.39 79.3204 104.297 79.4268 104.269C79.8562 104.117 80.3328 104.071 80.7623 103.919C81.235 103.795 81.6292 103.536 82.0702 103.616C82.5315 103.26 83.3468 103.164 83.7801 103.09C83.8511 103.071 83.8354 102.997 83.9418 102.969C84.0205 102.988 84.0283 103.025 84.1347 102.997C84.2332 102.932 84.3 103.071 84.434 102.997C85.4822 102.527 86.904 102.468 88.1926 101.895C88.2479 101.802 88.1039 101.474 87.911 101.447L87.9386 101.4Z" fill="#5C3A2E"/>
<path d="M118.588 108.775C118.497 108.878 118.588 109.128 118.41 109.175C118.355 109.268 118.268 109.212 118.197 109.231C118.091 109.258 118.036 109.351 117.957 109.333C117.815 109.37 117.677 109.249 117.409 109.28C116.964 109.358 116.534 109.627 116.096 109.741C115.954 109.779 115.797 109.741 115.643 109.782C115.17 109.906 114.752 110.054 114.299 110.095C114.114 110.104 113.905 110.002 113.688 110.098C113.614 109.921 113.357 109.949 113.265 109.686C113.062 109.256 113.307 108.642 113.112 108.249C113.171 107.998 113.212 107.661 113.185 107.354C113.103 107.141 113.081 106.859 113.065 106.785C113.081 106.506 112.89 105.955 112.829 105.487C112.768 105.02 112.659 104.5 112.523 103.856C112.515 103.819 112.429 103.763 112.413 103.689C112.378 103.345 112.273 103.203 112.199 103.026C112.124 102.85 112.223 102.785 112.235 102.664C112.168 102.524 112.105 102.58 112.073 102.432C112.05 102.32 112.105 102.227 112.082 102.116C112.015 101.976 111.877 101.856 111.8 101.667C111.769 101.518 111.816 101.388 111.782 101.227C111.782 101.227 111.688 101.134 111.708 101.051C111.692 100.976 111.72 100.93 111.704 100.856C111.665 100.67 111.552 100.49 111.47 100.277C111.43 100.091 111.48 99.7906 111.243 99.7349C111.291 99.6048 111.259 99.4562 111.225 99.2952C111.202 99.1837 111.115 99.128 111.038 98.9392C111.015 98.8277 111.003 98.5955 110.969 98.4345C110.91 98.3323 110.824 98.2766 110.792 98.128C110.738 97.8679 110.594 97.5397 110.448 97.3818C110.456 97.066 110.328 96.8121 110.159 96.5428C110.151 96.5056 110.065 96.4499 110.029 96.4592C110.013 96.3849 110.025 96.2641 109.974 96.1991C109.966 96.1619 109.895 96.1805 109.844 96.1155C109.829 96.0412 109.778 95.9762 109.77 95.939C109.445 95.4622 109.064 94.9607 108.834 94.2238C108.559 93.9823 108.178 93.8337 107.958 93.4993C107.395 93.3724 107.152 93.1092 106.348 93.4375C106.206 93.4746 106.052 93.6325 105.871 93.7192C105.492 93.936 105.216 94.0475 104.924 94.3199C104.896 94.3664 104.849 94.4964 104.786 94.5522C104.723 94.6079 104.608 94.5986 104.581 94.6451C104.462 94.7937 104.43 94.998 104.35 95.1497C104.33 95.2333 104.275 95.3262 104.227 95.4563C104.2 95.5027 104.145 95.5956 104.097 95.7256C104.057 95.8928 103.859 96.1932 103.693 96.3542C103.732 96.5399 103.57 96.6607 103.533 96.8403C103.506 96.8867 103.529 96.9982 103.509 97.0818C103.489 97.1654 103.383 97.1933 103.355 97.2397C103.268 97.5369 103.314 97.9301 103.049 98.1562C103.11 98.6237 102.98 98.8931 102.802 99.1748C102.973 99.8095 102.658 100.088 102.565 100.596C102.561 100.754 102.683 100.8 102.706 100.912C102.568 101.144 102.59 101.426 102.538 101.714C102.522 101.992 102.552 102.311 102.449 102.534C102.656 103.16 102.437 103.896 102.517 104.633C102.513 104.791 102.595 105.005 102.594 105.175C102.655 105.643 102.72 106.305 102.802 106.872C102.825 106.983 102.892 107.123 102.926 107.284C102.996 107.618 102.955 107.956 103.025 108.29C103.037 108.522 103.252 108.832 103.263 109.064C103.271 109.101 103.216 109.194 103.275 109.296C103.314 109.482 103.399 109.708 103.474 109.884C103.548 110.061 103.598 110.296 103.755 110.333C103.739 110.612 103.765 110.736 103.883 110.94C104.078 111.333 104.464 111.507 104.263 112.03C104.235 112.076 104.199 112.086 104.18 112.169C104.012 112.618 103.198 112.544 102.366 112.801C102.047 112.885 101.767 113.036 101.483 113.111L101.306 113.157C101.171 113.232 100.813 113.365 100.556 113.393C100.415 113.43 100.249 113.355 100.115 113.312C99.9222 113.284 99.7647 113.247 99.7214 113.219C99.5325 113.033 99.5382 112.705 99.448 112.454C99.4167 112.306 99.2711 112.148 99.2372 111.987C99.1563 111.603 99.1412 111.176 99.0879 110.745C99.0175 110.411 99.0154 110.046 98.9528 109.748C98.9058 109.525 98.754 109.16 98.9199 108.881C98.9872 108.668 98.79 108.798 98.7232 108.659C98.7075 108.584 98.826 108.436 98.8181 108.398C98.779 108.213 98.7122 108.073 98.6428 107.922L98.3793 106.671C98.2395 106.185 98.0746 105.757 97.9035 105.123C97.8012 104.993 97.8722 104.974 97.8722 104.974C97.8487 104.863 97.7542 104.77 97.7307 104.658C97.7072 104.547 97.7704 104.491 97.7548 104.417C97.7234 104.268 97.5935 104.185 97.5596 104.024C97.5126 103.801 97.4907 103.519 97.487 103.324C97.4912 103.166 97.5387 103.036 97.5403 102.866C97.5168 102.754 97.4224 102.661 97.4067 102.587C97.3911 102.513 97.4464 102.42 97.4229 102.308C97.2987 101.897 97.055 101.451 97.1557 100.862C96.9945 100.63 96.7795 100.321 96.9533 100.079C96.8275 99.8377 96.6438 99.6767 96.5812 99.3795C96.5223 99.2773 96.5776 99.1844 96.5541 99.0729C96.5087 98.6797 96.1644 97.9335 96.3423 97.5341C96.0407 97.1688 96.0928 96.5279 95.9373 95.9675C95.8705 95.8282 95.7683 95.6981 95.7344 95.5371C95.5851 95.1842 95.5674 94.7445 95.4615 94.4194C95.3947 94.2801 95.3357 94.1779 95.2768 94.0758C95.1077 93.8064 94.9721 93.1624 94.7769 92.7692C94.8677 92.667 94.864 92.472 94.9366 92.2831C95.2402 92.1252 95.8197 91.9734 96.036 92.2304C96.2098 91.9889 96.4934 92.0322 96.785 91.9951C96.9624 91.9486 97.3567 91.8062 97.676 91.7226C98.1057 91.5708 98.496 91.4687 98.8626 91.3727C99.0358 91.4841 99.1579 91.5305 99.2706 91.7101C99.58 92.1126 99.7704 93.0167 100.02 93.67C100.241 93.6514 100.151 93.4006 100.242 93.2984C100.423 93.0941 100.687 92.868 100.851 92.577C101.02 92.4934 101.068 92.3633 101.3 92.3417C101.419 92.193 101.451 91.9887 101.531 91.837C101.7 91.7534 101.783 91.614 101.914 91.4623C102.012 91.3973 102.265 91.292 102.225 91.1062C102.474 91.0412 102.652 90.7595 102.831 90.5427C102.929 90.4777 103.063 90.4034 103.166 90.2981C103.257 90.1959 103.296 90.0287 103.395 89.9637C103.493 89.8987 103.679 89.8894 103.86 89.8027C103.994 89.7284 104.128 89.6541 104.274 89.5766C104.373 89.5116 104.479 89.4837 104.586 89.4559C104.72 89.3816 104.846 89.2701 105 89.2298C105.205 89.1369 105.457 89.0317 105.599 88.9945C106.032 89.0378 106.415 88.8985 106.683 88.8675C106.797 88.8768 106.848 88.9418 106.962 88.9511C107.183 88.9325 107.522 88.883 107.743 88.8644C107.865 88.9108 108.022 88.948 108.184 88.9449C108.617 88.9882 108.688 88.9696 109.037 89.2049C109.132 89.2978 109.297 89.3721 109.331 89.5331C109.654 89.6445 109.953 89.7622 110.267 90.0067C110.361 90.0996 110.464 90.2297 110.561 90.3349C110.734 90.4464 110.927 90.4742 111.112 90.5826C111.277 90.6569 111.395 90.8612 111.595 90.8612C111.665 91.1956 112.026 91.3102 112.199 91.5393C112.353 91.7343 112.355 92.0997 112.642 92.2204C112.774 92.6693 113.137 92.9666 113.422 93.3752C113.54 93.5796 113.661 93.7963 113.779 94.0006C113.897 94.205 114.009 94.3846 114.119 94.5518C114.171 94.6168 114.123 94.7468 114.174 94.8118C114.182 94.849 114.296 94.8583 114.304 94.8954C114.363 94.9976 114.351 95.1183 114.418 95.2577C114.641 95.6044 114.869 95.976 115.099 96.4775C115.158 96.5797 115.154 96.7376 115.215 96.8522C115.274 96.9543 115.361 97.0101 115.384 97.1215C115.467 97.3351 115.516 97.5705 115.599 97.7841C115.63 97.9327 115.751 98.1494 115.79 98.3352C115.864 98.5117 115.835 98.7284 115.918 98.942C116.034 99.3167 116.262 99.6882 116.422 100.091C116.547 100.332 116.378 100.416 116.42 100.614C116.53 100.781 116.686 100.989 116.776 101.239C116.8 101.351 116.76 101.518 116.794 101.679C116.856 101.976 117.079 102.323 116.842 102.62C117.152 103.023 117.364 103.673 117.283 104.178C117.267 104.456 117.464 104.326 117.478 104.571C117.379 104.989 117.594 105.298 117.604 105.701C117.643 105.887 117.56 106.026 117.602 106.224C117.534 106.438 117.868 106.599 117.745 106.905C117.835 107.156 118.028 107.184 118.046 107.624C118.148 107.754 118.334 107.744 118.511 107.816C118.51 108.169 118.751 108.066 118.816 108.376C118.906 108.627 118.686 108.645 118.646 108.813L118.588 108.775Z" fill="#5C3A2E"/>
<path d="M135.839 74.7851C135.898 74.8874 135.906 74.9246 135.902 75.0828C135.857 75.579 136.273 76.3078 136.047 76.8382C136.244 77.0615 136.139 77.4554 136.167 77.7624C136.208 78.3144 136.521 78.913 136.387 79.341C136.489 79.4713 136.539 79.707 136.669 79.7907C136.667 80.3148 136.832 80.7428 136.881 81.3321C136.908 81.6391 137.001 81.9027 137.072 82.2377C137.096 82.3493 137.048 82.4796 137.064 82.554C137.103 82.7401 137.259 82.9479 137.298 83.134C137.322 83.2456 137.282 83.4131 137.308 83.5372C137.371 83.8349 137.543 84.1171 137.606 84.4149C137.676 84.7498 137.738 85.2181 137.792 85.4786C137.838 85.8725 137.999 86.1051 138.09 86.3563C138.145 86.6168 138.277 87.0665 138.316 87.2526C138.34 87.3643 138.276 87.4201 138.3 87.5317C138.371 87.8667 138.531 88.2699 138.639 88.6079C138.671 88.7568 138.623 88.887 138.657 89.0483C138.681 89.16 138.775 89.253 138.845 89.405C138.919 89.5817 138.985 89.8919 139.024 90.078C139.04 90.1524 138.984 90.2454 138.984 90.2454C139.059 90.4222 139.138 90.4408 139.169 90.5897C139.439 91.5139 139.543 92.3637 139.63 93.3096C139.669 93.4957 139.64 93.7128 139.671 93.8617C139.768 94.3207 140.158 94.9254 140.057 95.5147C140.025 95.7194 140.12 95.8124 140.185 96.1226C140.205 96.3924 140.177 96.4389 140.27 96.7025C140.349 96.7211 140.348 97.0747 140.382 97.236C140.421 97.422 140.57 97.5926 140.609 97.7787C140.656 98.002 140.615 98.34 140.634 98.6099C140.658 98.7215 140.745 98.7773 140.776 98.9262C140.784 98.9634 140.693 99.0658 140.744 99.1309C140.827 99.3449 140.923 100.157 140.98 100.43C141.073 101.048 141.414 101.6 141.4 102.245C141.127 102.552 140.898 102.769 140.361 102.713C140.203 102.676 139.903 102.558 139.619 102.632C139.208 102.701 138.758 103.054 138.525 103.076C138.41 103.067 138.213 102.843 138.083 102.995C138.075 102.605 137.844 102.574 137.726 102.369C137.651 102.192 137.734 102.053 137.708 101.928C137.46 101.64 137.6 101.237 137.288 101.004C137.031 101.032 136.984 101.162 136.846 101.277C136.34 101.606 136.03 102.093 135.705 102.571C135.437 102.719 135.231 102.695 135.101 102.964C134.832 103.113 134.536 103.191 134.425 103.377C133.979 103.455 133.544 103.883 133.062 103.969C132.92 104.007 132.659 104.075 132.513 103.917C132.128 104.463 131.131 104.593 130.651 105.046C130.438 105.102 130.343 105.008 130.153 105.058C129.905 105.123 129.999 105.216 129.632 105.312C129.375 105.34 129.056 105.306 128.791 105.297C128.534 105.325 128.23 105.365 128.017 105.421C127.839 105.468 127.665 105.592 127.488 105.638C127.302 105.648 127.026 105.641 126.769 105.669C126.734 105.679 126.678 105.772 126.599 105.753C126.493 105.781 126.145 105.793 125.995 105.793C125.837 105.756 125.743 105.663 125.62 105.617C125.506 105.607 125.478 105.654 125.356 105.607C125.083 105.561 124.697 105.387 124.351 105.347C124.248 105.217 124.126 105.17 123.988 105.049C123.822 104.975 123.783 104.789 123.694 104.72C123.477 104.581 123.193 104.537 122.922 104.32C122.878 104.292 122.855 104.181 122.768 104.125C122.63 104.004 122.472 103.967 122.284 103.846C122.154 103.762 122.044 103.595 121.903 103.461C121.773 103.378 121.552 103.396 121.367 103.288C121.221 103.129 121.169 103.064 120.968 102.999C120.816 102.633 120.402 102.506 120.181 102.171C120.114 102.032 120.111 101.836 120.033 101.647C119.798 101.067 119.291 100.676 119.138 100.127C119.083 99.8668 119.152 99.4822 119.113 99.2962C119.089 99.1845 118.951 99.0636 118.928 98.9519C118.881 98.7286 118.859 98.4464 118.847 98.2138L118.68 97.4198C118.668 97.1872 118.69 96.9329 118.678 96.7003C118.68 96.1762 118.622 95.7203 118.754 95.2798C118.656 94.9914 118.61 94.5975 118.583 94.2905C118.556 93.9835 118.692 93.7385 118.771 93.4035C118.811 93.236 118.8 93.0034 118.837 92.8235C118.864 92.777 118.935 92.7584 118.92 92.684C118.938 92.2343 119.013 91.7039 119.173 91.3348C119.248 91.1581 119.268 91.0743 119.317 90.7735C119.353 90.4106 119.624 89.8554 119.861 89.5577C119.83 89.4088 119.834 89.2507 119.808 89.1266C119.97 89.0057 120.081 88.8196 120.201 88.618C120.264 88.5621 120.241 88.4505 120.332 88.3481C120.359 88.3016 120.466 88.2737 120.521 88.1807C120.577 88.0876 120.589 87.9667 120.652 87.9108C120.763 87.7247 120.889 87.6131 121.001 87.3743C121.021 87.2905 121.026 87.1324 121.053 87.0858C121.081 87.0393 121.195 87.0486 121.223 87.0021C121.251 86.9556 121.235 86.8811 121.263 86.8346C121.291 86.7881 121.369 86.8067 121.433 86.7509C121.508 86.5741 121.579 86.5555 121.607 86.509C121.682 86.3322 121.761 86.3508 121.824 86.2949C121.816 86.2577 121.836 86.174 121.828 86.1368C121.955 86.0251 122.14 86.0158 122.279 85.9011C122.35 85.8824 122.37 85.7987 122.433 85.7429C122.504 85.7243 122.619 85.7336 122.682 85.6777C122.717 85.6684 122.801 85.5289 122.836 85.5196C123.006 85.4358 123.085 85.4544 123.148 85.3986C123.33 85.1939 123.788 84.9954 124.085 84.8C124.219 84.7255 124.267 84.5953 124.413 84.5177C124.717 84.3596 125.092 84.3006 125.294 84.0122C125.59 83.8168 125.847 83.9067 126.029 83.702C126.226 83.5717 126.202 83.8136 126.372 83.7299C126.57 83.5996 126.724 83.5593 126.973 83.4942C126.937 83.5035 127.115 83.4569 127.186 83.4383C127.664 83.1561 128.181 83.2956 128.773 83.3762C129.152 83.3948 129.515 83.4568 129.794 83.7111C130.339 83.5685 130.714 83.7452 131.131 83.8848C131.182 83.9499 131.245 83.8941 131.324 83.9127C131.411 83.9685 131.584 84.0801 131.707 84.1267C131.793 84.1825 131.821 84.136 131.9 84.1546C132.022 84.2011 132.16 84.322 132.283 84.3685C132.448 84.443 132.645 84.6663 132.898 84.5608C133.108 84.3096 132.936 84.0274 132.909 83.7203C132.913 83.5622 132.953 83.3947 132.946 83.1869C132.915 83.038 132.876 82.8519 132.877 82.6814C132.917 82.5139 132.977 82.2627 132.978 82.0921C132.951 81.785 132.621 81.4656 132.858 81.1679C132.62 80.7461 132.656 80.3832 132.587 79.8777C132.583 79.6823 132.597 79.3908 132.53 79.2512C132.498 79.1023 132.404 79.0093 132.326 78.8201C132.346 78.7364 132.186 78.3332 132.21 78.0913C132.195 78.0169 132.293 77.9517 132.278 77.8773C132.297 77.7936 132.159 77.6726 132.171 77.5517C132.148 77.44 132.247 77.3749 132.223 77.2632C132.196 76.9562 131.937 76.6181 132.088 76.2646C131.821 75.8893 131.802 75.2659 132.037 74.9558C132.63 74.6828 133.388 74.4843 134.067 74.2672C134.194 74.1555 134.853 74.0221 135.047 74.0501C135.232 74.0407 135.583 74.2237 135.767 74.385C135.827 74.4873 135.688 74.7199 135.75 74.8347L135.839 74.7851ZM134.114 90.3294C133.869 90.2364 133.76 89.8983 133.65 89.7308C133.614 89.7401 133.536 89.7215 133.492 89.6936C133.449 89.6657 133.461 89.5448 133.41 89.4796C133.366 89.4517 133.252 89.4424 133.208 89.4145C133.106 89.2842 133.003 89.154 132.969 88.9927C132.583 88.9369 132.34 88.5555 132.044 88.3973C131.732 88.5183 131.515 88.2608 131.276 88.1926C130.995 88.1089 130.636 88.2423 130.439 88.019C129.764 88.0779 129.315 87.7895 128.585 87.9415C128.427 87.9043 128.281 87.7461 128.233 87.8764C127.693 87.8609 127.609 88.0005 127.297 88.1215C127.084 88.1773 126.816 88.2083 126.709 88.2362C126.61 88.3014 126.547 88.3572 126.413 88.4316C126.349 88.4875 126.172 88.534 126.108 88.5898C125.974 88.6643 125.78 88.8721 125.717 88.9279C125.682 88.9372 125.567 88.9279 125.504 88.9837C125.405 89.0489 125.322 89.1884 125.266 89.2815C124.958 89.5978 124.597 89.9018 124.265 90.1065C124.186 90.4414 123.872 90.6151 123.88 91.0059C123.583 91.2013 123.546 91.6169 123.163 91.7565C123.145 92.2062 122.939 92.5349 122.875 92.9443C122.855 93.0281 122.914 93.1304 122.902 93.2514C122.851 93.5398 122.766 93.8499 122.844 94.2221C122.773 94.2407 122.753 94.3245 122.726 94.371C122.706 94.4547 122.67 94.464 122.658 94.585C122.599 94.8362 122.7 95.137 122.545 95.2952C122.794 95.5836 122.693 95.8193 122.728 96.1636C122.709 96.2473 122.697 96.3683 122.704 96.4055C122.714 96.8087 122.868 97.0041 122.946 97.3762C123.017 97.7112 122.968 98.012 123.094 98.2539C123.161 98.3935 123.275 98.4028 123.405 98.4865C123.255 98.8401 123.632 99.0293 123.647 99.4572C123.821 99.5689 123.967 99.7271 124.04 100.074C124.32 100.158 124.541 100.257 124.733 100.456C125.152 100.425 125.367 100.735 125.801 100.661C125.967 100.735 126.062 100.828 126.164 100.958C126.492 100.912 126.792 101.03 126.993 101.095C127.072 101.113 127.166 101.206 127.245 101.225C127.317 101.206 127.415 101.141 127.494 101.16C127.494 101.16 127.589 101.253 127.624 101.243C127.703 101.262 127.822 101.113 127.901 101.132C128.252 101.197 128.647 101.054 128.896 100.989C129.271 100.93 129.607 100.921 129.939 100.834C130.144 100.741 130.389 100.598 130.587 100.468C130.693 100.44 130.835 100.403 130.946 100.335C131.045 100.27 131.171 100.158 131.278 100.13C131.554 100.018 131.795 100.034 132.028 99.8942C132.226 99.7639 132.258 99.5592 132.421 99.3856C132.485 99.3297 132.591 99.3018 132.682 99.1995C132.757 99.0227 132.836 99.0413 132.864 98.9948C132.983 98.8459 133.058 98.6691 133.121 98.6133C133.169 98.483 133.319 98.483 133.382 98.4272C133.41 98.3807 133.351 98.2783 133.414 98.2225C133.525 98.0364 133.624 97.9713 133.671 97.841C133.774 97.6177 133.841 97.4037 133.922 97.2517C134.041 97.1029 134.08 96.9354 134.153 96.7462C134.384 96.2406 134.614 95.67 134.695 95.1645C134.699 95.0063 134.711 94.8853 134.759 94.7551C134.775 94.4759 134.875 94.2402 134.899 93.9983C134.919 93.9146 134.797 93.8681 134.801 93.7099L134.876 93.5331C134.916 93.3656 134.869 93.1423 134.827 92.9438L134.788 92.7578C134.676 92.2243 134.599 91.6816 134.528 91.3466C134.481 91.1233 134.544 91.0675 134.439 90.9248C134.321 90.7201 134.148 90.6085 134.082 90.2984L134.114 90.3294Z" fill="#5C3A2E"/>
<path d="M152.378 100.755C152.33 100.887 152.497 101.133 152.34 101.292C151.962 101.548 151.424 101.53 151.119 101.411C149.927 101.483 148.722 102.151 147.51 102.307C147.309 102.438 147.361 102.148 147.338 102.035C147.113 102.054 147.313 102.279 147.088 102.297C146.751 102.148 146.685 101.835 146.613 101.498L146.467 100.811C146.424 100.427 146.349 100.078 146.251 99.6155C146.073 98.7787 145.536 97.508 145.807 96.6338C145.527 96.3902 145.637 95.8345 145.583 95.4005C145.528 95.1383 145.264 94.7979 145.47 94.5076C145.197 94.3015 145.267 93.9144 145.224 93.5303C145.184 93.343 145.033 93.1713 145.182 92.9746C145.055 92.5593 144.775 92.3158 144.777 91.7881C144.745 91.6383 144.757 91.5165 144.671 91.2886C144.611 91.1856 144.522 91.1294 144.506 91.0544C144.49 90.9795 144.531 90.8109 144.515 90.736C144.467 90.5112 144.344 90.2926 144.273 89.9554C144.277 89.7962 144.281 89.637 144.255 89.5121C144.207 89.2873 144.048 89.0781 143.964 88.8626C143.904 88.7596 143.988 88.6191 143.957 88.4693C143.83 88.054 143.634 87.67 143.44 87.1142C143.332 86.7864 143.145 86.2681 143.083 85.7966C143.059 85.6842 143.1 85.5156 143.04 85.4126C143 85.2253 142.849 85.0535 142.749 84.7632C142.665 84.5477 142.607 84.273 142.559 84.0482C142.535 83.9358 142.431 83.8047 142.407 83.6923C142.391 83.6173 142.439 83.4862 142.415 83.3738C142.36 83.1115 142.177 82.7899 142.061 82.4246C141.882 81.9438 141.763 81.3818 141.649 80.8448C141.573 80.6668 141.533 80.4795 141.462 80.3265C141.438 80.2141 141.503 80.1579 141.479 80.0455C141.471 80.0081 141.346 79.9612 141.33 79.8863C141.306 79.7739 141.379 79.7552 141.355 79.6428C141.339 79.5678 141.251 79.5116 141.227 79.3992C141.203 79.2868 141.251 79.1557 141.227 79.0433C141.195 78.8934 141.055 78.7717 141.021 78.6093C140.957 78.3096 140.963 77.9786 140.791 77.707C141.004 77.4541 140.741 77.1138 140.685 76.8515C140.629 76.5893 140.788 76.2583 140.587 76.0335C140.708 75.8837 140.66 75.6589 140.734 75.4684C140.535 75.0719 140.697 74.3975 140.735 73.8605C140.715 73.5889 140.535 73.6357 140.439 73.542C140.465 73.1268 140.405 72.6678 140.711 72.4306C141.658 72.3432 142.465 72.1341 143.292 71.9593C143.529 71.8188 143.598 71.6034 143.855 71.4973C144.108 71.4317 144.581 71.6253 144.861 71.6847C145.045 71.8345 145.148 72.1374 145.304 72.3341C145.36 72.5964 145.055 72.5963 145.013 72.818L145.119 73.3176C145.135 73.3925 145.094 73.5611 145.118 73.6735C145.158 73.8608 145.335 73.9732 145.369 74.1356C145.477 74.4634 145.435 74.8037 145.507 75.1409C145.539 75.2908 145.643 75.4219 145.721 75.6124C145.717 75.7716 145.821 75.9028 145.884 76.0183C145.99 76.5178 145.977 76.9955 146.076 77.4576C146.1 77.57 146.16 77.673 146.23 77.826C146.254 77.9384 146.178 78.1164 146.238 78.2194C146.254 78.2943 146.326 78.2756 146.37 78.3037C146.422 78.3693 146.374 78.5004 146.418 78.5285C146.486 78.669 146.59 78.8002 146.609 78.8876C146.633 79 146.584 79.1311 146.6 79.206C146.692 79.4589 146.823 79.715 146.915 79.9679C147.169 80.6267 147.243 81.3323 147.59 81.888C147.5 82.3595 147.796 82.6779 147.902 83.1775C147.966 83.4772 147.96 83.8082 148.04 84.1828C148.152 84.3514 148.022 84.6356 148.033 84.8697C148.164 85.4817 148.438 86.0562 148.558 86.6182C148.696 87.2676 148.794 88.0856 148.968 88.7256C149 88.8755 148.928 88.8942 148.951 89.0066C148.975 89.119 149.08 89.2502 149.114 89.4125C149.15 89.7591 149.108 90.0994 149.179 90.4366C149.191 90.6707 149.33 90.9642 149.385 91.2265C149.449 91.5262 149.48 91.8478 149.543 92.1475C149.725 92.8251 149.972 93.4464 150.118 94.1333C150.232 94.6703 150.238 95.2354 150.422 95.7412C150.522 96.0315 150.676 96.4 150.803 96.8152C150.879 96.9932 150.994 97.1743 151.034 97.3616C151.248 98.189 151.064 99.1194 151.534 99.8937C151.77 100.109 152.244 99.9468 152.548 100.119C152.543 100.278 152.74 100.306 152.728 100.428C152.768 100.615 152.655 100.802 152.382 100.834L152.378 100.755Z" fill="#5C3A2E"/>
<path d="M168.531 73.8169C168.479 74.1057 168.513 74.2672 168.469 74.5933C168.457 74.7144 168.421 74.7237 168.401 74.8076C168.361 74.9753 168.401 75.1616 168.363 75.3417C168.351 75.4628 168.276 75.6399 168.239 75.82C168.191 75.9504 168.151 76.1181 168.15 76.2889C168.138 76.41 168.146 76.4473 168.126 76.5312C168.086 76.6989 167.955 76.969 168.02 77.2796C167.973 77.41 167.866 77.438 167.818 77.5684C167.766 77.8572 167.812 78.2516 167.567 78.3945C167.592 78.8727 167.501 79.3293 167.42 79.7175C167.366 80.1771 167.294 80.5497 167.229 81.0125C167.312 81.2268 167.039 81.1802 167.078 81.3665C167.11 81.5156 167.149 81.7019 167.155 81.91C167.046 82.4628 167.113 82.9566 167.028 83.5031C166.974 83.9628 166.792 84.4038 166.659 84.8447C166.647 84.9659 166.679 85.1149 166.631 85.2454C166.583 85.3758 166.528 85.469 166.516 85.5901C166.492 85.8323 166.514 86.1149 166.49 86.3571C166.478 86.4783 166.394 86.618 166.374 86.7019C166.35 86.9441 166.408 87.2174 166.313 87.4782C166.301 87.5994 166.237 87.6553 166.19 87.7857C166.146 88.1118 166.262 88.4876 166.025 88.7857C166.064 88.972 166.087 89.0838 166.058 89.3012C166.029 89.5186 165.892 89.5807 165.862 89.7981C165.791 90.1708 165.872 90.5559 165.756 90.9006C165.772 90.9751 165.701 90.9938 165.689 91.1149C165.629 91.3664 165.568 91.7888 165.512 92.118C165.403 92.6708 165.442 93.2111 165.112 93.6645C165.266 93.8602 165.058 94.1242 165.054 94.2825C165.051 94.3881 165.037 94.4968 165.01 94.6086C164.955 94.7018 165.002 94.9254 164.972 95.1428C164.943 95.3602 164.829 95.5341 164.8 95.7515C164.733 95.9658 164.736 96.1614 164.592 96.3695C164.634 96.9223 164.562 97.2949 164.425 97.7763C164.405 97.8602 164.378 97.9067 164.358 97.9906C164.342 98.2701 164.371 98.59 164.355 98.8695C164.331 99.1117 164.274 99.3757 164.234 99.5434C164.202 99.7483 164.173 99.9657 164.054 100.115C164.125 100.45 163.996 100.733 163.972 100.975C163.913 101.227 163.935 101.509 163.788 101.705C163.936 102.23 163.821 102.574 163.795 102.987C163.779 103.267 164.041 103.081 164.052 103.314C164.087 103.658 163.987 103.894 164.101 104.258C163.911 104.425 163.897 104.717 163.746 104.953C162.848 105.031 161.977 105.652 161.321 105.391C160.399 105.711 159.343 105.634 158.558 105.354C158.503 105.093 158.318 104.932 158.315 104.736C158.226 104.314 158.566 103.91 158.406 103.388C158.628 103.016 158.737 102.581 158.66 102.037C158.763 101.814 158.785 101.559 158.817 101.354C158.849 101.149 158.817 101 158.89 100.811C158.938 100.68 158.942 100.522 158.963 100.267C158.991 100.221 159.054 100.165 159.082 100.118C159.106 99.8758 159.025 99.4907 159.215 99.323L159.11 98.8262C159.308 98.6957 159.218 98.4442 159.255 98.264C159.295 98.0963 159.358 98.0404 159.415 97.7765C159.455 97.6088 159.443 97.3759 159.481 97.1957C159.52 97.028 159.596 96.851 159.633 96.6709C159.797 96.0249 160.037 95.32 160.303 94.7392C160.256 94.5156 160.26 94.3572 160.341 94.2051C160.222 94.0001 160.03 93.8014 159.912 93.5964C159.86 93.5312 159.916 93.438 159.865 93.3728C159.813 93.3076 159.489 93.1958 159.546 92.9318C159.352 92.9039 159.341 92.671 159.18 92.6213C159.075 92.1244 158.779 91.966 158.694 91.3853C158.762 91.171 158.536 91.348 158.536 91.348C158.457 91.3294 158.433 91.2176 158.346 91.1617C158.141 90.9008 157.902 90.4785 157.726 90.0003C157.651 89.8232 157.457 89.7953 157.336 89.5779C157.202 89.2984 157.459 89.2705 157.409 89.0344C157.386 88.9226 157.125 89.109 157.065 89.0065C156.869 88.6121 156.747 88.2115 156.48 87.8357C156.437 87.8078 156.366 87.8264 156.35 87.7519C156.247 87.6214 156.137 87.4538 155.98 87.2457C155.921 87.1432 155.897 87.0314 155.803 86.9383C155.736 86.7985 155.641 86.7053 155.579 86.5904C155.484 86.4973 155.524 86.3296 155.338 86.3389C155.198 85.8513 154.933 85.488 154.71 85.1402C154.65 85.0377 154.643 85.0004 154.599 84.9725C154.402 84.7489 154.206 84.3545 153.989 84.0967C153.878 83.9291 153.732 83.7707 153.619 83.5905C153.473 83.4322 153.398 83.2552 153.277 83.0378C153.233 83.0098 153.147 82.9539 153.103 82.926C153.044 82.8235 153.005 82.6372 152.891 82.457C152.714 82.1496 152.419 81.8204 152.386 81.3049C151.972 80.7708 151.492 80.3329 151.217 79.5658C150.905 79.3329 150.745 78.9292 150.474 78.5938C150.328 78.4355 150.189 78.3143 150.068 78.097C149.958 77.9293 149.927 77.7802 149.849 77.5908C149.766 77.3765 150.031 77.3858 150.035 77.2274C150.047 77.1063 150.052 76.9479 150.151 76.8827C150.463 76.7616 150.625 76.7585 150.784 76.7957C150.977 76.8237 151.664 77.1683 152.038 76.7429C152.065 76.6963 152.057 76.659 152.121 76.6031C152.212 76.5006 152.39 76.454 152.501 76.3857C152.635 76.3112 152.77 76.2366 152.917 76.159C153.079 76.0379 153.134 75.9447 153.297 75.9416C153.518 75.923 153.7 76.072 153.805 76.3329C153.892 76.3888 154.007 76.3981 154.058 76.4633C154.145 76.5192 154.176 76.6683 154.291 76.6776C154.358 76.8173 154.366 76.8546 154.362 77.013C154.5 77.1341 154.63 77.2179 154.763 77.3142C154.89 77.5564 155.038 77.7272 155.192 77.9229C155.475 78.3732 155.712 78.7831 156.006 79.2303C156.125 79.4352 156.21 79.6619 156.364 79.8576C156.475 80.0253 156.675 80.2613 156.821 80.4197C156.939 80.6246 156.955 80.6992 157.084 80.9538C157.269 81.2985 157.655 81.6432 157.914 81.9817C157.966 82.0469 158.025 82.1494 158.084 82.2519C158.289 82.5128 158.521 82.8978 158.746 83.1929C159.108 83.6618 159.493 84.3605 159.799 84.9226C159.989 85.1089 160.11 85.3263 160.228 85.5313C160.382 85.7269 160.574 85.9257 160.602 86.2331C161.118 86.6617 161.364 87.4753 161.897 87.8604C162.223 87.2113 162.147 86.3138 162.517 85.6927C162.45 85.553 162.497 85.4225 162.499 85.2517C162.523 85.0095 162.535 84.8884 162.564 84.671C162.596 84.466 162.646 84.1648 162.67 83.9225C162.694 83.6803 162.687 83.4722 162.731 83.1461C162.741 82.6586 163.043 82.0685 163.029 81.4691C163.156 81.3573 163.109 81.1337 163.271 81.0126C163.23 80.4598 163.349 79.9567 163.442 79.4474C163.468 79.0344 163.476 78.7176 163.71 78.3418C163.584 78.0996 163.783 77.7984 163.808 77.5561C163.827 77.4723 163.733 77.3791 163.745 77.258C163.737 77.2207 163.82 77.081 163.812 77.0437C163.832 76.9599 163.773 76.8574 163.785 76.7363C163.777 76.699 163.86 76.5592 163.86 76.5592C163.869 76.2425 163.796 75.8947 163.998 75.6058C163.871 75.3636 163.822 75.1276 163.901 74.7922C163.921 74.7083 163.985 74.6524 163.961 74.5406C163.926 74.1959 163.694 73.8108 163.748 73.3512C163.89 73.314 163.823 73.1742 163.914 73.0717C164.069 72.9133 164.381 72.9102 164.528 72.7146C164.88 72.7798 165.327 72.7021 165.857 72.4847C165.956 72.4195 166.047 72.317 166.154 72.289C166.835 72.0716 167.539 71.966 168.243 71.8604C168.607 72.1585 168.692 72.7393 168.682 73.2268C168.677 73.3852 168.602 73.5622 168.608 73.7703L168.531 73.8169Z" fill="#5C3A2E"/>
<path d="M83.2935 77.9387C82.7359 79.8996 81.8393 81.7514 80.9161 83.597C80.7627 83.8869 80.6187 84.1612 80.4773 84.4481L79.4141 86.5274L78.3669 88.5632C78.0695 89.1274 77.42 89.4018 76.8297 89.2396C75.8619 88.9653 74.9462 88.5194 74.0611 88.0393C73.8764 87.9427 73.6651 87.8398 73.4804 87.7431C72.9501 87.447 72.4319 87.1477 71.9416 86.8016C71.5204 86.5428 71.1231 86.2778 70.7326 85.9848C69.4479 84.9903 68.3805 83.7682 67.5048 82.3777C67.3456 82.1034 67.4805 81.7262 67.8038 81.642C68.6274 81.4144 69.4537 81.1993 70.3106 80.95C70.238 80.5478 70.2652 80.1986 70.186 79.8245C69.9853 78.8768 69.6686 78.0381 69.4679 77.0904C69.3728 76.6415 69.4095 76.1583 69.3197 75.7343C69.2669 75.4849 69.0929 75.3196 68.9802 75.0858C68.9511 74.9486 69.011 74.9331 68.9142 74.7741C68.8372 74.6494 68.7668 74.6151 68.7404 74.4904C68.6876 74.241 68.8381 74.057 68.832 73.7297C68.7923 73.5426 68.5523 73.0656 68.5344 72.623C68.3601 71.7999 68.0872 70.2131 67.8627 69.1531C67.7438 68.592 67.9349 68.0027 67.3635 67.691C67.3169 65.9794 67.3019 65.3123 66.7297 63.8034C66.9762 63.476 66.7772 63.1331 66.7684 62.7933C66.6963 62.1542 66.5906 61.6554 66.3696 60.9103C66.2085 60.1496 66.2214 59.5542 66.0016 58.8745C65.962 58.6875 65.9955 58.5472 65.9092 58.4381C65.896 58.3757 65.7484 58.3352 65.7833 58.1419C65.7772 57.8146 65.6284 57.7086 65.5567 57.6088C65.2829 56.6143 65.3085 55.5419 65.1077 54.5941C65.0259 54.2075 64.8281 53.9301 64.8339 53.5996C64.7151 53.0385 64.6931 52.6363 64.5011 52.0284C64.4774 51.9161 64.4017 51.8569 64.3885 51.7946C64.3004 51.0806 64.1416 49.6746 63.4945 49.3036C63.7014 48.7892 63.27 48.2436 63.2228 47.7823C63.17 47.5328 63.0688 46.7566 63.035 46.2391C62.9822 45.9897 63.0584 45.6935 63.0188 45.5064C62.9369 45.1199 62.387 44.6709 62.6262 43.9508C62.281 43.5143 61.9288 43.3428 61.8816 42.8814C61.7804 42.1052 62.3982 41.6812 63.1369 41.2915C63.2554 41.1949 63.399 41.2759 63.5082 41.1949C63.6399 41.1606 63.6575 40.9455 63.7653 40.9174C64.0646 40.8395 64.3332 40.9143 64.5978 40.9112C65.0874 40.8364 65.7342 40.5496 65.9679 40.8177C66.6253 40.5808 67.1246 40.2535 67.7233 40.0976C67.9628 40.0353 68.1341 40.188 68.4335 40.1101C68.6862 40.1101 68.825 39.8108 69.0909 39.8732C69.4563 40.107 69.9643 40.1195 70.3725 40.1974C70.7071 40.584 70.826 41.1452 71.0047 41.6907C71.113 42.202 71.2917 42.7476 71.3974 43.2464C71.4695 43.8855 71.4246 44.5682 71.5434 45.1294C71.6447 45.9057 72.136 46.4357 71.8982 47.1028C72.1729 47.505 72.3883 47.5673 72.172 48.0973C72.6513 48.6304 72.6052 49.2477 72.7663 50.0084C72.8983 50.6319 73.0859 51.5173 73.1977 52.3434L73.3297 52.9669C73.3588 53.1041 73.288 53.3068 73.3302 53.5063C73.3698 53.6933 73.5199 53.8648 73.6287 54.0207C73.7836 54.454 73.8224 55.2334 74.2406 55.7166C74.2961 55.9785 74.2147 56.1313 74.1824 56.337C74.2951 56.5709 74.4545 56.7267 74.4941 56.9138C74.5866 57.3502 74.529 57.6152 74.6719 58.0517C74.8565 58.2668 74.8797 58.7344 75.0176 59.0275C75.0572 59.2145 74.9783 59.4982 75.0179 59.6853C75.084 59.997 75.302 60.0719 75.3574 60.3337C75.434 60.6954 75.3134 61.3189 75.3952 61.7055C75.4084 61.7678 75.5453 61.8769 75.5691 61.9892C75.562 62.2542 75.4845 62.4849 75.4774 62.7498C75.662 62.965 75.805 63.4014 75.9907 63.682C76.2043 64.0343 76.0497 64.2587 76.1448 64.7077C76.2214 65.0693 76.556 65.4559 76.6819 65.7521C76.777 66.201 76.7458 66.5907 76.8408 67.0396C76.9949 68.0653 77.5786 69.0317 77.6596 70.0106C77.7415 70.3972 77.6411 70.8181 77.7229 71.2047C77.789 71.5164 78.0346 71.7814 78.1764 72.1524C78.5145 72.8539 78.6456 74.0697 78.9018 75.2793C79.0573 76.252 79.1886 77.3494 79.4145 78.3563C80.6041 78.0072 81.775 77.6892 82.9006 77.3962C83.1761 77.3245 83.427 77.6145 83.3507 77.9106L83.2935 77.9387Z" fill="#F5BAC5"/>
<path d="M127.535 47.0235C127.884 47.9115 128.056 48.9634 128.267 49.8483C128.372 50.2258 128.517 50.5012 128.597 50.8198C128.656 51.2221 128.567 51.6243 128.646 51.943C128.864 52.6824 129.24 53.3415 129.352 53.9912C129.382 54.1923 129.274 54.3903 129.292 54.5945C129.322 54.7956 129.377 55.0555 129.407 55.2566C129.431 56.321 129.238 57.6514 129.594 58.8117C129.464 58.9633 129.426 59.1954 129.239 59.3748C129.753 61.4602 128.586 62.902 128.364 64.7492C128.032 65.071 127.901 65.5103 127.811 65.9126C127.231 66.2993 127.377 66.8748 126.773 67.2028C126.636 67.4998 126.418 67.7659 126.36 68.0815C126.136 68.2053 126.166 68.4064 125.837 68.4405C125.678 69.1088 125.185 69.6688 124.852 70.2784C124.083 70.4145 124.035 71.0148 123.674 71.4356C123.4 71.7295 122.997 71.8873 122.555 72.2772C122.498 72.3051 122.361 72.6021 122.361 72.6021C122.093 72.7506 121.705 72.6826 121.684 73.0538C121.44 73.2612 121.354 73.0879 121.162 73.125C120.838 73.3014 121.134 73.6417 120.775 73.7748C120.098 74.2266 119.525 74.4679 119.192 75.0775C118.867 75.2538 118.588 75.4054 118.241 75.5354C118.074 75.6313 117.7 75.6901 117.558 75.8448C117.445 75.9005 117.396 76.0831 117.251 76.2254C117.085 76.3213 116.868 76.2997 116.755 76.3554C116.532 76.4792 116.407 76.7731 116.237 76.8566C115.746 77.1289 115.25 77.2589 114.758 77.5312C114.51 77.5962 114.348 77.8344 114.179 77.918C113.955 78.0418 113.658 77.9892 113.409 78.0542C112.783 78.3357 112.24 78.7782 111.606 78.9051C111.301 78.9979 110.981 78.8989 110.627 78.8742C110.028 79.3445 109.429 79.1094 108.908 79.1806C108.468 79.2827 108.056 79.5736 107.647 79.5891C107.534 79.6448 107.264 79.6633 107.183 79.6324C106.966 79.6107 106.668 79.5582 106.422 79.3354C106.122 79.5706 105.925 79.4654 105.657 79.6139C105.064 79.5211 104.457 79.419 103.78 79.583C103.566 79.2736 103.094 79.4624 102.771 79.351C102.747 79.2922 102.606 79.1592 102.606 79.1592C102.471 79.1685 102.165 79.5491 102.142 79.2025C101.925 79.1809 101.765 79.1314 101.622 78.986C101.43 79.0231 101.079 79.4285 100.996 79.2676C100.772 79.3913 100.698 79.215 100.619 79.1964C100.402 79.1748 99.9377 79.2181 99.6347 79.0232C98.7917 79.2831 98.0779 79.0913 97.3418 78.8531C97.0987 79.0604 96.9386 79.0109 96.6905 79.0759C96.5321 78.7387 96.1394 78.946 95.9047 78.7202C95.2466 79.0884 94.9522 78.4603 94.3256 78.7419C94.104 78.5779 93.8327 78.2964 93.4518 78.5006C92.7938 77.8632 91.8685 77.7921 91.0289 77.4766C90.7875 77.3961 90.541 77.1734 90.268 77.1796C90.2697 76.8918 89.9402 76.9259 89.8931 76.8207C89.5653 76.567 89.3523 75.9698 88.831 76.041C88.8644 75.6666 88.4801 75.4408 88.1996 75.1747C88.0096 74.9241 87.77 74.5559 87.4354 74.4477C87.3209 73.7855 86.6945 73.0616 86.2383 72.6717C85.9885 72.0189 85.8799 71.7992 85.4459 71.4558C85.2893 70.8308 84.7914 70.243 84.4969 69.6149C84.0888 68.6248 83.6216 67.6502 83.2949 66.6911C83.1614 66.4127 83.3282 66.3167 83.2419 66.1435L83.022 65.6917C83.017 65.5494 82.9622 65.2895 82.9989 65.3452C82.9492 65.2277 82.8388 65.2957 82.8338 65.1534C82.8089 65.0946 82.8355 64.8657 82.8304 64.7233C82.6738 64.0983 82.3111 63.5012 82.2581 62.9536C82.1983 62.5514 82.2 62.2636 82.3147 61.9202C82.1812 61.6417 81.9014 61.7933 81.7721 61.3571C82.0684 60.6918 81.3607 59.9369 81.1965 59.1572C81.0802 58.7829 81.0887 58.3497 81.0854 57.9196C81.0623 57.5731 81.059 57.143 81.1172 56.8274L80.7861 56.1437C81.001 55.4475 80.6296 54.5131 81.0046 53.8665C80.765 53.4983 81.0894 53.3219 80.7933 52.9816C81.0364 52.7743 80.9252 52.5422 80.9518 52.3133C80.9783 52.0843 81.1204 51.9296 81.0905 51.7285C81.1487 51.4129 81.0126 51.1221 81.0956 50.8652C81.1556 50.2619 81.6752 49.4729 81.511 48.6932C81.8893 48.4766 81.8439 48.0837 81.9442 47.731C82.0323 47.6165 82.1675 47.6072 82.1874 47.5236C82.2456 47.208 82.4638 46.942 82.439 46.8832C82.5759 46.5861 82.4989 46.2798 82.6359 45.9828C82.724 45.8683 82.8225 45.8033 82.8858 45.6301C83.1307 45.135 83.3208 44.3801 83.4911 43.7086C83.6579 43.6127 83.628 43.4116 83.9575 43.3776C84.0124 42.6319 84.6073 42.437 85.0267 42.0007C85.1568 41.8491 85.2766 41.648 85.4384 41.4097C85.4949 41.3819 85.465 41.1807 85.5215 41.1529C85.6344 41.0972 85.7697 41.0879 85.8459 40.9765C86.5256 40.237 87.4603 39.2871 88.1375 38.4177C88.4637 37.9535 89.092 37.3842 89.7203 36.8149C89.9069 36.6354 90.1618 36.425 90.3485 36.2456C90.5103 36.0073 90.5618 35.8371 90.7602 35.6546C90.8904 35.503 91.2515 35.3823 91.4947 35.175C92.2924 34.5221 93.3016 33.7485 94.5324 33.139C94.6992 33.043 94.9356 32.9812 95.105 32.8976C95.5399 32.6532 95.9498 32.3499 96.3059 32.0869C96.3941 31.9724 96.9375 31.9477 97.1516 31.8394C97.4196 31.6908 97.6746 31.4804 97.9426 31.3319C98.1659 31.2081 98.4836 31.1772 98.7069 31.0534C100.014 30.3324 101.657 29.1319 102.94 29.0699C103.27 29.0359 103.646 29.107 104.143 28.9771C104.335 28.9399 104.603 28.7914 104.794 28.7543C105.042 28.6893 105.309 28.8285 105.582 28.8223C105.965 28.748 106.295 28.714 106.649 28.7387C106.762 28.683 107.006 28.8934 107.144 28.8965C107.335 28.8594 107.448 28.8037 107.583 28.7944C108.378 28.717 109.324 29.1223 110.202 29.2058C110.362 29.2553 110.506 29.1129 110.585 29.1315C110.72 29.1222 110.743 29.4687 110.888 29.3264C111.353 29.2831 111.712 29.4501 112.089 29.5213C112.61 29.4501 113.098 29.7533 113.567 29.8523C113.703 29.843 113.759 29.8151 113.897 29.8182C113.978 29.8492 114.057 29.8677 114.138 29.8986C114.22 29.9296 114.387 29.8337 114.468 29.8646C114.791 29.976 115.152 30.273 115.475 30.3844C115.773 30.4369 116.1 30.3905 116.398 30.4431C116.639 30.5235 116.917 30.6597 117.159 30.7401C117.785 30.4585 118.248 30.7029 118.714 30.9597C118.8 31.133 118.769 31.2196 118.774 31.3619C118.799 31.4207 118.912 31.7827 118.907 31.6404C118.934 32.417 118.329 32.745 118.412 33.4937C118.361 33.6639 118.137 33.7877 118.061 33.8991C118.059 34.1868 117.898 34.4251 117.896 34.7128C117.869 34.9418 117.764 35.1522 117.624 35.4368C117.573 35.607 117.488 35.7338 117.436 35.904C117.466 36.1051 117.328 36.102 117.353 36.1608C117.14 36.5692 117.13 37.2902 116.725 37.7357C116.776 38.5711 116.721 39.3168 115.61 39.7252C115.312 39.6726 115.097 39.3632 114.876 39.1993C114.551 39.3756 114.305 39.1529 114.032 39.1591C113.872 39.1096 113.759 39.1653 113.623 39.1746C113.326 39.122 113.321 38.9797 113.321 38.9797C113.239 38.9487 112.991 39.0137 112.887 38.9364C112.59 38.8838 112.201 38.8157 111.93 38.5342C111.254 38.6982 110.596 38.4785 109.935 38.4167C109.662 38.4229 109.364 38.3703 109.069 38.3301C108.692 38.259 108.333 38.0919 107.924 38.1074C107.733 38.1445 107.484 38.2095 107.248 38.2714C107.167 38.2405 106.95 38.2188 106.95 38.2188C106.815 38.2281 106.682 38.3673 106.572 38.4354C106.355 38.4138 106.159 38.3086 105.942 38.2869C105.861 38.256 105.612 38.321 105.396 38.2993C105.066 38.3334 104.582 38.4602 104.086 38.5902C103.756 38.6243 103.461 38.5841 103.131 38.6181C102.858 38.6243 102.5 38.7574 102.233 38.6182C101.927 38.9987 101.464 38.7543 101.171 38.8441C100.979 38.8812 100.793 39.0607 100.623 39.1442C100.488 39.1535 100.382 39.0638 100.247 39.0731C99.9986 39.138 99.8368 39.3763 99.6425 39.4011C99.3378 39.4939 98.7944 39.5187 98.285 39.5868C97.7937 39.859 97.4973 40.5243 97.0242 39.9952C96.8376 40.1747 97.0524 40.4841 96.8093 40.6914C96.4575 40.679 96.1579 40.9142 95.8781 41.0658C95.6548 41.1896 95.5469 41.3876 95.3037 41.5949C95.1908 41.6506 95.0872 41.5733 95.0307 41.6011C94.8638 41.697 94.6746 41.8641 94.3527 42.0529C93.9966 42.3159 93.5369 42.5015 93.282 42.7119C93.1518 42.8636 93.0687 43.1204 92.9268 43.2751C92.5757 43.6804 92.3036 43.9867 91.9407 44.3951C91.8105 44.5468 91.641 44.6303 91.5357 44.8407C91.0111 45.4874 90.7645 46.2702 90.3279 46.8024C90.2996 47.3191 90.0497 47.6718 89.9178 48.1112C89.7492 48.4948 89.6395 48.9806 89.3227 49.3117C89.4023 49.6304 89.2628 49.915 89.3542 50.2306C89.0298 50.407 89.1658 50.6978 88.8047 50.8185C89.0444 51.1867 88.9142 51.3383 89.0477 51.6167C88.8259 52.4583 88.9388 53.4082 88.604 54.3055C88.8804 54.7293 88.8154 55.1904 88.7989 55.704C88.8271 56.1928 88.9117 56.6538 88.8518 57.2572C88.8766 57.316 88.7687 57.514 88.7687 57.514C88.7936 57.5728 88.9903 57.678 89.0084 57.8822C89.0581 57.9997 88.9569 58.0523 88.9502 58.1978C89.0049 58.4576 89.1949 58.7083 89.3061 58.9403C89.5491 59.7386 89.6004 60.5739 89.7174 61.366C89.879 62.1333 90.0904 63.0182 90.4017 63.7855C90.565 64.2651 90.8098 64.7756 91.0322 65.2397C91.1725 65.3727 91.36 65.4934 91.5251 65.6852C91.8512 66.2266 91.988 66.9352 92.564 67.1239C92.6436 67.4425 93.0054 67.7396 92.9199 67.8664C93.1415 68.0304 93.3829 68.1108 93.548 68.3026C93.6293 68.3336 93.8509 68.4976 93.9006 68.6151C94.0068 68.7049 93.9802 68.9338 94.1205 69.0669C94.6947 69.5433 95.5112 69.5123 96.1369 69.8186C96.6512 70.8984 97.8007 70.2579 98.2951 71.4212C98.7847 71.4367 99.2793 71.5944 99.7373 71.6965C100.195 71.7986 100.66 71.7553 101.13 71.8543C101.29 71.9038 101.458 72.108 101.699 72.1884C102.076 72.2595 102.54 72.2162 102.898 72.671C103.358 72.4854 103.771 72.6122 104.125 72.6369C104.48 72.6617 104.863 72.5874 105.276 72.7142C106.532 72.1634 107.428 72.4511 108.657 72.1293C109.041 72.055 109.395 72.0798 109.805 71.7765C110.268 72.0209 110.921 71.5104 111.33 71.795C111.418 71.6806 111.438 71.597 111.553 71.6713C112.02 71.3402 112.231 71.2195 112.701 71.3185C113.224 70.9596 113.934 70.4212 114.505 70.4676C114.838 69.858 115.897 69.6197 116.575 69.168C116.762 68.9885 116.98 68.7224 117.203 68.5986C117.292 68.4842 117.508 68.5058 117.638 68.3542L117.721 68.0974C117.866 67.9551 117.913 68.0602 118.026 68.0045C118.351 67.8282 119.035 67.231 119.285 66.8783C119.472 66.6988 119.97 66.2811 120.163 65.9562C120.33 65.8603 120.3 65.6592 120.433 65.5199C120.563 65.3683 120.758 65.3436 120.818 65.1579C120.875 65.1301 120.955 64.8609 121.088 64.7216C121.25 64.4834 121.256 64.338 121.384 64.0564C121.441 64.0286 121.514 63.9048 121.571 63.877C121.602 63.7903 121.548 63.5304 121.543 63.3881C121.574 63.3015 121.766 63.2643 121.786 63.1808C121.819 62.8064 121.895 62.695 121.944 62.5125C121.976 62.4258 121.858 62.3392 121.865 62.1938C121.896 62.1072 121.995 62.0422 122.051 62.0143C122.046 61.872 122.028 61.6678 122.023 61.5255C122.246 61.4017 122.131 61.3274 122.106 61.2687C122.158 61.0985 122.184 60.8695 122.265 60.6004C122.353 60.4859 122.266 60.3126 122.515 60.2476C122.516 59.9599 122.437 59.6412 122.601 59.4153C122.218 58.484 122.06 57.5589 122.172 56.7854C122.036 56.4946 121.896 56.3615 121.762 56.0831C121.653 55.8634 121.734 55.5942 121.625 55.3746C121.546 55.0559 121.22 54.8146 121.242 54.4433C121.082 54.3938 120.696 54.4557 120.586 54.5238C120.318 54.6723 120.336 54.8765 120.124 54.9972C119.957 55.0931 119.721 55.155 119.473 55.22C118.758 55.616 118.135 56.3277 117.395 56.665C117.096 56.9001 116.906 56.6495 116.741 56.4577C116.382 56.5907 116.825 56.9187 116.439 56.9806C116.17 57.4169 115.43 57.7541 114.997 57.7108C114.229 58.5648 113.057 58.8588 112.32 59.6262C111.856 59.6695 111.423 59.6262 110.931 59.8985C110.278 59.4035 110.171 58.5959 109.736 57.8348C109.541 57.4419 109.213 57.1882 108.975 56.5323C108.925 56.4147 108.871 56.1548 108.812 56.0527C108.753 55.9506 108.59 55.8887 108.484 55.799C108.356 55.6629 108.351 55.5206 108.351 55.5206C108.136 55.2112 107.882 55.1338 107.778 54.7564C107.91 54.317 108.056 53.8869 108.41 53.6115C108.709 53.3764 109.041 53.4723 109.391 53.3547C109.557 53.2588 109.552 53.1164 109.665 53.0608C109.722 53.0329 109.882 53.0824 109.938 53.0545C110.162 52.9308 110.319 52.5502 110.597 52.6863C110.81 52.2779 111.114 52.1851 111.436 51.9963C111.871 51.7519 112.088 51.7735 112.368 51.6219C112.559 51.5848 112.834 51.2908 113.046 51.1701C113.424 50.9536 113.866 50.8638 114.245 50.6472C114.412 50.5513 114.431 50.4677 114.544 50.412C114.711 50.3161 114.736 50.3749 114.948 50.2542C115.06 50.1985 115.078 50.1026 115.247 50.0191C115.417 49.9355 115.52 50.0129 115.631 49.9448C115.93 49.7096 116.099 49.326 116.423 49.1496C116.59 49.0537 116.863 49.0475 117.075 48.9268C117.478 48.769 117.866 48.4193 118.3 48.1749C118.792 47.9026 119.313 47.8314 119.836 47.4725C120.214 47.2559 120.489 46.9619 120.789 46.7268C121.223 46.4823 121.72 46.3524 122.179 46.1667C122.403 46.0429 122.565 45.8047 122.779 45.6964C123.437 45.3282 124.526 44.8733 125.427 44.2978C125.84 44.4246 126.186 44.8825 126.714 44.6659C126.765 45.5013 127.232 46.1758 127.578 47.0514L127.535 47.0235Z" fill="#F5BAC5"/>
</svg>
