<svg width="148" height="144" viewBox="0 0 148 144" fill="none" xmlns="http://www.w3.org/2000/svg">
<g clip-path="url(#clip0_2053_1669)">
<path d="M147.28 71.9201C147.28 77.2301 138.45 81.4901 137.32 86.4601C136.15 91.5901 142.24 99.2501 140 103.88C137.73 108.59 127.93 108.59 124.7 112.63C121.45 116.69 123.62 126.24 119.56 129.49C115.52 132.72 106.69 128.5 101.98 130.77C97.35 133 95.16 142.56 90.03 143.73C85.06 144.86 78.96 137.22 73.64 137.22C68.33 137.22 62.23 144.86 57.25 143.73C52.27 142.6 49.93 133.01 45.3 130.77C40.59 128.5 31.77 132.72 27.72 129.49C23.67 126.26 25.82 116.69 22.58 112.63C19.35 108.59 9.55 108.58 7.28 103.88C5.01 99.1801 11.13 91.5901 9.96 86.4601C8.83 81.4901 0 77.2401 0 71.9201C0 66.6101 8.83 62.3501 9.96 57.3801C11.09 52.4101 5.04 44.5901 7.28 39.9601C9.55 35.2501 19.35 35.2501 22.58 31.2101C25.83 27.1501 23.66 17.6001 27.72 14.3501C31.76 11.1201 40.59 15.3401 45.3 13.0701C49.93 10.8401 52.12 1.28006 57.25 0.110058C62.38 -1.05994 68.32 6.62006 73.64 6.62006C78.95 6.62006 85.05 -1.01994 90.03 0.110058C95.01 1.24006 97.35 10.8301 101.98 13.0701C106.69 15.3401 115.51 11.1201 119.56 14.3501C123.62 17.6001 121.46 27.1501 124.7 31.2101C127.93 35.2501 137.73 35.2601 140 39.9601C142.23 44.5901 136.15 52.2501 137.32 57.3801C138.49 62.5101 147.28 66.6001 147.28 71.9201Z" fill="#5C3A2E"/>
<path d="M58.7701 85.2C48.2001 68.38 51.9401 31.23 51.9401 31.23C34.7601 33.83 39.1901 66.38 39.1901 66.38C41.9501 93.49 52.7601 108.12 57.2501 114.57C58.4901 116.36 60.5401 117.41 62.7101 117.41H84.9601C87.1401 117.41 89.1901 116.35 90.4301 114.55C95.2301 107.6 106.69 88.4 108.32 61.71C110.02 33.83 97.7001 31.4 97.7001 33.26" stroke="#F5BAC5" stroke-width="2" stroke-miterlimit="10"/>
<path d="M73.7501 117.37C76.6401 117.4 83.8501 111.38 88.6501 107.01C93.9401 102.19 98.1601 90.64 88.3701 85.39C82.3101 82.14 74.9501 89.07 74.1101 90.57C74.1101 90.57 66.3601 80.32 56.9701 85.97C50.8801 89.63 51.1101 99.33 59.2601 107.39C59.2601 107.39 67.8401 117.31 73.7601 117.38L73.7501 117.37Z" stroke="#F5BAC5" stroke-width="2" stroke-miterlimit="10"/>
<path d="M69.4402 86.56C69.4402 86.56 61.2502 43.51 65.8002 28.73C65.8002 28.73 66.9202 23.16 60.3802 24.07C53.8402 24.99 51.9402 31.23 51.9402 31.23" stroke="#F5BAC5" stroke-width="2" stroke-miterlimit="10"/>
<path d="M89.71 85.91C89.71 85.91 98.6 64.7 97.71 33.26C97.71 33.26 97.74 28.74 88.56 24.07C88.56 24.07 81.35 20.95 82.31 29.52C83.26 38.08 81.95 75.16 79.3 86.21" stroke="#F5BAC5" stroke-width="2" stroke-miterlimit="10"/>
<path d="M65.8 28.7301C65.8 28.7301 67.65 21.4401 74.05 21.1701C74.8 21.1401 82.3 20.6401 82.3 29.5201" stroke="#F5BAC5" stroke-width="2" stroke-miterlimit="10"/>
</g>
<defs>
<clipPath id="clip0_2053_1669">
<rect width="147.28" height="143.84" fill="white"/>
</clipPath>
</defs>
</svg>
