<svg 
    width="254" 
    height="32" 
    viewBox="0 0 254 32" 
    fill="none" 
    xmlns="http://www.w3.org/2000/svg"
>
<g clip-path="url(#clip0_1027_1462)">
<path d="M0 29.7561V4.45207C0 3.56882 0.532266 3.04364 1.42744 3.04364H6.7622C11.4074 3.04364 13.3913 5.16822 13.3913 9.51287V10.6348C13.3913 13.5233 12.4962 15.3376 10.5002 16.1373V16.2208C12.9075 17.0205 13.8389 19.1093 13.8389 22.0813V24.4924C13.8389 28.8251 11.5163 31.1526 7.04043 31.1526H1.42744C0.532266 31.1526 0 30.6274 0 29.7441V29.7561ZM6.22994 14.4901C7.89932 14.4901 8.91546 13.762 8.91546 11.5181V9.95449C8.91546 7.94927 8.22594 7.06602 6.64123 7.06602H4.48797V14.4901H6.24203H6.22994ZM7.04043 27.1421C8.55256 27.1421 9.36305 26.4618 9.36305 24.373V21.9261C9.36305 19.3122 8.50417 18.5125 6.47188 18.5125H4.47588V27.1421H7.04043Z" fill="#5C3A2E"/>
<path d="M15.3752 29.947C15.3752 29.8635 15.3752 29.8277 15.4115 29.589L19.6818 4.33271C19.8027 3.48527 20.335 3.04364 21.1939 3.04364H24.6536C25.5125 3.04364 26.0327 3.48527 26.1657 4.33271L30.436 29.589C30.4723 29.8277 30.4723 29.8635 30.4723 29.947C30.4723 30.7109 29.9884 31.1526 29.1295 31.1526H27.5448C26.6859 31.1526 26.1174 30.7467 25.9964 29.8635L25.3915 25.5666V25.6501H20.1414L19.5366 29.8635C19.4156 30.7467 18.8471 31.1526 17.9882 31.1526H16.7301C15.8712 31.1526 15.3873 30.7109 15.3873 29.947H15.3752ZM24.8593 21.8426L22.7786 7.94927H22.6939L20.6616 21.8426H24.8593Z" fill="#5C3A2E"/>
<path d="M32.7465 29.7561V4.45207C32.7465 3.56882 33.2787 3.04364 34.1739 3.04364H35.807C36.7022 3.04364 37.2344 3.56882 37.2344 4.45207V14.8959L42.5692 4.09399C42.9321 3.36591 43.4644 3.05558 44.2386 3.05558H45.6176C46.4281 3.05558 46.8757 3.41365 46.8757 3.97464C46.8757 4.17755 46.8394 4.38045 46.6701 4.70272L42.0732 13.3801L47.0814 29.4457C47.1661 29.6844 47.2023 29.9232 47.2023 30.1261C47.2023 30.8064 46.7548 31.1645 45.9443 31.1645H44.1902C43.3797 31.1645 42.8112 30.7587 42.5571 29.9948L39.0127 18.6319L37.2224 22.2007V29.7441C37.2224 30.6274 36.6901 31.1526 35.7949 31.1526H34.1618C33.2666 31.1526 32.7344 30.6274 32.7344 29.7441L32.7465 29.7561Z" fill="#5C3A2E"/>
<path d="M49.5976 29.7561V4.45207C49.5976 3.56882 50.1298 3.04364 51.025 3.04364H60.3881C61.2832 3.04364 61.8155 3.56882 61.8155 4.45207V5.65759C61.8155 6.54084 61.2832 7.06602 60.3881 7.06602H54.0855V14.4901H58.8034C59.6985 14.4901 60.2308 15.0153 60.2308 15.8985V17.1041C60.2308 17.9873 59.6985 18.5125 58.8034 18.5125H54.0855V27.1421H60.3881C61.2832 27.1421 61.8155 27.6673 61.8155 28.5505V29.7561C61.8155 30.6393 61.2832 31.1645 60.3881 31.1645H51.025C50.1298 31.1645 49.5976 30.6393 49.5976 29.7561Z" fill="#5C3A2E"/>
<path d="M64.368 29.7561V4.45207C64.368 3.56882 64.9002 3.04364 65.7954 3.04364H71.0092C75.6545 3.04364 77.6384 5.16822 77.6384 9.51287V11.2436C77.6384 14.132 76.7069 15.9821 74.7109 16.7818V16.8653C76.9488 17.5457 77.6867 19.6345 77.6867 22.8094V27.7508C77.6867 28.4789 77.6867 29.0757 77.8077 29.6367C77.844 29.8396 77.8924 29.9948 77.8924 30.1619C77.8924 30.8064 77.4448 31.1645 76.6706 31.1645H74.8802C74.0698 31.1645 73.4165 30.8064 73.3318 29.959C73.2472 29.4815 73.2109 28.837 73.2109 27.715V22.5707C73.2109 19.9567 72.4367 19.1212 70.4044 19.1212H68.856V29.7561C68.856 30.6393 68.3237 31.1645 67.4285 31.1645H65.7954C64.9002 31.1645 64.368 30.6393 64.368 29.7561ZM70.4649 15.0988C72.1342 15.0988 73.1504 14.3708 73.1504 12.1268V9.95449C73.1504 7.94927 72.4609 7.06602 70.8762 7.06602H68.8439V15.0988H70.4769H70.4649Z" fill="#5C3A2E"/>
<path d="M84.2191 29.7561V19.1929L79.2593 4.65501C79.1747 4.41629 79.1747 4.24919 79.1747 4.09402C79.1747 3.41368 79.6222 3.0556 80.4327 3.0556H82.2231C83.082 3.0556 83.6021 3.37787 83.8562 4.22532L86.6264 13.3801H86.7111L89.4813 4.22532C89.7232 3.37787 90.2555 3.0556 91.1144 3.0556H92.4934C93.3039 3.0556 93.7515 3.41368 93.7515 4.09402C93.7515 4.24919 93.7515 4.41629 93.6668 4.65501L88.7071 19.1929V29.7561C88.7071 30.6393 88.1748 31.1645 87.2796 31.1645H85.6465C84.7514 31.1645 84.2191 30.6393 84.2191 29.7561Z" fill="#5C3A2E"/>
<path d="M139.914 29.7561V4.45207C139.914 3.56882 140.446 3.04364 141.341 3.04364H146.748C151.224 3.04364 153.426 5.49049 153.426 9.9903V24.2059C153.426 28.7057 151.224 31.1526 146.748 31.1526H141.341C140.446 31.1526 139.914 30.6274 139.914 29.7441V29.7561ZM146.664 27.1421C148.091 27.1421 148.938 26.414 148.938 24.4088V9.78739C148.938 7.78217 148.079 7.05408 146.664 7.05408H144.389V27.1302H146.664V27.1421Z" fill="#5C3A2E"/>
<path d="M156.426 29.7561V4.45207C156.426 3.56882 156.958 3.04364 157.853 3.04364H159.486C160.382 3.04364 160.914 3.56882 160.914 4.45207V29.7441C160.914 30.6274 160.382 31.1526 159.486 31.1526H157.853C156.958 31.1526 156.426 30.6274 156.426 29.7441V29.7561Z" fill="#5C3A2E"/>
<path d="M163.188 29.947C163.188 29.8635 163.188 29.8277 163.224 29.589L167.495 4.33271C167.616 3.48527 168.148 3.04364 169.007 3.04364H172.466C173.325 3.04364 173.846 3.48527 173.979 4.33271L178.249 29.589C178.285 29.8277 178.285 29.8635 178.285 29.947C178.285 30.7109 177.801 31.1526 176.942 31.1526H175.358C174.499 31.1526 173.93 30.7467 173.809 29.8635L173.204 25.5666V25.6501H167.954L167.349 29.8635C167.228 30.7467 166.66 31.1526 165.801 31.1526H164.543C163.684 31.1526 163.2 30.7109 163.2 29.947H163.188ZM172.66 21.8426L170.579 7.94927H170.495L168.462 21.8426H172.66Z" fill="#5C3A2E"/>
<path d="M180.559 29.7561V4.45207C180.559 3.56882 181.092 3.04364 181.987 3.04364H187.322C191.967 3.04364 193.951 5.16822 193.951 9.51287V10.6348C193.951 13.5233 193.055 15.3376 191.059 16.1373V16.2208C193.467 17.0205 194.398 19.1093 194.398 22.0813V24.4924C194.398 28.8251 192.076 31.1526 187.6 31.1526H181.987C181.092 31.1526 180.559 30.6274 180.559 29.7441V29.7561ZM186.777 14.4901C188.447 14.4901 189.463 13.762 189.463 11.5181V9.95449C189.463 7.94927 188.773 7.06602 187.188 7.06602H185.035V14.4901H186.789H186.777ZM187.6 27.1421C189.112 27.1421 189.922 26.4618 189.922 24.373V21.9261C189.922 19.3122 189.063 18.5125 187.031 18.5125H185.035V27.1421H187.6Z" fill="#5C3A2E"/>
<path d="M196.987 29.7561V4.45207C196.987 3.56882 197.519 3.04364 198.414 3.04364H207.777C208.673 3.04364 209.205 3.56882 209.205 4.45207V5.65759C209.205 6.54084 208.673 7.06602 207.777 7.06602H201.475V14.4901H206.193C207.088 14.4901 207.62 15.0153 207.62 15.8985V17.1041C207.62 17.9873 207.088 18.5125 206.193 18.5125H201.475V27.1421H207.777C208.673 27.1421 209.205 27.6673 209.205 28.5505V29.7561C209.205 30.6393 208.673 31.1645 207.777 31.1645H198.414C197.519 31.1645 196.987 30.6393 196.987 29.7561Z" fill="#5C3A2E"/>
<path d="M215.266 29.7561V7.06602H212.011C211.116 7.06602 210.584 6.54084 210.584 5.65759V4.45207C210.584 3.56882 211.116 3.04364 212.011 3.04364H222.995C223.891 3.04364 224.423 3.56882 224.423 4.45207V5.65759C224.423 6.54084 223.891 7.06602 222.995 7.06602H219.741V29.7561C219.741 30.6393 219.209 31.1645 218.314 31.1645H216.681C215.786 31.1645 215.253 30.6393 215.253 29.7561H215.266Z" fill="#5C3A2E"/>
<path d="M226.564 29.7561V4.45207C226.564 3.56882 227.096 3.04364 227.992 3.04364H237.355C238.25 3.04364 238.782 3.56882 238.782 4.45207V5.65759C238.782 6.54084 238.25 7.06602 237.355 7.06602H231.052V14.4901H235.77C236.665 14.4901 237.197 15.0153 237.197 15.8985V17.1041C237.197 17.9873 236.665 18.5125 235.77 18.5125H231.052V27.1421H237.355C238.25 27.1421 238.782 27.6673 238.782 28.5505V29.7561C238.782 30.6393 238.25 31.1645 237.355 31.1645H227.992C227.096 31.1645 226.564 30.6393 226.564 29.7561Z" fill="#5C3A2E"/>
<path d="M240.645 24.4924V24.2895C240.645 23.4062 241.177 22.881 242.072 22.881H243.451C244.347 22.881 244.879 23.4062 244.879 24.2895V24.8146C244.879 26.8199 245.774 27.5479 247.201 27.5479C248.629 27.5479 249.524 26.8199 249.524 24.743C249.524 22.4155 248.629 20.9236 245.701 18.4051C241.951 15.1466 240.742 12.8669 240.742 9.65611C240.742 5.23985 243.064 2.67365 247.419 2.67365C251.774 2.67365 253.927 5.3234 253.927 9.50095C253.927 10.4678 253.395 10.9094 252.5 10.9094H251.121C250.226 10.9094 249.693 10.4678 249.693 9.50095V9.46514C249.693 7.45992 248.883 6.69602 247.456 6.69602C246.028 6.69602 245.218 7.45992 245.218 9.38159C245.218 11.4346 246.149 12.9146 249.089 15.445C252.839 18.6915 254.012 20.9474 254.012 24.4446C254.012 29.028 251.653 31.5942 247.262 31.5942C242.871 31.5942 240.669 29.028 240.669 24.5282L240.645 24.4924Z" fill="#5C3A2E"/>
<path d="M133.006 14.0843C133.151 15.2421 131.313 16.3879 131.204 17.498C131.083 18.6438 132.619 20.1477 132.256 21.21C131.893 22.2723 129.728 22.5468 129.123 23.5017C128.518 24.4566 129.244 26.4856 128.433 27.2973C127.623 28.1089 125.579 27.4166 124.599 28.0254C123.619 28.6341 123.413 30.7587 122.312 31.1406C121.212 31.5226 119.712 30.0187 118.538 30.1619C117.365 30.3051 116.228 32.1194 115.103 32C113.978 31.8806 113.215 29.8635 112.139 29.5054C111.062 29.1473 109.211 30.2812 108.244 29.6845C107.276 29.0877 107.494 26.9631 106.671 26.1634C105.848 25.3637 103.695 25.6263 103.078 24.6595C102.461 23.6927 103.598 21.8903 103.211 20.8161C102.824 19.7419 100.78 19.0735 100.635 17.9276C100.489 16.7818 102.328 15.624 102.437 14.514C102.546 13.404 101.022 11.8642 101.385 10.8019C101.748 9.73966 103.913 9.46513 104.518 8.51026C105.123 7.5554 104.397 5.5263 105.207 4.71467C106.018 3.90303 108.062 4.59531 109.042 3.98658C110.022 3.37785 110.228 1.25327 111.328 0.871324C112.429 0.489377 113.929 1.99329 115.103 1.85006C116.276 1.70683 117.413 -0.107415 118.538 7.7989e-06C119.663 0.10743 120.425 2.13652 121.502 2.4946C122.579 2.85267 124.429 1.71877 125.397 2.31556C126.365 2.91235 126.147 5.03693 126.97 5.83664C127.792 6.63634 129.946 6.37375 130.563 7.34055C131.179 8.30735 130.042 10.1097 130.429 11.1839C130.817 12.2581 132.861 12.9265 133.006 14.0724V14.0843Z" fill="#F5BAC5"/>
<path d="M123.159 15.8986C123.159 15.8986 123.087 16.006 123.075 16.0776C123.062 16.1253 123.075 16.1373 123.075 16.1612C123.062 16.185 123.026 16.2328 123.002 16.2328C122.99 16.2925 123.038 16.3521 123.026 16.3999C123.014 16.4596 122.954 16.6147 122.941 16.7221C122.905 17.0922 123.05 17.486 122.772 17.7725C122.833 17.9277 122.748 17.9635 122.712 18.0828C122.7 18.1425 122.724 18.1783 122.687 18.2499C122.687 18.2857 122.554 18.3693 122.591 18.5125C122.506 18.5364 122.53 18.6677 122.445 18.6677C122.445 18.7512 122.421 18.799 122.433 18.8945C122.312 18.9661 122.312 19.1332 122.24 19.2287C122.191 19.3361 122.07 19.4077 122.046 19.539C121.986 19.5867 121.913 19.6345 121.901 19.718C121.901 19.909 122.07 19.9209 122.107 20.0642C122.143 20.1477 122.228 20.1955 122.312 20.2074C122.288 20.3148 122.409 20.3626 122.458 20.4103C122.506 20.47 122.542 20.5416 122.603 20.6013C122.663 20.661 122.796 20.661 122.893 20.7326C122.917 20.7565 122.941 20.7684 122.966 20.7803C123.05 20.8161 123.099 20.8877 123.171 20.9832C123.22 21.0429 123.316 21.1861 123.329 21.3771C123.425 21.4726 123.571 21.5084 123.667 21.6278C123.716 21.8904 123.679 22.0813 123.546 22.2126C123.401 22.2246 123.28 22.2604 123.147 22.3201C123.062 22.3439 123.014 22.4155 122.929 22.4275C122.833 22.4633 122.748 22.4275 122.615 22.4275C122.518 22.4752 122.506 22.4394 122.494 22.4394C122.397 22.4872 122.373 22.4513 122.349 22.4513C122.083 22.4872 121.877 22.523 121.562 22.4991C121.441 22.4155 121.308 22.3439 121.127 22.3439C121.018 22.2723 120.994 22.1171 120.788 22.1529C120.861 22.0217 120.534 21.9142 120.449 21.9262C120.22 21.95 120.159 22.2723 119.978 22.4513C119.966 22.4752 119.917 22.4752 119.857 22.523C119.76 22.5946 119.615 22.7617 119.482 22.8691C119.409 22.9168 119.288 22.9765 119.216 23.0601C119.179 23.1078 118.937 23.1794 118.841 23.2033C118.768 23.251 118.732 23.3227 118.659 23.3704C118.381 23.442 118.26 23.6449 117.933 23.7046C117.837 23.7404 117.8 23.8478 117.667 23.8836C117.534 23.9433 117.341 23.9075 117.195 23.9553C117.062 24.0149 117.026 24.0746 116.929 24.1462C116.82 24.1462 116.675 24.1462 116.639 24.1582C116.518 24.194 116.361 24.1343 116.24 24.1462C116.07 24.1462 115.841 24.2775 115.683 24.194C115.526 24.1343 115.236 24.2417 115.091 24.1224C114.957 24.182 114.97 24.1343 114.8 24.1582C114.691 24.1582 114.643 24.0746 114.558 24.0627C114.486 24.1104 114.449 24.0746 114.316 24.1104C114.244 24.0627 114.147 24.0507 114.074 23.9791C113.857 24.0866 113.796 23.8836 113.53 23.9433C113.457 23.8717 113.385 23.8001 113.228 23.812C113.191 23.6927 113.095 23.5972 113.01 23.5494C112.937 23.5017 112.853 23.4898 112.792 23.4301C112.732 23.3943 112.671 23.3227 112.611 23.263C112.562 23.2033 112.453 23.1794 112.465 23.072C112.296 23.0362 112.199 22.893 112.018 22.8333C111.982 22.6781 111.921 22.5826 111.788 22.511C111.74 22.4752 111.776 22.3678 111.728 22.3201C111.703 22.2604 111.595 22.2365 111.546 22.1529C111.522 22.141 111.534 22.0575 111.51 21.9978C111.461 21.9262 111.328 21.7471 111.437 21.592C111.292 21.4487 111.316 21.1145 111.171 20.9832C111.171 20.6729 111.074 20.5058 110.941 20.3387C110.941 20.088 110.857 19.8374 110.869 19.5867C110.869 19.4196 110.965 19.1451 110.808 18.9422C110.893 18.8109 110.808 18.6796 110.857 18.5245C110.857 18.4648 110.905 18.3932 110.917 18.3335C110.953 18.2738 110.965 18.1903 110.978 18.1425C111.002 17.9993 111.05 17.868 110.99 17.7486C111.159 17.5815 111.086 17.3667 111.195 17.1757C111.268 17.0444 111.401 16.9728 111.449 16.8534C111.498 16.7699 111.486 16.6625 111.522 16.555C111.534 16.5073 111.57 16.4715 111.595 16.4237C111.619 16.3402 111.643 16.3163 111.691 16.2208C111.728 16.1612 111.824 16.1253 111.897 16.0299C111.994 15.9344 112.018 15.8508 112.199 15.7911C112.272 15.6598 112.32 15.5524 112.478 15.5166C112.514 15.4569 112.526 15.3853 112.562 15.3376C112.647 15.2302 112.877 15.0153 113.034 14.9079C113.167 14.8243 113.336 14.7885 113.445 14.6692C113.433 14.5498 113.264 14.5856 113.203 14.514C113.155 14.3111 113.046 14.2275 112.949 14.0963C112.949 13.7859 112.78 13.6904 112.635 13.5591C112.611 13.4756 112.574 13.4159 112.586 13.3204C112.538 13.2249 112.478 13.1295 112.429 13.034C112.369 12.9146 112.429 12.7833 112.429 12.664C112.405 12.5088 112.284 12.3536 112.284 12.1746C112.272 12.0672 112.308 12.0075 112.32 11.9239C112.332 11.8762 112.284 11.8046 112.296 11.7568C112.32 11.733 112.357 11.733 112.345 11.6852C112.357 11.6255 112.332 11.542 112.345 11.4584C112.345 11.3988 112.393 11.3271 112.381 11.2675C112.381 11.0049 112.32 10.802 112.381 10.5752C112.429 10.4319 112.562 10.3245 112.562 10.1455C112.72 10.0261 112.792 9.84709 112.901 9.67999C112.925 9.65612 112.937 9.63225 112.949 9.60838C112.974 9.58451 112.949 9.52483 112.974 9.50095C112.986 9.47708 113.07 9.45321 113.095 9.44127C113.167 9.36966 113.264 9.26224 113.324 9.14288C113.482 9.11901 113.542 9.03546 113.615 8.92803C113.808 8.86835 113.953 8.80868 114.111 8.70125C114.171 8.65351 114.183 8.60577 114.244 8.58189C114.377 8.52221 114.546 8.54609 114.667 8.42673L114.933 8.39092C115.03 8.35511 115.066 8.29543 115.163 8.23575C115.26 8.18801 115.405 8.18801 115.502 8.12833C115.587 8.10446 115.647 7.9851 115.756 8.02091C115.841 8.02091 115.78 7.88962 115.865 7.88962C116.288 7.818 116.421 7.86574 116.845 7.79413C116.929 7.79413 116.978 7.86574 117.05 7.88962C117.074 7.90155 117.159 7.88962 117.183 7.91349C117.232 7.92542 117.232 7.97317 117.256 8.00897C117.316 8.04478 117.389 8.08059 117.449 8.10446C117.51 8.14027 117.619 8.14027 117.691 8.17608C117.8 8.24769 117.885 8.40286 118.03 8.40286C118.103 8.49834 118.199 8.60577 118.369 8.58189C118.441 8.70125 118.55 8.749 118.659 8.79674C118.659 8.98771 118.853 9.02352 118.792 9.16675C118.877 9.16675 118.877 9.32192 118.949 9.4174C119.046 9.5487 119.107 9.84709 119.191 10.0858C119.252 10.229 119.373 10.5513 119.3 10.79C119.276 10.8974 119.264 10.9571 119.3 11.1242C119.264 11.1839 119.228 11.2555 119.203 11.3152C119.228 11.4704 119.24 11.6136 119.228 11.8284C119.203 11.9597 119.119 12.1507 119.083 12.3178C119.07 12.3656 119.058 12.4252 119.046 12.5088C119.034 12.5565 118.962 12.6281 118.962 12.664C118.937 12.8072 118.962 12.8669 118.925 12.9982C118.913 13.0459 118.901 13.1056 118.877 13.1295C118.792 13.2488 118.72 13.3562 118.647 13.4398C118.683 13.5949 118.623 13.7143 118.647 13.8695C118.514 14.0127 118.393 14.1679 118.333 14.3827C118.26 14.4305 118.199 14.4424 118.115 14.4901C118.018 14.5618 117.958 14.7169 117.861 14.7647C117.716 14.884 117.462 14.8721 117.353 15.075C117.389 15.1944 117.425 15.2898 117.498 15.4092C117.522 15.4211 117.57 15.4569 117.582 15.4569C117.607 15.5405 117.582 15.624 117.631 15.6718C117.764 15.8866 118.006 16.0179 118.042 16.3044C118.296 16.4954 118.466 16.746 118.671 17.0086C118.853 17.0922 118.889 17.307 119.058 17.4144C119.058 17.5218 119.131 17.5099 119.107 17.6293C119.409 17.9277 119.76 18.2141 120.099 18.4767C120.208 18.4648 120.208 18.3454 120.377 18.3574C120.377 18.238 120.353 18.1902 120.401 18.0828C120.462 17.9157 120.449 17.7725 120.498 17.6651C120.498 17.5815 120.607 17.5099 120.643 17.4383C120.643 17.4144 120.619 17.3547 120.631 17.3428C120.631 17.3189 120.728 17.2712 120.74 17.2115C120.667 17.0922 120.704 16.925 120.776 16.8415C120.74 16.555 120.704 16.4357 120.812 16.2686C120.812 16.1253 120.691 16.185 120.74 16.0537C120.788 15.8031 120.849 15.5882 120.776 15.2898C120.837 15.2898 120.824 15.2182 120.824 15.1585C120.945 15.0989 121.006 14.9676 121.26 14.9795C121.308 14.9914 121.345 15.0273 121.393 15.0273C121.526 15.0511 121.695 14.9676 121.708 15.0869C121.925 15.0392 122.131 14.9795 122.276 14.9318C122.397 14.896 122.373 15.0392 122.458 15.0511C122.76 14.9556 123.062 15.0511 123.244 15.2182C123.208 15.4092 123.268 15.6002 123.244 15.815L123.159 15.8986ZM118.466 20.4342C118.381 20.4342 118.333 20.3268 118.26 20.279C118.236 20.0761 118.103 20.0045 117.97 19.9448C117.921 19.8851 117.885 19.7658 117.849 19.6703C117.8 19.6345 117.667 19.6942 117.655 19.5867C117.607 19.5748 117.607 19.5151 117.595 19.4554C117.377 19.36 117.183 19.1929 117.074 18.9661C116.724 18.799 116.421 18.5722 116.349 18.0828C116.179 18.047 116.095 17.8919 116.095 17.6651C116.022 17.5457 115.877 17.5457 115.792 17.4383C115.792 17.3309 115.695 17.307 115.659 17.2234C115.635 17.2115 115.611 17.1638 115.587 17.1041C115.538 17.0325 115.49 16.9728 115.49 16.8654C115.284 16.7221 115.224 16.4237 114.982 16.3283C115.006 16.185 114.861 16.197 114.824 16.1015C114.764 16.1015 114.728 16.1134 114.691 16.0776C114.595 16.1731 114.546 16.2566 114.389 16.2805C114.341 16.4357 114.183 16.4834 114.086 16.5789C114.038 16.6505 113.99 16.7699 113.929 16.8415C113.796 16.9609 113.724 17.0325 113.687 17.0922C113.651 17.1518 113.639 17.2354 113.615 17.3309C113.578 17.3905 113.457 17.4502 113.518 17.5457C113.421 17.5815 113.409 17.677 113.336 17.7367C113.373 17.8322 113.3 17.9515 113.276 18.047C113.276 18.1067 113.312 18.1903 113.3 18.2738C113.3 18.3096 113.252 18.3574 113.252 18.4051C113.215 18.7632 113.397 19.0496 113.3 19.3242C113.361 19.5032 113.397 19.7419 113.421 19.8374C113.421 19.8971 113.385 19.9209 113.397 19.9448C113.397 19.9448 113.445 19.9806 113.445 20.0403C113.445 20.0403 113.409 20.0642 113.409 20.1239C113.409 20.1835 113.482 20.2193 113.494 20.279C113.518 20.3387 113.494 20.3984 113.518 20.4581C113.518 20.5416 113.639 20.6013 113.566 20.7206C113.687 20.8281 113.76 20.9594 113.82 21.1265C113.929 21.1981 114.026 21.2697 114.086 21.401C114.195 21.4249 114.244 21.5204 114.316 21.6039C114.401 21.6516 114.498 21.7471 114.57 21.7949C114.631 21.8307 114.74 21.8187 114.812 21.8665C114.861 21.9023 114.921 21.95 114.97 21.9858C115.127 22.0933 115.248 22.1768 115.393 22.2484C115.562 22.2723 115.599 22.2007 115.707 22.2484C115.707 22.332 115.707 22.4275 115.756 22.4633C115.877 22.4036 115.877 22.2604 116.022 22.2007C116.155 22.141 116.349 22.1171 116.518 22.1649C116.712 22.0455 116.953 21.9739 117.147 21.8426C117.244 21.7949 117.292 21.8307 117.413 21.8068C117.522 21.6278 117.691 21.5442 117.849 21.4249C118.042 21.2578 118.175 21.019 118.345 20.8997C118.466 20.8878 118.55 20.8519 118.623 20.8042C118.599 20.6371 118.466 20.6013 118.453 20.4103L118.466 20.4342ZM116.941 10.7662C116.881 10.6349 116.832 10.5752 116.76 10.4797C116.712 10.42 116.675 10.3245 116.615 10.3484C116.566 10.2887 116.457 10.4081 116.349 10.3842C116.216 10.2768 115.913 10.3842 115.683 10.3842C115.599 10.5394 115.417 10.5991 115.32 10.6707C115.248 10.7423 115.199 10.8497 115.091 10.8616C115.139 10.9333 115.018 10.9333 114.994 10.9571C114.982 10.981 114.994 11.0765 114.97 11.1242C114.957 11.172 114.897 11.2197 114.885 11.2555C114.752 11.6971 114.933 12.1985 115.042 12.6759C115.296 12.9385 115.502 13.2607 115.937 13.3443C116.034 13.2727 116.058 13.1891 116.119 13.0936C116.203 13.0698 116.228 12.9982 116.288 12.9504C116.361 12.843 116.385 12.6878 116.518 12.6401C116.494 12.5565 116.566 12.5565 116.554 12.4491C116.675 12.4491 116.639 12.3178 116.724 12.282C116.772 12.2104 116.905 12.2462 116.941 12.1985C116.917 12.1388 116.99 12.1268 117.014 12.091C117.05 12.0075 117.014 11.912 117.05 11.8404C117.062 11.7807 117.099 11.7688 117.099 11.7091C117.123 11.4226 117.026 10.9333 116.941 10.7662Z" fill="#5C3A2E"/>
</g>
<defs>
<clipPath id="clip0_1027_1462">
<rect width="254" height="32" fill="white"/>
</clipPath>
</defs>
</svg>
