<svg width="80" height="80" viewBox="0 0 80 80" fill="none" xmlns="http://www.w3.org/2000/svg">
<path d="M51.728 30.0767C51.9786 30.1687 52.1729 30.3119 52.4286 30.4858C53.3594 31.1353 54.0089 32.1683 54.4998 33.2576C54.9856 34.3571 55.3334 35.5435 55.5942 36.7709C55.8397 37.9011 55.9727 39.062 56.0442 40.2177C56.1158 41.2099 56.1261 42.2173 56.121 43.2197C56.1465 44.222 56.08 45.2192 56.0647 46.2165C55.8346 50.5531 55.0112 54.8694 53.6049 58.9913C52.9042 61.0522 52.0604 63.0722 51.0581 65.0002C50.7922 65.5218 50.6132 65.8696 50.2501 66.156C49.9126 66.4424 49.483 66.6213 49.0432 66.6776L45.7549 67.0458L42.0472 67.46L40.1908 67.6646L39.2703 67.7618C39.0044 67.7873 38.7333 67.7618 38.4725 67.7055C37.9458 67.5828 37.4702 67.2913 37.1122 66.8617C36.7031 66.3912 36.294 65.9258 35.9002 65.4502C35.1075 64.5041 34.3557 63.5223 33.65 62.5097C32.259 60.4692 31.0419 58.306 30.06 56.0302C29.0781 53.7596 28.3008 51.3969 27.7024 48.9883C27.4825 47.9757 27.2319 46.958 27.0376 45.9505C26.8484 44.9328 26.7052 43.91 26.608 42.877C26.4239 40.8212 26.4035 38.7296 26.8228 36.7146C27.0785 35.4873 27.4927 34.2855 28.2087 33.278C28.5667 32.7717 29.0116 32.3473 29.5128 31.9944L29.9014 31.7489C30.0242 31.6825 30.1316 31.6415 30.2441 31.5853C30.3566 31.529 30.4691 31.4881 30.5867 31.4523L30.7606 31.3961L30.8475 31.3705C30.8475 31.3705 30.9191 31.3347 30.9038 31.3807L30.914 32.1581L30.9396 33.1706L31.0061 35.2418C31.0623 36.5408 31.1441 37.8551 31.2976 39.1642C31.5175 41.1587 31.7476 43.1634 32.2334 45.1272C32.2999 45.4289 32.3715 45.7357 32.438 46.0375C32.8983 48.1086 33.5119 50.1798 34.5603 52.0567C34.8007 52.4504 35.0001 52.88 35.2865 53.2278C35.5678 53.5755 35.849 53.8824 36.1201 54.092C36.4729 54.358 36.5241 54.2557 36.2428 53.7238C36.0843 53.4221 35.9257 53.1204 35.757 52.8186C35.5985 52.5118 35.4757 52.1794 35.3172 51.8623C34.279 49.6173 33.5119 47.2035 32.9852 44.7436C32.5249 42.5446 32.2283 40.2996 31.9726 38.0494C31.8703 37.1186 31.809 36.147 31.7732 35.1958C31.7527 34.5105 31.7271 33.8303 31.722 33.1451L31.7067 32.066V30.2505C31.1135 30.4142 30.4538 30.6187 29.9066 30.8642C29.5077 31.0074 29.3491 31.1557 29.1241 31.2733C28.0451 31.8666 27.2728 32.8996 26.7563 33.9633C26.2449 35.0424 25.979 36.1828 25.7898 37.3079C25.5085 39.0415 25.4523 40.811 25.6364 42.5395C25.6517 42.6929 25.6619 42.8566 25.6619 43.01C25.6875 44.2169 25.9023 45.434 26.1273 46.6307C26.6183 49.2235 27.3393 51.7958 28.2599 54.3017C28.5258 55.0893 28.8633 55.8512 29.1701 56.6286C29.5128 57.3906 29.8452 58.1577 30.2339 58.8941C30.9856 60.3823 31.8397 61.8295 32.8062 63.1898C33.3534 63.9518 33.9006 64.7189 34.4887 65.4451C35.0052 66.0997 35.5422 66.7441 36.0689 67.3731L36.2684 67.6083C36.34 67.6902 36.432 67.8027 36.5241 67.8845C36.7082 68.0686 36.9127 68.2323 37.1327 68.3703C37.5725 68.6465 38.0736 68.8255 38.5901 68.8971C38.8152 68.9278 39.0402 68.9329 39.2652 68.9227C39.5107 68.9073 39.6487 68.8869 39.838 68.8664L40.9119 68.7539L43.0547 68.5289L47.3453 68.0788L48.4193 67.9663C48.7824 67.9203 49.0994 67.9152 49.5648 67.818C50.424 67.6237 51.1962 67.097 51.6871 66.3708C51.7485 66.2787 51.8047 66.1867 51.861 66.0946L51.994 65.8491L52.2445 65.3633C52.4031 65.036 52.5718 64.7087 52.7201 64.3814C53.027 63.7217 53.3134 63.0518 53.5844 62.3818C54.3362 60.4897 55.0675 58.5617 55.6351 56.5928C56.4022 53.9284 56.9187 51.1873 57.1642 48.4359C57.4046 45.7204 57.425 42.9895 57.2051 40.274C56.9494 37.5738 56.4585 34.802 55.0624 32.3882C54.4845 31.4012 53.7276 30.4653 52.6639 29.8977C52.4491 29.7852 52.1729 29.6829 51.9735 29.6675C51.7843 29.6522 51.5286 29.6471 51.324 29.7289C51.2217 29.7749 51.1297 29.8414 51.1143 29.9335C51.0888 30.0153 51.1399 30.0613 51.1655 30.0562C51.232 30.0409 51.2473 30.0102 51.3445 30.0153C51.4416 30.0102 51.6104 30.0409 51.7434 30.0869L51.728 30.0767Z" fill="#5C3A2E"/>
<path d="M43.8421 67.4242C43.7194 67.3833 43.6222 67.2964 43.4893 67.2453C43.0086 67.0765 42.5534 66.8054 42.0983 66.5242C41.6431 66.248 41.1931 65.931 40.7277 65.6292C40.3033 65.3377 39.8941 65.0207 39.5106 64.6831C39.1731 64.3967 38.8406 64.1001 38.5134 63.8035L38.0275 63.3637L37.5008 62.9086C36.1149 61.7119 34.9847 60.1317 34.7392 58.398C34.6676 57.9684 34.6881 57.5389 34.7392 57.1246C34.8313 56.7206 34.9489 56.3115 35.179 55.9689C35.2762 55.7848 35.4245 55.6365 35.5523 55.4728C35.716 55.3398 35.8387 55.1711 36.0382 55.0586C36.2274 54.941 36.4013 54.7926 36.5956 54.6904C36.795 54.5983 36.9894 54.4909 37.1991 54.4091C38.1554 54.0613 39.2447 54.092 40.2572 54.4653C40.7686 54.6392 41.2493 54.9051 41.7147 55.1966C41.95 55.3501 42.1545 55.4933 42.4 55.6927C42.7017 55.9382 43.0035 56.245 43.2745 56.5007C43.4535 56.1632 43.6785 55.8154 43.9035 55.5291C44.0825 55.3143 44.2513 55.1302 44.4405 54.9409C44.8138 54.5676 45.2229 54.2301 45.6576 53.9488C46.5219 53.371 47.5651 53.013 48.5624 53.2073C48.772 53.2533 48.9766 53.3198 49.1812 53.4016L49.7846 53.6982C50.1631 53.9335 50.5364 54.1841 50.8381 54.5114C51.4569 55.1455 51.8353 55.9995 51.9274 56.8843C52.0962 58.5514 51.6206 60.3413 50.5824 61.6966C50.4188 61.9267 50.2193 62.1261 50.0352 62.3358L49.4318 62.9648C48.8181 63.6092 48.1481 64.1973 47.5345 64.8417C47.4373 64.9388 47.3401 65.036 47.2378 65.1281C46.5321 65.7162 45.8315 66.2992 45.1155 66.8924C44.8138 67.1532 44.5019 67.3373 44.2871 67.6083C44.1336 67.7873 44.1234 67.8947 44.4661 67.8896C44.8189 67.8538 45.1718 67.7413 45.4684 67.5777C46.527 66.9947 47.335 66.1508 48.1737 65.3684C48.9204 64.6627 49.6568 63.9467 50.3369 63.1694C50.4801 63.0057 50.6284 62.8421 50.7767 62.6733C50.9353 62.4995 51.0836 62.3256 51.2217 62.1415C51.7382 61.4766 52.1524 60.7249 52.4132 59.9169C52.4439 59.8095 52.4644 59.697 52.5053 59.5947C52.9246 58.6179 52.9604 57.4877 52.7814 56.3882C52.6485 55.5444 52.3058 54.6648 51.6768 54.0153C51.6206 53.9642 51.5643 53.8977 51.5183 53.8363C51.3342 53.5857 51.1194 53.3505 50.8586 53.1817C50.608 52.9976 50.3523 52.8186 50.0812 52.6908C49.5494 52.3584 48.772 52.1027 48.051 52.1078C47.3146 52.0976 46.6293 52.3021 46.0156 52.5732C45.2843 52.8953 44.6399 53.3249 44.0569 53.821C43.7654 54.0665 43.4944 54.3324 43.2387 54.6188L43.1466 54.7262L43.1006 54.7824C43.075 54.8131 43.1006 54.7824 43.1006 54.7875V54.8284C43.1006 54.8284 43.1006 54.8284 43.0955 54.8336C43.0904 54.8387 43.075 54.8336 43.0597 54.8182L42.85 54.6546C42.7631 54.5881 42.6762 54.5165 42.579 54.4551C41.9295 54 41.234 53.5653 40.4464 53.3096C39.7612 53.0795 39.0145 52.9823 38.2781 53.0079C37.9048 53.0436 37.5366 53.0743 37.1786 53.192C36.8104 53.2687 36.4831 53.4323 36.1507 53.5857C35.8183 53.7392 35.537 53.9693 35.2353 54.1585C34.9489 54.3937 34.6625 54.6443 34.4375 54.9512C33.9721 55.5444 33.6908 56.2604 33.5937 56.9763C33.4709 57.9838 33.563 58.9912 33.8698 59.9169C34.2892 61.1749 35.0461 62.2693 35.9564 63.1643C37.7872 64.8059 39.6384 66.4526 41.9346 67.4549C42.4205 67.639 42.9063 67.8334 43.4381 67.8896C43.5455 67.905 43.6683 67.9356 43.7603 67.8896C43.9291 67.8282 44.1899 67.7976 44.1848 67.6646C44.1848 67.5521 43.9853 67.4856 43.8524 67.4294L43.8421 67.4242Z" fill="#5C3A2E"/>
<path d="M31.4049 30.9256C31.4714 30.8591 31.5583 30.8131 31.6146 30.7363C32.0237 30.1738 32.4686 29.7033 32.9084 29.2635C33.113 29.059 33.3584 28.9055 33.609 28.7828C34.0386 28.5731 34.504 28.4248 34.9694 28.3328C35.4245 28.2356 35.8132 28.2714 35.9973 28.4146C36.0944 28.4862 36.1865 28.6038 36.2479 28.7726C36.3143 28.9311 36.3501 29.1817 36.345 29.33L36.3553 29.2635C36.2888 30.005 36.1814 30.7517 36.2274 31.4676C36.2376 31.8256 36.2274 32.1887 36.2581 32.5467L36.3604 33.6104C36.6877 36.4947 37.2553 39.3125 37.8076 42.1304C38.0582 43.3015 38.3139 44.4726 38.5645 45.6488C38.7742 46.7585 39.1424 47.8376 39.306 48.9627C39.3623 49.3309 39.4339 49.7042 39.5157 50.0724C39.6487 50.635 39.7203 51.2077 39.9044 51.76C39.9351 51.847 39.9606 51.9288 39.976 52.0157C40.0885 52.6141 40.1959 53.2175 40.4618 53.7698C40.5794 54.0102 40.6715 54.2659 40.9425 54.3886C41.1164 54.4653 41.2084 54.4244 41.2238 54.2403C41.2391 54.0306 41.2442 53.8159 41.2136 53.6113C41.1062 52.8902 40.8607 52.1998 40.6868 51.489C40.5385 50.8548 40.4056 50.2156 40.2266 49.5866C40.155 49.3258 40.1038 49.0496 40.0629 48.7786C39.9862 48.2774 39.9146 47.7762 39.7868 47.2853C39.7714 47.2188 39.7458 47.1574 39.7407 47.0909C39.7305 46.4568 39.5157 45.8585 39.4134 45.2397C39.3367 44.7641 39.2856 44.2782 39.1373 43.8129C39.1219 43.772 39.1219 43.7259 39.1219 43.6799C39.1373 43.3321 39.0248 43.0049 38.9736 42.6724C38.856 41.936 38.677 41.2098 38.5389 40.4785C38.3855 39.558 38.273 38.6324 38.0736 37.7221C38.0224 37.4664 37.9917 37.2056 37.9508 36.9448C37.8792 36.4845 37.8485 36.014 37.7872 35.5589C37.5315 33.9479 37.4548 32.3319 37.3832 30.7363C37.3934 30.3272 37.4599 29.9232 37.5212 29.5141L37.5315 29.463C37.5519 29.2431 37.5468 29.0794 37.5264 28.8902C37.4803 28.4248 37.2809 27.9083 36.882 27.535C36.4729 27.1565 35.9206 27.0287 35.4705 27.044C35.0154 27.0594 34.596 27.1412 34.1971 27.2742C33.9977 27.3406 33.7983 27.402 33.609 27.4992C33.4147 27.581 33.2306 27.6884 33.0516 27.8009C32.3356 28.2458 31.768 28.9004 31.3998 29.6266C31.2412 29.9232 31.1032 30.2352 31.006 30.5574C30.9855 30.6238 30.96 30.7006 30.9753 30.7619C31.006 30.8795 30.9958 31.0483 31.1236 31.0841C31.231 31.1097 31.3231 31.0125 31.3998 30.9358L31.4049 30.9256Z" fill="#5C3A2E"/>
<path d="M45.5912 53.5295C45.6526 53.3863 45.7344 53.2584 45.7804 53.0845C46.0719 51.847 46.2407 50.5787 46.2509 49.2899C46.2663 48.6967 46.2867 48.1035 46.3021 47.5154C46.343 46.5028 46.3225 45.4851 46.2765 44.4879C46.0361 40.1154 45.7242 35.7634 45.1054 31.4216C45.0338 30.8795 44.9315 30.3374 44.8395 29.7902L44.6707 28.9669C44.6349 28.7214 44.5582 28.4657 44.5531 28.2254C44.4968 27.7344 44.5684 27.2537 44.8395 26.9775C45.09 26.6809 45.581 26.5889 46.0668 26.6247C46.3072 26.6451 46.5731 26.6758 46.7726 26.7679C47.018 26.8701 47.2737 26.9571 47.5141 27.0747C47.9999 27.2946 48.4755 27.535 48.9204 27.8265C49.3654 28.1128 49.7847 28.435 50.1376 28.8135C50.4802 29.1817 50.7973 29.6419 50.8842 30.0766C50.9456 30.6187 51.0018 31.1659 51.0632 31.708C51.1911 32.7206 51.2422 33.7434 51.3291 34.7611C51.3803 35.7839 51.4314 36.8067 51.4161 37.8295C51.4161 39.7574 51.4314 41.6905 51.1859 43.6083C51.0888 44.2373 51.0274 44.8766 50.9405 45.5158C50.8228 46.4926 50.6183 47.4489 50.5007 48.4257C50.4802 48.574 50.4598 48.7274 50.4291 48.8757C50.2194 49.8883 49.9586 50.8804 49.8307 51.9032C49.7745 52.343 49.6773 52.7982 49.8103 53.1715C49.887 53.4118 49.9944 53.4272 50.1376 53.1459C50.2961 52.834 50.4495 52.5067 50.5569 52.164C50.9405 50.9571 51.1195 49.6991 51.3343 48.4564C51.5235 47.3466 51.7025 46.2267 51.7945 45.1016C51.8252 44.6362 51.8917 44.1504 51.9582 43.6799C52.0656 42.8105 52.1729 41.9411 52.1934 41.0615C52.1934 40.949 52.1883 40.8263 52.2036 40.7189C52.3877 39.6449 52.3008 38.5403 52.3366 37.4561C52.3468 36.6174 52.3724 35.7685 52.2906 34.9247C52.2803 34.848 52.2803 34.7713 52.2906 34.6946C52.3366 34.1065 52.2497 33.5081 52.2292 32.92C52.1832 31.933 52.0349 30.946 51.9224 29.959C51.8712 29.6573 51.8047 29.4885 51.7178 29.2993C51.636 29.1152 51.5388 28.9464 51.4365 28.7879C50.8996 27.9645 50.1938 27.3764 49.4625 26.8957C48.7261 26.415 47.9488 26.0417 47.1561 25.7604C46.8186 25.6274 46.5833 25.607 46.3021 25.5661C46.031 25.5303 45.7395 25.5303 45.4429 25.561C44.9264 25.6121 44.2718 25.8627 43.8729 26.3945C43.4638 26.9213 43.4024 27.4992 43.3871 27.9901C43.3871 28.4299 43.4638 28.8186 43.5354 29.2072C43.5968 29.5448 43.6735 29.8618 43.7246 30.2096C43.8371 30.8949 43.9292 31.5904 44.0161 32.2859L44.5275 36.4794C44.6605 37.4613 44.6758 38.4636 44.7321 39.4608C44.7985 40.8058 44.8906 42.1559 44.9827 43.4958C45.1668 46.1448 45.223 48.799 45.223 51.4481C45.2026 51.9953 45.1923 52.5476 45.1514 53.0897C45.1412 53.2022 45.1258 53.33 45.1514 53.4169C45.1974 53.5908 45.2026 53.867 45.3304 53.8977C45.4378 53.9232 45.5299 53.7084 45.6015 53.5448L45.5912 53.5295Z" fill="#5C3A2E"/>
<path d="M44.1645 28.9925C44.2054 28.9567 44.2668 28.926 44.2872 28.8902C44.4355 28.6294 44.5378 28.343 44.456 28.0822C44.4253 27.9594 44.4151 27.8316 44.4048 27.7037C44.3588 27.4838 44.2974 27.2639 44.1696 27.0798C43.8985 26.6656 43.5508 26.3025 43.1519 26.0212C42.7479 25.7502 42.2979 25.5712 41.8478 25.4894C41.3364 25.4024 40.8608 25.3871 40.3494 25.4536C39.8483 25.5763 39.4084 25.7144 38.9942 25.9701C38.6413 26.1644 38.3652 26.4559 38.0788 26.7219C37.7975 26.9776 37.685 27.3407 37.4038 27.6015C37.3168 27.6935 37.2452 27.7958 37.1787 27.9032C37.0918 28.072 36.9486 28.2203 36.9179 28.4095C36.9179 28.4402 36.9077 28.4657 36.8924 28.4913C36.785 28.6652 36.6725 28.8493 36.7338 29.0692C36.7594 29.1612 36.7594 29.2584 36.9742 29.3607C37.1123 29.422 37.2094 29.4272 37.281 29.3965C37.3628 29.3556 37.4344 29.3095 37.4754 29.2584C37.6134 29.0794 37.6134 28.8595 37.7004 28.6652C37.7771 28.4913 37.8845 28.3379 37.9458 28.1589C37.9714 28.0873 38.0277 28.0208 38.0839 27.9697C38.2015 27.8776 38.2987 27.7702 38.3754 27.6577C38.3856 27.6424 38.3856 27.6219 38.4061 27.6168C38.6107 27.5606 38.6567 27.3918 38.7897 27.2946C38.897 27.223 39.03 27.1975 39.076 27.0645C39.076 27.0543 39.0965 27.0543 39.1118 27.0543C39.2295 27.0747 39.2704 26.9929 39.3471 26.9571C39.4238 26.9162 39.5056 26.8855 39.5772 26.8292C39.6488 26.773 39.7255 26.727 39.8125 26.7065C39.9198 26.6758 40.0221 26.6349 40.1346 26.6247C40.1909 26.6145 40.2471 26.6042 40.2983 26.5889L40.3801 26.5582L40.4006 26.548C40.4466 26.8753 40.3392 26.1031 40.3494 26.1798V26.19V26.2156L40.3852 26.4201L40.4006 26.5224C40.4057 26.5633 40.4006 26.5326 40.4006 26.5429L40.4057 26.5326C40.4415 26.5122 40.508 26.5173 40.5693 26.5122C40.6818 26.5071 40.7995 26.5531 40.9171 26.5531C41.3467 26.548 41.7302 26.6861 42.1649 26.7935C42.3234 26.8292 42.4155 26.9622 42.5178 27.0747C42.5945 27.1412 42.6558 27.223 42.7274 27.2946C42.8042 27.3662 42.8757 27.4378 42.9473 27.5248C43.2491 27.8316 43.3923 28.2612 43.561 28.6907L43.6377 28.9669C43.6377 28.9669 43.648 29.0078 43.6838 29.018C43.7502 29.0385 43.7912 29.0845 43.9241 29.0743C44.0366 29.0641 44.0929 29.018 44.144 28.9822L44.1645 28.9925Z" fill="#5C3A2E"/>
<path d="M6.3924 21.9965C6.40262 22.0783 6.3924 22.1755 6.42819 22.2369C6.6481 22.6613 6.91402 23.0091 7.272 23.2137C7.43565 23.3057 7.58396 23.4336 7.73226 23.5563C7.98796 23.766 8.25901 23.945 8.55562 24.0728C9.84435 24.6456 11.1177 25.2439 12.4372 25.7502C13.9253 26.3179 15.3726 26.9724 16.7636 27.7293C17.3415 28.0464 17.95 28.3123 18.5075 28.6754C19.0291 29.018 19.6428 29.197 20.1184 29.6317C20.2718 29.7749 20.4406 29.9028 20.6196 30.0102C20.8906 30.1789 21.1156 30.4193 21.4173 30.5318C21.4634 30.5471 21.5094 30.5676 21.5503 30.5983C21.8111 30.8182 22.0668 31.0432 22.4299 31.0739C22.5885 31.0892 22.7316 31.1353 22.9771 30.9102C23.1357 30.767 23.197 30.6443 23.1561 30.5165C23.1101 30.3784 23.0487 30.2505 22.9669 30.1585C22.6805 29.8516 22.2816 29.7289 21.9441 29.5141C21.6372 29.3249 21.3457 29.105 21.0185 28.9567C20.8804 28.8953 20.7576 28.7981 20.6451 28.6908C20.4355 28.4913 20.2207 28.3072 19.965 28.1845C19.9343 28.1691 19.8934 28.164 19.8729 28.1282C19.6684 27.7907 19.3053 27.7191 19.0291 27.5043C18.8143 27.3407 18.62 27.1361 18.3489 27.0747C18.3234 27.0696 18.308 27.0492 18.2927 27.0236C18.1853 26.8293 17.991 26.7883 17.8375 26.6758C17.5 26.4304 17.1011 26.2974 16.7431 26.0877C16.2931 25.8269 15.8686 25.5201 15.3726 25.3462C15.2345 25.2951 15.1067 25.2183 14.9788 25.157C14.7436 25.0445 14.539 24.8706 14.2986 24.7683C13.4497 24.4154 12.6519 23.9705 11.7468 23.7251C11.4297 23.6381 11.174 23.4284 10.8978 23.2699C10.5194 23.05 10.1256 22.8659 9.7165 22.7125C8.90849 22.4056 8.15673 21.9914 7.34871 21.6846C7.18507 21.613 7.02142 21.5363 6.85777 21.4698C6.82197 21.4544 6.78617 21.434 6.74015 21.4595C6.6481 21.5107 6.55093 21.5056 6.45888 21.6641C6.38217 21.7971 6.39751 21.9147 6.41285 22.0016L6.3924 21.9965Z" fill="#5C3A2E"/>
<path d="M20.144 16.8263C20.1082 16.8876 20.0469 16.9592 20.0366 17.0104C19.965 17.3632 19.9599 17.6803 20.1082 17.8951C20.1747 17.9974 20.2156 18.115 20.2565 18.2326C20.323 18.4372 20.4355 18.6162 20.5787 18.7645C21.2128 19.4088 21.8368 20.0532 22.5578 20.6106C23.371 21.2345 24.1278 21.884 24.8182 22.6C25.1097 22.8966 25.4421 23.1523 25.7029 23.4745C25.9484 23.7813 26.3269 23.9552 26.5058 24.3285C26.5672 24.4512 26.6439 24.5637 26.7309 24.6609C26.8638 24.8092 26.9456 25.0189 27.1246 25.1161C27.1502 25.1314 27.1809 25.1467 27.1962 25.1774C27.3087 25.3666 27.4161 25.561 27.677 25.5917C27.7895 25.6019 27.8815 25.6428 28.1321 25.4485C28.2957 25.3257 28.3827 25.2183 28.398 25.1109C28.4134 24.9933 28.4185 24.8808 28.3878 24.8092C28.2855 24.5484 28.0452 24.4461 27.8764 24.262C27.7281 24.0984 27.5951 23.9143 27.411 23.7813C27.3343 23.7302 27.2832 23.6432 27.2423 23.5512C27.1656 23.3824 27.0837 23.2239 26.9508 23.1114C26.9354 23.096 26.9047 23.0909 26.9047 23.0602C26.8894 22.7738 26.6593 22.7074 26.5468 22.5181C26.4598 22.3749 26.4036 22.2011 26.2348 22.1346C26.2195 22.1295 26.2143 22.109 26.2143 22.0886C26.2195 21.9249 26.0967 21.8789 26.0354 21.7817C25.8973 21.5669 25.6671 21.434 25.5035 21.2448C25.2938 21.0095 25.1302 20.7334 24.854 20.5544C24.7773 20.5032 24.7211 20.4316 24.6597 20.3703C24.5421 20.2629 24.4807 20.1043 24.3528 20.0072C23.913 19.6543 23.5602 19.2196 23.0385 18.9281C22.8544 18.8258 22.7777 18.6315 22.6601 18.473C22.5067 18.2531 22.3175 18.0638 22.1078 17.8848C21.6936 17.5371 21.3816 17.1075 20.9827 16.7444L20.7577 16.499C20.7577 16.499 20.727 16.458 20.681 16.4734C20.5889 16.4938 20.5173 16.4734 20.369 16.5757C20.2412 16.6626 20.19 16.7495 20.1491 16.816L20.144 16.8263Z" fill="#5C3A2E"/>
<path d="M27.3958 3.38154C27.3446 3.44291 27.2679 3.50939 27.2424 3.57587C27.0838 4.04125 27.0071 4.49128 27.1094 4.90551C27.1554 5.09985 27.1657 5.29929 27.181 5.49874C27.2015 5.84138 27.2731 6.17379 27.3804 6.49086C27.8714 7.87675 28.3521 9.26265 28.9607 10.6076C29.6459 12.1214 30.275 13.6402 30.8426 15.1847C31.083 15.829 31.3796 16.4529 31.5893 17.1075C31.7836 17.7314 32.1723 18.2684 32.2899 18.9281C32.3308 19.1429 32.3973 19.3526 32.4791 19.5571C32.5967 19.8691 32.653 20.2066 32.8473 20.4879C32.878 20.5288 32.9036 20.5748 32.9189 20.626C33.011 20.9686 33.1132 21.3164 33.4099 21.5567C33.5377 21.659 33.64 21.7868 33.9622 21.7306C34.1718 21.6948 34.2895 21.6232 34.3202 21.4902C34.3559 21.3419 34.3764 21.2039 34.3508 21.0811C34.269 20.6618 34.0082 20.3396 33.8497 19.956C33.7065 19.6185 33.594 19.2656 33.415 18.9435C33.3383 18.8105 33.3025 18.652 33.2718 18.4985C33.2155 18.2122 33.1644 17.9258 33.0416 17.665C33.0263 17.6292 32.9956 17.6036 33.0007 17.5627C33.0416 17.1689 32.8064 16.8774 32.7297 16.5297C32.6683 16.2586 32.6428 15.9773 32.474 15.7472C32.4587 15.7268 32.4587 15.7012 32.4638 15.6705C32.5098 15.4506 32.3871 15.2869 32.341 15.1028C32.2388 14.6937 32.0342 14.3153 31.9012 13.9113C31.7325 13.4101 31.6302 12.8834 31.3745 12.4078C31.3029 12.2748 31.2671 12.1265 31.2108 11.9884C31.1137 11.7378 31.0881 11.4668 30.9756 11.2213C30.5972 10.357 30.3415 9.45698 29.8659 8.61828C29.7022 8.32167 29.6715 7.98414 29.5897 7.66708C29.4823 7.23239 29.334 6.80792 29.1601 6.38857C28.8175 5.56522 28.5976 4.70607 28.2703 3.8776L28.0913 3.35597C28.0811 3.32017 28.0708 3.27926 28.0197 3.2588C27.9174 3.22301 27.856 3.1463 27.6771 3.18721C27.5288 3.21789 27.452 3.31506 27.3958 3.38665V3.38154Z" fill="#5C3A2E"/>
<path d="M40.3749 5.42202C40.3033 5.44248 40.2113 5.45782 40.1652 5.49362C39.8482 5.7442 39.6078 6.0357 39.5567 6.35277C39.5311 6.50108 39.4748 6.64427 39.4186 6.78746C39.3265 7.03293 39.2805 7.28352 39.2754 7.53411C39.2856 8.63873 39.3163 9.71779 39.4748 10.7917C39.6538 12.0037 39.7714 13.1953 39.7817 14.392C39.7868 14.8932 39.8482 15.3892 39.8072 15.8904C39.7663 16.3609 39.9146 16.8314 39.7663 17.3019C39.7203 17.4553 39.6947 17.6138 39.6845 17.7723C39.6743 18.0127 39.572 18.2531 39.6283 18.4934C39.6385 18.5292 39.6436 18.565 39.6334 18.6059C39.572 18.8565 39.5004 19.1122 39.6538 19.3628C39.7203 19.4702 39.751 19.5827 40.0681 19.6594C40.2675 19.7106 40.4107 19.7003 40.4976 19.6287C40.5948 19.5469 40.6766 19.46 40.7124 19.373C40.8352 19.0662 40.7482 18.7645 40.7687 18.4576C40.784 18.1866 40.83 17.9104 40.7943 17.6394C40.7789 17.5269 40.8045 17.4093 40.8403 17.2967C40.9068 17.0871 40.963 16.8774 40.9477 16.6626C40.9477 16.637 40.9323 16.6064 40.9477 16.5808C41.1369 16.32 41.0244 16.0592 41.0755 15.7983C41.1164 15.5989 41.1983 15.3943 41.1164 15.1949C41.1113 15.1795 41.1164 15.1591 41.1318 15.1386C41.2494 15.0006 41.1931 14.8574 41.2136 14.7142C41.2647 14.4022 41.188 14.0954 41.1983 13.7834C41.2085 13.3948 41.275 13.0112 41.1931 12.6174C41.1676 12.51 41.1778 12.3975 41.1727 12.2901C41.1625 12.0958 41.2187 11.9015 41.1931 11.7071C41.1062 11.027 41.142 10.3468 40.9528 9.65642C40.8863 9.41606 40.963 9.18082 40.9886 8.94046C41.0142 8.61827 41.0193 8.29609 40.9886 7.9688C40.9272 7.32443 41.0039 6.69541 40.9988 6.05616L41.0244 5.66238C41.0244 5.63681 41.0346 5.60612 40.9937 5.57544C40.9119 5.51919 40.8812 5.44248 40.7073 5.40156C40.559 5.36577 40.4567 5.40156 40.3749 5.42202Z" fill="#5C3A2E"/>
<path d="M60.422 3.00821C60.335 2.99799 60.2379 2.9673 60.1663 2.98264C59.6395 3.11049 59.1588 3.30483 58.806 3.64746C58.6423 3.80088 58.4531 3.93385 58.2639 4.06681C57.9417 4.29183 57.6553 4.55776 57.4047 4.84925C56.3154 6.13287 55.2466 7.42672 54.2954 8.8075C53.2266 10.3673 52.1373 11.8912 51.0122 13.3896C50.5468 14.0187 50.1224 14.6784 49.6365 15.2972C49.1661 15.8699 48.8797 16.5706 48.3427 17.1024C48.1688 17.2814 48.0154 17.4757 47.8722 17.6803C47.6523 17.9871 47.3762 18.2633 47.2278 18.6213C47.2074 18.6775 47.1818 18.7287 47.1409 18.7747C46.8801 19.0815 46.6244 19.4037 46.5681 19.8282C46.5426 20.0123 46.4863 20.1862 46.7062 20.4367C46.8494 20.5953 46.9773 20.6515 47.1102 20.5953C47.2585 20.5288 47.3966 20.4521 47.4887 20.3498C47.816 19.9969 47.9694 19.552 48.2302 19.1582C48.4552 18.8054 48.716 18.473 48.9155 18.1048C48.9973 17.9513 49.1149 17.8133 49.2428 17.6854C49.478 17.4502 49.7081 17.2149 49.8769 16.9388C49.8974 16.903 49.9127 16.8569 49.9485 16.8365C50.3269 16.6115 50.4752 16.2177 50.7514 15.9211C50.9662 15.691 51.2117 15.4864 51.3344 15.1898C51.3446 15.1642 51.3702 15.1438 51.4009 15.1335C51.6259 15.0312 51.7128 14.8165 51.8611 14.6579C52.1833 14.2999 52.4288 13.8806 52.7305 13.5022C53.1038 13.0317 53.5385 12.6021 53.8505 12.0753C53.9374 11.927 54.055 11.8043 54.1573 11.6662C54.3414 11.4259 54.5767 11.2264 54.7506 10.9707C55.3591 10.0911 56.07 9.29844 56.6172 8.36258C56.8115 8.03528 57.1132 7.80004 57.374 7.529C57.7269 7.1659 58.0644 6.77724 58.3713 6.36812C58.9849 5.56522 59.7009 4.85948 60.3504 4.08727L60.7749 3.62701C60.8055 3.59632 60.8413 3.56052 60.8362 3.50427C60.8209 3.39688 60.872 3.28948 60.7493 3.1514C60.647 3.03378 60.5243 3.02355 60.4271 3.01333L60.422 3.00821Z" fill="#5C3A2E"/>
<path d="M60.5702 17.1996C60.5241 17.1484 60.4679 17.0768 60.427 17.0513C60.1457 16.8927 59.89 16.8109 59.7059 16.8927C59.619 16.9285 59.5218 16.9388 59.4246 16.949C59.2559 16.9643 59.1024 17.0206 58.9746 17.1178C58.4172 17.5473 57.8649 17.9718 57.3944 18.5036C56.8676 19.102 56.3255 19.639 55.7323 20.1094C55.4868 20.3089 55.2772 20.5493 55.0061 20.718C54.7504 20.8765 54.6175 21.1732 54.2953 21.2601C54.1879 21.2908 54.0958 21.3368 54.014 21.3931C53.8913 21.4851 53.7123 21.5158 53.6356 21.659C53.6254 21.6794 53.61 21.6999 53.5844 21.7101C53.4208 21.7715 53.2571 21.838 53.2469 22.0579C53.2469 22.1499 53.2162 22.2266 53.4003 22.4823C53.5231 22.646 53.6253 22.7432 53.7174 22.7738C53.8248 22.8096 53.922 22.8301 53.9833 22.8199C54.2032 22.779 54.2748 22.5897 54.4282 22.4772C54.5612 22.3801 54.7146 22.2982 54.8169 22.1653C54.8578 22.109 54.9294 22.0835 55.0061 22.063C55.1442 22.0272 55.2823 21.9863 55.3692 21.8942C55.3795 21.884 55.3846 21.8584 55.4101 21.8635C55.6556 21.9096 55.7016 21.7204 55.8551 21.659C55.9727 21.613 56.121 21.6027 56.167 21.4647C56.167 21.4544 56.1875 21.4544 56.2028 21.4595C56.3409 21.5005 56.3716 21.4033 56.4534 21.3675C56.6324 21.2908 56.7347 21.122 56.8881 21.0146C57.0824 20.8817 57.3074 20.7998 57.4455 20.5902C57.4864 20.5339 57.5427 20.5032 57.5938 20.4572C57.6808 20.3805 57.8086 20.36 57.8904 20.268C58.1768 19.956 58.5297 19.7412 58.7752 19.3372C58.8621 19.194 59.0206 19.1736 59.1485 19.1071C59.3275 19.0202 59.486 18.8974 59.6343 18.7491C59.9258 18.4576 60.2787 18.2786 60.5906 18.0025L60.7952 17.8542C60.7952 17.8542 60.8259 17.8337 60.8208 17.7877C60.8054 17.6956 60.8259 17.6394 60.7543 17.4706C60.6929 17.3274 60.6264 17.2609 60.5702 17.1996Z" fill="#5C3A2E"/>
<path d="M75.544 21.9249C75.4724 21.884 75.3957 21.8175 75.3292 21.8022C74.8383 21.7152 74.3831 21.7101 73.974 21.8584C73.7848 21.93 73.5854 21.9658 73.391 22.0067C73.0484 22.0732 72.7211 22.1755 72.4143 22.3238C71.0744 22.9682 69.7089 23.5665 68.3793 24.2671C66.8809 25.0547 65.3518 25.7553 63.7767 26.3588C63.1221 26.6093 62.4829 26.9162 61.8129 27.1259C61.1788 27.3253 60.6111 27.6935 59.9412 27.8009C59.7213 27.8367 59.5014 27.893 59.2917 27.9646C58.9746 28.0771 58.6218 28.1129 58.3252 28.2867C58.2791 28.3123 58.2331 28.3379 58.182 28.3481C57.8291 28.4248 57.4711 28.4913 57.2001 28.7674C57.0825 28.8851 56.9495 28.9771 56.9648 29.3095C56.9751 29.5192 57.0364 29.6471 57.1694 29.688C57.3126 29.734 57.4558 29.7647 57.5836 29.7545C58.0234 29.7084 58.3865 29.463 58.7905 29.3249C59.1485 29.2021 59.5218 29.0999 59.8645 28.9311C60.0077 28.8595 60.1713 28.8237 60.335 28.8032C60.6367 28.7572 60.9282 28.701 61.2043 28.5833C61.2401 28.568 61.2708 28.5373 61.3117 28.5424C61.7209 28.5936 62.0277 28.3532 62.3857 28.2714C62.6618 28.21 62.9585 28.1845 63.1988 28.0106C63.2193 27.9952 63.25 27.9952 63.2755 28.0003C63.5005 28.0413 63.6693 27.9134 63.8636 27.8674C64.2932 27.76 64.6768 27.535 65.091 27.3918C65.6075 27.2128 66.1445 27.0747 66.6354 26.8037C66.7735 26.727 66.9218 26.6809 67.065 26.6196C67.3207 26.5122 67.5969 26.4661 67.8474 26.3434C68.7219 25.9138 69.6373 25.5814 70.4658 25.0342C70.7573 24.8399 71.1 24.7785 71.4221 24.666C71.8568 24.5126 72.2813 24.3183 72.6955 24.0984C73.5035 23.6586 74.3576 23.3313 75.1605 22.8761L75.6719 22.6204C75.7077 22.6 75.7486 22.5846 75.7588 22.5335C75.7793 22.4312 75.8509 22.3545 75.7844 22.1806C75.7281 22.0374 75.6259 21.9812 75.544 21.93V21.9249Z" fill="#5C3A2E"/>
<mask id="path-13-inside-1_288_6257" fill="white">
<path d="M44.0725 9.03252C44.3947 8.32167 44.6453 7.7131 44.9521 6.92043C45.0953 6.57268 45.2334 6.23004 45.4073 5.91809C45.4891 5.75444 45.5811 5.62147 45.6783 5.45783C45.7806 5.29418 45.8829 5.14076 45.9851 4.99757C46.1948 4.71118 46.3943 4.49128 46.6449 4.32763C46.9006 4.15376 47.2125 4.00545 47.5603 3.85203C48.9922 3.22301 50.4343 2.58887 51.8765 1.94962L52.9607 1.46379C53.1141 1.39731 53.1703 1.38196 53.2879 1.36662C53.3902 1.35128 53.4925 1.35639 53.5897 1.37685C53.784 1.41265 53.9374 1.50982 54.0397 1.63767C54.0857 1.69903 54.0806 1.70415 54.0908 1.74506C54.0908 1.76552 54.0908 1.82688 54.0653 1.96496L53.9323 2.53773C53.8812 2.78832 53.8505 3.10027 53.8709 3.38154C53.9016 3.95942 54.1011 4.50151 54.367 4.95154C54.9091 5.85672 55.6711 6.46529 56.4944 6.92555C57.2462 7.32955 57.9622 7.58525 58.6167 7.87164C59.2662 8.14779 59.839 8.44952 60.2481 8.81773C60.335 8.89444 60.4118 8.98649 60.4169 9.00695C60.4271 9.02229 60.4322 9.03763 60.4271 9.05809C60.4271 9.08366 60.4271 9.06832 60.4066 9.12457C60.376 9.19617 60.3095 9.30356 60.2225 9.43653C60.0589 9.70245 59.7469 10.0655 59.5679 10.6076C59.3583 11.1088 59.3429 11.6867 59.3941 12.2032C59.527 13.0879 59.8901 13.7527 60.2225 14.346C60.5601 14.9341 60.9027 15.4557 61.1789 15.962C61.455 16.4632 61.6493 16.9388 61.7005 17.3377C61.7465 17.7366 61.68 18.069 61.4704 18.4423C61.2453 18.8156 60.872 19.2094 60.4322 19.6185C59.9924 20.0276 59.4912 20.4572 59.0054 20.9942C58.5196 21.5158 58.0337 22.2113 57.7985 23.05C57.553 23.8734 57.5939 24.7632 57.8087 25.5098C58.0286 26.323 58.402 27.0134 58.806 27.6373C59.21 28.2663 59.6651 28.8186 60.1151 29.3505C60.5601 29.867 61.0152 30.3988 61.5726 30.9153C62.125 31.4268 62.7898 31.9228 63.5671 32.2296C65.1115 32.8484 66.5946 32.7717 67.8424 32.8996C68.4714 32.9558 69.0544 33.0428 69.5607 33.2218C70.0568 33.4059 70.5221 33.6616 70.9108 34.0349C71.6984 34.7713 72.2302 35.8606 72.5729 37.0368C72.7467 37.6249 72.8644 38.2488 72.9564 38.8727C73.0536 39.512 73.0945 40.1052 73.161 40.8314C73.299 42.2326 73.6059 43.6288 73.9894 44.9431L74.5213 46.7227L74.5571 46.8404C74.5673 46.8659 74.5776 46.8966 74.5673 46.9222C74.5469 46.9887 74.4753 46.9733 74.4241 46.9784L74.2042 46.9938L73.6468 47.05C73.2786 47.0961 72.9155 47.1523 72.5626 47.2137C71.8569 47.3415 71.1818 47.4745 70.5119 47.587C70.1181 47.6535 69.709 47.7507 69.2948 47.9245C68.8857 48.1086 68.4305 48.3541 68.0777 48.8502C67.8987 49.0854 67.7759 49.3923 67.7197 49.6889C67.6634 49.9906 67.6788 50.2821 67.7299 50.5378C67.8219 51.1003 68.1237 51.5146 68.272 51.7754C68.9931 52.9772 69.7397 54.2097 70.6653 55.3603C71.5859 56.5007 72.7263 57.5747 74.1275 58.2651C74.8384 58.6281 75.539 58.8123 76.1066 59.0628C76.6794 59.3083 77.1294 59.6049 77.3493 59.9936C77.4619 60.1777 77.5232 60.4129 77.5232 60.5817C77.5232 60.7505 77.4823 60.863 77.3391 61.042C77.1959 61.2158 76.9556 61.4102 76.6743 61.6352L75.8612 62.2898C73.6877 64.0388 71.5091 65.7724 69.2846 67.4396C66.4258 69.5875 63.4802 71.6075 60.3811 73.3667C57.2922 75.1413 54.0295 76.6039 50.6338 77.642C49.79 77.9131 48.9206 78.1074 48.0614 78.3324C47.637 78.4296 47.233 78.4961 46.875 78.4654C46.5119 78.4398 46.2255 78.312 45.9238 78.0614C45.6221 77.8159 45.3459 77.4835 45.0135 77.1409C44.676 76.7931 44.2822 76.4811 43.8628 76.2306C43.019 75.7192 42.0729 75.4584 41.1473 75.3203C40.2165 75.1873 39.2858 75.172 38.3755 75.1975C37.4448 75.2231 36.5856 75.3049 35.706 75.2487C34.8264 75.2078 33.9468 75.0953 33.0774 74.9418C32.6427 74.8651 32.208 74.7731 31.7733 74.6759L31.129 74.5174L30.6176 74.3793C30.5204 74.3435 30.3567 74.3486 30.4181 74.2054C30.4181 74.1594 30.4028 74.1082 30.3925 74.0622L30.367 73.9906C30.3516 73.9497 30.3363 73.9037 30.3158 73.8679C30.2442 73.7094 30.1675 73.5611 30.0806 73.4281C29.9118 73.1519 29.7277 72.9013 29.5334 72.6559L29.3851 72.4769C29.3288 72.4104 29.2623 72.3235 29.1805 72.2672L28.8225 71.9859C28.5975 71.8069 28.3776 71.6228 28.214 71.4336C28.0503 71.2393 27.9532 71.0552 27.9071 70.8199C27.8662 70.5847 27.8662 70.3034 27.8867 70.0171L27.9174 69.5824C27.9327 69.4392 27.948 69.2909 27.948 69.1068C27.948 68.759 27.8816 68.4164 27.7742 68.1095C27.5594 67.4907 27.2474 66.9691 27.0071 66.4475C26.7616 65.931 26.5877 65.4144 26.644 64.9184C26.7156 64.2689 26.6235 63.5785 26.3064 62.9751C26.153 62.6682 25.9178 62.4074 25.6979 62.1824C25.4678 61.9523 25.2018 61.7375 24.8796 61.5892C24.5677 61.4306 24.1841 61.3641 23.8364 61.3999C23.4835 61.4306 23.1716 61.5329 22.8801 61.6301C22.3022 61.8449 21.801 62.0341 21.3356 61.9113C20.8754 61.8091 20.4918 61.4306 20.2668 60.9448C20.0264 60.4692 19.9293 59.9067 19.9191 59.3543C19.9191 59.0782 19.9446 58.802 20.0009 58.5361C20.0622 58.2599 20.139 57.9787 20.2259 57.6974L20.5174 56.7922C20.635 56.424 20.7424 56.0609 20.8191 55.7029C20.9777 54.987 20.9981 54.3682 20.9265 53.7238C20.9009 53.5602 20.8805 53.3965 20.8447 53.2278L20.8191 53.0999C20.8191 53.0999 20.8191 53.0743 20.814 53.0692L20.8038 53.0795L20.7782 53.105L20.681 53.2073C20.6146 53.2789 20.5378 53.3096 20.4611 53.3658C20.3793 53.3914 20.2975 53.4119 20.2106 53.417C19.8781 53.821 19.556 54.225 19.2542 54.5318C18.9525 54.8438 18.6661 55.0739 18.3644 55.2836C18.2059 55.391 18.1292 55.4421 18.0064 55.5137C17.8939 55.5853 17.7814 55.6467 17.6638 55.708C17.4336 55.8308 17.1984 55.9433 16.9529 56.0405C16.4671 56.2348 15.9659 56.3831 15.4494 56.47C14.938 56.5621 14.4215 56.5877 13.9561 56.4752C13.4907 56.3678 13.0612 56.0814 12.5958 55.7899C11.6446 55.1557 10.4581 54.8489 9.31772 54.9C8.74495 54.9205 8.17218 55.0279 7.6301 55.2171C7.22609 55.3603 6.88345 55.5444 6.56127 55.7899C6.47945 55.8819 6.52036 55.7387 6.51524 55.6876V55.483C6.52547 55.345 6.52547 55.2069 6.52036 55.0688C6.52036 54.9307 6.50502 54.7926 6.48456 54.6546C6.47433 54.5983 6.45899 54.4909 6.43853 54.3938C6.41808 54.2966 6.39251 54.1943 6.36182 54.0971C6.12658 53.3096 5.50778 52.5834 4.62306 52.3993C4.17814 52.3021 3.69743 52.4453 3.3599 52.6448C3.16557 52.7522 3.07863 52.8135 2.95078 52.8851C2.83316 52.9567 2.70531 53.0232 2.57746 53.0692C2.51098 53.0948 2.4445 53.1101 2.3729 53.1204C2.34222 53.1204 2.3013 53.1306 2.27062 53.1204L2.23482 53.0232L2.08651 52.6345L1.72853 51.6987L1.52909 51.177L1.44215 50.952C1.42169 50.8855 1.37567 50.8242 1.38078 50.7577C1.44215 50.4867 1.57 50.2412 1.82059 49.9804C2.07117 49.7247 2.36267 49.4127 2.56212 49.0803C2.77691 48.7581 2.96101 48.4155 3.11954 48.0626C3.44173 47.3569 3.66163 46.6102 3.76902 45.8431C3.79971 45.6539 3.81505 45.4596 3.83039 45.2653C3.84062 45.0863 3.85596 44.8459 3.85085 44.7283C3.85085 44.4419 3.83039 44.176 3.78948 43.9049L3.77414 43.8129C3.76902 43.7822 3.75879 43.7413 3.79971 43.772C3.99915 43.8538 4.20371 43.9152 4.41339 43.9561L4.72023 44.0021C4.87365 44.0072 5.03218 44.0225 5.1856 44.0225C5.80951 44.0225 6.42319 43.8998 7.00619 43.685C7.58407 43.4702 8.13127 43.1532 8.60176 42.744L8.93928 42.4219L9.24612 42.069L9.47625 41.7417C9.53251 41.6548 9.57342 41.5474 9.63479 41.4707C9.78309 41.4962 9.9314 41.5116 10.1155 41.5065C10.3507 41.4911 10.5809 41.4553 10.8059 41.3888C11.2508 41.261 11.6599 41.036 12.0179 40.7598C12.7288 40.2024 13.2606 39.4353 13.5214 38.5659C13.7771 37.7119 13.8027 36.8169 13.7107 35.9578C13.6186 35.0986 13.414 34.265 13.189 33.4519L13.1583 33.6769C13.3322 33.4059 13.7004 33.3547 14.401 33.3956C14.9943 33.4263 15.5568 33.3189 15.9608 32.9405C16.1603 32.7564 16.2574 32.4496 16.1858 32.1836C16.1142 31.9177 15.9404 31.7234 15.7307 31.5444C15.3369 31.1813 14.7232 30.8642 14.2323 30.629C13.3424 30.1994 12.4219 29.8005 11.9617 29.0539C11.5116 28.3174 11.527 27.31 11.9361 26.5224C12.0793 26.2207 12.2941 25.9548 12.5191 25.6479C12.7441 25.3564 12.9742 25.0649 13.2146 24.7837C13.6902 24.216 14.1965 23.6739 14.7283 23.1523C15.2602 22.6307 15.8125 22.1346 16.3904 21.6641C16.6768 21.4289 16.9734 21.1987 17.27 20.9788C17.6638 20.6822 18.1394 20.3754 18.5332 20.0737C18.3542 19.8333 18.1649 19.5827 17.9911 19.327C17.9246 19.235 17.8683 19.148 17.8121 19.056C17.7558 18.969 17.6893 18.8668 17.6638 18.8156C17.5871 18.6878 17.5206 18.5599 17.4541 18.4269C17.3211 18.1661 17.2035 17.8951 17.1012 17.6189C16.8967 17.0717 16.7433 16.4887 16.6665 15.9262C16.6307 15.6603 16.6359 15.3841 16.6921 15.2102C16.7433 15.0364 16.8711 14.8881 17.0399 14.8216C17.3672 14.6733 18.124 14.704 18.7582 14.5505C20.0571 14.2795 21.2794 13.676 22.2868 12.8169C22.7931 12.3873 23.2432 11.8912 23.6216 11.344C24.0051 10.7917 24.2762 10.2394 24.6188 9.82519C25.0228 9.31379 25.6058 9.00695 26.2707 8.93535C26.8383 8.86887 27.4827 8.89956 28.1321 8.97115L30.0601 9.14503C31.3489 9.23197 32.6274 9.4263 33.9059 9.63086C35.1844 9.83542 36.4629 10.0655 37.7363 10.3059C39.0045 10.536 40.2984 10.8275 41.6587 10.894C41.807 10.8991 41.9502 10.9042 42.0985 10.9042C42.257 10.9042 42.3695 10.9042 42.5894 10.894C42.9883 10.9094 43.3617 10.6895 43.5918 10.3724C43.8475 10.0349 43.9344 9.76894 44.0418 9.48255C44.139 9.20128 44.2106 8.92512 44.272 8.6592C44.5174 7.58525 44.6299 6.61359 44.8192 5.81581C44.9368 5.30952 45.0851 5.07428 44.9623 5.08962C44.8447 5.10496 44.497 5.45783 44.2106 6.19424C43.8833 7.01249 43.6634 7.86652 43.377 8.66431C43.3054 8.86376 43.2287 9.05809 43.1469 9.23708C43.0702 9.40584 42.9577 9.60529 42.8963 9.67688C42.8247 9.76893 42.7275 9.84565 42.615 9.8661C42.5588 9.87122 42.4974 9.8661 42.4411 9.8661L42.1445 9.85076C40.6666 9.76382 39.1528 9.34447 37.5931 9.04786C36.0435 8.73591 34.4786 8.45975 32.9035 8.23985C31.3284 7.99949 29.7277 7.93812 28.1373 7.80004C27.7384 7.76424 27.3446 7.74379 26.9201 7.7489C26.4957 7.7489 26.0456 7.78981 25.5905 7.91255C25.1353 8.03529 24.6904 8.25008 24.3171 8.54157C23.9233 8.8433 23.6369 9.21662 23.3966 9.56949C23.0181 10.1423 22.7471 10.6383 22.384 11.073C22.026 11.5128 21.6067 11.9066 21.1413 12.2441C20.2157 12.914 19.1264 13.3641 18.0013 13.5022C17.7354 13.5431 17.4081 13.5431 17.0143 13.63C16.912 13.6556 16.8149 13.676 16.7023 13.7169C16.5796 13.763 16.4722 13.8141 16.3648 13.8755C16.1551 14.0033 15.9659 14.1772 15.8279 14.3818C15.6898 14.5863 15.5977 14.8318 15.5517 15.067C15.5108 15.2869 15.5006 15.4915 15.5057 15.6858C15.521 16.0847 15.5926 16.412 15.6591 16.7393C15.8074 17.399 16.0273 18.0434 16.3137 18.652C16.3853 18.8054 16.462 18.9537 16.5438 19.102L16.6665 19.3219L16.7637 19.4855C16.8353 19.6083 16.9018 19.7003 16.9836 19.8026C16.9018 19.8793 16.7842 19.9509 16.6819 20.0276L16.3648 20.268L15.9813 20.5748C15.0505 21.3317 14.1453 22.1653 13.3066 23.0602C12.8873 23.5103 12.4782 23.9705 12.0946 24.4512C11.9003 24.6916 11.7111 24.932 11.527 25.1774C11.3531 25.4025 11.123 25.7246 10.9747 26.0366C10.4428 27.1054 10.361 28.4606 11.0411 29.6062C11.3838 30.1687 11.885 30.5778 12.3606 30.8744C12.8413 31.1762 13.3169 31.391 13.7516 31.6057L13.8948 31.6773L13.9459 31.7029L14.0379 31.754C14.0993 31.7898 14.1556 31.8256 14.2067 31.8666C14.2579 31.9075 14.3141 31.9535 14.3346 32.0149C14.355 32.0813 14.3346 32.1529 14.2732 32.1939C14.1607 32.2757 14.0175 32.2808 13.8845 32.2654H13.7874H13.7567L13.6391 32.2757C13.5572 32.2808 13.4601 32.2961 13.368 32.3166C13.1788 32.3524 12.9691 32.424 12.7543 32.5467C12.5447 32.6695 12.3401 32.8638 12.2071 33.0837L12.0179 33.3956L12.1151 33.7485C12.2174 34.1218 12.3145 34.4952 12.3964 34.8685C12.514 35.3952 12.6163 35.9424 12.6214 36.4282C12.6316 36.9601 12.5856 37.4715 12.4577 37.9471C12.3299 38.4278 12.1407 38.8216 11.844 39.1949C11.5577 39.5631 11.1946 39.8597 10.811 40.0439C10.3405 40.2126 10.3661 40.3302 8.95974 40.1001L8.56085 40.8058L8.45857 40.9848C8.43811 41.0309 8.35629 41.128 8.35117 41.1383L8.25401 41.2763L8.02899 41.5371L7.7784 41.7775C7.42554 42.0792 7.0113 42.3247 6.56638 42.4883C6.12147 42.6571 5.65098 42.744 5.1856 42.7492C5.06798 42.7492 4.95547 42.7389 4.83785 42.7338C4.50033 42.6776 4.26508 42.5906 3.97358 42.5241C3.6872 42.4372 3.38036 42.3145 3.08375 42.2122L2.24505 41.9054C2.32687 42.5446 2.46495 43.2912 2.54166 43.9765C2.57235 44.1555 2.57235 44.3089 2.57746 44.4675L2.58769 44.7027V44.8203V44.8766C2.58257 45.03 2.57235 45.1885 2.557 45.342C2.45984 46.2471 2.18368 47.1421 1.73876 47.9348C1.62625 48.1291 1.4984 48.3337 1.38078 48.5024C1.26827 48.6609 1.15065 48.7888 0.961433 48.978C0.869381 49.0752 0.751759 49.1928 0.629023 49.3462C0.511401 49.4997 0.388664 49.6684 0.28127 49.9139C0.17899 50.144 0.107394 50.3793 0.0460261 50.6196L0 50.7986L0.0562541 50.9776C0.0920521 51.0952 0.12785 51.2128 0.173876 51.3305L0.802899 53.013L1.07394 53.7238C1.11485 53.8568 1.18134 53.9182 1.23759 54.0102L1.41658 54.2659L1.59557 54.5216L1.6416 54.583C1.6416 54.583 1.69785 54.583 1.72342 54.583L1.89218 54.5676C2.11208 54.5472 2.32176 54.5369 2.53655 54.496C2.97124 54.4142 3.41616 54.1636 3.84573 53.8977C4.07075 53.7596 4.18837 53.7136 4.25485 53.6931C4.34179 53.6676 4.55147 53.6982 4.77137 53.9028C4.84296 53.9693 4.91456 54.0562 4.9657 54.1483C5.01684 54.2352 5.04752 54.3324 5.08332 54.4551C5.09866 54.5165 5.11401 54.5779 5.12423 54.6443L5.13958 54.7415V54.7926L5.16003 54.9205C5.20094 55.2682 5.1856 55.6723 5.16003 56.0814C5.11401 56.8996 5.06798 57.723 5.02707 58.5514C5.97316 57.902 7.24655 56.8331 8.09547 56.5467C8.50459 56.4087 8.93928 56.3269 9.37909 56.3115C9.81889 56.2962 10.2536 56.3422 10.6729 56.4598C10.8775 56.5161 11.0769 56.5928 11.2713 56.6797C11.4605 56.7769 11.6344 56.8638 11.8543 57.0121C12.1253 57.186 12.4424 57.4008 12.8464 57.6002C13.2453 57.8048 13.7669 57.948 14.2169 57.9787C15.1477 58.0452 15.8943 57.8917 16.6563 57.6821C17.4132 57.4673 18.1394 57.1451 18.8093 56.7309C18.886 56.6848 18.9934 56.6183 19.0446 56.5826C19.0548 56.5774 19.0548 56.5774 19.0548 56.5774V56.5672C19.0599 56.5519 19.0701 56.5467 19.0701 56.557C19.0701 56.557 19.0701 56.5672 19.0701 56.5774L19.0036 56.7973L18.7837 57.498C18.7121 57.7485 18.6457 57.9787 18.5894 58.2651C18.528 58.5617 18.4922 58.8583 18.4871 59.1498C18.4718 59.7328 18.5383 60.3158 18.7121 60.8885C18.886 61.4613 19.1673 62.0494 19.6838 62.5608C19.9293 62.8165 20.2668 63.0313 20.6248 63.1796C20.993 63.3228 21.3817 63.3842 21.7499 63.3739C22.3329 63.3535 22.788 63.1796 23.1409 63.0569C23.4937 62.929 23.7597 62.837 23.9233 62.8268C24.087 62.8165 24.1586 62.837 24.3171 62.9188C24.4654 62.9955 24.6546 63.1898 24.8387 63.3842C25.0893 63.6808 25.2223 64.1257 25.1865 64.6269C25.1865 64.678 25.1405 65.0616 25.166 65.307C25.1814 65.5781 25.2274 65.8338 25.2939 66.069C25.4217 66.5395 25.6007 66.9333 25.7695 67.2811C26.1121 67.9663 26.4087 68.5493 26.4445 68.938C26.4445 68.984 26.4599 69.0352 26.4548 69.0761C26.4496 69.1323 26.4599 69.1272 26.4445 69.2448L26.3934 69.8176C26.3729 70.2114 26.3269 70.6512 26.465 71.2495C26.5366 71.541 26.6695 71.8581 26.8383 72.0984C27.0071 72.349 27.1861 72.5382 27.3497 72.6968C27.5185 72.8553 27.677 72.9883 27.8304 73.1161L28.2037 73.4076L28.4236 73.6787C28.5208 73.8065 28.6129 73.9293 28.6896 74.052C28.7714 74.1747 28.8379 74.2924 28.889 74.3946L28.9197 74.4611V74.4816C28.9197 74.5123 29.0015 74.5378 29.0629 74.5532L29.1549 74.5839C29.1549 74.5839 29.1754 74.6197 29.1856 74.635L29.2368 74.7424L29.3339 74.9367L29.6919 75.6578L30.4488 75.8828L30.8579 75.9902L31.6659 76.1845C32.208 76.3073 32.7552 76.4044 33.3024 76.4965C34.407 76.6653 35.527 76.7727 36.6725 76.7522L38.396 76.6806C38.9432 76.6653 39.4852 76.6653 40.012 76.701C41.0604 76.7675 42.0627 76.9721 42.8809 77.4017C43.2492 77.5909 43.556 77.8415 43.8526 78.1227C44.1594 78.4245 44.4919 78.8643 45.0237 79.2939C45.2896 79.5086 45.6272 79.7081 46.0056 79.8359C46.3789 79.9638 46.7574 80.0047 47.1 79.9996C47.7853 79.9894 48.3427 79.8513 48.8388 79.7285C50.8844 79.2683 52.8737 78.6086 54.817 77.8517C61.588 75.0953 67.5611 70.9069 73.2019 66.5242C74.6133 65.4247 76.0095 64.3098 77.3954 63.1898C77.738 62.8983 78.0807 62.6733 78.5051 62.2335C78.7046 62.0136 78.9142 61.7426 79.0472 61.3999C79.1802 61.0624 79.2262 60.6789 79.1955 60.3465C79.1393 59.6868 78.8529 59.0986 78.4591 58.6435C78.05 58.173 77.5744 57.8866 77.1141 57.6514C76.1731 57.2065 75.3447 57.0224 74.6747 56.6439C73.9792 56.2706 73.34 55.7694 72.7519 55.1864C71.5807 54.0102 70.65 52.5374 69.7295 51.0338L69.4635 50.5992C69.3971 50.4815 69.3459 50.3741 69.3255 50.2872C69.2692 50.0673 69.2948 49.9292 69.3562 49.8014C69.4942 49.5303 70.1028 49.2542 70.7011 49.1672L72.803 48.799C73.1456 48.7428 73.4832 48.6916 73.8207 48.6507L74.327 48.6047L74.6492 48.5842L75.0787 48.5689C75.5083 48.5178 75.8612 48.4666 76.1322 48.1496C76.2601 48.0012 76.3419 47.8069 76.3675 47.6279C76.3777 47.4489 76.3265 47.2393 76.3112 47.0449C76.301 46.8455 76.2294 46.6511 76.1731 46.4568L76.0299 45.9608L75.7998 45.1732C75.493 44.1299 75.2219 43.102 75.0429 42.0639C74.8946 41.2456 74.8333 40.4683 74.7617 39.5887C74.6849 38.7142 74.552 37.8397 74.3372 36.9652C74.1224 36.0958 73.8207 35.2316 73.3707 34.4133C72.9257 33.6002 72.312 32.828 71.5092 32.2706C71.3097 32.1325 71.1103 31.9944 70.8852 31.887C70.6705 31.7694 70.4506 31.6671 70.2204 31.5853C69.7653 31.4216 69.305 31.3091 68.855 31.2426C67.9498 31.1046 67.0855 31.0892 66.2673 31.0176C65.4491 30.9511 64.682 30.8233 64.0171 30.5165C63.3574 30.2147 62.7693 29.6982 62.2119 29.1101C61.1226 27.9032 59.9873 26.6503 59.5015 25.2388C59.2713 24.5433 59.2355 23.8222 59.5168 23.1881C59.7725 22.5437 60.3197 21.9761 60.9129 21.4186C61.5062 20.851 62.1812 20.2987 62.7182 19.5162C63.2807 18.7594 63.5057 17.6343 63.2449 16.7035C62.9994 15.7779 62.5238 15.0159 62.084 14.3051C61.6493 13.5993 61.184 12.9089 60.9999 12.2185C60.8874 11.8759 60.9078 11.5486 60.9641 11.2315C61.0254 11.0781 61.0561 10.9247 61.1482 10.7713C61.2351 10.6127 61.3476 10.4491 61.4704 10.265C61.588 10.0809 61.7158 9.87633 61.813 9.62574C61.9153 9.3547 61.9664 9.04275 61.9102 8.75125C61.8641 8.46486 61.7056 8.17336 61.5317 7.9688C61.363 7.76424 61.1737 7.60571 60.9948 7.46763C59.5117 6.35278 57.732 6.12776 56.5251 5.19701C55.9165 4.74187 55.4154 4.12819 55.2824 3.45825C55.2159 3.1105 55.2517 2.82411 55.3591 2.38942C55.4051 2.17975 55.4563 1.92916 55.4409 1.64789C55.4256 1.36151 55.3233 1.08024 55.1597 0.850108C54.5204 -0.0448433 53.2573 -0.213606 52.393 0.251768L50.1377 1.35128L48.2609 2.25646C47.637 2.56841 47.0182 2.82923 46.3687 3.20255C46.0516 3.39177 45.7346 3.64236 45.4891 3.93897C45.2385 4.23047 45.0493 4.54753 44.8703 4.84926C44.4919 5.46806 44.2362 6.15845 44.0214 6.82327C43.8424 7.37047 43.6583 8.0046 43.5662 8.43418C43.4793 8.84841 43.3259 9.37516 43.1315 9.75871C43.0344 9.95304 42.9219 10.1013 42.8298 10.2087C42.7275 10.3059 42.6508 10.3775 42.6559 10.4286C42.6406 10.5054 42.9935 10.4798 43.3105 10.1627C43.6276 9.86099 43.868 9.3905 44.0469 8.99161L44.0725 9.03252Z"/>
</mask>
<path d="M44.0725 9.03252C44.3947 8.32167 44.6453 7.7131 44.9521 6.92043C45.0953 6.57268 45.2334 6.23004 45.4073 5.91809C45.4891 5.75444 45.5811 5.62147 45.6783 5.45783C45.7806 5.29418 45.8829 5.14076 45.9851 4.99757C46.1948 4.71118 46.3943 4.49128 46.6449 4.32763C46.9006 4.15376 47.2125 4.00545 47.5603 3.85203C48.9922 3.22301 50.4343 2.58887 51.8765 1.94962L52.9607 1.46379C53.1141 1.39731 53.1703 1.38196 53.2879 1.36662C53.3902 1.35128 53.4925 1.35639 53.5897 1.37685C53.784 1.41265 53.9374 1.50982 54.0397 1.63767C54.0857 1.69903 54.0806 1.70415 54.0908 1.74506C54.0908 1.76552 54.0908 1.82688 54.0653 1.96496L53.9323 2.53773C53.8812 2.78832 53.8505 3.10027 53.8709 3.38154C53.9016 3.95942 54.1011 4.50151 54.367 4.95154C54.9091 5.85672 55.6711 6.46529 56.4944 6.92555C57.2462 7.32955 57.9622 7.58525 58.6167 7.87164C59.2662 8.14779 59.839 8.44952 60.2481 8.81773C60.335 8.89444 60.4118 8.98649 60.4169 9.00695C60.4271 9.02229 60.4322 9.03763 60.4271 9.05809C60.4271 9.08366 60.4271 9.06832 60.4066 9.12457C60.376 9.19617 60.3095 9.30356 60.2225 9.43653C60.0589 9.70245 59.7469 10.0655 59.5679 10.6076C59.3583 11.1088 59.3429 11.6867 59.3941 12.2032C59.527 13.0879 59.8901 13.7527 60.2225 14.346C60.5601 14.9341 60.9027 15.4557 61.1789 15.962C61.455 16.4632 61.6493 16.9388 61.7005 17.3377C61.7465 17.7366 61.68 18.069 61.4704 18.4423C61.2453 18.8156 60.872 19.2094 60.4322 19.6185C59.9924 20.0276 59.4912 20.4572 59.0054 20.9942C58.5196 21.5158 58.0337 22.2113 57.7985 23.05C57.553 23.8734 57.5939 24.7632 57.8087 25.5098C58.0286 26.323 58.402 27.0134 58.806 27.6373C59.21 28.2663 59.6651 28.8186 60.1151 29.3505C60.5601 29.867 61.0152 30.3988 61.5726 30.9153C62.125 31.4268 62.7898 31.9228 63.5671 32.2296C65.1115 32.8484 66.5946 32.7717 67.8424 32.8996C68.4714 32.9558 69.0544 33.0428 69.5607 33.2218C70.0568 33.4059 70.5221 33.6616 70.9108 34.0349C71.6984 34.7713 72.2302 35.8606 72.5729 37.0368C72.7467 37.6249 72.8644 38.2488 72.9564 38.8727C73.0536 39.512 73.0945 40.1052 73.161 40.8314C73.299 42.2326 73.6059 43.6288 73.9894 44.9431L74.5213 46.7227L74.5571 46.8404C74.5673 46.8659 74.5776 46.8966 74.5673 46.9222C74.5469 46.9887 74.4753 46.9733 74.4241 46.9784L74.2042 46.9938L73.6468 47.05C73.2786 47.0961 72.9155 47.1523 72.5626 47.2137C71.8569 47.3415 71.1818 47.4745 70.5119 47.587C70.1181 47.6535 69.709 47.7507 69.2948 47.9245C68.8857 48.1086 68.4305 48.3541 68.0777 48.8502C67.8987 49.0854 67.7759 49.3923 67.7197 49.6889C67.6634 49.9906 67.6788 50.2821 67.7299 50.5378C67.8219 51.1003 68.1237 51.5146 68.272 51.7754C68.9931 52.9772 69.7397 54.2097 70.6653 55.3603C71.5859 56.5007 72.7263 57.5747 74.1275 58.2651C74.8384 58.6281 75.539 58.8123 76.1066 59.0628C76.6794 59.3083 77.1294 59.6049 77.3493 59.9936C77.4619 60.1777 77.5232 60.4129 77.5232 60.5817C77.5232 60.7505 77.4823 60.863 77.3391 61.042C77.1959 61.2158 76.9556 61.4102 76.6743 61.6352L75.8612 62.2898C73.6877 64.0388 71.5091 65.7724 69.2846 67.4396C66.4258 69.5875 63.4802 71.6075 60.3811 73.3667C57.2922 75.1413 54.0295 76.6039 50.6338 77.642C49.79 77.9131 48.9206 78.1074 48.0614 78.3324C47.637 78.4296 47.233 78.4961 46.875 78.4654C46.5119 78.4398 46.2255 78.312 45.9238 78.0614C45.6221 77.8159 45.3459 77.4835 45.0135 77.1409C44.676 76.7931 44.2822 76.4811 43.8628 76.2306C43.019 75.7192 42.0729 75.4584 41.1473 75.3203C40.2165 75.1873 39.2858 75.172 38.3755 75.1975C37.4448 75.2231 36.5856 75.3049 35.706 75.2487C34.8264 75.2078 33.9468 75.0953 33.0774 74.9418C32.6427 74.8651 32.208 74.7731 31.7733 74.6759L31.129 74.5174L30.6176 74.3793C30.5204 74.3435 30.3567 74.3486 30.4181 74.2054C30.4181 74.1594 30.4028 74.1082 30.3925 74.0622L30.367 73.9906C30.3516 73.9497 30.3363 73.9037 30.3158 73.8679C30.2442 73.7094 30.1675 73.5611 30.0806 73.4281C29.9118 73.1519 29.7277 72.9013 29.5334 72.6559L29.3851 72.4769C29.3288 72.4104 29.2623 72.3235 29.1805 72.2672L28.8225 71.9859C28.5975 71.8069 28.3776 71.6228 28.214 71.4336C28.0503 71.2393 27.9532 71.0552 27.9071 70.8199C27.8662 70.5847 27.8662 70.3034 27.8867 70.0171L27.9174 69.5824C27.9327 69.4392 27.948 69.2909 27.948 69.1068C27.948 68.759 27.8816 68.4164 27.7742 68.1095C27.5594 67.4907 27.2474 66.9691 27.0071 66.4475C26.7616 65.931 26.5877 65.4144 26.644 64.9184C26.7156 64.2689 26.6235 63.5785 26.3064 62.9751C26.153 62.6682 25.9178 62.4074 25.6979 62.1824C25.4678 61.9523 25.2018 61.7375 24.8796 61.5892C24.5677 61.4306 24.1841 61.3641 23.8364 61.3999C23.4835 61.4306 23.1716 61.5329 22.8801 61.6301C22.3022 61.8449 21.801 62.0341 21.3356 61.9113C20.8754 61.8091 20.4918 61.4306 20.2668 60.9448C20.0264 60.4692 19.9293 59.9067 19.9191 59.3543C19.9191 59.0782 19.9446 58.802 20.0009 58.5361C20.0622 58.2599 20.139 57.9787 20.2259 57.6974L20.5174 56.7922C20.635 56.424 20.7424 56.0609 20.8191 55.7029C20.9777 54.987 20.9981 54.3682 20.9265 53.7238C20.9009 53.5602 20.8805 53.3965 20.8447 53.2278L20.8191 53.0999C20.8191 53.0999 20.8191 53.0743 20.814 53.0692L20.8038 53.0795L20.7782 53.105L20.681 53.2073C20.6146 53.2789 20.5378 53.3096 20.4611 53.3658C20.3793 53.3914 20.2975 53.4119 20.2106 53.417C19.8781 53.821 19.556 54.225 19.2542 54.5318C18.9525 54.8438 18.6661 55.0739 18.3644 55.2836C18.2059 55.391 18.1292 55.4421 18.0064 55.5137C17.8939 55.5853 17.7814 55.6467 17.6638 55.708C17.4336 55.8308 17.1984 55.9433 16.9529 56.0405C16.4671 56.2348 15.9659 56.3831 15.4494 56.47C14.938 56.5621 14.4215 56.5877 13.9561 56.4752C13.4907 56.3678 13.0612 56.0814 12.5958 55.7899C11.6446 55.1557 10.4581 54.8489 9.31772 54.9C8.74495 54.9205 8.17218 55.0279 7.6301 55.2171C7.22609 55.3603 6.88345 55.5444 6.56127 55.7899C6.47945 55.8819 6.52036 55.7387 6.51524 55.6876V55.483C6.52547 55.345 6.52547 55.2069 6.52036 55.0688C6.52036 54.9307 6.50502 54.7926 6.48456 54.6546C6.47433 54.5983 6.45899 54.4909 6.43853 54.3938C6.41808 54.2966 6.39251 54.1943 6.36182 54.0971C6.12658 53.3096 5.50778 52.5834 4.62306 52.3993C4.17814 52.3021 3.69743 52.4453 3.3599 52.6448C3.16557 52.7522 3.07863 52.8135 2.95078 52.8851C2.83316 52.9567 2.70531 53.0232 2.57746 53.0692C2.51098 53.0948 2.4445 53.1101 2.3729 53.1204C2.34222 53.1204 2.3013 53.1306 2.27062 53.1204L2.23482 53.0232L2.08651 52.6345L1.72853 51.6987L1.52909 51.177L1.44215 50.952C1.42169 50.8855 1.37567 50.8242 1.38078 50.7577C1.44215 50.4867 1.57 50.2412 1.82059 49.9804C2.07117 49.7247 2.36267 49.4127 2.56212 49.0803C2.77691 48.7581 2.96101 48.4155 3.11954 48.0626C3.44173 47.3569 3.66163 46.6102 3.76902 45.8431C3.79971 45.6539 3.81505 45.4596 3.83039 45.2653C3.84062 45.0863 3.85596 44.8459 3.85085 44.7283C3.85085 44.4419 3.83039 44.176 3.78948 43.9049L3.77414 43.8129C3.76902 43.7822 3.75879 43.7413 3.79971 43.772C3.99915 43.8538 4.20371 43.9152 4.41339 43.9561L4.72023 44.0021C4.87365 44.0072 5.03218 44.0225 5.1856 44.0225C5.80951 44.0225 6.42319 43.8998 7.00619 43.685C7.58407 43.4702 8.13127 43.1532 8.60176 42.744L8.93928 42.4219L9.24612 42.069L9.47625 41.7417C9.53251 41.6548 9.57342 41.5474 9.63479 41.4707C9.78309 41.4962 9.9314 41.5116 10.1155 41.5065C10.3507 41.4911 10.5809 41.4553 10.8059 41.3888C11.2508 41.261 11.6599 41.036 12.0179 40.7598C12.7288 40.2024 13.2606 39.4353 13.5214 38.5659C13.7771 37.7119 13.8027 36.8169 13.7107 35.9578C13.6186 35.0986 13.414 34.265 13.189 33.4519L13.1583 33.6769C13.3322 33.4059 13.7004 33.3547 14.401 33.3956C14.9943 33.4263 15.5568 33.3189 15.9608 32.9405C16.1603 32.7564 16.2574 32.4496 16.1858 32.1836C16.1142 31.9177 15.9404 31.7234 15.7307 31.5444C15.3369 31.1813 14.7232 30.8642 14.2323 30.629C13.3424 30.1994 12.4219 29.8005 11.9617 29.0539C11.5116 28.3174 11.527 27.31 11.9361 26.5224C12.0793 26.2207 12.2941 25.9548 12.5191 25.6479C12.7441 25.3564 12.9742 25.0649 13.2146 24.7837C13.6902 24.216 14.1965 23.6739 14.7283 23.1523C15.2602 22.6307 15.8125 22.1346 16.3904 21.6641C16.6768 21.4289 16.9734 21.1987 17.27 20.9788C17.6638 20.6822 18.1394 20.3754 18.5332 20.0737C18.3542 19.8333 18.1649 19.5827 17.9911 19.327C17.9246 19.235 17.8683 19.148 17.8121 19.056C17.7558 18.969 17.6893 18.8668 17.6638 18.8156C17.5871 18.6878 17.5206 18.5599 17.4541 18.4269C17.3211 18.1661 17.2035 17.8951 17.1012 17.6189C16.8967 17.0717 16.7433 16.4887 16.6665 15.9262C16.6307 15.6603 16.6359 15.3841 16.6921 15.2102C16.7433 15.0364 16.8711 14.8881 17.0399 14.8216C17.3672 14.6733 18.124 14.704 18.7582 14.5505C20.0571 14.2795 21.2794 13.676 22.2868 12.8169C22.7931 12.3873 23.2432 11.8912 23.6216 11.344C24.0051 10.7917 24.2762 10.2394 24.6188 9.82519C25.0228 9.31379 25.6058 9.00695 26.2707 8.93535C26.8383 8.86887 27.4827 8.89956 28.1321 8.97115L30.0601 9.14503C31.3489 9.23197 32.6274 9.4263 33.9059 9.63086C35.1844 9.83542 36.4629 10.0655 37.7363 10.3059C39.0045 10.536 40.2984 10.8275 41.6587 10.894C41.807 10.8991 41.9502 10.9042 42.0985 10.9042C42.257 10.9042 42.3695 10.9042 42.5894 10.894C42.9883 10.9094 43.3617 10.6895 43.5918 10.3724C43.8475 10.0349 43.9344 9.76894 44.0418 9.48255C44.139 9.20128 44.2106 8.92512 44.272 8.6592C44.5174 7.58525 44.6299 6.61359 44.8192 5.81581C44.9368 5.30952 45.0851 5.07428 44.9623 5.08962C44.8447 5.10496 44.497 5.45783 44.2106 6.19424C43.8833 7.01249 43.6634 7.86652 43.377 8.66431C43.3054 8.86376 43.2287 9.05809 43.1469 9.23708C43.0702 9.40584 42.9577 9.60529 42.8963 9.67688C42.8247 9.76893 42.7275 9.84565 42.615 9.8661C42.5588 9.87122 42.4974 9.8661 42.4411 9.8661L42.1445 9.85076C40.6666 9.76382 39.1528 9.34447 37.5931 9.04786C36.0435 8.73591 34.4786 8.45975 32.9035 8.23985C31.3284 7.99949 29.7277 7.93812 28.1373 7.80004C27.7384 7.76424 27.3446 7.74379 26.9201 7.7489C26.4957 7.7489 26.0456 7.78981 25.5905 7.91255C25.1353 8.03529 24.6904 8.25008 24.3171 8.54157C23.9233 8.8433 23.6369 9.21662 23.3966 9.56949C23.0181 10.1423 22.7471 10.6383 22.384 11.073C22.026 11.5128 21.6067 11.9066 21.1413 12.2441C20.2157 12.914 19.1264 13.3641 18.0013 13.5022C17.7354 13.5431 17.4081 13.5431 17.0143 13.63C16.912 13.6556 16.8149 13.676 16.7023 13.7169C16.5796 13.763 16.4722 13.8141 16.3648 13.8755C16.1551 14.0033 15.9659 14.1772 15.8279 14.3818C15.6898 14.5863 15.5977 14.8318 15.5517 15.067C15.5108 15.2869 15.5006 15.4915 15.5057 15.6858C15.521 16.0847 15.5926 16.412 15.6591 16.7393C15.8074 17.399 16.0273 18.0434 16.3137 18.652C16.3853 18.8054 16.462 18.9537 16.5438 19.102L16.6665 19.3219L16.7637 19.4855C16.8353 19.6083 16.9018 19.7003 16.9836 19.8026C16.9018 19.8793 16.7842 19.9509 16.6819 20.0276L16.3648 20.268L15.9813 20.5748C15.0505 21.3317 14.1453 22.1653 13.3066 23.0602C12.8873 23.5103 12.4782 23.9705 12.0946 24.4512C11.9003 24.6916 11.7111 24.932 11.527 25.1774C11.3531 25.4025 11.123 25.7246 10.9747 26.0366C10.4428 27.1054 10.361 28.4606 11.0411 29.6062C11.3838 30.1687 11.885 30.5778 12.3606 30.8744C12.8413 31.1762 13.3169 31.391 13.7516 31.6057L13.8948 31.6773L13.9459 31.7029L14.0379 31.754C14.0993 31.7898 14.1556 31.8256 14.2067 31.8666C14.2579 31.9075 14.3141 31.9535 14.3346 32.0149C14.355 32.0813 14.3346 32.1529 14.2732 32.1939C14.1607 32.2757 14.0175 32.2808 13.8845 32.2654H13.7874H13.7567L13.6391 32.2757C13.5572 32.2808 13.4601 32.2961 13.368 32.3166C13.1788 32.3524 12.9691 32.424 12.7543 32.5467C12.5447 32.6695 12.3401 32.8638 12.2071 33.0837L12.0179 33.3956L12.1151 33.7485C12.2174 34.1218 12.3145 34.4952 12.3964 34.8685C12.514 35.3952 12.6163 35.9424 12.6214 36.4282C12.6316 36.9601 12.5856 37.4715 12.4577 37.9471C12.3299 38.4278 12.1407 38.8216 11.844 39.1949C11.5577 39.5631 11.1946 39.8597 10.811 40.0439C10.3405 40.2126 10.3661 40.3302 8.95974 40.1001L8.56085 40.8058L8.45857 40.9848C8.43811 41.0309 8.35629 41.128 8.35117 41.1383L8.25401 41.2763L8.02899 41.5371L7.7784 41.7775C7.42554 42.0792 7.0113 42.3247 6.56638 42.4883C6.12147 42.6571 5.65098 42.744 5.1856 42.7492C5.06798 42.7492 4.95547 42.7389 4.83785 42.7338C4.50033 42.6776 4.26508 42.5906 3.97358 42.5241C3.6872 42.4372 3.38036 42.3145 3.08375 42.2122L2.24505 41.9054C2.32687 42.5446 2.46495 43.2912 2.54166 43.9765C2.57235 44.1555 2.57235 44.3089 2.57746 44.4675L2.58769 44.7027V44.8203V44.8766C2.58257 45.03 2.57235 45.1885 2.557 45.342C2.45984 46.2471 2.18368 47.1421 1.73876 47.9348C1.62625 48.1291 1.4984 48.3337 1.38078 48.5024C1.26827 48.6609 1.15065 48.7888 0.961433 48.978C0.869381 49.0752 0.751759 49.1928 0.629023 49.3462C0.511401 49.4997 0.388664 49.6684 0.28127 49.9139C0.17899 50.144 0.107394 50.3793 0.0460261 50.6196L0 50.7986L0.0562541 50.9776C0.0920521 51.0952 0.12785 51.2128 0.173876 51.3305L0.802899 53.013L1.07394 53.7238C1.11485 53.8568 1.18134 53.9182 1.23759 54.0102L1.41658 54.2659L1.59557 54.5216L1.6416 54.583C1.6416 54.583 1.69785 54.583 1.72342 54.583L1.89218 54.5676C2.11208 54.5472 2.32176 54.5369 2.53655 54.496C2.97124 54.4142 3.41616 54.1636 3.84573 53.8977C4.07075 53.7596 4.18837 53.7136 4.25485 53.6931C4.34179 53.6676 4.55147 53.6982 4.77137 53.9028C4.84296 53.9693 4.91456 54.0562 4.9657 54.1483C5.01684 54.2352 5.04752 54.3324 5.08332 54.4551C5.09866 54.5165 5.11401 54.5779 5.12423 54.6443L5.13958 54.7415V54.7926L5.16003 54.9205C5.20094 55.2682 5.1856 55.6723 5.16003 56.0814C5.11401 56.8996 5.06798 57.723 5.02707 58.5514C5.97316 57.902 7.24655 56.8331 8.09547 56.5467C8.50459 56.4087 8.93928 56.3269 9.37909 56.3115C9.81889 56.2962 10.2536 56.3422 10.6729 56.4598C10.8775 56.5161 11.0769 56.5928 11.2713 56.6797C11.4605 56.7769 11.6344 56.8638 11.8543 57.0121C12.1253 57.186 12.4424 57.4008 12.8464 57.6002C13.2453 57.8048 13.7669 57.948 14.2169 57.9787C15.1477 58.0452 15.8943 57.8917 16.6563 57.6821C17.4132 57.4673 18.1394 57.1451 18.8093 56.7309C18.886 56.6848 18.9934 56.6183 19.0446 56.5826C19.0548 56.5774 19.0548 56.5774 19.0548 56.5774V56.5672C19.0599 56.5519 19.0701 56.5467 19.0701 56.557C19.0701 56.557 19.0701 56.5672 19.0701 56.5774L19.0036 56.7973L18.7837 57.498C18.7121 57.7485 18.6457 57.9787 18.5894 58.2651C18.528 58.5617 18.4922 58.8583 18.4871 59.1498C18.4718 59.7328 18.5383 60.3158 18.7121 60.8885C18.886 61.4613 19.1673 62.0494 19.6838 62.5608C19.9293 62.8165 20.2668 63.0313 20.6248 63.1796C20.993 63.3228 21.3817 63.3842 21.7499 63.3739C22.3329 63.3535 22.788 63.1796 23.1409 63.0569C23.4937 62.929 23.7597 62.837 23.9233 62.8268C24.087 62.8165 24.1586 62.837 24.3171 62.9188C24.4654 62.9955 24.6546 63.1898 24.8387 63.3842C25.0893 63.6808 25.2223 64.1257 25.1865 64.6269C25.1865 64.678 25.1405 65.0616 25.166 65.307C25.1814 65.5781 25.2274 65.8338 25.2939 66.069C25.4217 66.5395 25.6007 66.9333 25.7695 67.2811C26.1121 67.9663 26.4087 68.5493 26.4445 68.938C26.4445 68.984 26.4599 69.0352 26.4548 69.0761C26.4496 69.1323 26.4599 69.1272 26.4445 69.2448L26.3934 69.8176C26.3729 70.2114 26.3269 70.6512 26.465 71.2495C26.5366 71.541 26.6695 71.8581 26.8383 72.0984C27.0071 72.349 27.1861 72.5382 27.3497 72.6968C27.5185 72.8553 27.677 72.9883 27.8304 73.1161L28.2037 73.4076L28.4236 73.6787C28.5208 73.8065 28.6129 73.9293 28.6896 74.052C28.7714 74.1747 28.8379 74.2924 28.889 74.3946L28.9197 74.4611V74.4816C28.9197 74.5123 29.0015 74.5378 29.0629 74.5532L29.1549 74.5839C29.1549 74.5839 29.1754 74.6197 29.1856 74.635L29.2368 74.7424L29.3339 74.9367L29.6919 75.6578L30.4488 75.8828L30.8579 75.9902L31.6659 76.1845C32.208 76.3073 32.7552 76.4044 33.3024 76.4965C34.407 76.6653 35.527 76.7727 36.6725 76.7522L38.396 76.6806C38.9432 76.6653 39.4852 76.6653 40.012 76.701C41.0604 76.7675 42.0627 76.9721 42.8809 77.4017C43.2492 77.5909 43.556 77.8415 43.8526 78.1227C44.1594 78.4245 44.4919 78.8643 45.0237 79.2939C45.2896 79.5086 45.6272 79.7081 46.0056 79.8359C46.3789 79.9638 46.7574 80.0047 47.1 79.9996C47.7853 79.9894 48.3427 79.8513 48.8388 79.7285C50.8844 79.2683 52.8737 78.6086 54.817 77.8517C61.588 75.0953 67.5611 70.9069 73.2019 66.5242C74.6133 65.4247 76.0095 64.3098 77.3954 63.1898C77.738 62.8983 78.0807 62.6733 78.5051 62.2335C78.7046 62.0136 78.9142 61.7426 79.0472 61.3999C79.1802 61.0624 79.2262 60.6789 79.1955 60.3465C79.1393 59.6868 78.8529 59.0986 78.4591 58.6435C78.05 58.173 77.5744 57.8866 77.1141 57.6514C76.1731 57.2065 75.3447 57.0224 74.6747 56.6439C73.9792 56.2706 73.34 55.7694 72.7519 55.1864C71.5807 54.0102 70.65 52.5374 69.7295 51.0338L69.4635 50.5992C69.3971 50.4815 69.3459 50.3741 69.3255 50.2872C69.2692 50.0673 69.2948 49.9292 69.3562 49.8014C69.4942 49.5303 70.1028 49.2542 70.7011 49.1672L72.803 48.799C73.1456 48.7428 73.4832 48.6916 73.8207 48.6507L74.327 48.6047L74.6492 48.5842L75.0787 48.5689C75.5083 48.5178 75.8612 48.4666 76.1322 48.1496C76.2601 48.0012 76.3419 47.8069 76.3675 47.6279C76.3777 47.4489 76.3265 47.2393 76.3112 47.0449C76.301 46.8455 76.2294 46.6511 76.1731 46.4568L76.0299 45.9608L75.7998 45.1732C75.493 44.1299 75.2219 43.102 75.0429 42.0639C74.8946 41.2456 74.8333 40.4683 74.7617 39.5887C74.6849 38.7142 74.552 37.8397 74.3372 36.9652C74.1224 36.0958 73.8207 35.2316 73.3707 34.4133C72.9257 33.6002 72.312 32.828 71.5092 32.2706C71.3097 32.1325 71.1103 31.9944 70.8852 31.887C70.6705 31.7694 70.4506 31.6671 70.2204 31.5853C69.7653 31.4216 69.305 31.3091 68.855 31.2426C67.9498 31.1046 67.0855 31.0892 66.2673 31.0176C65.4491 30.9511 64.682 30.8233 64.0171 30.5165C63.3574 30.2147 62.7693 29.6982 62.2119 29.1101C61.1226 27.9032 59.9873 26.6503 59.5015 25.2388C59.2713 24.5433 59.2355 23.8222 59.5168 23.1881C59.7725 22.5437 60.3197 21.9761 60.9129 21.4186C61.5062 20.851 62.1812 20.2987 62.7182 19.5162C63.2807 18.7594 63.5057 17.6343 63.2449 16.7035C62.9994 15.7779 62.5238 15.0159 62.084 14.3051C61.6493 13.5993 61.184 12.9089 60.9999 12.2185C60.8874 11.8759 60.9078 11.5486 60.9641 11.2315C61.0254 11.0781 61.0561 10.9247 61.1482 10.7713C61.2351 10.6127 61.3476 10.4491 61.4704 10.265C61.588 10.0809 61.7158 9.87633 61.813 9.62574C61.9153 9.3547 61.9664 9.04275 61.9102 8.75125C61.8641 8.46486 61.7056 8.17336 61.5317 7.9688C61.363 7.76424 61.1737 7.60571 60.9948 7.46763C59.5117 6.35278 57.732 6.12776 56.5251 5.19701C55.9165 4.74187 55.4154 4.12819 55.2824 3.45825C55.2159 3.1105 55.2517 2.82411 55.3591 2.38942C55.4051 2.17975 55.4563 1.92916 55.4409 1.64789C55.4256 1.36151 55.3233 1.08024 55.1597 0.850108C54.5204 -0.0448433 53.2573 -0.213606 52.393 0.251768L50.1377 1.35128L48.2609 2.25646C47.637 2.56841 47.0182 2.82923 46.3687 3.20255C46.0516 3.39177 45.7346 3.64236 45.4891 3.93897C45.2385 4.23047 45.0493 4.54753 44.8703 4.84926C44.4919 5.46806 44.2362 6.15845 44.0214 6.82327C43.8424 7.37047 43.6583 8.0046 43.5662 8.43418C43.4793 8.84841 43.3259 9.37516 43.1315 9.75871C43.0344 9.95304 42.9219 10.1013 42.8298 10.2087C42.7275 10.3059 42.6508 10.3775 42.6559 10.4286C42.6406 10.5054 42.9935 10.4798 43.3105 10.1627C43.6276 9.86099 43.868 9.3905 44.0469 8.99161L44.0725 9.03252Z" fill="#5C3A2E" stroke="#4C352A" stroke-width="2" mask="url(#path-13-inside-1_288_6257)"/>
</svg>
