<svg width="152" height="158" viewBox="0 0 152 158" fill="none" xmlns="http://www.w3.org/2000/svg">
<path d="M119.746 26.7996C121.2 28.1604 122.488 29.693 123.579 31.3691C126.531 35.8814 128.259 41.4407 128.604 47.4431C128.982 54.6287 127.536 62.2136 124.16 70.654L124.012 71.0144C122.838 73.9429 121.62 76.9734 119.905 79.8806C119.783 80.0795 119.693 80.238 119.618 80.3955C117.392 85.187 114.575 89.368 112.37 92.4858C109.143 97.0235 105.655 101.816 101.644 106.061C101.464 106.249 101.315 106.465 101.151 106.667L100.842 107.047C97.995 110.546 94.9026 113.972 91.6595 117.257L91.4463 117.47C90.6609 118.272 89.8614 119.075 89.0609 119.864C88.2276 120.692 87.368 121.553 86.5139 122.391C82.3022 126.605 77.6121 130.429 72.6249 133.704C71.6136 134.409 70.6163 134.998 69.6537 135.578C69.2439 135.821 68.8416 136.07 68.4318 136.313C68.3293 136.374 68.2203 136.443 68.1103 136.496C67.7399 136.691 67.377 136.892 67.0076 137.101C65.9736 137.671 64.8982 138.259 63.706 138.794C62.0975 139.58 60.5338 140.181 59.004 140.756C56.9129 141.532 55.001 142.006 53.1302 142.234C50.9707 142.491 47.743 142.445 44.6186 140.788C44.5451 140.748 44.4717 140.708 44.3907 140.66C44.0744 140.478 43.7788 140.287 43.5189 140.101C43.4097 140.056 42.8487 139.815 42.8487 139.815C42.0195 139.481 41.208 138.977 40.1335 138.128C39.559 137.676 39.0495 137.242 38.5673 136.791C37.5049 135.797 36.6239 134.759 35.8718 133.628C34.6521 131.832 33.8205 129.674 33.3269 127.034C32.8266 124.289 32.3791 121.593 31.9438 118.979L31.4043 115.727C30.8771 112.558 30.3357 109.276 30.0865 105.798C29.7781 101.61 30.0248 97.4566 30.8201 93.4613C31.5105 89.8232 32.6382 86.0392 34.1628 82.2567C37.0235 75.0701 40.8589 68.6105 44.2455 62.8982C46.9188 58.4541 49.7711 54.1489 52.5333 49.9872L52.6826 49.771C57.2689 42.8614 62.3062 36.9145 67.6413 32.086C73.8474 26.4643 80.5605 22.2421 87.5964 19.5317C90.261 18.5238 92.7466 17.9319 95.227 17.7052C97.9171 17.4328 100.956 17.743 103.73 18.5741C105.087 18.9615 106.33 19.4409 107.493 19.9032L110.703 21.2271C113.353 22.3409 115.475 23.501 117.413 24.8873C118.223 25.4742 119.015 26.1157 119.768 26.8208L119.746 26.7996Z" fill="#F7F6EF"/>
<path d="M46.5902 132.527C46.0586 132.015 45.6476 131.502 45.0619 130.926C44.0269 129.9 43.1184 128.751 42.6111 127.553C42.1059 126.384 41.931 124.957 41.7589 123.363C41.3975 120.129 40.9774 116.869 40.464 113.593C39.9964 110.572 39.5742 107.594 39.4353 104.711C39.1282 99.7688 39.8661 94.9534 41.272 90.2525C42.7914 85.1328 45.1489 80.2303 47.7407 75.4335C50.3685 70.642 53.1158 65.8347 55.9819 61.2097C61.7284 51.9586 68.2401 43.2112 76.4231 36.4969C80.9934 32.7152 86.0934 29.6283 91.5674 27.6578C94.2782 26.7047 97.1222 26.1461 99.8701 26.576C102.619 27.021 105.403 28.2933 108.128 29.4403C110.829 30.6346 113.426 32.0871 115.419 34.2657C117.426 36.4283 118.863 39.1928 119.723 42.1412C121.482 48.0885 120.772 54.5615 119.061 60.5239C116.099 70.5372 111.484 80.0387 105.47 88.3717C102.642 92.309 99.665 96.1347 96.6054 99.8975C93.5459 103.66 90.4105 107.352 87.0295 110.771C84.8191 113.03 82.5142 115.257 80.1759 117.411C76.5944 120.699 72.7286 123.565 68.7744 126.277C68.1793 126.713 67.5378 127.092 66.9093 127.454L65.268 128.373L63.5999 129.209C62.5044 129.801 61.3496 130.253 60.2216 130.786C57.9358 131.726 55.6496 132.764 53.3588 133.315C51.3506 133.848 49.3209 133.75 47.6945 133.632C46.6495 133.505 46.495 133.843 47.9088 134.698C49.5291 135.562 51.4823 135.787 53.2925 135.581C54.8984 135.395 56.4454 134.971 57.9069 134.437C59.3609 133.897 60.8215 133.349 62.2293 132.652C63.6565 132.03 65.0147 131.229 66.3998 130.511C67.7354 129.689 69.1033 128.927 70.3923 128.047C75.076 124.996 79.4693 121.432 83.4709 117.43C84.3098 116.612 85.1542 115.771 85.9985 114.929C86.8505 114.095 87.7014 113.245 88.5241 112.398C91.5931 109.297 94.5246 106.053 97.31 102.643C97.6703 102.2 98.0276 101.712 98.4061 101.328C102.095 97.4311 105.369 92.9459 108.562 88.4432C111.024 84.9722 113.402 81.3091 115.219 77.3338C115.38 76.9879 115.575 76.6169 115.773 76.2914C117.308 73.6979 118.451 70.7809 119.579 67.9486C122.046 61.7293 123.918 54.7968 123.501 47.4946C123.215 42.9696 121.982 38.3947 119.425 34.5112C118.159 32.5876 116.515 30.8496 114.694 29.5422C112.88 28.2268 110.962 27.2685 109.076 26.468L105.929 25.1671C104.871 24.7442 103.777 24.3161 102.611 23.9766C100.56 23.3472 98.2186 23.0572 96.0541 23.2728C93.8733 23.459 91.8096 24.0103 89.8572 24.7367C83.1095 27.2886 77.0071 31.2962 71.6569 36.1357C66.2991 40.9681 61.6934 46.6325 57.708 52.6505C54.8998 56.8758 52.0872 61.1394 49.4655 65.4966C45.9761 71.3972 42.4646 77.3906 39.879 83.9529C38.593 87.1765 37.565 90.5425 36.9137 94.0198C36.2473 97.483 36.0595 101.096 36.334 104.617C36.6019 108.146 37.2246 111.568 37.7886 114.962C38.3754 118.378 38.9298 121.736 39.5676 125.171C39.849 126.598 40.3017 128.143 41.176 129.416C42.0144 130.684 43.0842 131.699 44.2013 132.575C44.6586 132.932 45.2037 133.329 45.6269 133.498C46.4233 133.832 47.6566 134.434 47.8622 134.115C48.036 133.852 47.179 133.149 46.5857 132.565L46.5902 132.527Z" fill="#5C3A2E"/>
<path d="M57.395 79.7232C57.5248 79.5472 57.7142 79.4127 57.8068 79.3152C57.846 79.2669 57.8873 79.2489 57.9231 79.2541L57.9382 79.2682C57.9382 79.2682 57.8928 79.2257 57.8701 79.2045C57.8096 79.1478 57.7879 79.1416 57.7501 79.1062C57.7047 79.0637 57.6961 79.0415 57.7274 79.085L57.737 79.1223C57.7456 79.1445 57.6586 78.9072 57.694 79.0112L57.7047 79.0637C57.7259 79.1687 57.6729 79.4307 57.6095 79.5414C57.5778 79.5968 57.5582 79.6209 57.5647 79.6129L57.5974 79.5726L57.6105 79.5565C57.6563 79.5002 57.1706 79.9665 57.384 79.7696L57.3709 79.7856C57.3035 79.8358 57.5363 81.0742 57.7718 81.9322C57.9986 82.7681 58.1494 83.632 58.2991 84.4807C58.5474 85.946 58.8586 87.3994 59.246 88.8248C60.088 91.9372 60.8539 95.0775 61.6143 98.241C61.9903 99.8116 62.405 101.433 62.7411 102.938C63.0857 104.465 63.2961 105.895 63.299 107.4C63.3077 109.094 63.0569 110.829 62.6791 112.572C62.4902 113.444 62.2731 114.318 62.0343 115.185C61.9154 115.626 61.8021 116.045 61.6781 116.41C61.6123 116.59 61.5389 116.762 61.4645 116.919C61.4087 117.037 61.3323 117.163 61.2472 117.268C60.9222 117.701 60.2896 117.987 59.7732 117.687C59.5079 117.538 59.3328 117.36 59.1006 117.072C58.8447 116.747 58.5716 116.378 58.3278 116.022C57.3306 114.593 56.5012 113.022 55.9628 111.356C55.5005 109.974 55.3162 108.512 55.0693 106.963C54.829 105.406 54.4149 103.899 54.0864 102.401C53.7782 100.993 53.395 99.628 53.2441 98.2397C53.0715 96.8453 53.0672 95.4242 53.3416 94.0374C53.5284 93.1354 53.7002 92.2193 53.9152 91.3153C54.2179 89.9266 54.7958 88.6256 55.1559 87.2482C55.2196 87.0386 55.2758 86.822 55.3688 86.6257C55.9925 85.2683 56.7125 83.9729 57.0861 82.4805C57.248 81.8386 57.5022 81.1981 57.1752 80.4526C56.9655 79.9728 56.7164 79.8529 56.369 80.1654C55.9673 80.5119 55.5893 80.8948 55.3011 81.3477C54.274 82.9224 53.6756 84.7569 53.0253 86.5569C52.4397 88.1625 51.894 89.8337 51.6583 91.5827C51.5655 92.3035 51.4107 93.0513 51.2625 93.7911C51.0077 95.1537 50.884 96.5683 51.0228 97.9878C51.0493 98.1684 51.0974 98.3552 51.0815 98.5387C50.8792 100.361 51.552 102.026 51.8357 103.595C52.0676 104.818 52.1824 105.989 52.5114 107.076C52.5392 107.173 52.5399 107.287 52.533 107.394C52.4267 108.23 52.6435 109.127 52.7732 110.099C53.0663 112.329 54.0632 114.381 55.0805 116.213C55.3962 116.792 55.7391 117.354 56.0951 117.899L56.6388 118.706L56.9518 119.141C57.1225 119.357 57.3158 119.595 57.5211 119.801C58.3285 120.628 59.3965 121.118 60.4764 121.052C61.5498 120.995 62.5817 120.431 63.3022 119.561C64.1843 118.459 64.4372 117.591 64.6787 116.868C65.0425 115.65 65.4841 114.533 65.7602 113.275C66.2221 111.1 66.6052 108.809 66.5428 106.427C66.4707 104.007 65.8899 101.819 65.2715 99.809C64.8278 98.3874 64.648 96.8871 64.3574 95.4247C63.9668 93.4294 63.4861 91.463 62.9282 89.5095L61.3033 83.7369C61.0324 82.7748 60.741 81.8217 60.4354 80.8695L59.9623 79.4347C59.7722 78.9308 59.5381 78.3006 58.9529 77.8235C58.5095 77.4508 57.8616 77.1984 57.1715 77.4733C56.8541 77.6013 56.5808 77.8555 56.4159 78.1404C56.2509 78.4252 56.1707 78.7043 56.1251 78.9734C56.0972 79.1881 56.0713 79.4331 56.1597 79.5867C56.3148 79.8878 56.4423 80.3048 56.8026 80.2879C57.0989 80.2678 57.2542 79.9456 57.4036 79.7454L57.395 79.7232Z" fill="#5C3A2E"/>
<path d="M71.0901 58.6361C71.0673 58.9262 70.9871 59.2051 71.0434 59.5127C71.4415 61.7263 72.4075 63.7495 73.5417 65.4346C74.069 66.2114 74.5202 67.0163 74.9205 67.8018C75.6127 69.1296 76.1975 70.4418 76.8535 71.8632C79.7128 78.0947 81.9853 84.6547 82.7095 91.4643C82.9245 93.3789 82.9778 95.3122 82.8392 97.2356C82.7625 98.2966 82.7509 98.7532 82.3264 99.177C81.8837 99.5413 81.2788 99.4988 80.7153 99.1269C80.0858 98.7216 79.4598 97.9514 78.8022 97.2365C78.1511 96.5136 77.5142 95.7898 76.8762 95.0508C75.6218 93.5789 74.4208 92.0579 73.3416 90.4526C71.5529 87.7866 69.9538 84.8875 69.3328 81.6864C68.7414 78.7111 68.4987 75.5527 69.1274 72.5022C69.3286 71.5011 69.5428 70.4839 69.7213 69.4616C69.9984 67.9084 70.489 66.3712 70.6935 64.7926C70.7269 64.5549 70.7669 64.3091 70.8295 64.0846C71.2954 62.4958 71.8729 61.1957 72.4271 59.7605C72.668 59.1365 73.0335 58.5724 72.9272 57.7365C72.8696 57.2011 72.6643 56.9948 72.1928 57.2471C71.6734 57.5254 71.1753 57.9087 70.7755 58.384C70.0816 59.2211 69.5637 60.2513 69.2256 61.3225C68.8799 62.3865 68.6829 63.4481 68.4751 64.4572C68.1007 66.2448 67.6688 68.0212 67.448 69.8819C67.3584 70.6475 67.1992 71.4331 67.04 72.2186C66.7472 73.6437 66.529 75.1245 66.5611 76.6414C66.5745 76.838 66.603 77.0487 66.573 77.2331C66.2329 79.1095 66.6906 81.0532 67.0737 82.9412C67.3706 84.3946 67.713 85.8904 68.465 87.161C68.5296 87.2781 68.5735 87.4042 68.6034 87.5313C68.8359 88.5561 69.4126 89.436 69.8831 90.3155C70.9165 92.2884 72.3121 93.9634 73.608 95.6299C74.4161 96.6839 75.2297 97.7148 76.0619 98.7064C76.4785 99.2098 76.9007 99.69 77.3303 100.177C77.7817 100.671 78.341 101.294 79.1696 101.814C79.3838 101.944 79.6867 102.129 79.9996 102.252C80.306 102.383 80.6319 102.49 80.9548 102.551C81.6082 102.682 82.2795 102.659 82.8972 102.473C84.0077 102.139 84.9327 101.263 85.4067 100.107C85.5292 99.8252 85.6291 99.5222 85.6997 99.206C85.7713 98.9049 85.8023 98.7357 85.8443 98.5202C85.9143 98.0901 85.9351 97.7696 85.9603 97.4109C86.2709 92.4907 85.7877 87.5637 84.3195 83.0453C83.8019 81.4703 83.484 79.8133 83.0011 78.2282C82.3522 76.0772 81.5307 73.9911 80.6015 71.9883C79.6895 70.0298 78.7497 67.9745 77.5186 66.1138C76.3166 64.2662 74.987 62.6247 73.8226 60.9113C73.3558 60.1911 72.9228 59.4458 72.5527 58.6886C72.4784 58.5341 72.4022 58.3494 72.2681 58.2522C72.015 58.0719 71.7844 57.7002 71.4446 57.8068C71.1536 57.9026 71.1108 58.3156 71.076 58.637L71.0901 58.6361Z" fill="#5C3A2E"/>
<path d="M91.5537 35.2162C91.6527 35.4222 91.6973 35.6622 91.8084 35.837C92.6461 37.1171 92.9562 38.5547 93.7608 40.2853C94.1254 41.0658 94.509 42.0197 94.9558 42.863C95.3229 43.5749 95.6752 44.1739 95.9227 44.6889C96.1615 45.1817 96.3591 45.6924 96.578 46.3081C96.8065 46.9611 97.0301 47.7512 97.2593 48.5181L97.9261 50.8278C98.3562 52.3635 98.7711 53.8851 99.1155 55.4115C99.8185 58.4632 100.274 61.5242 100.263 64.6017C100.26 66.3264 100.066 68.0565 99.6473 69.7183C99.5481 70.1352 99.4197 70.539 99.2988 70.9499C99.1683 71.3234 98.9907 71.8368 98.9032 72.0099C98.7149 72.4709 98.2683 72.9875 97.7125 72.8353C97.4536 72.777 97.2232 72.6179 97.0059 72.4427C96.7421 72.2099 96.3821 71.9153 96.0861 71.624C95.4658 71.0432 94.8978 70.3981 94.3701 69.7198C93.3005 68.3643 92.3824 66.8389 91.5458 65.2625C90.847 63.9425 90.1819 62.5975 89.5234 61.2444C88.8714 59.8833 88.227 58.5292 87.8333 57.1126C87.1016 54.473 86.7233 51.6119 87.0964 48.7605C87.2171 47.8255 87.3152 46.8692 87.386 45.9299C87.5 44.4788 87.8307 43.0889 87.9619 41.6821C87.9899 41.4675 88.0102 41.2458 88.0674 41.0444C88.4807 39.6185 88.9943 38.3149 89.3164 36.9028C89.4511 36.2783 89.7027 35.7066 89.4389 34.9497C89.2705 34.4521 89.0336 34.3011 88.6496 34.5931C88.2113 34.9191 87.8139 35.326 87.5128 35.7947C86.437 37.4783 86.1005 39.5144 85.7473 41.4072C85.4382 43.1147 85.2006 44.8326 85.1886 46.5351C85.1794 47.2346 85.0942 47.9621 85.008 48.6745C84.8348 49.9853 84.7212 51.3377 84.8438 52.7272C84.8562 52.9087 84.9042 53.0953 84.8808 53.2717C84.6518 55.0117 85.1839 56.7988 85.6838 58.5273C86.0572 59.8542 86.4698 61.1328 87.1284 62.1744C87.1845 62.2694 87.2209 62.3884 87.2422 62.4934C87.4015 63.379 87.8779 64.1367 88.224 64.9564C88.9979 66.7575 90.0553 68.4557 91.1636 70.1732C91.8525 71.2432 92.6119 72.3083 93.4855 73.2821C93.9153 73.7695 94.3864 74.2389 94.8836 74.6761C94.9895 74.7753 95.1256 74.9027 95.3873 75.1053C95.6122 75.2875 95.8426 75.4466 96.0785 75.5825C96.5578 75.8614 97.0593 76.0476 97.5731 76.1039C98.7298 76.238 99.9093 75.7704 100.704 74.8428C101.065 74.4307 101.373 73.954 101.629 73.4429C101.847 73.0102 101.95 72.7525 102.085 72.4395C102.347 71.8214 102.567 71.1912 102.729 70.5497C103.838 66.0225 103.791 61.3612 102.738 57.1177C102.361 55.6316 102.201 54.1079 101.88 52.6179C101.46 50.6104 100.889 48.6589 100.278 46.7556C99.9658 45.812 99.6628 44.7918 99.2057 43.7973C98.7324 42.7735 98.1153 41.9266 97.5945 41.1415C96.5525 39.6701 95.8994 37.7697 94.6012 36.0727C94.079 35.3712 93.4611 34.7219 92.706 34.2415C92.5578 34.1452 92.3728 34.0286 92.2046 34.0552C91.8878 34.0843 91.4726 34.0214 91.3552 34.3788C91.2554 34.6819 91.4517 34.9648 91.5733 35.1921L91.5537 35.2162Z" fill="#5C3A2E"/>
<path d="M106.618 55.336C106.703 55.3303 106.818 55.3529 106.909 55.3391C107.245 55.2858 107.484 55.1556 107.678 54.9829C107.887 54.8243 108.05 54.6233 108.169 54.3948C108.283 54.1896 108.418 53.9904 108.554 53.7913C108.792 53.4483 108.965 53.0719 109.066 52.67C109.45 50.9191 109.548 49.127 109.29 47.4122C108.989 45.4875 108.476 43.676 107.883 41.9308C107.642 41.195 107.283 40.5052 107.015 39.7864C106.763 39.0969 106.293 38.5438 106.075 37.8293C106.002 37.5911 105.902 37.3699 105.789 37.1649C105.611 36.8426 105.494 36.4783 105.235 36.2072C105.197 36.1718 105.158 36.1212 105.133 36.0697C104.981 35.7002 104.754 35.3889 104.407 35.1769C104.259 35.0806 104.123 34.9683 103.879 35.0228C103.718 35.0566 103.652 35.1218 103.661 35.258C103.672 35.4092 103.682 35.5605 103.719 35.6947C103.85 36.1569 104.109 36.5268 104.326 36.9147C104.514 37.2743 104.66 37.6519 104.867 37.9873C104.954 38.1257 105.015 38.2963 105.048 38.4689C105.126 38.7827 105.197 39.0894 105.335 39.3611C105.359 39.3975 105.389 39.4258 105.378 39.4721C105.325 39.9317 105.606 40.2089 105.688 40.5832C105.764 40.8668 105.771 41.1854 105.963 41.4079C105.978 41.422 105.974 41.4603 105.976 41.4906C105.914 41.7303 106.046 41.8961 106.081 42.0989C106.161 42.5418 106.378 42.9297 106.471 43.3564C106.599 43.8872 106.651 44.4459 106.849 44.9567C106.908 45.0971 106.912 45.2564 106.95 45.4057C107.011 45.6751 106.966 45.9593 107.034 46.2206C107.247 47.1711 107.227 48.1298 107.415 49.1275C107.482 49.4877 107.349 49.8159 107.287 50.1544C107.197 50.6088 107.129 51.0692 107.076 51.5439C106.97 52.4781 106.646 53.3511 106.332 54.2462C106.259 54.4335 106.171 54.5914 106.136 54.8141C106.125 54.8605 106.114 54.9068 106.139 54.9583C106.182 55.0694 106.175 55.1762 106.287 55.2673C106.378 55.3523 106.498 55.3366 106.596 55.3299L106.618 55.336Z" fill="#5C3A2E"/>
<path d="M55.9625 127.584C55.9835 127.476 56.0262 127.375 56.0049 127.27C55.8973 126.518 55.6216 125.793 55.1775 125.194C54.9889 124.918 54.7928 124.635 54.5902 124.361C54.2605 123.882 53.8851 123.46 53.477 123.078C51.7237 121.436 49.95 120.016 48.6167 118.202C47.1186 116.149 46.3835 113.451 45.9061 110.797C45.7034 109.688 45.4997 108.563 45.4087 107.431C45.3294 106.366 45.1438 105.301 45.1913 104.228C45.21 103.877 45.2135 103.513 45.2106 103.156C45.2094 102.618 45.2646 102.075 45.2201 101.524C45.2139 101.433 45.2088 101.358 45.2102 101.274C45.2568 100.709 45.2818 100.139 45.193 99.5603C45.169 99.3114 45.144 99.0475 45.018 98.8588C44.9393 98.7427 44.8895 98.7385 44.8303 98.9095C44.7722 99.0955 44.7075 99.2897 44.671 99.4819C44.5199 100.175 44.5183 100.881 44.4875 101.574C44.445 102.199 44.41 102.831 44.4456 103.459C44.4565 103.724 44.4533 103.99 44.436 104.256C44.3984 104.745 44.3889 105.231 44.4293 105.721C44.4334 105.782 44.4451 105.849 44.4351 105.911C44.3352 106.525 44.4683 107.13 44.4811 107.737C44.4988 108.206 44.4818 108.685 44.5982 109.148C44.6078 109.185 44.6108 109.231 44.5998 109.277C44.552 109.614 44.645 109.942 44.6675 110.274C44.7308 110.998 44.9134 111.707 45.0331 112.427C45.1932 113.327 45.3403 114.243 45.662 115.124C45.7498 115.376 45.8302 115.621 45.9039 115.874C46.0615 116.319 46.1919 116.781 46.4048 117.206C47.1293 118.705 48.1164 120.111 49.3098 121.115C49.7234 121.474 50.0782 121.905 50.4581 122.289C50.9751 122.815 51.5172 123.295 52.0582 123.759C53.1328 124.68 54.0877 125.716 54.8948 126.867C55.0531 127.115 55.218 127.354 55.3557 127.61C55.3804 127.662 55.4202 127.727 55.4711 127.747C55.5803 127.792 55.6872 127.906 55.7837 127.869C55.8662 127.833 55.8776 127.689 55.9051 127.573L55.9625 127.584Z" fill="#5C3A2E"/>
</svg>
